<mxfile host="app.diagrams.net" agent="Mozilla/5.0 (Windows NT 10.0; Win64; x64) AppleWebKit/537.36 (KHTML, like Gecko) Chrome/123.0.0.0 Safari/537.36" version="24.7.4">
  <diagram name="Page-1" id="2YBvvXClWsGukQMizWep">
    <mxGraphModel dx="957" dy="549" grid="1" gridSize="10" guides="1" tooltips="1" connect="1" arrows="1" fold="1" page="1" pageScale="1" pageWidth="850" pageHeight="1100" math="0" shadow="0">
      <root>
        <mxCell id="0" />
        <mxCell id="1" parent="0" />
        <mxCell id="LZN4CvvohTynmMFe8kbo-1" value="" style="rounded=1;whiteSpace=wrap;html=1;" vertex="1" parent="1">
          <mxGeometry x="180" y="150" width="480" height="140" as="geometry" />
        </mxCell>
        <mxCell id="LZN4CvvohTynmMFe8kbo-30" style="edgeStyle=elbowEdgeStyle;rounded=0;orthogonalLoop=1;jettySize=auto;html=1;exitX=1;exitY=0.5;exitDx=0;exitDy=0;" edge="1" parent="1" source="LZN4CvvohTynmMFe8kbo-2" target="LZN4CvvohTynmMFe8kbo-1">
          <mxGeometry relative="1" as="geometry" />
        </mxCell>
        <mxCell id="LZN4CvvohTynmMFe8kbo-2" value="" style="rounded=0;whiteSpace=wrap;html=1;" vertex="1" parent="1">
          <mxGeometry x="210" y="195" width="90" height="50" as="geometry" />
        </mxCell>
        <mxCell id="LZN4CvvohTynmMFe8kbo-3" value="" style="rounded=0;whiteSpace=wrap;html=1;" vertex="1" parent="1">
          <mxGeometry x="320" y="195" width="90" height="50" as="geometry" />
        </mxCell>
        <mxCell id="LZN4CvvohTynmMFe8kbo-4" value="" style="rounded=0;whiteSpace=wrap;html=1;" vertex="1" parent="1">
          <mxGeometry x="430" y="195" width="90" height="50" as="geometry" />
        </mxCell>
        <mxCell id="LZN4CvvohTynmMFe8kbo-5" value="" style="rounded=0;whiteSpace=wrap;html=1;" vertex="1" parent="1">
          <mxGeometry x="540" y="195" width="90" height="50" as="geometry" />
        </mxCell>
        <mxCell id="LZN4CvvohTynmMFe8kbo-6" value="" style="image;sketch=0;aspect=fixed;html=1;points=[];align=center;fontSize=12;image=img/lib/mscae/User_Privacy.svg;" vertex="1" parent="1">
          <mxGeometry x="80" y="180" width="50.4" height="70" as="geometry" />
        </mxCell>
        <mxCell id="LZN4CvvohTynmMFe8kbo-7" value="" style="dashed=0;outlineConnect=0;html=1;align=center;labelPosition=center;verticalLabelPosition=bottom;verticalAlign=top;shape=mxgraph.weblogos.github" vertex="1" parent="1">
          <mxGeometry x="210" y="30" width="60" height="60" as="geometry" />
        </mxCell>
        <mxCell id="LZN4CvvohTynmMFe8kbo-8" value="" style="verticalLabelPosition=bottom;html=1;verticalAlign=top;align=center;strokeColor=none;fillColor=#00BEF2;shape=mxgraph.azure.github_code;pointerEvents=1;" vertex="1" parent="1">
          <mxGeometry x="240" y="230" width="30" height="30" as="geometry" />
        </mxCell>
        <mxCell id="LZN4CvvohTynmMFe8kbo-9" value="" style="shape=image;verticalLabelPosition=bottom;labelBackgroundColor=default;verticalAlign=top;aspect=fixed;imageAspect=0;image=data:image/png,iVBORw0KGgoAAAANSUhEUgAAAoAAAACiCAYAAADRNnw3AAAABGdBTUEAALGPC/xhBQAAACBjSFJNAAB6JgAAgIQAAPoAAACA6AAAdTAAAOpgAAA6mAAAF3CculE8AAAABmJLR0QA/wD/AP+gvaeTAAAAB3RJTUUH6AcJDgwJJhx6dwAAS8RJREFUeNrtnXe8HFX5h5939t7kJjc9gRAMkEBIgEAKoXeRKlUELCCKIP5Q6UUB0YiUEKSJDRQLClJUkKYgAtIlJCEJIb0BJrQUkty6O/P+/jiz9+7u3dt3z87sPc/ns8ndNnP2zMyZ73nPW8DhcDgcDofD4XA4HA6Hw+FwOBwOh8PhcDgcDofD4XA4HA6Hw+FwOBwOh8MReSQGbfSAw4GvANsBI0rYbgU+BOYAfwJe7uHnzxjgEmAKMDQC7VkDvARcA9S6y9vhcDgcjniyMzAvFF5RfEzvocclAVwNJCN6XF4DKt3l43A4HA5H/KgAVkZY/KUfJ/aw4yLAgzE4Lie7S8jhcDgcjvx4EW7bcZgl36hzUg87Zy4HTolBO3dwl7fD4XA4HPHjSaJvZVJgeQ86JlsDm2NyXM5yl5DD4XA4HPGiCuPEHwehEQDVPeS4/C4mx0SB/d1l5HA4HA5HvDg0RkJDgT16wDGZBPgxEuUD3GXkcDgcDkd+ouoDeGjM+nGXHnCuXE+0fUYzWQlsdJe3w+FwOBzxEoAHxqwfR5f5eXIgcHSM2vumu7QdDofD4YiXAOxF/JZUtyvz82RazNo7113aDofD4XDESwBOAvo6ARgZTgD2i1mb57lL2+FwOByOeAnAcTHsx3IVgAnguhi2e467tB0Oh8PhiJcAHBPDftyG+ARIdIbTgfExa/MGYJm7tB0Oh8PhiJcAHB/DfuwFjCizc6MS+GEM2z0LkwrG4XA4HA5HjARgXHPqlVvpsbOJZ3TzG+6ydjgcDocjXgJwKPH1pxtXRudFFXBlTNs+013WDofD4XDESwDGuaJGOQnAc4GRTgA6HA6Hw+EEoA2mxLgvx5bJOVENfDembV8PLHeXtcPhcDgc8RKAu8e4L8vFAng+MDymbZ+NCwBxOBwOhyN2AjDOS8DbYyJn48wg4NIYt98FgDgcDofDETMBGOcAEIAK4h8JfBkwJMbtn+UuaYfD4XA44iUA9yiD/twpxm3fAjgv5v3vLIAOh8PhcMRMAE4pg/6MswC8Gugf4/a7ABCHw+FwOJwALAlxDQTZDjgn5n3vKoA4HA6Hw+EEYEnYOabt/iHQO+Z97/L/ORwOh8MRM4ZirDdxf2yIYd+PBZJl0PenusvI4XA4HI6OERUL4JQy6c+BwIiYtflaTARz3HEWQIfD4XA4YiYA9yijPo1TIMgE4PNl0OcuAMThcDgcjhgKwCll1KdxEoA3Er1k4F3BBYA4HA6Hw9EJorL0V04CMC6RwAcAR5VJn7vl3x5GzR1jjldfP6fCyMCXdfgsQHh1QP+Bz8o3ZyZdDzkcDkf0BWDcK4DkEpdI4GvLqM+dAOxJ4u+XO/yOQL8GAgF4Xmj+Vdi48ZPVn9y0wyUDL1t2v+sph8PhaB2JQBuOAJ4qoz59JwaC9rPAE2XU52OAZe5yLn9q7xxzCqoPEoAqaCCgoOHzpteVv9TW1H5166mra12vORwOR0ui4P+1R5n16TZAVcRF/4/LqL9dAEhPmrEK3xDPjFzigXia8XfGQzi5urr6qdVTt+7res3hcDhaEoUl4Cll1qcCbAssjmj7TgF2L6P+dgEgPQT96ZgB9eghYERe01FXNZedmpdE0y/rAdXVfe/XqZwoUwlcD+Zn8107TqrAvyoI5Ej18TWQ14Mg+PGAC5a/5HrH4XAC0AnAzjEqogIwAUwts77uaf5/vTG5JhuAzUBfYLfwvWT4Wi7rgY+BjXH+4fW9dQpQmTnVSgtBRUPhJxnCEIDjNvXd8VJYMt0N99lsvHPssEpSt0LwZTU9mXYKOkLwDt98yw6X9bt42c1l9JOHAUOAwTmPIHykqQPeB9YAH4YPR3zoj4ktqMe4Y/UHasMxM00NsCo81rY4ETiSjq28NgB/CO9vVcClmNXFNHOAX7Tx/V2Bb9C8GqnAncDsKAnAcgsASRPV3/Q14luuricJwIHhxb5d+P9IjJ/jBGDHbly3KWAtsC78fy2wAuM/uRx4C+PDGklEdILmui0LiBjDXzoSRFXMpwJQD0B/vO6m0f8cctmKue7eGIrpX2//WcW/G5WtWnY0iCAq8pONN49ZP+CSpb+NqQjYA9gX2Dt8DO/ithrDa2M28CbwOvBGjmh02Gd8OPndGdgh47FFJ7bxMfBu+HgLmAG8DHxU4LZWAw9mTWDbZ314f/sSLd22FLg/HMtz6YeJq9g65/XFUROAU8r0xIyiAOwFXFWGfV0OAnA8cDywHzApFHzFoCK8CQ5vZ0CcBbwKPAP8F2NZLDk+7NbK1DkpHr1UQwNWekk4PUxCr4R4NwOH9/Q7pk49pKJuq3d/osr5tBIEKOluM+/+7JNbdnhh4MXLlkb4Z3nhvWTPjP93wax4FGrs3J1s15k1wKPAI+F1knJ6rPhzQGD/0JBxbDcEfSbDwsfkcAwOp47MBB4G/gi8V4D97NBJ8QeQdsHYv5W+2D0893L5bh7xB7Ag30ZKyZXAdWV4ot4LnB6xNl0A3FZm/bye5jrScSIRir0TwseYCLd1M/AP4M/Ak2Qvo1il9s4dngE+Iy1GLa0BqU4LvuyIYEED87qv3uGDLlr8TE+9e2765Q5bJjweBA6WPCO/qlHZGpg+Sz8ClYcHXbLkpAj+pH2BLwInt3LDs8Ua4HfA3cQ7IG0wJjfsARgL6ojwtY6QCsfj9ON94HngxQK0awhwDnBWCcbKIBT608LJcHcm3yeGk5UEcBzGspc5zl4N/C/s+xXAc+F7s0PDQC4XA7fmvDYaeJv8gajDyXFnKLUA/CtwEuXHy+FFFBWqMct8w8usn/8NHBaTtvbBpDw6IZy9bhHD/t4Q3uh+VoobXe2dOywNZ9Jm8JKmQWy9Zt6oNJ0iJi0IBX8zL9dv9DYNv2Hx0T1R/NX8eocpEvAwoR9RPgHYJJ4DUD9LBCpBMG7g5cuXROCnVIWi7zyiF8wWYCyCP8YsFccFAX4CfAdj7Swk3wW66n+7A3AhcGZ4Dys1DwOXA4Wwhh8VTqzT3BRuO9/5vpH81sPfhqI4t40n5vnsu5jg1CxKnQamnKJRc1V4lLigDMUfmKXKKOMBB4eWgffDm8OZMRV/AIOAi4AlwAOZYqzYqHH+G5nzWlq31OTezjJTwiRreaX+E28vlKM++O7YiT1O/N21/bES6H/IcCLX9mzm2QJRApXjS/wzPoVZLXonnITsHtHr/aRwXPo78akKdTXGmtSrCNu+gs4vfW4L/BpYGIrS6oj00+eAueEY2F3tNDbneWuuTBPa6L/dcp4f3or4a3X7pRSAwzDRsuXICKKTC3AQcEmZ9vMbEW1XVWihWI5ZBvk6MKCM+t0DTsUsNUzHWDeLysa7Rw7GREDnCkME/TivhvEgWSOvNK739swYRM/oUeLvzh2+KSqPNC2Rt03QQgSmraxSMn/tYZjlt6UYl6E4TJ4E4082D7gds6QXVbYBflDk+89unfjsrZhghbOJTqnaTPoAt2Asbd05rlM6eC/L/dy8jL/H0+znWkm2i9ebHdl+KQVguVr/0gPANhFpy3cxPhTlSNQCQCoxvipLgJ9SnhHumfQCLguPQ1Eta73pPaR11SI1+V5PfiKv1n/s7UV26piTNBoVkIqKgtT8csxUgV/RfjCEArUIXr6eEQERsX0uD8KUq1wZjmFVMTwMlcD5mJQd+0S0jadRuGCZ1vhUB+6XX8FY/C7MN9GLIMcD/wknKN3VP+to3aUmUwDWYVaUGsPnfWm2Mp+LCXwCs7T8w47cK0spAPcs8zF4VATasBXGElWORKkCiBcOpIsxuZZG0rPYGRM1fGyxduAH2rozekAQln9ron6DvFy31tsrjxVh1EdX7ljWy8A69ZCKD7839p769d6BHfh4EmR9eDNpvh23/HOQpeZXYJYjl2GyFlSXwSEZjQmGuIJoVN/KZD8L+2grQnoMJtjhHuLnpjQZE4Xb2dWdvmSnY5tJ64GMmQJwVnjfW5jThuEZgq8+vOfvmLOdWVETgOWaAiZNFKw/5TKA5uMNohH9uxPwGvAnyteloSP0Af4GfLkYG0/4XqsWQJFmH0BVqPvYe75xnbdva5YN1dgEDnWa+VPH9/qwbvUDwOnJjYxo67Nigno+Ah2S703JFoI2UgFNBF4Bbqb8Vi0qgOuBhyI2Jtu4D7dWFOFrGOvowTE+rhMx+fg6o6Um5YxNra1kVWGWedOko5Dfynjt6xh/7PT1ckc4eZqc8Zl3aCWZuROAxZ31lZJRmOXIciUKASDfCNtR7tbsjlKJyV5/XKE3vGGVDKl5NzHDr5P5LQRdeglY0boPvGeSG+WQNsc25cBy7Pwl543pPay+8SHEZFYQ2NlvaPXmuwpjQd+6FXGY9Ycim4rY9L6YKMg3esC1dBImSW+/CLRlBHbS5+Rbvr8aE8VaDrW6j6ZzfvZ75Dyf0Ya4zAwAeT38PzOf36EZAnodxl+WnOuoVV/5UgnALcgTklxmbF/i/U+lOFFdUaGUASBDwlnfXVgIgIihpeP+gk/wRPoFKfasfd/bpeYd76VkbfPxV3SzKo21qxOvpmqlbeueSQtzQLn5Aa6eOqVv/77e45Adrdu4IZEvie17wLuazw9b8nSMya69skhN3w/j2H4p0XT6Lwb7A49FQPzsYWk/Z2bMKUZhVgquobyuwR/Tctm1NSbnPG/NArh7K/e8t1r5/A9DETiQ7HyJs6ImAHuCxWSHEu57HMYnrZwplQCcFM7YvuC0Xqv0xaTqqCzUBj1tcgyXwJcD6j9I7LF5lfdW4ybmqq9ra9715vuNOf5MWXntwtx2vkAgQz68aOzocunsjy4f19/buPlpfDksnfswjV/LjmhWdO8qNT5EefOUSvofyfauUGlZRaC7kh6TTuP5CEyWS8EhwOMlnkDubWk/l2DOufmY5cnPleHx7E3H8x1m6p+PMNb49gR6ZqDI/DyfXYDxP09/z+vIvbJUAnD3HnCBl3JQu87ibHp9CX7f2jYummJyEsZHqSfesDrLbhQw/ZBKjjVbQX3Ztf7DxISN71a+qymZ3IrYC5MaS/i6efhFjlq2xepzpvRNNsijquyvAZD+rUFTN23j18uc8OPLgRckTJ7emVyAgs4uYLP7Y6zEtxRykhBDPo3x2SoVNiOTx2KiVL0yPp4n0tK6l29yPK6DhoxMnZQZKLIcE+yRycU0++nmrr5EzgJYCv+/Osv7G4q9yLncWYOt6io/Cn/nA5Z/Y1tRU8Xi1PCm5ZZ8O85lFGiZS3x6Z1WpyHhUJCXVlthrfqTfE9T3Yi8A371oZB/tVfOYBhySW76NoLkEXsN6+SScMP0Vk26jEx0PCA11Wv1CgZo9PrzpneouD8BUcihFNSwPe0vAPYkL2nl/Uo5x5s1WPteL7ACQ1zP+9jE5WNM8C/wz43nm2LYCY2WMlAC0feI9gPE7vMryfkthKboOO74VV2P8DBVYXQIBaJOTgPt6uLWiKwwhu95ll/EDr3ez6Gu29BGAH6jflthrEoYZ7+PHpkpDXlZ8bVQVtf0f0UAOJUv0CWSVcxOS9dK/cZM3za+XY4JGWaE+a1A2tCH4slCVl7a6bG5NAZp9IKbA/Vh3aWRxJ6ausU12xviKOQrLybQd5V2H8eFbjnEl+m0bU68XMj73h5z378Ysp79Iy3Jwi8PvLaadZelSON0Ox26etA/DDqrBRJpdgr0UAztgN1r1EEy92WLzaCg002xl+Ryy6f+3M8afLYGjK5weDlbdQnxNKOGypTaFpgIQqOB52vTcfIasz5jlTml6Lmq9qHzBmH/K+F6JXvogqkcQgIogqqhHsxOfKCKgwkeJIHFTw0f+7xFpGY2p1OBpmyleJOHdW4BmHxdOxJ0FvSXDMHnwdgqtOzbYy3V7UagGjsQEuuRjNh2rjNJA23XufxE+8vGj8NEupbAA2rb+PU5zrdBkKF5sYdsCeJ2FfWzG1GfMXIK1nbndlgVwMCZar5zKuNlmfwpQCivw0SYLYNrPL2iy5lVpik1ZFsCs5WAxvnEZ7wd+PAWgTj2kon8/7sfnuMwlX820/vmkrYGb/FRwZqDBTzWgKq/ThFCNyqA2Hr0rKxoe7mazz8KUznLir3XGYHdZfB/X5UUjNinuKnpA5zyX8/y/mASU5SYAj8VOVvdrgXdzXtto8Xe2FTVVSBKYZd8dInCd1mF8Pt4JHxvDSU0DUIux+wzH5PXaFpNqYUeisWRdiclT9Xi3hE8gAaFlTyHLCiiq/dWTtUD/7M/Q9BkAzbQcKoOWnDZmwI73Lt1ITFCQVSs++pWgnwMQEVML2VM0TN+iIoiJ4E3iBV9NeInpGuiWTVmdQ8tgJ5xEHhg8deWGbjT7Ikxi57Ivv1cAzgP+bGlfe7vuLho7OwEYDQG4Gfh7zms2/cdsiQcvFGbFZinZBafT2JzZ2zp+VwBHlei6TAH/Bp4MJzALaLucUj6qMS4BZ2B8GEuZY637VXF8grSA00xhp4B6A1T1A2BUK2Kv6e9MYVhVWTnc8uSlW6w6bfyN+JylIgih6BPQpuR9YXZDEVX0HE+8s9RnF7z050LRKIp4HZJkvhfItG40+Qwn/jrFvphI2beLvJ9qsgMMHIUlNqsLpbgp2FwC/i2Qm8F+LiaE2kZxcVsWwC9gJ63FJRirUy4jykwATsAEudimEfgpxlf1w25uqwZ4InzsDPyS0pVc2qLb+s8XlSwhJxnCTrYE3lVl79bEXpYwTPsOBrIlsCQOA/XyL+56qfpchqcZfn405esTMb9NPCVALvc89tRAjzEfEyMWm/wEO2YNVJV7tpi+aFEXm3xSOP6WWvzVY0o1vhT+7WEc5IeEj6Gh6JoU/l1qvoVxsSm2EaanJN2O54S3TAWgrdIzaf6a57UGTEj1QRb2vy1mCSxZ5GP4Iwu/5Wla95+0OZssdgBIJSbow3YVlccxuZyKIUgWAJ/BWG+/g326LQDx0UzRlxnoocpWCvMkaF3s5RWGIlvGQvx9ftfT1Wd6WviJaLj0Gy75ZlsDf+9VsBmfb6knzQmdJS38tKPWwEYR7eqqwmcw7hOlCJyqwfjtPhxOFt8NJ1YdYRtMsMqXML6rpRCvX8es5rxfxH3EpRDDJmARxuVndTgp/gizGjIOYzEdER63KFW9GoDxH18f9Q62LQBtWv+0DWvRS5YEYALjj1VMK8OZdLwETVdJYnx58jHW8sy52BbAS7GbqHw9zU7yxcQHzg8HJttVYrotBNT3Us3qLXuJV4WtSMqTWVd+rthL/6/S9Jqi/Yk4S06YcFwQ6O8EREUz/PxA00u+KsauJfoSIncHvj7TZOQTCcVe2k/QWANRDb+T3xqocPNW0xYv70KTJwKPYD8w7E3gduBBjF9sV3iX5ujKncIJ05GWf0efcKz9bhH3EeUghQXhWJgW8B3J99oX4wP/fxi3lyi4HGwbBwFoOwrYpgBcTXP0by4vW2zHTkXcdhV2lip/Tut+KYdY7MsPaBmAUkgGFXngzWUlxhn7YUv7U8wS0weWr/t13d5CIHXZUb0ZOf1SDBfl3dzo4NyE0S0iiFMS6UL0S46bsDuqfyagoinPn58d+ducA5B3GlO9vxl+vnfWe+mo6HyJorOihkm7Eb5LqqorGQUGY9Jf9LPYTfPCm/9k4PfdEH+5LMT4AJ+K8SW3yblhX/YUAbgOmBbeK3fB5Ot9g44n+68Nhf+hmPQ2cyIiACOPbQFo07Kyoo33XrXYjl2KuO1vYczfxb44r2njfZt+ZcW2/l2EveSoqzCJcW37oG0Ebo2bAAxSWtdGmpdhSd9b3abYy0gQTdP7nu3qQB1m0bETP6U+f9dAqrPFm2SLN/O8TlOJUyu9xp/hy8jc1DBZos/PFI1C7rbVF4JAvrPVTzqd+NkD7sWe33MNxqI9CePnWiwewtRNfs/i4e8PfKNI2x5AdIIUaoAfhmLpCsxyb3d5A7PE/asS/7YtiAHlbAFsK5JqPfCxpXbsVMRB4nsW2n8jbZuybSYULaYAHEz7ZXwKOfAdbfmmksl9lve3trsbUJXa5jJuks7/lxZ2XkUqqGtT7GWWiAvSuQCDjzWCEaoLjx/Xn6Q8qQEjyWexaxJroAGK6tfFS52sAZ/Osgz6mSKRLNGYKY5zrIF/3Gr6oq7kSp0antO2xoGJmDq6gYX9zQl/m82I8WOKaISJQj3eZzG+49fQ+kpdV0mGxpFflvD3xSLIxuaJMBK7FSNeaef9lZbaUaycQBdbmGWsBn7WzmzSZp68GUXc9nnYs/5djfF1KRXvYieXYpp3ui0Ak9Q2W//yLO8m6YUvNa2JvawScaEw9IS58/fe/YI5+02ITDDIG1OmVFJb9RcNdAI5yZ0zLXoZQu561KsPfO+SXJFHrnUv1xoYZFsDCWR1iooLu9DsY4HvW+qiP2AscsssH5q3sOs7u3eRRESpl38DzBLvYUUegxS4MDxupSDy/n+2BaDtE6+9Zd4VMRaAQ0MBWGy+T9s+NZOxa0EpVlm93uGM0Zb14qcRuPZtCsCF3R7NU6EPYE49YML/fV9Gqc/y1sRe85Jx0/vL6t6vbgxSTJWGxOlRGZD7VutN6ssRLat8kOHT1/T83xVBr3uDQO8hQFqKvk5ZA1V9vr7NrfM7u1w/DPiNpXHgDkzQW32JDs/jmCVhG/QGRpeZAGwAPg9cT8f9+7pDI/BtJwCjIQBtLv9+TPu+VSsttWUAhU998z2KX57sDVoWoM7Fpk/n+8D/irTtz2IqaRSbFHAO9up9RoGNGEty9wYqlc20EeBBIKMJZEmW2PPJ8wj93Hz5syZTN6svA9X3TopCR83eac9vpDZ5k7MsdH5+i10QyPuNiYqzUiT/pIH0zxJ9fl4/waz3c62BBDJ9658tfKoLzf6ZpWtnGsbnT0t8mC6xKEB3K8I2SyUA64ETMBHiNnkBEyhkmyhUYYqUALQpFl7pwECx3GJ7CmkF3NrCrCbAWMTa86+ZaLEP3yiDc/N2imfFjCqLCnHTVnRDawEe+OAHMirwZWlrgSL4WaKwwV9bUaspTgu3s8/c3XYbXMpOmr3Tnvup6h1BA6PzWuiyrYEplFMrU8Fl6rM7eYNDyF4Gb8X6F/pRvr7G79uVbAInY5LQF5vfAldG5Hx+FxNxaoNCi7VSBYAoxnL7VImO2e9KsM8aYkC5WgBf6cBn4ioAf0DxS6/9iY752+1isQ+LGQDyiYX2L8ZEvEWBSmBXS/sqiA9O0Cjrm5Z8/ZZWQAIZrb4szSP2yPUd9FPyz2QDP8oIEkmk/N77lOpgvLHdlBFBiocIpHfgs43f6C1qmbKl2RoogXclIsPU12/npnPJtuy1GjWcIQq9jxLinbLHXTM7m6x+GG37BxeK/2LSoijRwVZwQaEFYKkCQG4A7i/h8Xq+BPtcRQywdTJsC9h0tO5Inj+bTsSFEoBjMZnii4kPdDQH2DiLfVjMAJC/UNxcX/MxUX1RmRXujimDZYOCWDyrKyrXZQd4ZPnzQYrRgc+SFoEiGZHD+EKQ4u3GjxKfUV8qM8WhpKxGszfx3KhDqrxK7xGUrdNtDmq899NL2XmsgY8nguQDJPlNvgCPTloDk0GKL2x91/yuBOncTvGXfj/GWBkbiRavYcfHq9ACcI8S9NUbmAjxUjIPsJ3yaR0xwFaosk2/g8YOWotWYcLFbazVF0oA3mChvfdirFXtsTXF90MsuJBohZXh4Hg1sB8mIXQFJtUOGN+9TZ3Y3mZMyaK5wJOYRM+pCF33Z8TtuG392MzahYdNbEBNhQlVIKseMNtV9qpclkwms8vFmffMfymZ1bAusQtKFTnfDwItSXmsfhU1v1DNEJ8KqXrZPpFOpZyu22ZqAK+sT3lfl6qKRwgYYqp6aFMxEFP1Iyz1pkBGKTiRdNk4zHcUggTnjb5n/nNdaPa+mHJpxeYCSpcqqT2WW7ivDQvHog0FnPjZJIVZ+k2W+FilMEGftlasNnXyfuEEYAF5s4NqPxWKQBs+EYUQgPsBnytyOzWc2XcEm9a//wFriryPRUBuNOhATDTeR0RrCaq77G9pPz4FzMqvvmwAhmeVeGsWeb1T9Q0VircBGNT8GSOg1JcZjWsTUwAvs45wM2L75siM7fe4SALOTFe1k+arcBu/URYmeulOGTV+U56np/Wp0IvUl/1EtLmeb7NANFsRTGk3QtGnoF5zDWBEQPS20fe+fWcXmu2FY0Sxo37/if18lZ1hqaX72jYFFIC2A0B+RenSsOTyicV9vUNMsLUEbPPE60ywgK1l4K3ofmmf6RYG3fs7YbHZyeIxnVmi6+MTTAHychJ/x2MveGchBVz2Tm5IPBsk+SDLBzAj0MNPVoxTXxZkpX/xwW9gRsNHiT01wEuXO8vDiDemTLEWuTdz1N77CN40MoRsZrOCGm9NTtTv1CBQT30u16CN0m45yZ3zLhMrD4waN/+SLjb9REylhWKSxF5S9q5iy4e8ULlzbQeA1GPSvUQFmxa5t50AjIcAtBkIMr4b3z3GgtWmjs5VFtk9osfU0TpDsVsiqaDC3a+XQY0fVwxuXJd4UZPyQW6QR6A6VpX5WdU+6hJvJNdX5BUsmvlQ2LS2f8JGp7wyct8h6un9QK/QXNfUIA2FYJCS0eqjoXB7YZP2/iXq/VEDSWTnA2y7tBstcgjy17pAz5CpXa6gYUOY/YWOuaGUElt5ZAtVr9p2AMg9FH/VpjNUWdzXfCcAmxmF3bp4nbnp2AwE6U7U5Q8stG8anTNd23QodgKwMDeSh4ERFvdZ0MAdTXlr1JdeQaN3YMPHFYMa11W8GCS9D9JWQJIyLkiRtgD6qRpvZnKT7JFP7KnmvAi6ZfVHRS8rpuBV9PbvU9gu2xCZIwRhVNAoCzRgvefLVwYGdbdrwKjcZM6dsAYqgfx0+8TOXxj/0PyuBlVMBg6ycN48EIPraa2l/RQq44Pt5d+7Ina8hljc1xxigg0BaFMo1NO5Els2BWBXLYCfpfj1dt8DftLJ2dR4i3032+m3bjEA+DtwoOX9FjRwR4NgTZPIUXprigOT67x+yQ3eC0GSD1UZF6RkvgY0JDd7b6fqvCmtiL0MwRU+hDXj589vnDN8QnVRZzLb7/UDCTgyQxDm0CwCg0ZZg++dqRLsFwTe6flKu3XQGrhS/cRxY/4+9wJ56KHuJCG3VS3n5RhcU9tY2k+hylPaFIBvUTq3nSgIwNgYLGwIQJtLhXPpXMTRUott62oEkg3r32W0XfItlwnYy3T+LqYKiKNr7BkOxodZ3m8KE5BVOKTlkpIK1YEvByU3Jfr4mxMbA9WFyU3eyqBBdmtV7OVxpVWV2a+P2nNSY9++nylWh8wYvffhKFfnKr+WMSmmjX4jc6RSZgWB/CJrWdfPzfOXYw1sTvcyR5Wz695j14YPKmrm7Tn5+oX7T+5qVaL+wBctnDcB0S+jJZb6opDCxaYh5tGIHa9K7FSrAbPs/R4xwUYUsM2ZR2dnHUsxkYo2fH+268J3jsYUBS/2bLuzSy57RPiYOgxbYfJvnW3p/M5lQScnFe0rg4D3RTJUU45A8VOc2Gtt6qzGiso2B3vN+5o+6XlyaYD/SjE6Y9aYyVukfL0Hk5wluyHNRr8MaSoLe9U2/qBhba9/iud5KrLOE+pEaFQvSAnSIAlVEW2QigTiBSk8lATiidakGmQ1Ka8a0XMkwe0aBNUgr+z08qyuVtT4ItDPklFiL9qv5V5KvgXYShxeCAE4ANjBYv/8I2LHa1uLY+DrcbpJFFsACtENAAGzZLwCO9FR24SDW2f8jKZaaNf36XyUq/P/iybVwKHhzfpkoFcJ21Lw45bwvNVBoDnDS/Z4U19ZtXMC5qhyMB0/sevF1xXqyR3gFTwwTEFm+L1/C8FWLYVe9gthe1Oo/9VkdZ+zQQ/QwLwThD9Z8MLPNeePEUmY1C8ezavaTalhABG87kVlnm3x3PkTJiVT1ERgP+Ai7Fb0GVogI4ytAJCNmOotUWI7i/uK1f2q2AJwdIFO4I7SFWvR25YEYK/QKrO6g58/geL7/j1H18rkOAEYjWt3XDi4Zz6qItK+gh83z0u8EwR+W0ILQXYLVGeDHNzmBzOfKn8Tz7sN8DyCgledmDFq7/NBjzVqTLOakM8aqMiPA0msr0Cvzxa72pwuRrK/qyYpYPjRdM4/CZNCK+Lx4m5zZz7RxZ8w0cJYlMn2mHKeKzB+2qvDyXqp6B3ey/YqwfVVCAugTTespyl94mcnACMiAG1a/xroWv6dtzG50WydiB0RgAL8qMhtUeCqLnyvD4Wtbdwes+jZ9A9vAiPCG/HuoQDfDXt+mLYmY22rkMWvrpm5/V71QFWrlj3V3URkRm4VkDZIIeyspswiqFfQkoCvjd57girTpMnKl72GnccaOKO67+ZptXXV/9YwBYhkDQs0C0FpaUlUH8TLrhCCJ76nwUXd+Blnl+gcGh0+evpEr7vYnLD/I4J9OMrivmb3tJMrKifenC7OPGxGAm9Lx5Y1Tqb4yXrvo2tLLJOxV0FmJaYKRzmzLSaiegjGH3UIRoxMDCdQ/WP4m5KYgKyCIhDMMKmKxrY2pVFkgpC40xQIzj/ryTMGTk4/CdCCBSC8MnLfPqLBfWnBKllmv7zWwHrfl6/V1VV/B+WA/L6BGd/NZw0kDBDJsAai3D5h/qyuCvJewGk4SkUhAuBsWQAVeCqCfWjLArga+MAJQPsnHnTdUmSzbEtHZiIexff9q6dzSZ8zmRKDYxolJLRiTMBEgg/G1FEeFz76UX7Mp0jF11VYIcrY1ix7AhMZ3LiQdYl67dByXba0SqjMK1RbvYrgejLSJTUJvVasgcAPEgT1qnJNrvJrsWTcUWtgwlvVu6KmOz5rh9P9KkaOrtNdi5LNCiDzMGU7o4atFavY3a+KKQBtB4B0tfPftdjGbTvwmS9S/KLV99P1UPUoR3WXmqEYa9Ju4Y1/t/BYlqPIK81x81meryCiZt7wPvK20YTMBd2rLbGX58vrKutrF70+es+D9lox44XuNPO1UfvvowTn0xSuoVm7a2kN5HVZkbrNH514VqC6Y5HC6TdatQaqnwy+MX7x/O4sa5/sNFhJ6W5Uus0KIFFc/hWLAjB2+WqLKQC3tzxz7OpNx6YFcMcOHI9iR5gFwE3d+L4LAGlmEHAUcBymVN92OIoqAAVWtufWpwn2EJFZqnkCF7TNp4/U9elzCcouQJcF4JNjju4dpDbcjYnJzWi7tthvaA1sFM8/KxhVea4QHJBX6HXBGihwy54r3vhXN7q7EhOM5igNSvdL4tmcsP8rgn24LfbcaObE7QQr5szAplBowGQf7wo12Es03F45uNNpzb+pcPyBrherrgZ2Kgch0Q2GA+dgfF0+BP4MfNmJPzvCPVCW5J/kNz9EElNAZ5BTASRdZ7dFUZD0zVZlvihXCxz53CGHdHlyPDC56fuKt4siaCjO0n9rjv1OzT/XJYJem1T0ukxZ16KNOS+0VUVEA71n8rIZl3ezu93yb2nZHN6f4nAfThG99C9gt2JV7JaAy0UAzgW6k77hbUvtHEHraXH6UPzI3010LfI3ze7YS6i5HHv1NtujKhR5/8L4uNwJHEG0o3BLRSNFCABJk5DEgrxVPTJUXRDoHoj/ehtiL0eECYq8pXCFilQEeIN6rWrcryvt+8/2B+2mIpdr2DZt5ZEh2eZVV2+ellT/TtG0q0B2tRJt2eDWRaJJAPjr5StGf106l3M0H0e607mkFGJ8sWUBnBsK1p4qADdgghadALR84hVCec+32NbWrIAX0jEfwe5wLbQsp9VJAdiTZlPbAbdgorvuxZRTS+Boi7cwFvniMLRxGUoyy6qnLYTeFFmmi9CWN6RcIRbgpf/eVUWGafjcUz7b2aYpeBJwpyK9NFzwbSn8Mp6rpPCCszbV9vsCcKS2UHSdswYqbFCVM/ZY9t9zTqVbNX/THOxO55LSXUFhswLIKxHtQ1sC8E06X1ChbAWgxEwsvG2xrZPzvLYlXY/K7SjLgdu7uY2eUgJu51DwLcVk/nfLYBE5bnvMnJkMYFk7Vr2B/vaJ0SryRitiL3xkPRfzmfCzKsd0tm0vjjr4AkX2zW/xS/9N5mu31ntVKyXglha6rkUd4zaEIHwCTO8lFeNEZfHMUXsXokzZFpggJkfp6G5Eus0AkNci2oe7WtrPm3E8wYp1cowBBsbopmPTAphPRF0bztaKyQ0FsMyUewDIVsCvMMsZX8ZevsNyoujHTWBh7mu5gsv3E3ugMqMVsYfiNYm9vJ8R2fXl0ft12K/zmdGfGR7gTc0j8mjFGriyT33/H1X6/q3G8tjSN1BbsQaG7/uYPJ63gFyMUpHU1HPqBbdUVW8uhPX8cIviwZGfJTEar6NoAexlUQDGMmVZsW5wNk+8xgLMlGxaAI8FhgEfh89PB84q8j5XAPd0cxv9KX6ASub9z7YF8JRQ/A3BEW3hLjJflRMzxV+uRBRh70D1eZpEWEsZqe0+9w7u6HUjqtMUGZBO7yy0bqEUQFW/U9e3Zj9VTsuO59UWF0IreQMTCvsC+0pY9kRVV0sQHDZ+/vxClLOb4k7lkhOXCOAPwntM1JiAKeNng9lxPMGKNcOzOXjMo3sBIGCCDWxFAg8EngW+Bjwa3mCKPdM+rwB9ZHM5YTmw3uLxeBh40Im/btOdaPyOzw4Cb3Z7lr0Abx+tkJfzB2HkWv9aPg+Xg/fuSHv+td1hkwU5I5/PX15roMqfPqkc+Iyv3JHXN7Dz1kBAV4tUHLXHqplrCtTNI9zpXFICul9Vw9Z9+OWI9qGt318PLIrjSVYOFsBCWYrexiwB2mA34HeW9vUw8ESMLqZCHtP2GA08TvETb/cUuhuN37FZa0XF6yk/RTuWvcleg24KKhLLNMsRvqWlj0xtlflctUO+dCLcrjk5/3L3kLHPdV5F6pJ+yc1Xqci47IJwkv+XZAi9fNZAgQXqceSey14tZFL7rd3pXFIe66ZRwmYAyKsR7UNb96x5dK0MbcnxirTNyRZ/Q6GWnGZSfjQAlxdoW3vG8Ji2xWSM43I5iL/3gCeBOzC+i5OBE4G/WW6HlWtor2UvvKvImnYse5XJROXkQHmlLWthZuBHc7BI2lLnTXhu1CFtlpN7ZtQRX1TkwHyWP/K8FiCXaiCDJUwV03bASPvWQEX+kkwmDthr2YxCVzQag6OU4/YV3dyGzRWbqApAW4ao2XE90YphAdyR4gc0FKPzX6P8uBkTyRqn2ZQNIbEb8DTGFzNOfIJJDfFWOOuci3E+zleA/E2Mi8Fz2EvnYW0SpSTeUPS45ldaWvY82EfFe0XRr7S09OX/TtZnRCokkRhDK8var4w8pc9mNt6Y+e12/P+eP3jl8394YdTBz0iTb1Kz5a9ta2B26xUWeMj39lrx2qNF6N5qnAWwVLyL8QlfEJPxOkk0AyB6YzcFjBOAITYtRYUIAEmzgvLif5jI30Iw0KJFQIs8oIwDnomw+FuH8YF8F1OmcGko9OZiko12ti+XWRSA1iK3A9EZqByXXx5J+BnZxxPvWlWfTi39ZjwnFYxrTQB+UrHpQg/ZVnKlWYugFMVDGhU994XRnz5dVT+d25I2A0aat7tW4CkkeEqCxNJAdZ/Xtt/7gH2W//elAnfvDrRaONlRYNZjlnoXYqz49wJ1BdiuLevX/AK1t9BMxEQB22BWXE++YghAm/n/Cpl09uMyG1hupHCZ2adYvCEs7YLQ6SiDMVaxLSNyjJLADOB54D/A60X47baEbj0W0yn5mpjhZYitVix7+z274sC3Dh71wgZgULtir+m15ue+mTC04F/bHzbQD+TS9jK/pgVcIPxElPcDlenpPUl+L798wi/9gUrQk1Hvy0gAsCZo9Irh57VjCa6FF8Mx6wVMxaJyYCDGmlrVivHiI4qXNN3WfTiq4sfW7/cpnBGqLARgXJMFrw4vxt7En3XAbwu4vXJY/k1g6vaOLeFxSYVC7xXgJUz0XE2R92lL7M7BoiN071Tv1xsr6gMQrw3L3qc+vd0r26VUXkI4tj2xl08gaiuBYY1+1aWeBEPyibdmAdf02jupWu/6iiqZJhIMl7zBK+QIv7wMSMtbRUD1uv3ee7UY1pfRFq8JBS7A+K+WG5+ED9sMwN6KzRsR7XubFtDauJ6gXhG2N8li+wt58vmY5bJyYFqBhUU5BID8iNLVNl0DXInxqzoM+AHGB7HGwr5tCUCrQVT7vffUOki82XZQh0fK0wNUeDE3CKTVwI+cQBHBG5S778fGHjcM4YLMNC+0EsARfuZ86aM7IpybP/AD6ED6mJzPrFpXOeQ3RerefhYP5fQyFX+lxGYASFSDJ20JwDfifKIU+iTZCZMw2BaFjr5ZVAYX/ztFGFBtLusXY0DZn+KX2svHBkyN51EYf8yPLO9fylUAAgTIM0E7Eb4EcqAiL3RE7LUUiB4B0qIMoNeoFyvSvw3B1yzeVB4/bOUzj3pwuyKJ9iJ+234vc7veVZ9d+o9iLR/2tXQI3wK+7/RabMVPEuObHDWqsJfdIdbZQwotAG0uFTYW4eRbWAYX/6UYf6xCMQTY3to9vfA+JRXAXZglYJv8FeM/djsWcuO1wq7Ys+ZYnwmreP9uz7LnCwcOHrp+pqq3uT2xl//9bAvgk2OOHhDgnQu0KtwyBFydaMUFz4w68msBclBLcUcHrYEtPjNrn1Uv/7mYXWvpEP4O4xbhKCy20rC9XeB7TaGYCFSW67jnBKBhPoV3oH075hf+c8BDRTimtgJAlgAbC7zNs7Cb668B+D/gZODDEp8PR1jaT10prp3ahqqXFGlox7I3bu2GoYMVea19sddSRAY57nqpVK9zFRmkbVj+MgTctMZewccBcl3XLH6tLAd73gViJktF61pLh/B9HMWgpy9/9nQLaMkEYFwDQNJsjvGxTAHnF2G7cQ4A6Y3xt7PFJuAY4M6InBMHWtrPm5TAknPc6sdqwXulHcueBCnvAJDn2xN7+QQiSNOYcOeUcyoVOV/zJGrOFXABsqI3ddMlybWKjKAVQddRa2DG9+87YPlLLxW5awNLh7DaabWCYzMAJKrLn7buWXOJpgW0JAIwQXwDQNLEOQjkZxSnDmucA0C+jL2EtnUYi9u/I3I+VAL7lbslQJVn2rPsgRziK8+3J/Za8QtsSkmyxccfnarI1h2z5ulFdUGf7RH5v7aFX6esgeu8ROoiC926jcUJk6OwTMYFgLgAkBIIwF0sz+iKcfIttTj7LSQfYqJc4zybKvQFJcAltnQIcDbRqiZzCrBFuQ+EyUTisfyWvYznIgdvucWHryvepraXfvOJQa/JAqjinZctzlrxA1SeOWblk39XL3GrIpVti7uOWgMFhUv3X/aKDbcCW36jQ5xei+14nSSa+e/6Ajv3cAFcEgFoM1I0SXGsXXWYCgxx42qKkzx5GLCdpd8QUNiSOkdjrxTQPcB9ETsnvmpxXyVLBnvM8ifnBXhL2lrWVbzd1mzaemCAvNSa2Msn/gIEX2U5wF+3P2lPQfZuP/CDRhU577FRx52oyBGt+AbSmWjgcLvPHrzyP7+31K22ctdt5fRabAVglCuAVFjal7MAlshSNJ/irb3HLRXMYgqb9LlUx3QRhV0SOsdSuxuAH0bsnBgEHGJpXzV0v25pt1B4vB3LnkiDHKTCs61b+vLnBQR5G0AD7/86kqMvULk9UZFaATK9bXFHh62BIBuSXuJMsReda8uxfUcchcaWIaanL//WUxwjVGwFYDkkC46jALya4jngx/WYesABltr9R2BVxM6Jk7FXB/NNTBL1khF43t/as+wFyCGen3iuLbGXTxBKkPrvPcO/Uq14p3QgR9/7lZWN1zYmqy5VZEegg8KvbWtgAP93+PJn3rHYpbZubLvgKCT9sFfpqKcHgFitfFQsCmUqTQATLLa7mCfff4HzYnL85gB/KYOLqdDH9CBgqKV2PxjB8+I0i/uaUeofe+zyx15+fNQJq7SFu0JzDheFT896Z9KFk0bNWUeW75m0VkcYVZZ+7t1HVz8w6ktfVaR/e/V7VeWqZENlP/H4nraSOSl/qTezjez3mrb7q8NXPvOA5S5da1EAVmOnIk4hkHBsOQ7jXlKBqffbniElASzH1Jv3w3vMIxR+qd0FgNi7Z82gDCiUAByPvezxUPgKIJk8E6Pj9z2KG7QSVwH4JUttXg88H7FzYmJ4k7JFyYvBC+ij8GdFvpctqyTzQ+P3HDV/ywaVZ0U4uT3xByCePGo2JKcj0ub6q8Dsuat2+/3EUXPvFrRfburMpvq9HRaFALyQqkhcWIIuXW/x/rMP0Ymcb4sjgBvpeqaLzO+dG/bxcZh64HEbr1NENwBkpx4ugDuFF7MTD4zZdU4Rt/8BsDoGx+4/wD+LuP3h2EsH4RdQ1FdgImBt8AbRWwa4yaIVIN0HJSel3j3tpHORBtXP4MnTmUEebfkBqi9/++mY80ZurOg3tP0cfd5FE0fNn6DIGR1P9dLWEjELGoOKE4tY7q29MdDWfo+NwVh7JfAPCpvmbDCFr01u6z78FtEMAJmMCwApewFoo/zMhogfNwWuKPI+bB7ThRRuGWhiOLjaYEHEzotjgcMt7m8zEfGZPWnVwwsQebk1cRcgIByq6NN5xV6uL6B6S09658FXUiKfr5OqkW2JOpCHTlr50H8C5SZFvPZSxeQXfhnbVvlYExx/7DtPrC9RdwaYJUsbfB77ZRo7w3TguiJNqgqdB9HWmN3TA0BqKY+ysQU7qcslACRN1BNCPwK8WuR92DymhfSnsOmLGqVBYCDwS8v7nEWE8mYG6t3dlmUvUDni8yv+tkqRxW1b/zwUfimgGsipPt4WjVKZaiVHX6Of0CsfGvWFE1Q4rKupXppEocrHQuLIo5Y9tbTE3WnrJr8NcEKExd9lMenjvrgAEFsCeBZlUsO6EAKwwvJNd1YPPsHBLJd+v4wupkIf0+EW210bofPiZmBkmYqEDrG5rs+Dimxo1bInMvLB0aeMU+FfueIvp47w2t5V1b++bfQFwxFvXwU2edX1+a2G3i3rBw1eJTC9zfq9rVoDs56v1oQeetSqx2ZFoDtfsbivH2HKNkaFBKayUjHF3yxM7fZCMRl7ltSeLgDLYvm3UAJwZ6CqzATg/Agfsz9glsGdAMzPlhbb3Sci58TXgbNKsN9I3QjO+OCPNYHKb9q07AWJwxTv6cz3a7w+pKQi4/P85IRFv92UrKg8T0VEERqkl58nR98HqQrvhsFrP/lWgIztnMUvVxSyIJXw9jlm+ZNRca5/2uK+dsUEWESBwcATwLeLPIn/JoXN69jTA0D6AeN6uAAuiQC0KRRSFDcAJM17ET1e9RSv5Fsmn8JeDd2gwMd0B4vHY0wEzol9gZ+XaN9zo3aBeJWVtyuSbMWyhwqH9u7V9znFa0yLsV5BI2sqhtEovVCVpXX0vu3GcZdvDXqxAipCIDIgReUHWaJO5Spp1ESA94N8wSEdtQaCPJlMVhx44rK/R6kK0TLs+rhegImOLSWfDyf/RxZ5Pz+j8Faknl4BxKYFtCxSwBRKAE6y2N63LZ18US0H93PARkJYm2X9FmGCCQrFgRbbfniJz4eJobWiqgT7biSCSdM/v/Te9wJNPJhX/CGAd+iAEcvrAkzASBDm36sKGnm/YgibKvtP/bj3sBESBM8r9MkQdbIp0eedDPE2L7Eq+XsRuUKRIfmFX7vWwNoA76LjVj5y7En/e3htBMebx0owvn2nBL9z1/C3/gUYUeR9zaM4AXyTLfVVVK1ftu5ZG4ElTgCWRizYWnt/n+il9/gEuMHSvvaw+LsKOaAI9grZg/F9PbhE58MUzDLd4BLtf2EoAiPHmsotb/mwYuh/G6XXglxfwAAZ9P6KkXsh8o9MgTggqCElFbrW6z/NV++/gciOuYKtTnpvk/H8suToypGInNe68MsnCpuCPR6HYPznVv7tNosl3jrL/Zb3J8AdwE+xU8lmDPAnzAqEjXQ0NcAXimDE6ItxxerJAtBmAEhAmeAV4IKdGFOx0BY+8L+IHavp2MvQb1MAFjKpt2Ky7dukFHWAvwS8iF1/x1wit/yb5qKlt81KUfHBx4nBO79fMXROg/RamCn2fJEjA9F/ZloHBXkakQ8UGamwRXrpV6XJRw9fvK1SVLwvyLOnrfzjUxp41ypUdTLi95Ug4LCTVv31uM+tfGRlxO8PsymNw/t5mCwH+xRp+zsCd2FWlE7DTt5MxfjpFmNZfSL28t/19BQwZbP8WwgBOAYYEFOx0BELR2SMGsDtZTibKsYx/cTysfk09gIwtgL+DNxH6QNQIisAAQK8qYpoQMXEtYlBO31QOWROg/RaFIqzo05ffu+8AO9dRfAlMfu9ymH7AVuFtXezrXXSLOpqElVLUsqlf9jujMmI9+X8wq9FtG9S4QHU2//klQ/tf8o7f2mqfHH7Dud/+paRF/WJcFfeVaL97h6KwNcwS6bH0D1r906YhM6zgcXAN4BKi7/neqBYJf1sjdc+LgCkbAJAKMCswebyr4+dAJBMpX9URI7TNdirl7kt9lKpaBkIQIBfhYLs5xRnOW8YxjfqAmBQRM7JKN4Imrhk6S2zbx578aOqnGAOSMXEtRWDggr01YHJjVv+dsyZW2gyeMr3KiasqRwyUfF6o6BiqvKq5pymYgq2bfb6Lv32ql/Mvme7r/5LMybQ5t3musDmepUXRfhbZWPibyf9754s6/3N2188NuH51xLonRe/d2tdhLvyPuDH2E2vlMne4QNMEOCrGKvk25hVmg/Daz4IjREjw7YmMIFse2Fymg4rYR/+HfhBGUzY5xOt1FdpbNZALpsUMIUQgJMstvVtyyffnIgco8XA3ZYvJlssp/BVVz4q0XV0B6YE3a2YwIzu+pAmMNbFL4aP6oiNHZG2AAKkNLhCSHyWZkuP14i370eVg4OE6lFVieTDn1T0OVMlHT2YUe9XQjXYJOoUkFTC0x/fusOFhzZoTe9EELwqoh6qWoG/SOADEV0SKG/VDK2e+c2Zd2WdA1OZ6lWP2XBQAr4OwZeA71+w/KdRr4Nbg3E/uTki96sDsRvo1V0WAF+lPGq2z4poH9v6/euxVyEnFgLQpliwrbzficDxUeDL2A1IsWnVnV2kbZaqvuhB4eNDTETh88ALmNqqHRF8u2CCSg4Ixd+WER03PiEG9bK/u+S2BdPGXvYzUb0IQj1n1J3nixzzce8hZydS9Sly0kekgzeajHmhKhThNzWLqldVjKv7Ww29J4mSGeqxJ/CGJwwg0L6yUUdPH3NxCqFaxBuBBlOEjfuBjFDjYDj9wmW33Eg8+CVwKcWPkC031mCWrou5KlGFWd52AtCOBtFyOkGdAGydJRnT/1LxIvZ9DmwKwGIMKFHw0dgS+Fb4SE8m3gFWYCLM09aASmB7jP/KDtiJfCwEi+MywNUH9VOrvD5fVDRDvAgBHMEW1OsaeZ6MvG/ZF7wJD1FRBEmqeN+v2Kn+C6oySQDNthImgL0D1b1FJNxOuCXNsiKCp7deuviW78boPlEXCsB7nabrMBuBz4bXfDGZhD1fxp4uAGeU20naHQG4jWULhe3O3wAsxUSMlYJUhoAox4upWGLttQgI91y2DR8HlMm4sSiKjZq+42WTVPh2gEwGakDXg8wOhH+icmamyAMZXLG6bp/Ak8dVvSObXk/rtOylX1T42bDqtRs/2DT0GnNmhe9nWAkFDQNBMt/LEol1Hlxx6eJbbo/hMb8P44pwnNN27c87wn56s4wm7IVO2F8oXABIN+iO4+Qki+1spDQ+R2+W8Njcif2SdFthd5mnGEvAHwBvuXtQUflfFBt1+ZKb3vzu4pu+4Qd8B2S5Ip8NYKqqnNmUC1DCqF4RRBInB/C4Ck2vhdVCmv82UcCb+mxuuOr9zUPPVpEx2VG+pAVi3jyA6ShikJdSwu6XLrn59hgf9/MxflCO1qkFTsS4ftjAlgAsdML+QjEJewEgTgBmYNNSNA9oKEH/rCrRcdkATC3Bfm3m/3uH4gVs/Mvdh4pKKsqN+/7S6a9dsfjGM4OEvyMiv1SRhrCcW5Y4S4kcn5JelyOyJCCPgEuLOuGijcMHiop3tfEjTKd8yZMuJvxO+j2QF3zksO8u+cmBQ/tvWhbz474Sk8g45S6BvNQAxwNPWdznXpb209OXfz8qoR6IpACcZLGdpVLepQoEuRb7CY1tH9M3i7jte9y9qOcKwCYhuODmVVctuvFbKZEJPt5LORVBQHUUsCipiR2aLX4tRN3CnRcs/b1fkzxfYUSu0GvFGrgkELk25cmEKxZPPzhZ2fe/N4y97Ow19Vv3LoNj/y/gQncJtGAtcChgM6q7PyZwrJzvwVExWvy3HE/a7gjAcg4ASVMKxb8Sk1KkFMQ9ACTNnHK9YCNk6YgNUxfesFgX9TpYRc4PQmtg+BBPg9pAg+8EeC2Xfk2wyOUzt9++H8hlLZd2Q8GXbQ38WJHXFBEPvnb92Mvv75WsnSuB9+rU+VM3l8nx/zkmN6nDMA9jiXvd8n73JieCPabjtROAMROAQzFO7bYoVfTNyhLs8zpKV2M17gEgmdyIo5yui+6JQKYGP1x4/R0EchjIJ+mKH4gcEyTkBYT1mUu/YQTHK9csvO6xyqreF6nIkEzx1yT4WloDhynyFeAqVC4ORA5OeXLC95beOL/MzoEfYq82eZR5ApOXsBT54Wwt/wbYrcLVUfphL0jz9XI8ebsaKfkZ4BlLbazHZHhPlqB/BmC3ssQSYHyJfusWmPx1thiBSYlSTJ4Jz1VHYTkeeCyujf/BTld9KRC5L8AjwFNAJNdzDwXVT/v48zypXA4MEBRRMiRgVh7AMBK4+TUPnhJPzrxqwfVryvhcuAa4ugdeA3WY0nK3U7rccI9hJ+fpPGBCBI/B/sBLFvajGKNX2QVAddUCOMliG18tkSACk8tpncX9XVTC37qfxX0ttSD+wKTR+QRHMSZlseSKnade2CiVd6eoIBDBExWBPwTwp0C89SDrQkvgv65deO3znvS6XJEBadmXvUycE/AhTe+/oCqfvWrRDUeXufgDU+Ls6/SswJC5wD7AbZQ2MfDelvbzWkSPgy0dsogyjX7vah7A3Sy28T8l7qOFlsTR45jlhFLOpmyKehssBk7H1OL0yui6DcLfdBsm0ezFmBQdtn5jrHzZpo6bunXKS52myNcU3cVDNwKNKAPDjH3JPp6cU6/6cIA3RgiGqOetvHzC1JFBkrME/U2AjBF0LMhgoA+iiAqKNoC3DFikqv/xKvwnfjh/2lIwa6Q9hN9hql78KbSUlCvrMBbPX5Rwop5mJGbVppzG66gKwLL1J++qALRpDn6+xH30ggUBWBvewEuJTQH4isV9PY6pxXk38am00Ro+cD8mSnxhxusXYZakrrDUjtVx6bBTOCXRWMGWqDdLxHtVfT4E2QPRPyrUgswAjmM+30xNqD41kapZJsgjgcoTpOQylWAwgSy4YeHUbzQJylFTq+r71/eZNm/aBsqsNFQ3+CfGh/ghYM8y+21J4FfAjzDRvlFgrKX9aHhso4gtQ9Rr5XrRdtUH8H1guCVLw1BKFxQBpkxUsS+AKym9Q/UiS4NKChiD/Qjrw4A/A8Nieq0+Gp4nrQUT9MVYYQYUuR2N4b78OHbilTtfOULptViFlQQcV6EJSSX85RJ4+/kJOQgNrheR3W+c/4M5AJfvcs35ngTfr2kYss0dS89vwNEevTE+gZdjr0RZsWjAWDdvJHqBT0cB/7Cwn6fJKJUYMeZaEIEBJuD1f+V4sXZ1yWijpfb9usTiD0w93mIGR/wHuCkC54KtnIf3U5r0Os8AE4lXkmjFWDD3B06g7cowtcAfLbTp5biKPwCVXj8MPFlEovdB0xZOXXntoqtXBMibSS84WdFLFLkvLf4Apr999R2q8lZV1brDnbbrsGj6PrBreD4mY/gb1gM3Y+p0n0s0o95tRB0nw0lnVLGxEvGXchV/3RGAD1lo20vAVRHoo9pwECjGQPYy8Dmi4UB9C8VfznoD+HaJB4wjgS9TuiTfHeETTCnA3TA1RTu6ZD69yJOVBmIc8XnhpKmDfOQwTeiJ0+Zdsb5ZFMrDSOJ0RQbhydTsb4kGIlej3u44OsNi4AxMeclvhmNd1JkZtnUb4FKi7eqwmOIuTfphX0S5/Nmfirz9JcAF7lJuSQK4LFTGWsBHEuNweQHR89c6HHi7AL9xDaZU0BlELzDhGOBvmCX+Qh7XZcD3MEuHUaFPeJ6tKPBv7eqjBhPY8ZVu9tPYcNAuZNtSmKWgWPt2XT7+mnMuG39NC1/XyyfcuM/F46/VS3b+8X2tfneXH53mhv1uMxF4MBQXGpHHYuDHmPRbcWNHzApVIftjUzgO7ROTPrgknDAXsg/qgF9S3gFNQNeDQHzMsuVNmGikroi1PsAgYCDGF/FjzJp+XUT76l+YsjtbAJ/C+FoNBKoyPhOEJ+N6zDJ57lLZWqKdluQJmiORu3pcc9mM3fyCHaUOk8Pr58DJoRi0Oeg1hkLtZYwbwLMYa3MhLAN7hDe0nbu5rSA8dm8THef3LqOBvHfTgqtbWKKSfvJoxdOEFyxp7bt9a/WvTr91mznAqZgcoEcDn8YE2G1v8zTAlKF8CrOSNSvG/bkEk4R6ALA1UB3ek/p0YhK5OTS8fIJZFfkgZn1wM/AzYHT4+weFv72qi/eEj8PztK4nXJCCw+FIMwRj5don4zGoANtNYSy/czDLNi9iqtvUuS63xzlT7qy8a+Y3s1w5Lpw0dRCpXitQlghae+v8qw5xPWWdrYB9gSMwqT22DifZ3SlzpqFAegtj5V+GCXSbB3zkutzhcALQ4WgLD7OkOjS8VoaHAnFw+N7wcNb5Ps258TZiHLTrw/8XxnBW3WM4b9frr/OQ8zzl1ED0sVSKrX6+8Mq1rmdKzuBQFI7C+J5uxEQVDwO2xKzENISiLhlOst4LX0uGwm+j60aHo3UqXBc4HK0SkJ1vD8AtBZYJl4z9ybBGUucFBHfcPv+Kp87fddr7iUo9HpP6w1Fa1gNPum5wOIqH57rA4XD0ROp7+ZcrIlRyG6bK76Oq3uddzzgcDicAHQ6Howw5b/L1WyDeuQHcfsfsKz8CUKl4OBA5/NzdbhjsesjhcDgB6HA4HGVGKlV5pQKJSv/29GtDh9Y8ryobBe+zroccDocTgA6Hw1FGnDPl1hEK31T0trT1D2Dq81NTKvIEuGVgh8PhBKDD4XCUFdIYXKFIsjGouDX3vQAe9kWO+sqEm6pdTzkcDicAHQ6Howz40q7XDU9KcLYit989/+J1ue/37Zd4WpFUb+Ro11sOh8MJQIfD4SgDfPEvbtDGpB/Ibfnev/XVi+tqtfHvtUGdWwZ2OBxOADocDkfcOXL81CH1QfLc+iB5Wz7rX5parbu/VhuPOWTU1CrXaw6HwwlAh8PhiDFJf/N5Ddqo9V79bW19blXv95+u0YZGr89mtwzscDicAHQ4HI64MmHCpdX1JL9TR+Mvnpg3bX1bn505865krdY/XB80fMH1nMPhcALQ4XA44krDxm81aGO/GtWfduTjtX7ygRoajxs//lv9XOc5HA4nAB0OhyNmjBr1tapGTV3YoMlfz1xw25qOfGf24uHPNmjyE7+x4XjXgw6HwwlAh8PhiBl9enlnAVv4Cb2549+aGoD+FdQtAzscDicAHQ6HI05MmXJOpcKlCvcsWHD3qs58N0AeQDhq/PizhriedDgcTgA6HA5HTNi8MXk6sI14iemd/e7ixb99GViTSnGi60mHw+EEoMPhcMSCUxIi8l3gwYULf724CxtQRB8StwzscDicAHQ4HI54sPPYficDY/GCG7q6DUUeQPnMrqPPHu561OFwOAHocDgcEUdFLhfk0YULfz+vq9tYtOi3b6AsT/YKDnY96nA4yokK1wUOh6Pc2GnHM49FmaienNPdbYmnDwjS3/Wqw+EoJ/4fYY6U0pbihwIAAAAldEVYdGRhdGU6Y3JlYXRlADIwMjQtMDctMDlUMTQ6MTI6MDgrMDA6MDBsWrodAAAAJXRFWHRkYXRlOm1vZGlmeQAyMDI0LTA3LTA5VDE0OjEyOjA4KzAwOjAwHQcCoQAAAABJRU5ErkJggg==;" vertex="1" parent="1">
          <mxGeometry x="340" y="245" width="59.26" height="15" as="geometry" />
        </mxCell>
        <mxCell id="LZN4CvvohTynmMFe8kbo-10" value="" style="shape=image;verticalLabelPosition=bottom;labelBackgroundColor=default;verticalAlign=top;aspect=fixed;imageAspect=0;image=data:image/png,iVBORw0KGgoAAAANSUhEUgAAAoAAAACiCAYAAADRNnw3AAAABGdBTUEAALGPC/xhBQAAACBjSFJNAAB6JgAAgIQAAPoAAACA6AAAdTAAAOpgAAA6mAAAF3CculE8AAAABmJLR0QA/wD/AP+gvaeTAAAAB3RJTUUH6AcJDgwJJhx6dwAAS8RJREFUeNrtnXe8HFX5h5939t7kJjc9gRAMkEBIgEAKoXeRKlUELCCKIP5Q6UUB0YiUEKSJDRQLClJUkKYgAtIlJCEJIb0BJrQUkty6O/P+/jiz9+7u3dt3z87sPc/ns8ndNnP2zMyZ73nPW8DhcDgcDofD4XA4HA6Hw+FwOBwOh8PhcDgcDofD4XA4HA6Hw+FwOBwOh8MReSQGbfSAw4GvANsBI0rYbgU+BOYAfwJe7uHnzxjgEmAKMDQC7VkDvARcA9S6y9vhcDgcjniyMzAvFF5RfEzvocclAVwNJCN6XF4DKt3l43A4HA5H/KgAVkZY/KUfJ/aw4yLAgzE4Lie7S8jhcDgcjvx4EW7bcZgl36hzUg87Zy4HTolBO3dwl7fD4XA4HPHjSaJvZVJgeQ86JlsDm2NyXM5yl5DD4XA4HPGiCuPEHwehEQDVPeS4/C4mx0SB/d1l5HA4HA5HvDg0RkJDgT16wDGZBPgxEuUD3GXkcDgcDkd+ouoDeGjM+nGXHnCuXE+0fUYzWQlsdJe3w+FwOBzxEoAHxqwfR5f5eXIgcHSM2vumu7QdDofD4YiXAOxF/JZUtyvz82RazNo7113aDofD4XDESwBOAvo6ARgZTgD2i1mb57lL2+FwOByOeAnAcTHsx3IVgAnguhi2e467tB0Oh8PhiJcAHBPDftyG+ARIdIbTgfExa/MGYJm7tB0Oh8PhiJcAHB/DfuwFjCizc6MS+GEM2z0LkwrG4XA4HA5HjARgXHPqlVvpsbOJZ3TzG+6ydjgcDocjXgJwKPH1pxtXRudFFXBlTNs+013WDofD4XDESwDGuaJGOQnAc4GRTgA6HA6Hw+EEoA2mxLgvx5bJOVENfDembV8PLHeXtcPhcDgc8RKAu8e4L8vFAng+MDymbZ+NCwBxOBwOhyN2AjDOS8DbYyJn48wg4NIYt98FgDgcDofDETMBGOcAEIAK4h8JfBkwJMbtn+UuaYfD4XA44iUA9yiD/twpxm3fAjgv5v3vLIAOh8PhcMRMAE4pg/6MswC8Gugf4/a7ABCHw+FwOJwALAlxDQTZDjgn5n3vKoA4HA6Hw+EEYEnYOabt/iHQO+Z97/L/ORwOh8MRM4ZirDdxf2yIYd+PBZJl0PenusvI4XA4HI6OERUL4JQy6c+BwIiYtflaTARz3HEWQIfD4XA4YiYA9yijPo1TIMgE4PNl0OcuAMThcDgcjhgKwCll1KdxEoA3Er1k4F3BBYA4HA6Hw9EJorL0V04CMC6RwAcAR5VJn7vl3x5GzR1jjldfP6fCyMCXdfgsQHh1QP+Bz8o3ZyZdDzkcDkf0BWDcK4DkEpdI4GvLqM+dAOxJ4u+XO/yOQL8GAgF4Xmj+Vdi48ZPVn9y0wyUDL1t2v+sph8PhaB2JQBuOAJ4qoz59JwaC9rPAE2XU52OAZe5yLn9q7xxzCqoPEoAqaCCgoOHzpteVv9TW1H5166mra12vORwOR0ui4P+1R5n16TZAVcRF/4/LqL9dAEhPmrEK3xDPjFzigXia8XfGQzi5urr6qdVTt+7res3hcDhaEoUl4Cll1qcCbAssjmj7TgF2L6P+dgEgPQT96ZgB9eghYERe01FXNZedmpdE0y/rAdXVfe/XqZwoUwlcD+Zn8107TqrAvyoI5Ej18TWQ14Mg+PGAC5a/5HrH4XAC0AnAzjEqogIwAUwts77uaf5/vTG5JhuAzUBfYLfwvWT4Wi7rgY+BjXH+4fW9dQpQmTnVSgtBRUPhJxnCEIDjNvXd8VJYMt0N99lsvHPssEpSt0LwZTU9mXYKOkLwDt98yw6X9bt42c1l9JOHAUOAwTmPIHykqQPeB9YAH4YPR3zoj4ktqMe4Y/UHasMxM00NsCo81rY4ETiSjq28NgB/CO9vVcClmNXFNHOAX7Tx/V2Bb9C8GqnAncDsKAnAcgsASRPV3/Q14luuricJwIHhxb5d+P9IjJ/jBGDHbly3KWAtsC78fy2wAuM/uRx4C+PDGklEdILmui0LiBjDXzoSRFXMpwJQD0B/vO6m0f8cctmKue7eGIrpX2//WcW/G5WtWnY0iCAq8pONN49ZP+CSpb+NqQjYA9gX2Dt8DO/ithrDa2M28CbwOvBGjmh02Gd8OPndGdgh47FFJ7bxMfBu+HgLmAG8DHxU4LZWAw9mTWDbZ314f/sSLd22FLg/HMtz6YeJq9g65/XFUROAU8r0xIyiAOwFXFWGfV0OAnA8cDywHzApFHzFoCK8CQ5vZ0CcBbwKPAP8F2NZLDk+7NbK1DkpHr1UQwNWekk4PUxCr4R4NwOH9/Q7pk49pKJuq3d/osr5tBIEKOluM+/+7JNbdnhh4MXLlkb4Z3nhvWTPjP93wax4FGrs3J1s15k1wKPAI+F1knJ6rPhzQGD/0JBxbDcEfSbDwsfkcAwOp47MBB4G/gi8V4D97NBJ8QeQdsHYv5W+2D0893L5bh7xB7Ag30ZKyZXAdWV4ot4LnB6xNl0A3FZm/bye5jrScSIRir0TwseYCLd1M/AP4M/Ak2Qvo1il9s4dngE+Iy1GLa0BqU4LvuyIYEED87qv3uGDLlr8TE+9e2765Q5bJjweBA6WPCO/qlHZGpg+Sz8ClYcHXbLkpAj+pH2BLwInt3LDs8Ua4HfA3cQ7IG0wJjfsARgL6ojwtY6QCsfj9ON94HngxQK0awhwDnBWCcbKIBT608LJcHcm3yeGk5UEcBzGspc5zl4N/C/s+xXAc+F7s0PDQC4XA7fmvDYaeJv8gajDyXFnKLUA/CtwEuXHy+FFFBWqMct8w8usn/8NHBaTtvbBpDw6IZy9bhHD/t4Q3uh+VoobXe2dOywNZ9Jm8JKmQWy9Zt6oNJ0iJi0IBX8zL9dv9DYNv2Hx0T1R/NX8eocpEvAwoR9RPgHYJJ4DUD9LBCpBMG7g5cuXROCnVIWi7zyiF8wWYCyCP8YsFccFAX4CfAdj7Swk3wW66n+7A3AhcGZ4Dys1DwOXA4Wwhh8VTqzT3BRuO9/5vpH81sPfhqI4t40n5vnsu5jg1CxKnQamnKJRc1V4lLigDMUfmKXKKOMBB4eWgffDm8OZMRV/AIOAi4AlwAOZYqzYqHH+G5nzWlq31OTezjJTwiRreaX+E28vlKM++O7YiT1O/N21/bES6H/IcCLX9mzm2QJRApXjS/wzPoVZLXonnITsHtHr/aRwXPo78akKdTXGmtSrCNu+gs4vfW4L/BpYGIrS6oj00+eAueEY2F3tNDbneWuuTBPa6L/dcp4f3or4a3X7pRSAwzDRsuXICKKTC3AQcEmZ9vMbEW1XVWihWI5ZBvk6MKCM+t0DTsUsNUzHWDeLysa7Rw7GREDnCkME/TivhvEgWSOvNK739swYRM/oUeLvzh2+KSqPNC2Rt03QQgSmraxSMn/tYZjlt6UYl6E4TJ4E4082D7gds6QXVbYBflDk+89unfjsrZhghbOJTqnaTPoAt2Asbd05rlM6eC/L/dy8jL/H0+znWkm2i9ebHdl+KQVguVr/0gPANhFpy3cxPhTlSNQCQCoxvipLgJ9SnhHumfQCLguPQ1Eta73pPaR11SI1+V5PfiKv1n/s7UV26piTNBoVkIqKgtT8csxUgV/RfjCEArUIXr6eEQERsX0uD8KUq1wZjmFVMTwMlcD5mJQd+0S0jadRuGCZ1vhUB+6XX8FY/C7MN9GLIMcD/wknKN3VP+to3aUmUwDWYVaUGsPnfWm2Mp+LCXwCs7T8w47cK0spAPcs8zF4VATasBXGElWORKkCiBcOpIsxuZZG0rPYGRM1fGyxduAH2rozekAQln9ron6DvFy31tsrjxVh1EdX7ljWy8A69ZCKD7839p769d6BHfh4EmR9eDNpvh23/HOQpeZXYJYjl2GyFlSXwSEZjQmGuIJoVN/KZD8L+2grQnoMJtjhHuLnpjQZE4Xb2dWdvmSnY5tJ64GMmQJwVnjfW5jThuEZgq8+vOfvmLOdWVETgOWaAiZNFKw/5TKA5uMNohH9uxPwGvAnyteloSP0Af4GfLkYG0/4XqsWQJFmH0BVqPvYe75xnbdva5YN1dgEDnWa+VPH9/qwbvUDwOnJjYxo67Nigno+Ah2S703JFoI2UgFNBF4Bbqb8Vi0qgOuBhyI2Jtu4D7dWFOFrGOvowTE+rhMx+fg6o6Um5YxNra1kVWGWedOko5Dfynjt6xh/7PT1ckc4eZqc8Zl3aCWZuROAxZ31lZJRmOXIciUKASDfCNtR7tbsjlKJyV5/XKE3vGGVDKl5NzHDr5P5LQRdeglY0boPvGeSG+WQNsc25cBy7Pwl543pPay+8SHEZFYQ2NlvaPXmuwpjQd+6FXGY9Ycim4rY9L6YKMg3esC1dBImSW+/CLRlBHbS5+Rbvr8aE8VaDrW6j6ZzfvZ75Dyf0Ya4zAwAeT38PzOf36EZAnodxl+WnOuoVV/5UgnALcgTklxmbF/i/U+lOFFdUaGUASBDwlnfXVgIgIihpeP+gk/wRPoFKfasfd/bpeYd76VkbfPxV3SzKo21qxOvpmqlbeueSQtzQLn5Aa6eOqVv/77e45Adrdu4IZEvie17wLuazw9b8nSMya69skhN3w/j2H4p0XT6Lwb7A49FQPzsYWk/Z2bMKUZhVgquobyuwR/Tctm1NSbnPG/NArh7K/e8t1r5/A9DETiQ7HyJs6ImAHuCxWSHEu57HMYnrZwplQCcFM7YvuC0Xqv0xaTqqCzUBj1tcgyXwJcD6j9I7LF5lfdW4ybmqq9ra9715vuNOf5MWXntwtx2vkAgQz68aOzocunsjy4f19/buPlpfDksnfswjV/LjmhWdO8qNT5EefOUSvofyfauUGlZRaC7kh6TTuP5CEyWS8EhwOMlnkDubWk/l2DOufmY5cnPleHx7E3H8x1m6p+PMNb49gR6ZqDI/DyfXYDxP09/z+vIvbJUAnD3HnCBl3JQu87ibHp9CX7f2jYummJyEsZHqSfesDrLbhQw/ZBKjjVbQX3Ztf7DxISN71a+qymZ3IrYC5MaS/i6efhFjlq2xepzpvRNNsijquyvAZD+rUFTN23j18uc8OPLgRckTJ7emVyAgs4uYLP7Y6zEtxRykhBDPo3x2SoVNiOTx2KiVL0yPp4n0tK6l29yPK6DhoxMnZQZKLIcE+yRycU0++nmrr5EzgJYCv+/Osv7G4q9yLncWYOt6io/Cn/nA5Z/Y1tRU8Xi1PCm5ZZ8O85lFGiZS3x6Z1WpyHhUJCXVlthrfqTfE9T3Yi8A371oZB/tVfOYBhySW76NoLkEXsN6+SScMP0Vk26jEx0PCA11Wv1CgZo9PrzpneouD8BUcihFNSwPe0vAPYkL2nl/Uo5x5s1WPteL7ACQ1zP+9jE5WNM8C/wz43nm2LYCY2WMlAC0feI9gPE7vMryfkthKboOO74VV2P8DBVYXQIBaJOTgPt6uLWiKwwhu95ll/EDr3ez6Gu29BGAH6jflthrEoYZ7+PHpkpDXlZ8bVQVtf0f0UAOJUv0CWSVcxOS9dK/cZM3za+XY4JGWaE+a1A2tCH4slCVl7a6bG5NAZp9IKbA/Vh3aWRxJ6ausU12xviKOQrLybQd5V2H8eFbjnEl+m0bU68XMj73h5z378Ysp79Iy3Jwi8PvLaadZelSON0Ox26etA/DDqrBRJpdgr0UAztgN1r1EEy92WLzaCg002xl+Ryy6f+3M8afLYGjK5weDlbdQnxNKOGypTaFpgIQqOB52vTcfIasz5jlTml6Lmq9qHzBmH/K+F6JXvogqkcQgIogqqhHsxOfKCKgwkeJIHFTw0f+7xFpGY2p1OBpmyleJOHdW4BmHxdOxJ0FvSXDMHnwdgqtOzbYy3V7UagGjsQEuuRjNh2rjNJA23XufxE+8vGj8NEupbAA2rb+PU5zrdBkKF5sYdsCeJ2FfWzG1GfMXIK1nbndlgVwMCZar5zKuNlmfwpQCivw0SYLYNrPL2iy5lVpik1ZFsCs5WAxvnEZ7wd+PAWgTj2kon8/7sfnuMwlX820/vmkrYGb/FRwZqDBTzWgKq/ThFCNyqA2Hr0rKxoe7mazz8KUznLir3XGYHdZfB/X5UUjNinuKnpA5zyX8/y/mASU5SYAj8VOVvdrgXdzXtto8Xe2FTVVSBKYZd8dInCd1mF8Pt4JHxvDSU0DUIux+wzH5PXaFpNqYUeisWRdiclT9Xi3hE8gAaFlTyHLCiiq/dWTtUD/7M/Q9BkAzbQcKoOWnDZmwI73Lt1ITFCQVSs++pWgnwMQEVML2VM0TN+iIoiJ4E3iBV9NeInpGuiWTVmdQ8tgJ5xEHhg8deWGbjT7Ikxi57Ivv1cAzgP+bGlfe7vuLho7OwEYDQG4Gfh7zms2/cdsiQcvFGbFZinZBafT2JzZ2zp+VwBHlei6TAH/Bp4MJzALaLucUj6qMS4BZ2B8GEuZY637VXF8grSA00xhp4B6A1T1A2BUK2Kv6e9MYVhVWTnc8uSlW6w6bfyN+JylIgih6BPQpuR9YXZDEVX0HE+8s9RnF7z050LRKIp4HZJkvhfItG40+Qwn/jrFvphI2beLvJ9qsgMMHIUlNqsLpbgp2FwC/i2Qm8F+LiaE2kZxcVsWwC9gJ63FJRirUy4jykwATsAEudimEfgpxlf1w25uqwZ4InzsDPyS0pVc2qLb+s8XlSwhJxnCTrYE3lVl79bEXpYwTPsOBrIlsCQOA/XyL+56qfpchqcZfn405esTMb9NPCVALvc89tRAjzEfEyMWm/wEO2YNVJV7tpi+aFEXm3xSOP6WWvzVY0o1vhT+7WEc5IeEj6Gh6JoU/l1qvoVxsSm2EaanJN2O54S3TAWgrdIzaf6a57UGTEj1QRb2vy1mCSxZ5GP4Iwu/5Wla95+0OZssdgBIJSbow3YVlccxuZyKIUgWAJ/BWG+/g326LQDx0UzRlxnoocpWCvMkaF3s5RWGIlvGQvx9ftfT1Wd6WviJaLj0Gy75ZlsDf+9VsBmfb6knzQmdJS38tKPWwEYR7eqqwmcw7hOlCJyqwfjtPhxOFt8NJ1YdYRtMsMqXML6rpRCvX8es5rxfxH3EpRDDJmARxuVndTgp/gizGjIOYzEdER63KFW9GoDxH18f9Q62LQBtWv+0DWvRS5YEYALjj1VMK8OZdLwETVdJYnx58jHW8sy52BbAS7GbqHw9zU7yxcQHzg8HJttVYrotBNT3Us3qLXuJV4WtSMqTWVd+rthL/6/S9Jqi/Yk4S06YcFwQ6O8EREUz/PxA00u+KsauJfoSIncHvj7TZOQTCcVe2k/QWANRDb+T3xqocPNW0xYv70KTJwKPYD8w7E3gduBBjF9sV3iX5ujKncIJ05GWf0efcKz9bhH3EeUghQXhWJgW8B3J99oX4wP/fxi3lyi4HGwbBwFoOwrYpgBcTXP0by4vW2zHTkXcdhV2lip/Tut+KYdY7MsPaBmAUkgGFXngzWUlxhn7YUv7U8wS0weWr/t13d5CIHXZUb0ZOf1SDBfl3dzo4NyE0S0iiFMS6UL0S46bsDuqfyagoinPn58d+ducA5B3GlO9vxl+vnfWe+mo6HyJorOihkm7Eb5LqqorGQUGY9Jf9LPYTfPCm/9k4PfdEH+5LMT4AJ+K8SW3yblhX/YUAbgOmBbeK3fB5Ot9g44n+68Nhf+hmPQ2cyIiACOPbQFo07Kyoo33XrXYjl2KuO1vYczfxb44r2njfZt+ZcW2/l2EveSoqzCJcW37oG0Ebo2bAAxSWtdGmpdhSd9b3abYy0gQTdP7nu3qQB1m0bETP6U+f9dAqrPFm2SLN/O8TlOJUyu9xp/hy8jc1DBZos/PFI1C7rbVF4JAvrPVTzqd+NkD7sWe33MNxqI9CePnWiwewtRNfs/i4e8PfKNI2x5AdIIUaoAfhmLpCsxyb3d5A7PE/asS/7YtiAHlbAFsK5JqPfCxpXbsVMRB4nsW2n8jbZuybSYULaYAHEz7ZXwKOfAdbfmmksl9lve3trsbUJXa5jJuks7/lxZ2XkUqqGtT7GWWiAvSuQCDjzWCEaoLjx/Xn6Q8qQEjyWexaxJroAGK6tfFS52sAZ/Osgz6mSKRLNGYKY5zrIF/3Gr6oq7kSp0antO2xoGJmDq6gYX9zQl/m82I8WOKaISJQj3eZzG+49fQ+kpdV0mGxpFflvD3xSLIxuaJMBK7FSNeaef9lZbaUaycQBdbmGWsBn7WzmzSZp68GUXc9nnYs/5djfF1KRXvYieXYpp3ui0Ak9Q2W//yLO8m6YUvNa2JvawScaEw9IS58/fe/YI5+02ITDDIG1OmVFJb9RcNdAI5yZ0zLXoZQu561KsPfO+SXJFHrnUv1xoYZFsDCWR1iooLu9DsY4HvW+qiP2AscsssH5q3sOs7u3eRRESpl38DzBLvYUUegxS4MDxupSDy/n+2BaDtE6+9Zd4VMRaAQ0MBWGy+T9s+NZOxa0EpVlm93uGM0Zb14qcRuPZtCsCF3R7NU6EPYE49YML/fV9Gqc/y1sRe85Jx0/vL6t6vbgxSTJWGxOlRGZD7VutN6ssRLat8kOHT1/T83xVBr3uDQO8hQFqKvk5ZA1V9vr7NrfM7u1w/DPiNpXHgDkzQW32JDs/jmCVhG/QGRpeZAGwAPg9cT8f9+7pDI/BtJwCjIQBtLv9+TPu+VSsttWUAhU998z2KX57sDVoWoM7Fpk/n+8D/irTtz2IqaRSbFHAO9up9RoGNGEty9wYqlc20EeBBIKMJZEmW2PPJ8wj93Hz5syZTN6svA9X3TopCR83eac9vpDZ5k7MsdH5+i10QyPuNiYqzUiT/pIH0zxJ9fl4/waz3c62BBDJ9658tfKoLzf6ZpWtnGsbnT0t8mC6xKEB3K8I2SyUA64ETMBHiNnkBEyhkmyhUYYqUALQpFl7pwECx3GJ7CmkF3NrCrCbAWMTa86+ZaLEP3yiDc/N2imfFjCqLCnHTVnRDawEe+OAHMirwZWlrgSL4WaKwwV9bUaspTgu3s8/c3XYbXMpOmr3Tnvup6h1BA6PzWuiyrYEplFMrU8Fl6rM7eYNDyF4Gb8X6F/pRvr7G79uVbAInY5LQF5vfAldG5Hx+FxNxaoNCi7VSBYAoxnL7VImO2e9KsM8aYkC5WgBf6cBn4ioAf0DxS6/9iY752+1isQ+LGQDyiYX2L8ZEvEWBSmBXS/sqiA9O0Cjrm5Z8/ZZWQAIZrb4szSP2yPUd9FPyz2QDP8oIEkmk/N77lOpgvLHdlBFBiocIpHfgs43f6C1qmbKl2RoogXclIsPU12/npnPJtuy1GjWcIQq9jxLinbLHXTM7m6x+GG37BxeK/2LSoijRwVZwQaEFYKkCQG4A7i/h8Xq+BPtcRQywdTJsC9h0tO5Inj+bTsSFEoBjMZnii4kPdDQH2DiLfVjMAJC/UNxcX/MxUX1RmRXujimDZYOCWDyrKyrXZQd4ZPnzQYrRgc+SFoEiGZHD+EKQ4u3GjxKfUV8qM8WhpKxGszfx3KhDqrxK7xGUrdNtDmq899NL2XmsgY8nguQDJPlNvgCPTloDk0GKL2x91/yuBOncTvGXfj/GWBkbiRavYcfHq9ACcI8S9NUbmAjxUjIPsJ3yaR0xwFaosk2/g8YOWotWYcLFbazVF0oA3mChvfdirFXtsTXF90MsuJBohZXh4Hg1sB8mIXQFJtUOGN+9TZ3Y3mZMyaK5wJOYRM+pCF33Z8TtuG392MzahYdNbEBNhQlVIKseMNtV9qpclkwms8vFmffMfymZ1bAusQtKFTnfDwItSXmsfhU1v1DNEJ8KqXrZPpFOpZyu22ZqAK+sT3lfl6qKRwgYYqp6aFMxEFP1Iyz1pkBGKTiRdNk4zHcUggTnjb5n/nNdaPa+mHJpxeYCSpcqqT2WW7ivDQvHog0FnPjZJIVZ+k2W+FilMEGftlasNnXyfuEEYAF5s4NqPxWKQBs+EYUQgPsBnytyOzWc2XcEm9a//wFriryPRUBuNOhATDTeR0RrCaq77G9pPz4FzMqvvmwAhmeVeGsWeb1T9Q0VircBGNT8GSOg1JcZjWsTUwAvs45wM2L75siM7fe4SALOTFe1k+arcBu/URYmeulOGTV+U56np/Wp0IvUl/1EtLmeb7NANFsRTGk3QtGnoF5zDWBEQPS20fe+fWcXmu2FY0Sxo37/if18lZ1hqaX72jYFFIC2A0B+RenSsOTyicV9vUNMsLUEbPPE60ywgK1l4K3ofmmf6RYG3fs7YbHZyeIxnVmi6+MTTAHychJ/x2MveGchBVz2Tm5IPBsk+SDLBzAj0MNPVoxTXxZkpX/xwW9gRsNHiT01wEuXO8vDiDemTLEWuTdz1N77CN40MoRsZrOCGm9NTtTv1CBQT30u16CN0m45yZ3zLhMrD4waN/+SLjb9REylhWKSxF5S9q5iy4e8ULlzbQeA1GPSvUQFmxa5t50AjIcAtBkIMr4b3z3GgtWmjs5VFtk9osfU0TpDsVsiqaDC3a+XQY0fVwxuXJd4UZPyQW6QR6A6VpX5WdU+6hJvJNdX5BUsmvlQ2LS2f8JGp7wyct8h6un9QK/QXNfUIA2FYJCS0eqjoXB7YZP2/iXq/VEDSWTnA2y7tBstcgjy17pAz5CpXa6gYUOY/YWOuaGUElt5ZAtVr9p2AMg9FH/VpjNUWdzXfCcAmxmF3bp4nbnp2AwE6U7U5Q8stG8anTNd23QodgKwMDeSh4ERFvdZ0MAdTXlr1JdeQaN3YMPHFYMa11W8GCS9D9JWQJIyLkiRtgD6qRpvZnKT7JFP7KnmvAi6ZfVHRS8rpuBV9PbvU9gu2xCZIwRhVNAoCzRgvefLVwYGdbdrwKjcZM6dsAYqgfx0+8TOXxj/0PyuBlVMBg6ycN48EIPraa2l/RQq44Pt5d+7Ina8hljc1xxigg0BaFMo1NO5Els2BWBXLYCfpfj1dt8DftLJ2dR4i3032+m3bjEA+DtwoOX9FjRwR4NgTZPIUXprigOT67x+yQ3eC0GSD1UZF6RkvgY0JDd7b6fqvCmtiL0MwRU+hDXj589vnDN8QnVRZzLb7/UDCTgyQxDm0CwCg0ZZg++dqRLsFwTe6flKu3XQGrhS/cRxY/4+9wJ56KHuJCG3VS3n5RhcU9tY2k+hylPaFIBvUTq3nSgIwNgYLGwIQJtLhXPpXMTRUott62oEkg3r32W0XfItlwnYy3T+LqYKiKNr7BkOxodZ3m8KE5BVOKTlkpIK1YEvByU3Jfr4mxMbA9WFyU3eyqBBdmtV7OVxpVWV2a+P2nNSY9++nylWh8wYvffhKFfnKr+WMSmmjX4jc6RSZgWB/CJrWdfPzfOXYw1sTvcyR5Wz695j14YPKmrm7Tn5+oX7T+5qVaL+wBctnDcB0S+jJZb6opDCxaYh5tGIHa9K7FSrAbPs/R4xwUYUsM2ZR2dnHUsxkYo2fH+268J3jsYUBS/2bLuzSy57RPiYOgxbYfJvnW3p/M5lQScnFe0rg4D3RTJUU45A8VOc2Gtt6qzGiso2B3vN+5o+6XlyaYD/SjE6Y9aYyVukfL0Hk5wluyHNRr8MaSoLe9U2/qBhba9/iud5KrLOE+pEaFQvSAnSIAlVEW2QigTiBSk8lATiidakGmQ1Ka8a0XMkwe0aBNUgr+z08qyuVtT4ItDPklFiL9qv5V5KvgXYShxeCAE4ANjBYv/8I2LHa1uLY+DrcbpJFFsACtENAAGzZLwCO9FR24SDW2f8jKZaaNf36XyUq/P/iybVwKHhzfpkoFcJ21Lw45bwvNVBoDnDS/Z4U19ZtXMC5qhyMB0/sevF1xXqyR3gFTwwTEFm+L1/C8FWLYVe9gthe1Oo/9VkdZ+zQQ/QwLwThD9Z8MLPNeePEUmY1C8ezavaTalhABG87kVlnm3x3PkTJiVT1ERgP+Ai7Fb0GVogI4ytAJCNmOotUWI7i/uK1f2q2AJwdIFO4I7SFWvR25YEYK/QKrO6g58/geL7/j1H18rkOAEYjWt3XDi4Zz6qItK+gh83z0u8EwR+W0ILQXYLVGeDHNzmBzOfKn8Tz7sN8DyCgledmDFq7/NBjzVqTLOakM8aqMiPA0msr0Cvzxa72pwuRrK/qyYpYPjRdM4/CZNCK+Lx4m5zZz7RxZ8w0cJYlMn2mHKeKzB+2qvDyXqp6B3ey/YqwfVVCAugTTespyl94mcnACMiAG1a/xroWv6dtzG50WydiB0RgAL8qMhtUeCqLnyvD4Wtbdwes+jZ9A9vAiPCG/HuoQDfDXt+mLYmY22rkMWvrpm5/V71QFWrlj3V3URkRm4VkDZIIeyspswiqFfQkoCvjd57girTpMnKl72GnccaOKO67+ZptXXV/9YwBYhkDQs0C0FpaUlUH8TLrhCCJ76nwUXd+Blnl+gcGh0+evpEr7vYnLD/I4J9OMrivmb3tJMrKifenC7OPGxGAm9Lx5Y1Tqb4yXrvo2tLLJOxV0FmJaYKRzmzLSaiegjGH3UIRoxMDCdQ/WP4m5KYgKyCIhDMMKmKxrY2pVFkgpC40xQIzj/ryTMGTk4/CdCCBSC8MnLfPqLBfWnBKllmv7zWwHrfl6/V1VV/B+WA/L6BGd/NZw0kDBDJsAai3D5h/qyuCvJewGk4SkUhAuBsWQAVeCqCfWjLArga+MAJQPsnHnTdUmSzbEtHZiIexff9q6dzSZ8zmRKDYxolJLRiTMBEgg/G1FEeFz76UX7Mp0jF11VYIcrY1ix7AhMZ3LiQdYl67dByXba0SqjMK1RbvYrgejLSJTUJvVasgcAPEgT1qnJNrvJrsWTcUWtgwlvVu6KmOz5rh9P9KkaOrtNdi5LNCiDzMGU7o4atFavY3a+KKQBtB4B0tfPftdjGbTvwmS9S/KLV99P1UPUoR3WXmqEYa9Ju4Y1/t/BYlqPIK81x81meryCiZt7wPvK20YTMBd2rLbGX58vrKutrF70+es+D9lox44XuNPO1UfvvowTn0xSuoVm7a2kN5HVZkbrNH514VqC6Y5HC6TdatQaqnwy+MX7x/O4sa5/sNFhJ6W5Uus0KIFFc/hWLAjB2+WqLKQC3tzxz7OpNx6YFcMcOHI9iR5gFwE3d+L4LAGlmEHAUcBymVN92OIoqAAVWtufWpwn2EJFZqnkCF7TNp4/U9elzCcouQJcF4JNjju4dpDbcjYnJzWi7tthvaA1sFM8/KxhVea4QHJBX6HXBGihwy54r3vhXN7q7EhOM5igNSvdL4tmcsP8rgn24LfbcaObE7QQr5szAplBowGQf7wo12Es03F45uNNpzb+pcPyBrherrgZ2Kgch0Q2GA+dgfF0+BP4MfNmJPzvCPVCW5J/kNz9EElNAZ5BTASRdZ7dFUZD0zVZlvihXCxz53CGHdHlyPDC56fuKt4siaCjO0n9rjv1OzT/XJYJem1T0ukxZ16KNOS+0VUVEA71n8rIZl3ezu93yb2nZHN6f4nAfThG99C9gt2JV7JaAy0UAzgW6k77hbUvtHEHraXH6UPzI3010LfI3ze7YS6i5HHv1NtujKhR5/8L4uNwJHEG0o3BLRSNFCABJk5DEgrxVPTJUXRDoHoj/ehtiL0eECYq8pXCFilQEeIN6rWrcryvt+8/2B+2mIpdr2DZt5ZEh2eZVV2+ellT/TtG0q0B2tRJt2eDWRaJJAPjr5StGf106l3M0H0e607mkFGJ8sWUBnBsK1p4qADdgghadALR84hVCec+32NbWrIAX0jEfwe5wLbQsp9VJAdiTZlPbAbdgorvuxZRTS+Boi7cwFvniMLRxGUoyy6qnLYTeFFmmi9CWN6RcIRbgpf/eVUWGafjcUz7b2aYpeBJwpyK9NFzwbSn8Mp6rpPCCszbV9vsCcKS2UHSdswYqbFCVM/ZY9t9zTqVbNX/THOxO55LSXUFhswLIKxHtQ1sC8E06X1ChbAWgxEwsvG2xrZPzvLYlXY/K7SjLgdu7uY2eUgJu51DwLcVk/nfLYBE5bnvMnJkMYFk7Vr2B/vaJ0SryRitiL3xkPRfzmfCzKsd0tm0vjjr4AkX2zW/xS/9N5mu31ntVKyXglha6rkUd4zaEIHwCTO8lFeNEZfHMUXsXokzZFpggJkfp6G5Eus0AkNci2oe7WtrPm3E8wYp1cowBBsbopmPTAphPRF0bztaKyQ0FsMyUewDIVsCvMMsZX8ZevsNyoujHTWBh7mu5gsv3E3ugMqMVsYfiNYm9vJ8R2fXl0ft12K/zmdGfGR7gTc0j8mjFGriyT33/H1X6/q3G8tjSN1BbsQaG7/uYPJ63gFyMUpHU1HPqBbdUVW8uhPX8cIviwZGfJTEar6NoAexlUQDGMmVZsW5wNk+8xgLMlGxaAI8FhgEfh89PB84q8j5XAPd0cxv9KX6ASub9z7YF8JRQ/A3BEW3hLjJflRMzxV+uRBRh70D1eZpEWEsZqe0+9w7u6HUjqtMUGZBO7yy0bqEUQFW/U9e3Zj9VTsuO59UWF0IreQMTCvsC+0pY9kRVV0sQHDZ+/vxClLOb4k7lkhOXCOAPwntM1JiAKeNng9lxPMGKNcOzOXjMo3sBIGCCDWxFAg8EngW+Bjwa3mCKPdM+rwB9ZHM5YTmw3uLxeBh40Im/btOdaPyOzw4Cb3Z7lr0Abx+tkJfzB2HkWv9aPg+Xg/fuSHv+td1hkwU5I5/PX15roMqfPqkc+Iyv3JHXN7Dz1kBAV4tUHLXHqplrCtTNI9zpXFICul9Vw9Z9+OWI9qGt318PLIrjSVYOFsBCWYrexiwB2mA34HeW9vUw8ESMLqZCHtP2GA08TvETb/cUuhuN37FZa0XF6yk/RTuWvcleg24KKhLLNMsRvqWlj0xtlflctUO+dCLcrjk5/3L3kLHPdV5F6pJ+yc1Xqci47IJwkv+XZAi9fNZAgQXqceSey14tZFL7rd3pXFIe66ZRwmYAyKsR7UNb96x5dK0MbcnxirTNyRZ/Q6GWnGZSfjQAlxdoW3vG8Ji2xWSM43I5iL/3gCeBOzC+i5OBE4G/WW6HlWtor2UvvKvImnYse5XJROXkQHmlLWthZuBHc7BI2lLnTXhu1CFtlpN7ZtQRX1TkwHyWP/K8FiCXaiCDJUwV03bASPvWQEX+kkwmDthr2YxCVzQag6OU4/YV3dyGzRWbqApAW4ao2XE90YphAdyR4gc0FKPzX6P8uBkTyRqn2ZQNIbEb8DTGFzNOfIJJDfFWOOuci3E+zleA/E2Mi8Fz2EvnYW0SpSTeUPS45ldaWvY82EfFe0XRr7S09OX/TtZnRCokkRhDK8var4w8pc9mNt6Y+e12/P+eP3jl8394YdTBz0iTb1Kz5a9ta2B26xUWeMj39lrx2qNF6N5qnAWwVLyL8QlfEJPxOkk0AyB6YzcFjBOAITYtRYUIAEmzgvLif5jI30Iw0KJFQIs8oIwDnomw+FuH8YF8F1OmcGko9OZiko12ti+XWRSA1iK3A9EZqByXXx5J+BnZxxPvWlWfTi39ZjwnFYxrTQB+UrHpQg/ZVnKlWYugFMVDGhU994XRnz5dVT+d25I2A0aat7tW4CkkeEqCxNJAdZ/Xtt/7gH2W//elAnfvDrRaONlRYNZjlnoXYqz49wJ1BdiuLevX/AK1t9BMxEQB22BWXE++YghAm/n/Cpl09uMyG1hupHCZ2adYvCEs7YLQ6SiDMVaxLSNyjJLADOB54D/A60X47baEbj0W0yn5mpjhZYitVix7+z274sC3Dh71wgZgULtir+m15ue+mTC04F/bHzbQD+TS9jK/pgVcIPxElPcDlenpPUl+L798wi/9gUrQk1Hvy0gAsCZo9Irh57VjCa6FF8Mx6wVMxaJyYCDGmlrVivHiI4qXNN3WfTiq4sfW7/cpnBGqLARgXJMFrw4vxt7En3XAbwu4vXJY/k1g6vaOLeFxSYVC7xXgJUz0XE2R92lL7M7BoiN071Tv1xsr6gMQrw3L3qc+vd0r26VUXkI4tj2xl08gaiuBYY1+1aWeBEPyibdmAdf02jupWu/6iiqZJhIMl7zBK+QIv7wMSMtbRUD1uv3ee7UY1pfRFq8JBS7A+K+WG5+ED9sMwN6KzRsR7XubFtDauJ6gXhG2N8li+wt58vmY5bJyYFqBhUU5BID8iNLVNl0DXInxqzoM+AHGB7HGwr5tCUCrQVT7vffUOki82XZQh0fK0wNUeDE3CKTVwI+cQBHBG5S778fGHjcM4YLMNC+0EsARfuZ86aM7IpybP/AD6ED6mJzPrFpXOeQ3RerefhYP5fQyFX+lxGYASFSDJ20JwDfifKIU+iTZCZMw2BaFjr5ZVAYX/ztFGFBtLusXY0DZn+KX2svHBkyN51EYf8yPLO9fylUAAgTIM0E7Eb4EcqAiL3RE7LUUiB4B0qIMoNeoFyvSvw3B1yzeVB4/bOUzj3pwuyKJ9iJ+234vc7veVZ9d+o9iLR/2tXQI3wK+7/RabMVPEuObHDWqsJfdIdbZQwotAG0uFTYW4eRbWAYX/6UYf6xCMQTY3to9vfA+JRXAXZglYJv8FeM/djsWcuO1wq7Ys+ZYnwmreP9uz7LnCwcOHrp+pqq3uT2xl//9bAvgk2OOHhDgnQu0KtwyBFydaMUFz4w68msBclBLcUcHrYEtPjNrn1Uv/7mYXWvpEP4O4xbhKCy20rC9XeB7TaGYCFSW67jnBKBhPoV3oH075hf+c8BDRTimtgJAlgAbC7zNs7Cb668B+D/gZODDEp8PR1jaT10prp3ahqqXFGlox7I3bu2GoYMVea19sddSRAY57nqpVK9zFRmkbVj+MgTctMZewccBcl3XLH6tLAd73gViJktF61pLh/B9HMWgpy9/9nQLaMkEYFwDQNJsjvGxTAHnF2G7cQ4A6Y3xt7PFJuAY4M6InBMHWtrPm5TAknPc6sdqwXulHcueBCnvAJDn2xN7+QQiSNOYcOeUcyoVOV/zJGrOFXABsqI3ddMlybWKjKAVQddRa2DG9+87YPlLLxW5awNLh7DaabWCYzMAJKrLn7buWXOJpgW0JAIwQXwDQNLEOQjkZxSnDmucA0C+jL2EtnUYi9u/I3I+VAL7lbslQJVn2rPsgRziK8+3J/Za8QtsSkmyxccfnarI1h2z5ulFdUGf7RH5v7aFX6esgeu8ROoiC926jcUJk6OwTMYFgLgAkBIIwF0sz+iKcfIttTj7LSQfYqJc4zybKvQFJcAltnQIcDbRqiZzCrBFuQ+EyUTisfyWvYznIgdvucWHryvepraXfvOJQa/JAqjinZctzlrxA1SeOWblk39XL3GrIpVti7uOWgMFhUv3X/aKDbcCW36jQ5xei+14nSSa+e/6Ajv3cAFcEgFoM1I0SXGsXXWYCgxx42qKkzx5GLCdpd8QUNiSOkdjrxTQPcB9ETsnvmpxXyVLBnvM8ifnBXhL2lrWVbzd1mzaemCAvNSa2Msn/gIEX2U5wF+3P2lPQfZuP/CDRhU577FRx52oyBGt+AbSmWjgcLvPHrzyP7+31K22ctdt5fRabAVglCuAVFjal7MAlshSNJ/irb3HLRXMYgqb9LlUx3QRhV0SOsdSuxuAH0bsnBgEHGJpXzV0v25pt1B4vB3LnkiDHKTCs61b+vLnBQR5G0AD7/86kqMvULk9UZFaATK9bXFHh62BIBuSXuJMsReda8uxfUcchcaWIaanL//WUxwjVGwFYDkkC46jALya4jngx/WYesABltr9R2BVxM6Jk7FXB/NNTBL1khF43t/as+wFyCGen3iuLbGXTxBKkPrvPcO/Uq14p3QgR9/7lZWN1zYmqy5VZEegg8KvbWtgAP93+PJn3rHYpbZubLvgKCT9sFfpqKcHgFitfFQsCmUqTQATLLa7mCfff4HzYnL85gB/KYOLqdDH9CBgqKV2PxjB8+I0i/uaUeofe+zyx15+fNQJq7SFu0JzDheFT896Z9KFk0bNWUeW75m0VkcYVZZ+7t1HVz8w6ktfVaR/e/V7VeWqZENlP/H4nraSOSl/qTezjez3mrb7q8NXPvOA5S5da1EAVmOnIk4hkHBsOQ7jXlKBqffbniElASzH1Jv3w3vMIxR+qd0FgNi7Z82gDCiUAByPvezxUPgKIJk8E6Pj9z2KG7QSVwH4JUttXg88H7FzYmJ4k7JFyYvBC+ij8GdFvpctqyTzQ+P3HDV/ywaVZ0U4uT3xByCePGo2JKcj0ub6q8Dsuat2+/3EUXPvFrRfburMpvq9HRaFALyQqkhcWIIuXW/x/rMP0Ymcb4sjgBvpeqaLzO+dG/bxcZh64HEbr1NENwBkpx4ugDuFF7MTD4zZdU4Rt/8BsDoGx+4/wD+LuP3h2EsH4RdQ1FdgImBt8AbRWwa4yaIVIN0HJSel3j3tpHORBtXP4MnTmUEebfkBqi9/++mY80ZurOg3tP0cfd5FE0fNn6DIGR1P9dLWEjELGoOKE4tY7q29MdDWfo+NwVh7JfAPCpvmbDCFr01u6z78FtEMAJmMCwApewFoo/zMhogfNwWuKPI+bB7ThRRuGWhiOLjaYEHEzotjgcMt7m8zEfGZPWnVwwsQebk1cRcgIByq6NN5xV6uL6B6S09658FXUiKfr5OqkW2JOpCHTlr50H8C5SZFvPZSxeQXfhnbVvlYExx/7DtPrC9RdwaYJUsbfB77ZRo7w3TguiJNqgqdB9HWmN3TA0BqKY+ysQU7qcslACRN1BNCPwK8WuR92DymhfSnsOmLGqVBYCDwS8v7nEWE8mYG6t3dlmUvUDni8yv+tkqRxW1b/zwUfimgGsipPt4WjVKZaiVHX6Of0CsfGvWFE1Q4rKupXppEocrHQuLIo5Y9tbTE3WnrJr8NcEKExd9lMenjvrgAEFsCeBZlUsO6EAKwwvJNd1YPPsHBLJd+v4wupkIf0+EW210bofPiZmBkmYqEDrG5rs+Dimxo1bInMvLB0aeMU+FfueIvp47w2t5V1b++bfQFwxFvXwU2edX1+a2G3i3rBw1eJTC9zfq9rVoDs56v1oQeetSqx2ZFoDtfsbivH2HKNkaFBKayUjHF3yxM7fZCMRl7ltSeLgDLYvm3UAJwZ6CqzATg/Agfsz9glsGdAMzPlhbb3Sci58TXgbNKsN9I3QjO+OCPNYHKb9q07AWJwxTv6cz3a7w+pKQi4/P85IRFv92UrKg8T0VEERqkl58nR98HqQrvhsFrP/lWgIztnMUvVxSyIJXw9jlm+ZNRca5/2uK+dsUEWESBwcATwLeLPIn/JoXN69jTA0D6AeN6uAAuiQC0KRRSFDcAJM17ET1e9RSv5Fsmn8JeDd2gwMd0B4vHY0wEzol9gZ+XaN9zo3aBeJWVtyuSbMWyhwqH9u7V9znFa0yLsV5BI2sqhtEovVCVpXX0vu3GcZdvDXqxAipCIDIgReUHWaJO5Spp1ESA94N8wSEdtQaCPJlMVhx44rK/R6kK0TLs+rhegImOLSWfDyf/RxZ5Pz+j8Faknl4BxKYFtCxSwBRKAE6y2N63LZ18US0H93PARkJYm2X9FmGCCQrFgRbbfniJz4eJobWiqgT7biSCSdM/v/Te9wJNPJhX/CGAd+iAEcvrAkzASBDm36sKGnm/YgibKvtP/bj3sBESBM8r9MkQdbIp0eedDPE2L7Eq+XsRuUKRIfmFX7vWwNoA76LjVj5y7En/e3htBMebx0owvn2nBL9z1/C3/gUYUeR9zaM4AXyTLfVVVK1ftu5ZG4ElTgCWRizYWnt/n+il9/gEuMHSvvaw+LsKOaAI9grZg/F9PbhE58MUzDLd4BLtf2EoAiPHmsotb/mwYuh/G6XXglxfwAAZ9P6KkXsh8o9MgTggqCElFbrW6z/NV++/gciOuYKtTnpvk/H8suToypGInNe68MsnCpuCPR6HYPznVv7tNosl3jrL/Zb3J8AdwE+xU8lmDPAnzAqEjXQ0NcAXimDE6ItxxerJAtBmAEhAmeAV4IKdGFOx0BY+8L+IHavp2MvQb1MAFjKpt2Ky7dukFHWAvwS8iF1/x1wit/yb5qKlt81KUfHBx4nBO79fMXROg/RamCn2fJEjA9F/ZloHBXkakQ8UGamwRXrpV6XJRw9fvK1SVLwvyLOnrfzjUxp41ypUdTLi95Ug4LCTVv31uM+tfGRlxO8PsymNw/t5mCwH+xRp+zsCd2FWlE7DTt5MxfjpFmNZfSL28t/19BQwZbP8WwgBOAYYEFOx0BELR2SMGsDtZTibKsYx/cTysfk09gIwtgL+DNxH6QNQIisAAQK8qYpoQMXEtYlBO31QOWROg/RaFIqzo05ffu+8AO9dRfAlMfu9ymH7AVuFtXezrXXSLOpqElVLUsqlf9jujMmI9+X8wq9FtG9S4QHU2//klQ/tf8o7f2mqfHH7Dud/+paRF/WJcFfeVaL97h6KwNcwS6bH0D1r906YhM6zgcXAN4BKi7/neqBYJf1sjdc+LgCkbAJAKMCswebyr4+dAJBMpX9URI7TNdirl7kt9lKpaBkIQIBfhYLs5xRnOW8YxjfqAmBQRM7JKN4Imrhk6S2zbx578aOqnGAOSMXEtRWDggr01YHJjVv+dsyZW2gyeMr3KiasqRwyUfF6o6BiqvKq5pymYgq2bfb6Lv32ql/Mvme7r/5LMybQ5t3musDmepUXRfhbZWPibyf9754s6/3N2188NuH51xLonRe/d2tdhLvyPuDH2E2vlMne4QNMEOCrGKvk25hVmg/Daz4IjREjw7YmMIFse2Fymg4rYR/+HfhBGUzY5xOt1FdpbNZALpsUMIUQgJMstvVtyyffnIgco8XA3ZYvJlssp/BVVz4q0XV0B6YE3a2YwIzu+pAmMNbFL4aP6oiNHZG2AAKkNLhCSHyWZkuP14i370eVg4OE6lFVieTDn1T0OVMlHT2YUe9XQjXYJOoUkFTC0x/fusOFhzZoTe9EELwqoh6qWoG/SOADEV0SKG/VDK2e+c2Zd2WdA1OZ6lWP2XBQAr4OwZeA71+w/KdRr4Nbg3E/uTki96sDsRvo1V0WAF+lPGq2z4poH9v6/euxVyEnFgLQpliwrbzficDxUeDL2A1IsWnVnV2kbZaqvuhB4eNDTETh88ALmNqqHRF8u2CCSg4Ixd+WER03PiEG9bK/u+S2BdPGXvYzUb0IQj1n1J3nixzzce8hZydS9Sly0kekgzeajHmhKhThNzWLqldVjKv7Ww29J4mSGeqxJ/CGJwwg0L6yUUdPH3NxCqFaxBuBBlOEjfuBjFDjYDj9wmW33Eg8+CVwKcWPkC031mCWrou5KlGFWd52AtCOBtFyOkGdAGydJRnT/1LxIvZ9DmwKwGIMKFHw0dgS+Fb4SE8m3gFWYCLM09aASmB7jP/KDtiJfCwEi+MywNUH9VOrvD5fVDRDvAgBHMEW1OsaeZ6MvG/ZF7wJD1FRBEmqeN+v2Kn+C6oySQDNthImgL0D1b1FJNxOuCXNsiKCp7deuviW78boPlEXCsB7nabrMBuBz4bXfDGZhD1fxp4uAGeU20naHQG4jWULhe3O3wAsxUSMlYJUhoAox4upWGLttQgI91y2DR8HlMm4sSiKjZq+42WTVPh2gEwGakDXg8wOhH+icmamyAMZXLG6bp/Ak8dVvSObXk/rtOylX1T42bDqtRs/2DT0GnNmhe9nWAkFDQNBMt/LEol1Hlxx6eJbbo/hMb8P44pwnNN27c87wn56s4wm7IVO2F8oXABIN+iO4+Qki+1spDQ+R2+W8Njcif2SdFthd5mnGEvAHwBvuXtQUflfFBt1+ZKb3vzu4pu+4Qd8B2S5Ip8NYKqqnNmUC1DCqF4RRBInB/C4Ck2vhdVCmv82UcCb+mxuuOr9zUPPVpEx2VG+pAVi3jyA6ShikJdSwu6XLrn59hgf9/MxflCO1qkFTsS4ftjAlgAsdML+QjEJewEgTgBmYNNSNA9oKEH/rCrRcdkATC3Bfm3m/3uH4gVs/Mvdh4pKKsqN+/7S6a9dsfjGM4OEvyMiv1SRhrCcW5Y4S4kcn5JelyOyJCCPgEuLOuGijcMHiop3tfEjTKd8yZMuJvxO+j2QF3zksO8u+cmBQ/tvWhbz474Sk8g45S6BvNQAxwNPWdznXpb209OXfz8qoR6IpACcZLGdpVLepQoEuRb7CY1tH9M3i7jte9y9qOcKwCYhuODmVVctuvFbKZEJPt5LORVBQHUUsCipiR2aLX4tRN3CnRcs/b1fkzxfYUSu0GvFGrgkELk25cmEKxZPPzhZ2fe/N4y97Ow19Vv3LoNj/y/gQncJtGAtcChgM6q7PyZwrJzvwVExWvy3HE/a7gjAcg4ASVMKxb8Sk1KkFMQ9ACTNnHK9YCNk6YgNUxfesFgX9TpYRc4PQmtg+BBPg9pAg+8EeC2Xfk2wyOUzt9++H8hlLZd2Q8GXbQ38WJHXFBEPvnb92Mvv75WsnSuB9+rU+VM3l8nx/zkmN6nDMA9jiXvd8n73JieCPabjtROAMROAQzFO7bYoVfTNyhLs8zpKV2M17gEgmdyIo5yui+6JQKYGP1x4/R0EchjIJ+mKH4gcEyTkBYT1mUu/YQTHK9csvO6xyqreF6nIkEzx1yT4WloDhynyFeAqVC4ORA5OeXLC95beOL/MzoEfYq82eZR5ApOXsBT54Wwt/wbYrcLVUfphL0jz9XI8ebsaKfkZ4BlLbazHZHhPlqB/BmC3ssQSYHyJfusWmPx1thiBSYlSTJ4Jz1VHYTkeeCyujf/BTld9KRC5L8AjwFNAJNdzDwXVT/v48zypXA4MEBRRMiRgVh7AMBK4+TUPnhJPzrxqwfVryvhcuAa4ugdeA3WY0nK3U7rccI9hJ+fpPGBCBI/B/sBLFvajGKNX2QVAddUCOMliG18tkSACk8tpncX9XVTC37qfxX0ttSD+wKTR+QRHMSZlseSKnade2CiVd6eoIBDBExWBPwTwp0C89SDrQkvgv65deO3znvS6XJEBadmXvUycE/AhTe+/oCqfvWrRDUeXufgDU+Ls6/SswJC5wD7AbZQ2MfDelvbzWkSPgy0dsogyjX7vah7A3Sy28T8l7qOFlsTR45jlhFLOpmyKehssBk7H1OL0yui6DcLfdBsm0ezFmBQdtn5jrHzZpo6bunXKS52myNcU3cVDNwKNKAPDjH3JPp6cU6/6cIA3RgiGqOetvHzC1JFBkrME/U2AjBF0LMhgoA+iiAqKNoC3DFikqv/xKvwnfjh/2lIwa6Q9hN9hql78KbSUlCvrMBbPX5Rwop5mJGbVppzG66gKwLL1J++qALRpDn6+xH30ggUBWBvewEuJTQH4isV9PY6pxXk38am00Ro+cD8mSnxhxusXYZakrrDUjtVx6bBTOCXRWMGWqDdLxHtVfT4E2QPRPyrUgswAjmM+30xNqD41kapZJsgjgcoTpOQylWAwgSy4YeHUbzQJylFTq+r71/eZNm/aBsqsNFQ3+CfGh/ghYM8y+21J4FfAjzDRvlFgrKX9aHhso4gtQ9Rr5XrRdtUH8H1guCVLw1BKFxQBpkxUsS+AKym9Q/UiS4NKChiD/Qjrw4A/A8Nieq0+Gp4nrQUT9MVYYQYUuR2N4b78OHbilTtfOULptViFlQQcV6EJSSX85RJ4+/kJOQgNrheR3W+c/4M5AJfvcs35ngTfr2kYss0dS89vwNEevTE+gZdjr0RZsWjAWDdvJHqBT0cB/7Cwn6fJKJUYMeZaEIEBJuD1f+V4sXZ1yWijpfb9usTiD0w93mIGR/wHuCkC54KtnIf3U5r0Os8AE4lXkmjFWDD3B06g7cowtcAfLbTp5biKPwCVXj8MPFlEovdB0xZOXXntoqtXBMibSS84WdFLFLkvLf4Apr999R2q8lZV1brDnbbrsGj6PrBreD4mY/gb1gM3Y+p0n0s0o95tRB0nw0lnVLGxEvGXchV/3RGAD1lo20vAVRHoo9pwECjGQPYy8Dmi4UB9C8VfznoD+HaJB4wjgS9TuiTfHeETTCnA3TA1RTu6ZD69yJOVBmIc8XnhpKmDfOQwTeiJ0+Zdsb5ZFMrDSOJ0RQbhydTsb4kGIlej3u44OsNi4AxMeclvhmNd1JkZtnUb4FKi7eqwmOIuTfphX0S5/Nmfirz9JcAF7lJuSQK4LFTGWsBHEuNweQHR89c6HHi7AL9xDaZU0BlELzDhGOBvmCX+Qh7XZcD3MEuHUaFPeJ6tKPBv7eqjBhPY8ZVu9tPYcNAuZNtSmKWgWPt2XT7+mnMuG39NC1/XyyfcuM/F46/VS3b+8X2tfneXH53mhv1uMxF4MBQXGpHHYuDHmPRbcWNHzApVIftjUzgO7ROTPrgknDAXsg/qgF9S3gFNQNeDQHzMsuVNmGikroi1PsAgYCDGF/FjzJp+XUT76l+YsjtbAJ/C+FoNBKoyPhOEJ+N6zDJ57lLZWqKdluQJmiORu3pcc9mM3fyCHaUOk8Pr58DJoRi0Oeg1hkLtZYwbwLMYa3MhLAN7hDe0nbu5rSA8dm8THef3LqOBvHfTgqtbWKKSfvJoxdOEFyxp7bt9a/WvTr91mznAqZgcoEcDn8YE2G1v8zTAlKF8CrOSNSvG/bkEk4R6ALA1UB3ek/p0YhK5OTS8fIJZFfkgZn1wM/AzYHT4+weFv72qi/eEj8PztK4nXJCCw+FIMwRj5don4zGoANtNYSy/czDLNi9iqtvUuS63xzlT7qy8a+Y3s1w5Lpw0dRCpXitQlghae+v8qw5xPWWdrYB9gSMwqT22DifZ3SlzpqFAegtj5V+GCXSbB3zkutzhcALQ4WgLD7OkOjS8VoaHAnFw+N7wcNb5Ps258TZiHLTrw/8XxnBW3WM4b9frr/OQ8zzl1ED0sVSKrX6+8Mq1rmdKzuBQFI7C+J5uxEQVDwO2xKzENISiLhlOst4LX0uGwm+j60aHo3UqXBc4HK0SkJ1vD8AtBZYJl4z9ybBGUucFBHfcPv+Kp87fddr7iUo9HpP6w1Fa1gNPum5wOIqH57rA4XD0ROp7+ZcrIlRyG6bK76Oq3uddzzgcDicAHQ6Howw5b/L1WyDeuQHcfsfsKz8CUKl4OBA5/NzdbhjsesjhcDgB6HA4HGVGKlV5pQKJSv/29GtDh9Y8ryobBe+zroccDocTgA6Hw1FGnDPl1hEK31T0trT1D2Dq81NTKvIEuGVgh8PhBKDD4XCUFdIYXKFIsjGouDX3vQAe9kWO+sqEm6pdTzkcDicAHQ6Howz40q7XDU9KcLYit989/+J1ue/37Zd4WpFUb+Ro11sOh8MJQIfD4SgDfPEvbtDGpB/Ibfnev/XVi+tqtfHvtUGdWwZ2OBxOADocDkfcOXL81CH1QfLc+iB5Wz7rX5parbu/VhuPOWTU1CrXaw6HwwlAh8PhiDFJf/N5Ddqo9V79bW19blXv95+u0YZGr89mtwzscDicAHQ4HI64MmHCpdX1JL9TR+Mvnpg3bX1bn505865krdY/XB80fMH1nMPhcALQ4XA44krDxm81aGO/GtWfduTjtX7ygRoajxs//lv9XOc5HA4nAB0OhyNmjBr1tapGTV3YoMlfz1xw25qOfGf24uHPNmjyE7+x4XjXgw6HwwlAh8PhiBl9enlnAVv4Cb2549+aGoD+FdQtAzscDicAHQ6HI05MmXJOpcKlCvcsWHD3qs58N0AeQDhq/PizhriedDgcTgA6HA5HTNi8MXk6sI14iemd/e7ixb99GViTSnGi60mHw+EEoMPhcMSCUxIi8l3gwYULf724CxtQRB8StwzscDicAHQ4HI54sPPYficDY/GCG7q6DUUeQPnMrqPPHu561OFwOAHocDgcEUdFLhfk0YULfz+vq9tYtOi3b6AsT/YKDnY96nA4yokK1wUOh6Pc2GnHM49FmaienNPdbYmnDwjS3/Wqw+EoJ/4fYY6U0pbihwIAAAAldEVYdGRhdGU6Y3JlYXRlADIwMjQtMDctMDlUMTQ6MTI6MDgrMDA6MDBsWrodAAAAJXRFWHRkYXRlOm1vZGlmeQAyMDI0LTA3LTA5VDE0OjEyOjA4KzAwOjAwHQcCoQAAAABJRU5ErkJggg==;" vertex="1" parent="1">
          <mxGeometry x="445.37" y="245" width="59.26" height="15" as="geometry" />
        </mxCell>
        <mxCell id="LZN4CvvohTynmMFe8kbo-27" style="edgeStyle=elbowEdgeStyle;rounded=0;orthogonalLoop=1;jettySize=auto;html=1;exitX=0.75;exitY=0;exitDx=0;exitDy=0;" edge="1" parent="1" source="LZN4CvvohTynmMFe8kbo-13" target="LZN4CvvohTynmMFe8kbo-7">
          <mxGeometry relative="1" as="geometry" />
        </mxCell>
        <mxCell id="LZN4CvvohTynmMFe8kbo-12" value="" style="shape=image;verticalLabelPosition=bottom;labelBackgroundColor=default;verticalAlign=top;aspect=fixed;imageAspect=0;image=data:image/png,iVBORw0KGgoAAAANSUhEUgAACAAAAAHzCAYAAAC0Of1UAAAABGdBTUEAALGPC/xhBQAAACBjSFJNAAB6JgAAgIQAAPoAAACA6AAAdTAAAOpgAAA6mAAAF3CculE8AAAAB3RJTUUH5QIBBygbmlZlVwAAAAZiS0dEAAAAAAAA+UO7fwABC0BJREFUeNrs3Xm4ZFV19/F7+/bM2Mg82oqACI5EoqKWNHXPWioOSXCIiUOIiholk/o6xQH1dYhxjq+1f+ceMYkTRoQI4gQqMRoV6+51uvqKCCKKDDbQjN1ND75/UKggQzddVV331vfzPPvf+8f6rXOeeu5eZ++xMQAAAAAAAAAAAABAT1k1M+Epv8DK+BdP+UBL9SKqAgAAAAAAAAAAAADALGNl/VBXfMcVGz3FD13xV5Zin0bVnkd1AAAAAAAAAAAAAACYBVyxiyve64pbXPGb7rraFae68rGuWECVAAAAAAAAAAAAAAAYYo2qPa9QNlf85Pc2/29fG13RMcU7rJpZRrUAAAAAAAAAAAAAABhCVs2MWcp7mfInXbHpLgYAbl83ufJXrKxXWIqxZqtD8QAAAAAAAAAAAAAAGBZWrpznZX3iPWz833mtsRQfKFQfZmU9QQUBAAAAAAAAAAAAABgCrjjIFRdvxQDA7et8T/mZlmquBQAAAAAAAAAAAAAAYHtqVO2FrvyB+7D5f/u60hX/Yike3qja86koAAAAAAAAAAAAAADbgSubK67YhgGA37hinSvON+UXWKp3oqoAAAAAAAAAAAAA0CONqr2DK4+bYmxSeaxRtSkK/kCz1dnTFf/lik3bOADwm+7fWO0pPtYs8/7NVocCAwAAAAAAAAAAAMC2MsUrXfkyU3ykUDzdFA8qlO9n1QxHtOO2HiljoSn+0RXX9WDz/44r5R8XqS6srHem0gAAAAAAAAAAAACwDSzFl++0KftjU3zCVf+VKx5XaOX+zVaHYYAR1aja41bmx7jihz3f/P/dutYV73DFIVbNTFB1AAAAAAAAAAAAANhKluq9XfHLu9mUXe+KGVd81pTfYIpnFCkOpGoj1iPKy1z5/a7Y0McBgN+44hZXnGXKzyiUF1F5AAAAAAAAAAAAANgKrvxsV9ywBZuza11xqSu+7srvNcVTixQc2T7HWarnueLprriyz5v/t6+NrvipKf6vVTPLSAAAAAAAAAAAAAAAtoBVM2Oe8odccetWbNBu7g4DXOnKbVO8q0hxlCuPm2K8SEFh51KPpHrCUvy1pXzLgAYAbl83u/KZrniIKcYaVZswAAAAAAAAAAAAAODu2FRnH1d8rzdfbecZU7zHlB9niv2LFEup8NzQqNoTheKJrvha97SIzQMcBLjCFK8ulPe2VI+TBgAAAAAAAAAAAADcBVMUrri4xxu2a13xLVO8yZUni1Qvb7Y686n2HOiXVO/lyq9zxY8GfBrAelf8u6d4LCkAAAAAAAAAAAAAwF1wxRtvO2q9L5u2m1xxhSu+aMpvsLI+1qqZHan67Nao2gst5WNM8WlXrBnwIMAPPeVnWzXD6RIAAAAAAAAAAAAAcDtX7OmKzw5o43atK1a54nOmeGlR5gc0qvYEKcxOzVZnvEj1vq54iad8wW1XQAxsCOAyV36LK/YhCQAAAAAAAAAAAAAYGxtz5aNd8cMBf8G9yRXXueISU6hIMWnK46563KoZQpltPZTyIlP9EE9xanfIYxA9tNkVN7riNE9xSNGqCQIAAAAAAAAAAADA6LJqZtyUX+iKmwY8APAHAwGm3HHFP7nqR5nyniumpueT0OzjiidayrmPV0r84Ur5F5biRVbGTiQAAAAAAAAAAAAAYCS56p1d8d7tvPl/53WNKz5ryi8wxZHNVod73meRRtUemyzzgaZ4tysuGty1APlGV5xiioO5VgIAAAAAAAAAAADAyLEUD3TFuUM2AHD7utkV59ttm7pNU+br7lnVW/WOpvw0Vz7dFesG1DO3uOI/LcWxzVZnESkAAAAAAAAAAAAAGBmuONoVa4Z0AOD2tdYVF7ry5z3FX1k1s4zkZodG1Z5w5Qe64q2W8toB9ct6V/zIFCdaGUtIAQAAAAAAAAAAAMCc54oFrvi7Id/8//21yRXXdjd332bKD/IU4zbVIczh77UdC+Wnu2KlKzYPoFc2u+IaU3zgSVV7x2aLHgEAAAAAAAAAAAAwh7nyjq581iwaALjzWueKc7ysn2aKvS3VHPk+9D0Xe1vK/+yKKwc2CJDyN4pUP8YV9AcAAAAAAAAAAACAucnKej9XXDeLBwBuXxtMcaYrTjLFw0yZY9+Hue+qmR08xQtc8R1XbBjQyRFtVzzXynonEgAAAAAAAAAAAAAw57jiGXNg8//3142u+I4pn2JlfWyjai8k5SHuv5QfZYqWK9YMqD8uccXrJst8P6oPAAAAAAAAAAAAYE6xFB+ZYwMAt6+1rljlyh831U+2amYpaQ9h/1UzY1au3NMUL3PFzIB64xpPudVsdfYlAQAAAAAAAAAAAABzhisuGtA97Ntr3dq9a/5rpjjBUiw25XGSHy6W8qIi1UeZ4guuWD+YAZF8tiuOtLKmHwAAAAAAAAAAAADMfpOtlYe78ju7d7Ff2j2Kfc4OBJjyz035JFM+yJQX0QHDpVG1l5jitd2hjU0D6IkLrayfXZR5h0bVJgAAAAAAAAAAAAAAs59VM0tc8ShP8beu+Jwr2q64ZkCbsAM/FcCU/9eV/9bKePRxU3kJHTBEvVjGPFP8mSm+3b3Kod/98AtTfu1kqveh+gAAAAAAAAAAAADmlBVT00tN8ceW4kRXfNAV57pi9RwcBNjgirYpv8PK+qhG1V5A+sPBqpkJK+uHueLjrrh2AL1wnSmSK5ZTfQAAAAAAAAAAAABzkit2ceUHu7Kb4m2u/H1X3DLHBgHWueIHrvwBK+tjrJpZSPLD0n95H1e8xFK+fAB9sN4VZ1hZH03lAQAAAAAAAAAAAMxZzVZnvEj1Dq68X5HqY1zxXle+pHtFwOY5MASwuTsIcLkpKpvqHGaKeVbNEP52ZqleNKn8SE8RA+i1Da74rimeZMrjjapNAAAAAAAAAAAAAADmvmarM1Gk+rGu/EFXtF1xdXcDdS6cCnCrKT7uZX20lfWuVs3MI/Hty1LewxQfcsWvu4Mn/cz/akv5xZOp3pnKAwAAAAAAAAAAABgprjjQFM+zlJMr/tcVVw1gk3YQ61eu+JApJm2qswtJb1/NVmcHU7zQFdkVG/uc/VWW4s3NVmcnKg8AAAAAAAAAAABg5LhiwhUPt5Sfb4qPuuKHc+RUgItd8VFTrLBqZilJbz+Nqj3fUxzniq8OIPdbTPFOK+P+VB4AAAAAAAAAAADAyLIydrMUj3TVL3XlL7rihlk+BLDJFTOuaFlZH2PVzEJS3n5c+SGumHLF+j7nfrMrPmll/WCqDgAAAAAAAAAAAGCk2dSqBZ7yHpbqo0zxdkv5ku7x7Ztn6SDAeldcYmW8uzmV97WyHm9UbYIeMFeMFanex1L8kyuu7nPm61zxZVMcManpcaoPAAAAAAAAAAAAAGNjY42qvdTKON5TnOaKS7onA8zSYYB8rZXx1qLMhxfKS0h3u/TTgkLxVFd8r+/XTaT8S1P2ZquziMoDAAAAAAAAAAAAQJdVMwtM9UNd+bWuOMMVF8/eqwHySlP+B1M+0pTnk+7gecqPcsXp/R8CiJ9bihdZqnem6gAAAAAAAAAAANgiluolpvphVtZP2qKlONrLONin4v53WnypitnQ73uZ4nhX/D9XdLpXBMy2QYBbXHG+KU6yVO9Lqtuljw60lD/kijV9zvoKV7zeytibqgMAAAAAAAAAAOBeWcoHmiK5YtUWrmlX/Lcrvn2ndaYrvnD7MsWHTfG231snW1k/u7v+xKfiIVbWhzRbnZ1IAQPt+Wpm3MqVyyzlo03xj644v+9fc/dn/doVXzLFc6yaWUqyg9Oo2mOTZV5mipNd8fM+53yNK95uZexO5QEAAAAAAAAAAHCPLOWDXfGVPmxarXfFzb+3rnfF6u76tSsu626cXeSKH7vy90zxb6YorazfZGX9qkL5L30q/thUP2qytXJ3V55viglTTFhZz7OyHvepGD+2miZI3Lf+L2Oxp9inSPUzTPE1V9zkis2z61qAWO2KL1i58hib6ixoVG2CHVT/KJZYGU92Rd3nvrnByviwlfVuVB0AAAAAAAAAAAB3q48DAH1Y+WZTXGCKb1hZ/6uX8Vov46+KMj/eFUd4ygeb4iAr671NeZlP1UutmpkgZWyJRtWeKJSPcOX3uyJccd3sOhEg32JlqCjzw015BxIdnGars5+lfI4r1vUzY1OcY4q9qDgAAAAAAAAAAADu0uwaALjHtdYVF5nif11xhiv+1ct4k6t+sSme6oonWFkfUSj29ang2gHcy3NRH2gpTnbFV13xq+6X9rPhOdjsypea4jWmONxSvZA0B6PZ6hxoiqp72kkf843PecoPb1RthpsAAAAAAAAAAABwR3NoAOCe1mpX/MQV33TFZ1zxUVN+vSle4imeYmX9GJ+q97VqZhEdgd8+G9XMuJcr9zfl55nyqa64chZdD3CjK841xcuaZd6VNPuvUbXHCuW9XfHObq/0K9sNrnyuKT+OIQAAAAAAAAAAAADcwYgMANzVWu+Ka1zxU1dkV5zrijM95Y+a4pVW1k+xqTigUbXn0yWjrVG15xUp72Mpr3DFB2fZ1QBXufJpVtbHkeSA3qmK3UzxYldc0sdcb/WUz3PF47nmBAAAAAAAAAAAAL81wgMAd7+xdtsR3le54mem/H1TfM7K+lWF6mNsatXuppjvKSYK5Xk+FeN00Qg9L2Xs7MqPdMW/uOKXs+RqgI2uuMyU32up3t/KetyqGcLsb58sNtXHWcoX9fHUiA2u/NMi1SuarQ7vIQAAAAAAAAAAADAAcB/XpZ7iP035XV7GCa54iCmWm/LuzdbKJXTVqDw79QGmeKUr2t2hkdkwDHCZlfWrrKz3b1TteaTYX81W5xBTfNUV6/qXaV5TpHrSFbx7AAAAAAAAAAAARh0DAD1ZN7jiAlecaqpf68pPN8VjrKwPak7lpY2qTaPN5WdoatXepni1pXxW9+73zbOgZ88olJ/iimUk2D+Nqj1WKC93xSf6e3VE/rkrXmpl7ErVAQAAAAAAAAAARhgDAD1fm7tfg9euON0VH/SUX2GKJxcpDm22OkvpurmnUbXnFcoHWMovMuXTukMhw96nP3fFP3tZP9KqmQWk2Mf3rGJ/U7zLFb/uY6a/dMXJDAEAAAAAAAAAAACMMAYABrLWuOKnrvgfV3zBFO+1sn6WT8X96cC5pVG1Jyzlg4qUn20pf8UV64e8N292xXdN+aRCmSPk+/uu3cMUf999H/Qrz8utjFdaGQwaAQAAAAAAAAAAjCIGALbLl9drXbHaFZe64nxTvN3LmPQylphiolDMa7Y6NOcstmJqeqJIed9C+dmW8neGfBBgsyuu85TPaLY6B1uKeVxb0af3bRlLXfFCS7mfJ0RcZ2WcZGWMU3EAAAAAAAAAAIARwwDAUK1bTfFVU/yjpXiCKx5YKO/RbHUW0amzV6NqL7KUn24pn9sd/Ng0xD34a1e8oSjzA1wxn/R6r9nqjBepLizFRa7Y0KccN1oZL7MydqDiAAAAAAAAAAAAI4QBgKFd613RMcWppvhbVzZTPKRZTu/E19mz04qp6Z0s5Rdbyl9yxZXdL++Hsfc2uOLrpniOTXWWkVzvNVudhYXqSVN80xW39inH1a54lZWxKxUHAAAAAAAAAAAYEQwAzIq1yRVXuOI8V3zUU355oXhEs9XZmQ6eXRpVe16hfICl/EJTPs0V64a4765yxYcK5SNJri+9MFEoHu+Kr/VxCOCXrvhbhgAAAAAAAAAAAABGBAMAs3Jd54oLTHG6Kd5cpDju2KlphgFmkUbVnrCUD/Sy/mtX/HDIT6L4lin+3KqZpSTX+z7wFA8xxX/2McPLuycBkB8AAAAAAAAAAMBcxwDArD8Z4ObucfIzrnhPoZi0qc6unmKiSDGPDh/y529q1QIr6+Wm+mRXXNzNdBj77EpT/kihfJBNdcZJrsd9oNjblb/Yx/yv8xTvMcUE1QYAAAAAAAAAAJjDGACYk2uNK75kKU525cNdse9kmZc0qjYbt0P9LNYHeIo3u2JVH4+E36Zlip94WT/byvp+JNbj/MvYxRWnuOL6fg1ymOJfTUF2AAAAAAAAAAAAcxUDAHN6bXbF1a442xSvd4WZ8gMaVXs+nT/Mz2T9EFcuXfHjIR0E2OCKj3nKRzVbncUk1sPsy9jTFe90xbV9yu5GU3zQFPtRbQAAAAAAAAAAgDmIAYCRWpe54kxXvMUVT54s876Nqs01AcP4XJax1JUnXfkj3TvcNw9ZL93qih+Y6ldwGkDPs9/bFW92xeq+XQegOMVT3o1qAwAAAAAAAAAAzDEMAIzkWu+Kn7riPFe8y5SPbVRtvuQeQp7y/YqUzRRnD2kvXeUp/1vRqo8krR7mrlhWpDjRUl7bp9yudMXJVsZSqg0AAAAAAAAAADCHMAAw8uuW7mbg90zxqiLFclPML1JwMsCQaFTteabY21J9kit+4opNQ3gawCWF8tNMMdGo2oTWA81WZ3GR4uWW8k39OgnAyni5lTzrAAAAAAAAAAAAcwYDAKw7rbWu+LYp/s6VH2yKvYsUC3lShoMr9nHlt7niwu7G+zD1zk2m+EhR5ge6Yj5pbbtmq7OoSPFXlvp2DcSm7hDAjlQbAAAAAAAAAABgDmAAgHU3a7MrX2mKz7vilZ7imMnWSu56H57n9nGW8idccfmQ9c0GV3zDFc9slplN5R5otjo7FCle5opL+nT6w2pXvMJSvQPVBgAAAAAAAAAAmOUsxb6W4l3dTbtvdO+Gv2QL1s+7d8mzWT731wZXdFwhT/n5hfLyRtXmC+/t/exOrVpmiue74ixXrBmynrnElE+xVO9LUtuu2ersaMrPdsVMn/L6qSme02x1FlNtAAAAAAAAAACAWcxSvdBSHGApH2YpH+YpHucpjtmC9XhL+amuePrvrde54g3d9TZXfMJS/vRtK872FG1PsdJT/JhN9dl6KkBc6YrzTfHPlurHW6oZBNi+z+98T/FAV7zClC/s0zHx9/lKAFf8p5X10SS17RpVe6JQNK0/pz5scsUqS/H0ZquzgGoDAAAAAAAAAABgzFK95Pblih0s5WWW8m63rdjDU+znKfb3FAe44kGmONwUT7ZU/7kpXmMpv99SnOopzvMU33HFLd1TBm7tfoW+sbs2D9lG5yiuta64wpS/Xij+xKZW7WGKiSIFD8L2ePbKWDypfIgrf7T7rGweotMjZlxxok11drCS/tgWx05NTxSKp5jisj5kvNmVf16kerLZ6oxTbQAAAAAAAAAAAPRco2pPTCoOtFQfZSn/haX8Sk+RXHGmK37kih93ry240hXXuuLmPt2Tzbrn9UtTfNCUn+gp9rNqhq+ItwNL9YSl+nhTnOeK64doEGCdKz7hiiMaVXseSW3TO3Fe9ySA6A5E9TirfH2R6qLZ6iyk2gAAAAAAAAAAABgoS/X9LdVHWsoneIqX221XD5SuOM0V57riB6742ZBths71kwG+7Kpf6ik/tijzbo2qzdfEA+Yp728pv9H7tkl8n9cFhfJTmq3ODqR03zWq9vxC8TRTtPsz8JQvshSTjao9QbUBAAAAAAAAAACw3a2Yml5iqh9gykd5iqe78ktd8QZXfMwVX+gOBlzGaQF9W+tv23zO/88UL7Spzp505WBZNbPYUjRcMeWKG4akLza74hJT/J9CeT9Suu+6QwBPNUWnP1c35G+a8jEMAQAAAAAAAAAAAGAoNVud8cm0cpmlfJCleLgpnuCKZ5rq17jiI5bia6a4kKGAnq6N3esZvmqKvytS3J9OHCxX7GPKL3HF9BD1xbWu+GRR5odwQsR916jaE4XiOFNc3oeMbnXFWa44jEoDAAAAAAAAAABgVugOBSy2lHe2FHuaYn9XPNhT/LUrPmyKb7niuu5m2EaGA7bpy+8bXDFjyqdMlvlBhfICq2bY/O2zRtUemyynF1qqD7cU/+KK1UNyHcZ6U86TqX5ioTyPpO6bY6emJwrFk+22E036kFF83hR7U2kAAAAAAAAAAADMGZbqozzlF5viQ644zxUzrvjl7w0HsMm/dXeM3+wp/sPLlU9yxT6W6gV02WB4yk+ylL/hiluGpB9uNeVXu2JPTgO4bxpVe54pP9UVl/RjuMNS/pSVsQuVBgAAAAAAAAAAwJxkqT7IUzZTnNwdCjjDFT/sHne/gQ3+LV43uuJ0T3GiKR9pytw3Poj+nVq1l6d4nysuHpJTLW5yxamF4lHNVodhkPug2ersUKQ4yVL8vA9DAJtc8TZX3I9KAwAAAAAAAAAAYM6zVO9mKf+Rp3iepfx6V3zCFd/rnhCwmY3+e103uOJbrvxPVtZHWzWzlK7qL095B0v5T7v3vN8yHFcCxPmm+BMrYyEJbb1mq7NjkeKlluLKPuRzrSv+odnq7EilAQAAAAAAAAAAMDKarc58S7GXpXiopdz0sn6JK+SK6SE6dn1Y1zpXZFfIFG6pZrOxj6yame+pfpCneIul/Osh6YGfmuI1pHOf3z9LixQvtJTX9jiXza64zBQva7Y6O1BpAAAAAAAAAAAAjCSrVi2wMnZ15X29rB/pir90ZZniIlfc6oqNnBLwh/fCu+JqU5xtqT7WFPMt1dwP3yee8g6m+gmeYrrbj9s7/+s95Y/a1Ko9yH3rNVudRbddB5Bv6sMQwE9M2Y6dmua6DgAAAAAAAAAAAOB2Vs0ssqmVDzfFP1jKZ7lixhVXd7+CZwjgd2uDKf7LFE8z5QNMmTvi+8RTvp+l/HZX/GwIBgE2uvI3TPHYQpkrAbb2/ZLqpa74O1es6UM2l5uyUWUAAAAAAAAAAADgbky2Vi63lP/CFf/iirO7R+HfwADAb9daU/66KZ9oygfTMf1h1cxiT/XxrviSK24agtwvMMVzmmXmOoitzbKMPV3xdldc04dcsikeRpUBAAAAAAAAAACAe9Co2hOm2MeVH+/KL3fFR1zxbVdcyxBA/Ka7KX2WKb/ElA+kY/rDUz7EFP/kitVDkPnPLOU3WTWzE8lsHStjb1e8pw/DHJtdcbanfChVBgAAAAAAAAAAALaAVTPjXq7c1VIcboonu+L1pviGpbx2xIcANnc3pr9iyic1y+l9G1Wbu+J73X9Tq3YwxbNc8b0hyHyNK3/MFQ8kma3jKe9lis/041QOV5Su2I8qAwAAAAAAAAAAAFuhUbXHTbHEFHu64lGueKMrf7t7TcCG7qb4qA0CbOpuDM9YWf/jiqnpXYuynteo2jRMj1jK8y3Fka745BBcCbDOFV+zsj7aFAx8bE2Oij1NcU73mellJjeY4q3N1spdeO4AAAAAAAAAAACAbdRsdQ6wlF9qijNd8ZPul/EbR/NUgHyxlfEPRZkPm5yKJWxI9k6jai+yFC9zxUwfNpG3dnVc8cxJTS8mmS1nin1M8fnuwFBPhwAK5VdMlpk8AAAAAAAAAAAAgF6wamaBqz7cU7y4eyz3d1xx9QgOAmxwxQ9N+dVW1g9vVO35dEcP+6yMx1mKLw3BaQBXmfLLmq3OzqSyZRpVe16hONoU57ri1h7n8QtTPJMqAwAAAAAAAAAAAD3WqNoLrYwjLcXzXfGh7h3ua0dsEGC9K8435b8x5QPpit6wambcypXLTfF2V1y6nTO+1hRv5g76rXo3TBSKx3UHhHp9ksOMlXE4VQYAAAAAAAAAAAD6oFG1xyfLvIsrHuqqn+sKueJXo3UtQKx2xVdN+URX7EJX9IalvIuleJor/mc7XzmxxhUqlA8mlS1+L0xYisJSvrQPz9uZluoDqDIAAAAAAAAAAADQR1bNTHjKuxSqDzPF37jyt11xw3bevB3U2uSKNaY4x1J9nCkWNFudcbpi2zRbnfmTZV5uKT6znftonSvOMcVDJzVNrluW3QJLcXz3yoweZ5HLZmvlXo2qTaEBAAAAAAAAAACAQbFUH2KKN1vK33PFL7sbqXN9GGCjKc4oUn2slfUyq2bm0QnbxlOe7yn/oyt+sV0HAVL+ZaH81Gars5hUtuD5L2PcyniZK67rcRY3mPIpk2XelSoDAAAAAAAAAAAAA+aKnSzFU03xAVec64orRmAQ4ApXfMQVxzXLvJQu2DbNVmehKZ7iim9vz0ESU77KUryo2ersQCr3zlLexRRvc8W1Pc7ialP8jSmWUGUAAAAAAAAAAABgO2hU7flWxsGe4s9d8TFXXDgCVwRc6MrvtrJ+dKNqL6ALtql/JizFUa6oXLF2O2Z6uSleY2XsTSr3zhT7miL1IbNLrYynUGEAAAAAAAAAAABgO7JqZtzLejdL+WhT/H33q+4Nc3gIYJ0rfmTK7yyUH0AHbGP/pLy/K15tKW/PIYBrTPGeQnkvErl3heIQU5zuilt7nMPKZquzPxUGAAAAAAAAAAAAhoCVsdhT7OXlyie58hdccX33VIDNc2wIYLMrbjHllaZ4kanewaqZcTrgvilSLCmUj3fFj12xaTtlerMpPmuKvRpVm1DuQaNqj0+mlQ+zlOteP1em/JkVU9M7UmUAAAAAAAAAAABgyFgZ93fF61zx3664cjtu7vZ7netl/YSirHdtVG0GAe5rv6R8qCv+wxU3bK8sTXFOoXxEo2rPI5F71mx1DraUL+pxBje54p2WMkMAAAAAAAAAAAAAwDCyamYXV/5zS/kzrljVPUZ/rp0IcLkp3mfKj3HFYlK/j72S6j0txVtccfl2yzLl75jy46yaWUAi95BVGeOmeLYrLu5xBr+wFC+yVPMcAQAAAAAAAAAAAMOoUbXHm1N5mSmONcWbXPGNPtwhvr3Xeld83xSvs6nOPqR+31g1s0OhONEVl2ynHG91xXdN8Yxmq8Mm9D3wlJe64uWuuKLHGVzgiidYNTNBlQEAAAAAAAAAAIAh1mx1FpviUFP8uaX8le7G+VwaBLjeFV/zFM9oVO1FJL71VkxNL7QUx7vie9spw02uWGWKZ1mqF5LI3Zss8x6meL8rbu5x/b/iKe9NhQEAAAAAAAAAAIBZYEU5PVEo712U2V359O7d75vm0LUAV7nyqaZ8eJHqiWarQ+hbwVKe74pHWMpf2E7XRmx2xWor4yQrgy/R70ajao/b1MoDLOX/csXGHtZ/gylE7QEAAAAAAAAAAIBZyBUP8xT/6oqLXHHTHDoR4DJT/TpTHNyo2vNIeus0W509THGKK67eTvltsDJeUSjvTBp3z1L9QFf8T6+HMKyMk5qtDqcwAAAAAAAAAAAAALNNs9WZV6T6YX7bhu93XLGm+yX2XBgEON+UTyiU9yHprdOo2os8xcmu+Nl2yu4aU7zJFPuRxt2zMh7tist6W/t8caF4aqNqcxIAAAAAAAAAAAAAMBtZNbPQFUdayq9wxZnd6wHmwhDA1a4oLcUTm63OIpLecq484crPccV3XbFhO2R3nSnebwoGOO7uuVWMm+Klrriuh3Xf6IpvmuIRVBgAAAAAAAAAAACYxRpVe76nvNyVT3DFaa5YPQeGANa7YpWpfrWV9RJS3nJWxsIixWMsxVk9vm9+S9caU3yoWea9SeOuFYqdTPkdrri1h3Vf64qPe+L0DAAAAAAAAAAAAGDWszImXLGbpfrxnuJTrrjRFZtm+SDAjZ7ylyzVj7AUE42qTdBboNnqzJtU3s8Un+huDA86t1s85a+umJpeRmZ/qFG1xyZTva8p/q3Hz+jNluq/abZWLqbKAAAAAAAAAAAAwBxiqX60p/iMK37R4y+Nt8f6tSneUCgvt1TPJ90t06jaSyzFW1yxZjtkttlTPqfQ9MGNqj2PNO7iGS3jUFd8uccnNVxeKBdUFwAAAAAAAAAAAJhjLNVLPYW7onTFRbP8RIC1rvgvUzy9WeYdSHcLe0Ax3xSvc8VPtstVDil/oVA+giGAu+bKT3BF3eO6f98VXMEAAAAAAAAAAAAAzEWW6mWe4smu+JgrLp/lpwH8zJXf44rlJLuF+ZexxMp4XnejedPABzdS/nyhfHijao+Txl09n3GCK9b19PQF5fdaNcOgDAAAAAAAAAAAADBXWap39xTmKUpXrJ7FQwDrXPEVV/1nVs0sJdktyL6MHYoUk5byD27bIB74EMAZk5o+kCT+0LFT0wstxft6XPMrTPF8qgsAAAAAAAAAAADMYZbqeZ5iF0v1MZ7iP1xx4yy9GmCTK6405Y8VysttqsMR8/ei2epMWLnyIaY4dztkvsGUvzvZWnlos9XhJIA7PpNjluL+rvivHg5nbHbF9y3lx1qqqTcAAAAAAAAAAAAwCizVf+QpPuuKq1yxcTaeCGCKn3hZn1Ao70ai927F1PQyT/G57vDHgPPKdZHqxzVbnQUkcUee4tGuuKDHJzR8oVAs5/oFAAAAAAAAAAAAYERYGTu78l+64ouuuGY7HBHfi43l603xflM83KoZNpfvLXPFHqZ4X3fwY9AnN3zXUjyJIYA7alTt+ZbyC1xxeQ/rfbMpv9kUO1JhAAAAAAAAAAAAYIR4ygdYyi9xxVdm40kArljnim+54tnOhue9spT3dMVrXfGrAee00RX/XaS60Wx15pPE72dS7+KKd7vi5h7W+1dWxvFUFwAAAAAAAAAAABgxjao9YSkf6qpf64qZWTgEsMkVl5ri3c0y70mi98zK2MXKeKUrrh/8EED+QZHqPyKFO2WS8r6W4vQen5BxQbPV2Z/qAgAAAAAAAAAAACPGqpkxK1cuLlJ9uKffHhO/aZYNAtxiyudbqh9pZT1BqveQdxlLLMWfWMrXDTijza68asXU9LJG1SaI39NUXu7Kv+jpYEzKspR5FgAAAAAAAAAAAIBRZql+kCmmXPFLV2yYZYMAV5riVa7Yy6qZeaR515qtzniR6sJS/ultG/MDHAJI+SuFpg9uVG3yuWMe5orVPaz1NZbyy5qtzgIqDAAAAAAAAAAAAIwwK2O+lfF0V/60K64Y8Cbxtq4bXXGqKY4plNn8vBvNVmdhkeJ4U3zPFbcOMJ/1nvLphfIRDAH8jqe8k6d4Y4+vZ7jAUnDtAgAAAAAAAAAAAICxMUt5b0v5L01x1oA3ibd1bXDFBa7460bVXkSSd61RtScKxTGm+JYrNg4wn7We8n8Wyoc3qvY4SdymSHGQpfhcD7NY6yn/q6W8J9UFAAAAAAAAAAAAMNao2hOmONgVr3XFr2bZlQBXuPIHLdX7k+Td51uU+ShT/HDA2azzlM+c1PSBpPDbLOaZ8gpXrOphnVdbqp/PVQAAAAAAAAAAAAAAfstSvcQVj/CUP9M9Zn+2XAuwzhXnWYrJ48q8qNnqEOadNKr2uCn2N8WXXbFpoCc1pPyNFeX0MlK4jSsWuPIrXHFtz+qcIjzlB1BdAAAAAAAAAAAAAHfQqNoLCsXxrvhmdxBgtpwGcLWleKMp9iXFu2aKfU3xaVfcMsBcNnvKZ5liDxL47TO2xBQf62WdLcVnm63OYqoLAAAAAAAAAAAA4A9Yqg8wxT+5ojPg++O39TSAT5ji4Y2qPZ8U7yJXxYNc8e+uuGmAudxoig+Zgqsaupqtzv6u+HEvBy0sxXOpLAAAAAAAAAAAAIC75ClPWMorTPnjrrhqlgwBbHLFeab8DKtm+CL6LpjiUFP8R3dgYlC5XGeKD3JCQzeDlMct5ef0+Lm6wFJ+KNUFAAAAAAAAAAAAcJcaVXu8UOxhiueY4tuz5DSAja640BUnu2JXUvxDplhuis8POJc1pviwkcnY2NjYmKve2RTvcsWtParvelekZquzjOoCAAAAAAAAAAAAuFuW6gWm2MNTfr2lfE33S/thHgLY7IobPEXlKfZoVO1xUrxTpoq9THH2gIc61loZr7QyJka+/tXMuCsOdsUXu/3ai/pe5Sm/0JXn0eEAAAAAAAAAAAAA7lGjao9PKh/uitNccU0PNy77tkzxg6LMR1mquRLgTlx5L1e0XLFmgJlssDJeYaleQgJjY5bCXbGqh89SuOLxzVaHIQAAAAAAAAAAAAAA984Vu1vKr3LF912xYRacBnCxKU4slO9HendkZezpird3BzoGlckVpnhus9UZ+SGARtVe4Mp/74rrezb0kkKWgqsAAAAAAAAAAAAAAGyZRtWeb4qjXfFRV9ww7CcBuOJXrnh3UeblXAlwR1bGXq44xRU3DXAoo2MpTmi2OiN/MoOlendXfK6H9V3jKT+HzgYAAAAAAAAAAACwVSzF7qZ8oivas2AI4AZTPnsy1Q8juTvlWMburlwNMItNpsiF8uMbVXvkj6svyvwwV+7hKQw5WzXDiRcAAAAAAAAAAAAAtlyjao8V5fRCVxzhyp/ongaweYiHADa68iorw00xnwR/x5V3N8XZt9VoMEMAnvKPCuUjRr32K6amJ1xxcg9rv8kV73TFPDobAAAAAAAAAAAAwFZrVO1FrvwsV/zIFWuH/DSAa03xZkt5D64E+B1T7GOKT7niloFlkfKFpthv1Gvvynu48id7OATwK1M8mRMWAAAAAAAAAAAAANxnluoHm+LDrrhsyIcAbjLlj08qDmu2OmyS3p6f4kGu+DdX3DTA6wA+bSkfNMp1b1Tteab8RFdEr067MOXTC+UD6GoAAAAAAAAAAAAA95mlvJOleJ4pznPFuiEeAlhrijNc8WhS+738FIea4t8HmN1NrviglbHPaD839VJXvMYV1/aorr82xcnNVmcJXQ0AAAAAAAAAAADgPmu2OgtMcZgrf2DIrwTY6IofFspPILXfMcX9TXHaIK9lcMUbLNU7j3LdJ8t8gKV8jis29aiu3zfFI+hoAAAAAAAAAAAAANvMlXeyFM+ylFf3cFOz12uzKy40xV9YygsaVZvgxsbGTLGnKc4eYG6rLcVLmmnl4lGteaNqj7viWFf8okc13eCKj3nKy+hoAAAAAAAAAAAAANusUbXHJ5Uf7Ck+74o13Q33YRwEuN6UT5lU7N1sdcZJbmzMUxzkiq+74tZBZGDK1xbKz2hU7YlRrruleF33dIoe1DWvNeVn0s0AAAAAAAAAAAAAesZT3s9SfqMpfjLEpwHcZIqPu+JQEhsba1TteYXij01x7qCGAFxxmSlG+kqGJ021l1rK3+phTVdaqnenowEAAAAAAAAAAAD0TLPV2dEUT3HFl4Z0AOA33Y3uMwvlh5PY2Fijak8Uisea4rzefZV+r1cyfNOVHzmqNXfFmCuarriyVzU15TfRzQAAAAAAAAAAAAB6zlI+xBUfdMUNQzoEsMkV3zTFJGl1TwJI9QpL+dIB1X+9Kz5jZSwf1Zq76p1N8X97ePLChZ7yH9HNAAAAAAAAAAAAAHrKUj1WKO9iiue74scD+rL8vgwBXGwpv/C4Mi9utjojnVmz1Zk/2aqPtZSvHVD915nivZNp5TKrZkbvGalmxi3lR7jiv3t3skXWiqnppbyBAAAAAAAAAAAAAPSFlXG4pfxJV6wZ0tMArjfFWyfTyvuNfFapnmeKP3PFVYMaAnDFG4oydhrVmrvyi1xxdY/q+StTvKDZ6kzw5gEAAAAAAAAAAADQF1bN7GyK17vikiEdAlhnilOsjANGPqsydnTFK13xiwHV/mpTPG9k653q3V1xavdahG2upynOLFL9AN46AAAAAAAAAAAAAPrGlee78rNc8S1XbBjCIYBbXJFG+V7621kZu5riLa64bkC1X2UpP2ZU610ojjbli3tUyzWuOMkVi3jrAAAAAAAAAAAAAOgbVyywFI82xWe7G+7DNgRwsyv+3cr6waOelSn2NsUHBpTTZleca2UcMYq1blTtCUv5zb2qpyn/yJQP5I0DAAAAAAAAAIMzPn/+/IlhWQsWLJi3YMECUgEA9F2z1ZnXLPPepnjrAL8w35q13hVfN8XDTDE+ylmZYidP8VlXbBpM3fOpk2nlPo2qPXK19pR3MsWqHtVyo6X83kbVHueNAwAAAAAAAAADMDEx8cAFCxa8cOHChScNyfrThQsX8k9iAMBAeconuOKnA9pg3tr1v57y4xpVe2KUM1oxNb2rKc7u1R3193YNgym/qyjzrqNW52arM1ak2no3FJNvmizzobxlAAAAAAAAAGAAFi5ceMKiRYuuXrRo0W+GZP1g0aJF80gGADBIzVZnXpHqx1jK57jipuEbAsg/M+WiUbXnj2pGjao9Nql4kCnOccXGAdT9cle8yFIeuTvsTXmZK3+kV3U2xaearc6OvGkAAAAAAAAAoM8YAAAA4DaNqj3PUhziKd7nitVDNgSw2RXZUj5hlDdSm63O/CLFsa74wYDqPuOKJ43gszBeKB/jityjOl5VqP4z3jIAAAAAAAAA0GcMAAAAcEeW8u6uOMlSvnLIhgA2uuKnpnhps9VZOrr51ItM8afdKxsGcfrCd5utzv4jV+cylrji/7hiTY9694uu2J83DAAAAAAAAAD0EQMAAAD8IVcssnLlY02xakDHzW/NSQBXW4q/LlI9ukMAZSx05b9xxTUDGbxIuVoxNb3zyNU51Ye44lvdvtvWOl5nyi+3MvidBwAAAAAAAAD9wgAAAAB3rVG1xyfL/CBTfLJHX0H3er3Pyth1lDOyFG9yxdoB1Pp6U7zRUx656xdM8VxX/LpHdTzPynxEo2qP84YBAAAAAAAAgD5gAAAAgHtmZezlire54soefQndq7XBFW+3MvYa1WxWTE3v2B3Q2DCAel/qir+0VC8eqf6vZnZyxRk9quGtpvy6QnkpbxYAAAAAAAAA6AMGAAAAuHeu2N1SvMIVvxiyUwDW3HYSQH3/UczFqpkxU32IpTh9QEMAPzLlPx61L9gL5ce4Yl1vapjrQvkQ3ioAAAAAAAAA0AcMAAAAsGWarc5SU36qKS4fsiGA613xSVMsH9FcJkzxWFd8dwC13mSK002x+yjV+Nip6QWmKHtUw42W8ut4owAAAAAAAABAHzAAAADAljtuanrCFEe74r9dsXGIhgDWm+ILpthnFHOxMuZbyse7YmYA1zTcaim/y1I9MUL1HTPFkab4WY9OAbhixdT0brxRAAAAAAAAAKDHGAAAAGDrecoPcMWprrhxmE4DMMWXTbHfqOZiiuf6YE5o2GiKP2tU7ZH5zWKpXuKKv3fFLT3q1Y9ZNbOAtwkAAAAAAAAA9BADAAAA3DdWxnJL8S5XrBmiIYCNpviMKUbyjvVG1V5kiv/jilv7X+s8UygePVI9n+oHu+IbParhZVbWj+ZNAgAAAAAAAAA9xAAAAAD3XbPV2aVI+WRX/HqIhgBuccV/mOKwUcxkRTm91FLP7qu/x6sAXHGapfyAUamtVTMLXPGyHvX7Old82KqZJbxJAAAAAAAAAKBHGAAAAGDbrJiaXlQoXuCKzhANAdzsik+ZYvmo5dFsdcYsxWE9/FL9ntYNrnirpXrnUalvUeZ9LeWzXLGpB/WbccUK3iIAAAAAAAAA0CMMAAAAsG0aVXtssswLLOUnuuI7PdoY7cVab4rTTbHPqGXiKc8zxQpXhCs297nOvyqUn3Hc1PTEiPT7uKX8vB6dArDRFS1L9R68SQAAAAAAAACgBxgAAACgd6yMB7vijO7x5kNxGoApvmyK/Ucti0bVXlAoXuSKXw6gzitd8YgRqu1iS/mMXg1QmOJ4SzW//wAAAAAAAABgWzEAAABAb7nigZayunfED8MQwEZTfMYUh4xaFs1WZ1dL+R2uuKn/dc6fb7Y6u4xKba2MR3WvmuhF/T5hivvx9gAAAAAAAACAbcQAAAAAvTfZWrmPpZgaoiGAW1zxKVMcNmpZuGIfV3xqADVeaylOHp265nFXnNaj2q02xQreHAAAAAAAAACwjRgAAACg95qtzvhkiv1N8Q5XrBmSIYCbXfFpUywftTws5Qd6ip8MoMY/duWR2Mi2MsZc8YRe9bcpPs+bAwAAAAAAAAC2EQMAAAD0R6NqjzXLvIsp3uKK1a7YPARDAOtNcbop9h2lLCbLPG7Kk664os/13eSKL1mq79+o2nO+rlbG/2fvPsMsKeo1gPc5p/7vu7tsJieXtBIEySBKGJDZ6QIvBhRMXBQVUBATXgOY4AqIXlSCYbpmRwwEkaCiYriocFFAZeg6Oy4oCxIEySxxlw3eD/TqurJsmnPmdJ/39zz1BXYHprq6q7rq7aqpPsSs+L3XvG1mzd305BARERERERERERFZAwoAiIiItFbP4BDTEI/wId7eITsB/D0N8SfpQJzSTdeht3+YaWge40N8pMX1u8CH/It9A/nkbqhXn8U9fYhxhNrl19LB2aanhoiIiIiIiIiIiMhqUgBARESkPdIQ3+pDnNMhIYAFPsTPpgNx/a66BgNxXR/iF32IT7a4fu/1IR7psxyVr9OsOcGHeIYP8ZkRqLe70oHmHnpaiIiIiIiIiIiIiKwmBQBERETaw4e84UN+mA/x+g4JATzmQzw9HYgbdtN16AtxuzTEnxQhiBbWb/4HP9Dcrivadhb38SE2R6De5vkQz00HZ4/VE0NERERERERERERkNSgAICIi0j7pQEQ6EGf4EH/XISGAR32Ip6UDcZ1uuQY9g0P1vqy5f5rld7S4bhemIQ52RbvOmmN9Fs8pFvDXtN6aaYj76mkhIiIiIiIiIiIishoUABAREWmvdCC6NDR3TrP8F63/Cn2lyiNpFo+Z0T+ra7667u0fdj7Lj2tD/T/ts/zwdHB2rfLtOmvu4kMciVDFQh/iF9KZfxyvp4WIiIiIiIiIiIjIKlIAQEREZHT09g9vnGb5j4oFz1EOAeRPp1k8rrd/uGtCAGkWXZrF89twFEDTh+ZLu6FOfRY/N0L1dksa4r49g0M1PSlEREREREREREREVoECACIiIqNnRv+szdKsHefRr9RC9eNpFt/V2z/cFV9e9wwOJX0h39qHeG2L6/ZZn+XfTrN8g6rXaZo1t/AhPjgSdZaG/ON9IR+np4SIiIiIiIiIiIjIKlAAQEREZPT09g/X+rLmDmkWr+iQ4wDuTLP4pp7BIdcN9Z9mTUuz+Hof4pwW1+uDaRZP6O0fHlPl+vRZrPksfmmEAimz+kK+tZ4SIiIiIiIiIiIiIqtAAQAREZHR1ds/3OjLmjumWfxhBxwHsNCHmKdZ/h89g0ONbqj/NMsn+Cx+yoc4t8V1O+SzfNdq12Uz8VncxYd450i0xXQgHqMnhIiIiIiIiIiIiMgqUABARERk9PX2D9dn9M/aOs3yqzpgJ4BFPsRb05D7A2fe3B0hgIHhDdMsv7zFAYyFPsRvpllcp8p16UOc5EP8og9x8WrU0WIf4jM+xBvSEI9PQ1xPTwcRERERERERERGRVaAAgIiISOfo7R/eOM3yKztgJ4C/+xBvS0N8WbfUvQ/xJT7E2Op6TbPm8dWvy/yAVdwFYJEP8T4f4i/SEN+SDs4er6eBiIiIiIiIiIiIyGpQAEBERKSzzOiftVmaxZ90wE4Af/ch/sZn+ZbdUvdpiG/1IT7W4jq922f5VpWux4G4jg/xqyvRhhf4EOekWX5RmuVv7hkcGqMngIiIiIiIiIiIiMgaUABARESks/T2D9f6suYOaRYv9iE+0QHHAXw7HYhbdEPdHzDz5rFpiF9ucZ0u9iH/etW/cvch/w8f4pwXqIe7njsqID+oL+Tr9gwO1XT3i4iIiIiIiIiIiKwhBQBEREQ6T2//cGNGiFukIX7Nh/jUKIcAnvQhP7O3f3hyF9R7kmZxax/iL1pcp39LQ3xblesyHYgTfMi/8zy7APzFh3iqD/me6UCcortdREREREREREREZAQpACAiItKZegaHar0D+TppiP0+xKdHOQQwNw3xlBn9syb3DA5Vut59ltd9Fg/2Id7R2l0A4m99lu9W5fpMB+IMH+JffYjzfIh/TEP8qM/iNmnWHKs7XERERERERERERKQFFAAQERHpbD2DQ2PTEL/uQ1w4yiGAB9Msf09fyCt/Tns6OHtsmsWP+xDntrA+F/iQf6lvIJ9c4bY7xof8nDTE49LB2ZN1N4uIiIiIiIiIiIi0mAIAIiIinS+dObxBmsUfP8926u0uD6QhvrYb6txn+VY+xCtbXOf3+hAP9yGaWrmIiIiIiIiIiIiIrDEFAERERDpfb/9wrS9r7pBm8YoOCAEMp1m+VzfUuw/NvjSLd7W4Pq+eMZBPUysXERERERERERERkTWmAICIiEg59PYPN/qy5kvTLP5wlI8DWOxDvDodiNtXvc7TwdnwWX5Ki+tzvg/5p9XCRURERERERERERGSNKQAgIiJSHr39w/U0izv4EK8rFuJHKwSw0If43RnZrI17+4drVa5zn+UTfRZvaHF9Pz6jf9Z2auEiIiIiIiIiIiIiskYUABARESmfdCDu7kP83SgfBfBsGuI3ZoS4ac/gUHXrenB2LQ3NvdMsb+VRAIvTEC/1WT5FrVtEREREREREREREVpsCACIiIuWUDsS9fIh/GOUQwFNpyE+bMXBzpReufZZP8Fn8pA/xiRbW5SM+5Mf3DA411LpFREREREREREREZLUoACAiIlJO6UCs+xBndEAI4LE0xPdVvb59aG7lQ/xBcfxBS3YB8CFe2xfijmrdIiIiIiIiIiIiIrJaFAAQEREpL5/l8CG+yYd4xyiHAO5OB+LLqlzX6eDshs/y1/oQ57SwHp/2IZ6eZs1Jat0iIiIiIiIiIiIissoUABARESm3NESkIR5ZhAAWj1IAYLEP8YYZ2awtewaHKlvXPsvhs/hZH+JTLazL+9KQ9/ksr6l1i4iIiIiIiIiIiMgqUQBARESkGtIQ3+hDvHsUdwFY6EN+eV/IN6l0PQ/OnpJm+U9bW5f599OQb6BWLSIiIiIiIiIiIiKrRAEAERGR6vBZfL8P8bFRDAE86UP8fBri2tWu53yfFtfzvDTEo9SiRURERERERERERGSVKAAgIiJSHa+cefO4NMRTfYjPjmII4P40xHelA5FVrec0xEYa4ldbXI+3plnzRWrVIiIiIiIiIiIiIrLSFAAQERGpjp7BoWRGFjdIs9g/yiGAO/uyWXtVtZ7TrJn4EHf0If6uhXW4KA3x02rVIiIiIiIiIiIiIrLSFAAQERGplt7+4Voa4nQf4uU+xIWjFwLI/9Q7cPO6la3ngZstDfk7i2MPWlWPc9KBuF/P4FBNLVtEREREREREREREVkgBABERkWpKB+I2PsSrRjEEsNhn+Y98yCsbAvAhrudDzFq428IiH/JLZ4Sb11GLFhEREREREREREZEVUgBARESkunzI92nxNvUrKo/7ED+bDsSpla3jLL7Shzi7hXV4jw/xiHRwtlOLFhEREREREREREZEXpACAiIhItaUhHuhDfGAUQwB3pSG+vbd/eEwl63dwNn2Ip/gQn2phHf7Yh+ZWas0iIiIiIiIiIiIi8oIUABAREam2voG80RfiO3yI949SAGBRGmKzL+T79AwOVbKPT7N8Ax/y37ewDp/0Ib4nzZpUixYRERERERERERGR5VIAQEREpNp6BoeS3mzWxL4snlxsyT9aIYDr0xCnVbWe0ywe6EN8tlV1mIZ4Uxri5mrRIiIiIiIiIiIiIrJcCgCIiIh0h97+4YlpFj/jQ5w7iscBXJBmzfFVrN80xEYa4ld8iItaGAL4olqyiIiIiIiIiIiIiCyXAgAiIiLdIx2I03yIAz7EeaMUAFjgQzy+Z3DIVa1uewaHkr6Qv8Rn+awW1t9DaZZvp5YsIiIiIiIiIiIiIs9LAQAREZHu4rN8Cx/iVaO4C8CcNERf0bod60P+IR/iMy2qu8U+5DN7BoegliwiIiIiIiIiIiIi/0YBABERke7TN5DvkYZ4zygFABb6EH+aZvn2VaxbH+KLWxywuCPN8h61YhERERERERERERH5NwoAiIiIdJ/embGRhuYb0ix/dJRCAM/6EL+SZnG9nsGhStVtmjXrPovv9CE+0KK6W+RDvCSd+cepaskiIiIiIiIiIiIi8i8UABAREelOadYc50P8gA/xsVEKAcxLQ35C30DOytXt4OwJPsQLi90OWlF396YhvjUdnK0xk4iIiIiIiIiIiIj8kwIAIiIi3ctn+YY+xHN9iE+OUgjgdp/l+1exbvtCnOFDvLuFdXdpOtCcplYsIiIiIiIiIiIiIv+gAICIiEh36wtxu/S5M+sXjk4IIP/f3v7h9apWrz2DQ5Zm+ddbWHdz0xDfnmZNqBWLiIiIiIiIiIiISJIkCgCIiIh0u57BofqMgXynNMtvH6VdAOb7LD+tZ3CoekcBZPnmPuQPtaru0hD/Nw1xA7ViEREREREREREREUmSRAEAERERSZKewaFaX9bcz4f49CiFAO7xIX+zD7FRpXr1IdZ9iB9p4e4KC9IQ/1MtWERERERERERERESSJFEAQERERJ6TDsRGOhDf40OcO0ohgD/4kO/VMzhUq1K9+ixu6rP4qxbuAtD0IU5WCxYRERERERERERERBQBERETkH9IQ10lDPHeUdgJYmIb8/L4QN6pSnfb2D1samkf6EB9uUb0tSkP+AbVeEREREREREREREVEAQERERP5FX4jT0xB/0MJt61+oPOZD/IDP8rEVq9ON05B/p4V1enM6ELdS6xURERERERERERHpcgoAiIiIyNJ6BofqaRb38SHOGp2jAPI5fqC5Y8XqtJZm+et9iH9pUb09kYb8ZLVeERERERERERERkS6nAICIiIgsK82ajTTL/9OH+OAohAAWpyH+1Gc5qlSnBw7cPCHN8otatAvAYh/ib9KBuKNar4iIiIiIiIiIiEgXUwBARERElsdn8fRROgpggc/yE3v7h1ml+kyzvNeHeFeL6uyZNOQnpwORarkiIiIiIiIiIiIiXUoBABEREVmeAwdunpRm8WejdBTAn9Ms9lWpPnsGh+hD/pUW1tv1aci1C4CIiIiIiIiIiIhIt1IAQERERJYnzZo1n8W9fIi/H5VdAEK8Is3yLSpVpwNxax/i3BbV2Twf4nt90C4AIiIiIiIiIiIiIl1JAQARERF5IT7LkWbxLT7Ee0YhBPBEGuJJvf3Da1WlPtOBWPchfr1VdZaG+Ks0xA3VckVERERERERERES6kAIAIiIisiIHDuRrpSE/xYf4xCiEAO7wWX5AmuW1KtRlOhATn8XtfBZntWrnhDTEI9VqRURERERERERERLqQAgAiIiKyMtKsuZEP8dJia/52hwB+0Zc1p1WoLsf6EE8stuxvxS4As9KsOUGtVkRERERERERERKTLKAAgIiIiKyvN8t19iLeMQgDg72kWP9MzOGRVqUufxZ19iL9tUX0t0i4AIiIiIiIiIiIiIl1IAQARERFZFWloHtWqL9dXUO5PQ55Wph6z5jifxU/6EJ9sUX1dk2bNDdRiRURERERERERERLqIAgAiIiKyKtKZw+PTEGeOQgBgsQ/xf3v7h9evSl36LO7iQ/xDi+rroTSLb1OLFREREREREREREekiCgCIiIjIqkgHYpJmcTsf4g3Fonw7QwBP+Cz/tM9yV4m6zJoNn8VTfYhPtSgwcUU6c3httVoRERERERERERGRLqEAgIiIiKyqnsGhehryg32Ic0ZhJ4A/+pD3pYOzKzFeSLPm5j7EZovq6t40xCOqUlciIiIiIiIiIiIisgIKAIiIiMjq6O0fXisN8eM+xMfaHABY6EO8MB1oblqVuvRZ/FgL6+v8NDTXV4sVERERERERERER6QIKAIiIiMjqSrN8U5/F7/oQn21zCGCuD/FdPkRUox6bG/kQ72xRXd2RhvzAnsGhmlqsiIiIiIiIiIiISMUpACAiIiJrwodZu6ZZfnv7jwLIZ/cN5NMrUYdZrPssfrJFdbXIh/wLPssnqrV2h1qj0XDOOXPOmZkBwLiVLGPNzJb8XeecU3XKKKkv1Q6XtOOxK9OOSY5d8vcajYZLkkTpJ5HRvX/HrOCeHbPkz9br9YaqT0aTcy5Z3f5nmfEUNJ4SGeHOpV6vO+cMAFdwX45Z6v7TOFBERLqWAgAiIiKyJtLB2XWf5e/2IS5ocwhgsQ/519KsWfo5tTRrJj6L2/gQh1tRV2nI70lDvo1aa0WY2Tgzm0JyEwDTSe4AYBeS+wKYYWZHATihKB8GMHMlyzkATlzq7x5Dct/i5+5JckeS2wOYBmBDM5tSr9ehKyKr2H5rZjYBwDoANgWwDcmXktwFwN4k9zWz1wI4fpl2/JWVacckzwPwfgAnmNk7AaRFG96raMPbFG14PefcxCRJtOAosupqjUZjHIANAEwr7q1dSe5tZq8GcNxS9+8ZK7hnz1zyZ83sCJL7A3hZ8TNfbGYbOucmq8plTRQL+5PMbN2iD5hGcvuine22ZLxT9BcnLFX+C8DXVmEsNbPorz6+1M84eqmfvxfJnZYaT23snJtaq9XG6iqJ/Esfs1bRx7y4uEf3A/B6ACeQ/G+SYTn33wDJM5bcfyQ9yb2Le25LM1tX91tpntsTnXOTlhSSGyx5fi+vmNl6S/2d8apFEel2CgCIiIjImvJZhM/ipc99bd7WEMCzPouvqUIdpgNxgg/xtFYFKdIQv6yWWkJmNhnAlgBeTvK1JN9J8tMAziZ5Kclfk/wjyTtJLm7hIP1hkn8mOYvklSQvAPBlAB8heTSAQ0keYGbbO+c2SZJEwQBJarXaGDPbvGi/HsB/kjwOwOkk+0leQfIGkrcWbfjZFrbhJ4r/zg1FG54J4AvFBPGbAfQB2NM5t1GSJON09UT+hQOwIYBdl/RFAD5D8pvF/XQryXtILhih+/Wx4mdeB+ACAF8keTTJ1wPYx8y2cM4pvCPPN26aUCwE7Q5gfwCvI3kUyXcDOAtAVrTZK0k2i3Z2bxsnPR8neVvx374SwHcBnAvgU8V46rUA9jWzl5jZ+mamiyrdAs65TQHsDeAdAE4l+W2S1xX36Jq85ywo3mGuBjAA4NMAqCof9ef1GOfc+iS3LZ7ZvcUY4+3FM/vzxXP7LABnkfwWyR8u9Qz/t1KEQJb8nc8WP+ddJA8l+R8A9gWwfRFm1wNWRKrfuSoAICIiImsoHZxdS0Nzd5/ls9q+C0CW/zrN8i2qUI8+5Hv7EGe3qK4eTrPmemqtHa5er68HYA+SbyF5WjHxdRXJIZL3tXiBdHXLQpL3k5xN8lckv0/yqyRPInkEgJfV6/UNEm3FXmlm1jCzLQHsR/JtAP6bZEbyR0X7vYPkkx3YfhcVi423kfw9ycsBZMXXm28wsx1qtZoCAdJ1arXaOAB7mNnbAZxZhM6uL/qiZ0apr3mAZCT5Y5LnkTwGwN7OuSm6Yt3HObchyb0BvIbkh0meSfL8YoHoxmJcch/JeR3Y9yyvjd9bhAN+RfISkl8sgmqHmNlLnXMKWErVxo+bm9kRRT/zfZJ5m/qYSar9tj+z1yW5l5kdSvKjJEPxnPvf4pn9pxaNMRYU76p3F8/XXxdjmq8B+BjJdwE4wMy2NjMFQ0SkUhQAEBERkZHgs3ycz+L7fIiPtDkE8IQP+WfSwdml38kvHYgTfYhn+RDntyIskWbxPWqpnWeMc27HYnvYAZK/Lb7ov5fk/JJMWD9fWVws9t5X/D7XA7iM5KfNLG00GhsmSaJBf8k559YF8KpisfwHJP9QTN79rUQLLi/Ufu8uFht/RbIfwBFmNi3RsQFSXWMBvAzAaSSvLp7f93dof7SY5IMkbwHwSwBfMrNXJUmirZ2rO17aDsC7ioXC7xU7utxS7CAzdwR3oOi0kNqjJP9S9Ee/Jnk6gFc75zZQs5CSWqv40v/zxcLvaAR1FABoMTPbmOShxXW+onjPnV2Mr5/okGfsk8VY4s8khwBcRfIsAIc2Go3NkyTRLgEiUmoKAIzeWKfRaGztnNvRzA4CcORS5YMkz1q2FEeyHrlMeblzbqtEu6xK55rqnNvBzHYBsHRbP6rYjems5ZQPLvVn3wLglc65HYuiOVeRDuXDrI3TLH7Hh7iwrbsAhPjHNMS+KtRhOhAPaOEuANelg7N1jO4oDrzrAMYCmAJgdzM7G8BNJB8h+VRFJ66XncSeV0zSPwjgBjP7LIAZZrahmU1wzsE5p8bSYRqNRgPAOACTzWyfYuvva4oJs7nFlzqLKt5+FxSTlQ8BuNHMzgRwYHE/j2s0GhqgjtBzkuREkutUrKwNoOMmkZ1zBmCic+6lJE8BkBeLjfNKGNp5tnge3Qbgf4ogw0Rt8Vsezrm6mY0hOYHkOmb2GpKnkvxZscj/cLFYM78L+pwXKvOKowQeLLZHP7nYPWqSmY0FoIDlqvc9qFq/A2ASgI4Zm5gZAGxgZu8s2u1joxwuUwBgZNSKscRaJNcF4IuQ0nVFIPjxkj2zFxf/v4+TfIhkBPB1AIcXR1RMBAAz0852IlKWMY4CACP8vgKAACaQnApgKwCvBvB+AOeQvArAHUWdP1zM984t3mGWlKeLvmbZ8vQyf+7J4t38YZL3Axgi+eNiLuoE59zeZvYikpOL+TpLtPOqjFxbdyTHApgAYGpxhNJrAHwSwDdI/pLk7cU76SPLaevzltPWl23vTxTvBkt+zv0kbwfwc5LnkjzRzHyj0dgawBSS4wGwVqtpHlakzdLB2TUf4k4+xBuKhfl2hQAW+RC/5UPcuGdwqNx1OBBdmuXfbFGI4kEf8iN6Boc0HmjzhNc4ANsVg8KvAbi9yyeun688AuAXxZfkLwcw3Tk3UYPX0W26ANYH8NIijRkA/LnYolhtttiuGcDtAAYBvAnAS8xsaqLdLdZkgmJacY5r1drKUwA6JqnYaDQmmtnOAN4D4NqKBtDmA7gewPEktzMzLfZ05sTCOACbktylGCedXkwmPKM+ZpVDak0A5xQTM9uZmY6vWfm+54AKtonrAWzZAe9Ba5F8CYAPk/xrB9WP+oQ1UK/Xzcw2KYLBHwJwSYdd31aUpwFcA+BkkgcA2BqA2pGIdPoYRwGANXx1BjDFzKYD2KOoz9MA/KyD6vWW4hjL4wHsD2AHAOvXajV9XSWrNLYDsAGAbUi+DMA7SJ4L4Fcd1NYXkryH5A8AnGpmh5PcFcBmzrnxWkMQaZ80i2/zIT7U5qMA5qchP3ZGuBnlr7+814f4t9YEJfLv9c7MdVRuO+a0zWwzkoeQ/GSxNfp8TVCvuACYW0yufB7A20juUavVxqtJtUWt0WhMLrZlfS/JbxRnZaptrlwZAnAegLcB2BnAGDWpVWNmGwD4dgXbxjMA3jHqHZNza5M8GMCZAJpdsPPMkq/5bioWlvvMbB29GI7yLFqjsTbJPUm+CcApJC8rtrhXPzJC4ReSQyQ/RfK1zrnpibaxfkEkt6xgO7iF5Daj2J9bsTPFSUV77LT+Rgu3q/H4ds5tBKCnWPS/tJiE7cbn7NziSIPPA3gDgK2145CIdCIFAFZrDNMAsAnJfUkeTfLLAK4pdobp+LAayVkkzwfwPpK9AKbpXUCW09bHFoHGQwCcSPKbxTF7j5Vop+G7AfwEwGkA3mpmL9fHHyKt1zM4xDTLL2hzAODvPsTfpQPNrSpQf/Ah/rRFdXSLD3mvWmlrO9AdAXyM5I+KSRF97b/65XGSNwIYAPBO59wWic5fb9WL4VYAjiX5bZK5vr5c40nB6wCcZ2avTZJkolrYynHOTQJwVkW/Rv/oKNbrRACHkBwgeUeX3pfPFscDfJOk193W9rHRRDPbn+THSV5I8vfFlpbqM1o7IXIfgJ8WOyy9DNDxoc9HAYAR73M2Lb6S/l0HHymjicGVf36bmb2yuKaXkRzWjmD/8px9kOQvSH7ezA7VuL+lxjUajWnOua06odTr9Q0S7fw2Ws+ltZ1zW3ZKW6jVaut28DyPAgAr366mmpkneRrJK4qPYZ4q+Q5hfyL5wyIMf3CtVpuqJ4gA2AnA0STPLsYwdxcfTpR9XPZYcdTyTAAnmNkuZkZdcZHW8Fm+ow/xrnaHANIQP1+F+ksHmq9qUR3N8yGelmZNfVDdgsHijiTPIxmLBUBNiozs5MoDJP8AoB+A1xm3IzPn7ZzbB8BXixexh9TWRnx7qrtIXkXyOAAbqMmtcNGgqgGABSS/PAr12TCz3mLB9S/FIrjuS3IOyXPMbAfddS2dWKgBmFHs6PNLkn8uzvhT/zA6gcrZJPtJ7p0kiZIASw+GyM0qGEh5BMCO7X8dsj6SPy3aXCfXjwIAKzax+CLscpK3Feez6nn6wruv3EXypwA+aGYvUhMa8XHFXiS/T/KmTijF14YTdGVGpd9+T7ELR6e0hY908H2jAMAKX5ndS0l+huTVxZnm8yrYRz1TfAjwK5IfM7MX60nSdWsWkwEcBuA7xbrFgxWeH1pE8pFiN4zLzezYJEkUfhEZYT7MavjQfO8o7ALwUJo1S9+PpTOHx/ks3tqiOromDXF7tdI1Vyu+aNuP5HeKcw+1uNKehbQlX1gf7ZybZmZjnHPa0nnl2qyRnAzgCJLXFls7qd22fgvyp4qvj892zr24OB5Abfbf376rGgBYCOCbbZzoGWNme5G8pHhe6ku9598R4A4AnzGzac457S6zZhMKS7b8nlScj/nfAJYEIudX5IuCqoyhHgJwuZntb2YTa7Va1/dFJDcuvmqu2thj9zb13Q0AW5I8i+R9Jdn9TAGA53+WjzGzaQCOI3ljEeTQbnarfu89DeCvAL7qnNsNwFoaZ4zI+HZGESbslKMLvwNgsq7MqPTb/11sdd4pbeGcDr5vFAD4974OJCeZ2RtI/rxYKJzXJe8ri4swwH0ALnbOHQBggnPO6clSubm1BoDxzrndAZy7VJiz2+aGFhXzsXNIng1gNwDjG42GPioUWUPp4OwkzeImPsTLnjt7vm0BgMVpyL/ns7zUH7akWbPms3hMi+pugQ/Nd6czh/XxzxoMGCeZ2X4ALtFW6aNe5gD4HID9zGxdtc7lttnxZrYzgBOKtKcWY0ZvguAhAGcUZ1Otm2jryH9oNBoTAHyuotf+ujZMhgHA9gA+WyS6dc+tXPm9mb1ek7irN7cAYF2SuwH4IIDfFwv+alcl+BIIwGVmdgCArh4/FQGAZgWv8e5tGF+OBfCa4gubMtWNAgD/VAewTjEh+jkA9+j5OLKBQwAXAHgDgE21yLJGC5kKAMiSflsBgJW/bxQA+Odcw3gAuwL4ULF7wwL1Ufw7gCsAvBXA5s45LRSUf05tLIDpAN4E4Aq1838r8wD80MwOLnZp1XysyJouZIe4rw9xdpt3AbjfZ/kRPYND9ZLX3eZpiDe1po7yX6RZrt2oV3mW27mxAF4B4EwA96nj7KhyP4B+kt45p7MXl5qbBbAXgM+QzDX465wUKoC7AGQAXtNoNNZSU/1He/1QRa/5jWbWsvN3zGxdAMeSvF73+WqVJ0meAWCnJEn0ld6KJxMBYEcA7yAZinMD1Y5KGkoj+TWS+wHoyr6I5EYkhyp4fXvNrNbCetuE5Ic6bGFBAYCVV3POrQ3gVQC+CuBeBYRbey4tycsBvMvMtlXzW62xhwIAsqT/UQBg5e8bBQCSZCyAlwE4neSt6o+W+y78E5LHmNl07bBa2rm0lwE4ieQ1FT3KYiSf23MBfBPAG8xso0RBAJHV1ts/PM6H+Akf4tw2BgAW+ZBf1RfiVmWuu3QgjvMhfsyHOL8FdTTfh5iqha4C59zmxYvGzdoyvaO39rkOwM5qsYkDsDOAU0j+Xm22o8udAL4EYK8kSUwTOjy2otc5Oue2bNHEzu4kz6/gGdajkQa/xsze6JxTKOf5TQBwAMnPF8fIqM1V52iAWSRPB/ASs+7qigCsC+BHFZzYOso514rJrIaZ7ViEfx4vaf10fQAAwMEAvlFsiaqjgtobBPg5yf90zq2nYcUqtVkFAGTJ+6ICACt/33RzAABmtkexw+AfFHJbqfIIyZ+RPNrM1tHTpjRzvzsVH339TnO/q7yG8FcAF5vZIWamXZpEVnchO+TTfch/3uajAOamIZ7Y2z88tsx150P+Ch/icCvqKA3xArXOlR80H1Isoj6pDrLjy28AbNHFzbVmZlsCOK34mu0ptYlSlPkk8+I88k0VAKjkNb7VzEZ0O2Yzmwjg6KJ/0lf/I3cu4t0APg1ggkZA/2hrEwC8muSlxfmB+qKgul//5ABe12Xj/KkALqxgAODYFpw7Xism03/ZSYsvCgCs0vN8O5Jf0sL/qI817iP5IwBvcs5pvKEAgCgAoADAyP7eEwGcDOBmHdu6WuVBkj8A0JskiRZFO3Tu1zmnud+RCwL8heQ3nHNbqWmJrLqewaG6D/mhPsSH23wUwI1piDuWue5mhJsnpVl+jg9xQQvq59F0cLYCfS8wYGyY2XYAvq6zlEtTFgK40My6ceueOskJAI4i+adicUYJ5/JNBs4DMGxmx5jZ5CRJum7rtQoHAO4C8KoRudnr9TqAzQCcV3yBrXu9Beejk7yq0Whs2KV9SmJmRnLqUkdLPK7Foq4pDxVbgk/vhi8hKhwAOH4kAwBm1nDO7QugWUyU/V0BgPI8zwFsDeDLxZEt+jqscyacnyD5f865lwMY041jfwUARAEABQBGakHUzMaZ2X4kY/E+p/fkNeujHizmxLfS19GdwTnXKOZ+36O535bsivcXkqcAmAZAR0OKrAIfovksfsuHuLiNAYCFPsTT0xBLG6juGRxK0hBf50P8SwvqZ7EP+Ylqnc8/STIVwGEkb1IHWKryOID3d1lzrZnZZDM7gOSPKjAhq/LPiYSLzewVZjaxyyZ03lXRRcZ7ARw+EvM4ZtZD8re6T1ofyimOBDjAOccuGgONAbANgBN0TmbXlz8COMI5V+kFDgBTAJxfwXFEPwAboecCARwC4JGK1E+3BADqZrYJgPcAuEfPtI4/huhMM9vNzMZpRkYBAFEAQAGAVfo9YWa7AgjaubUlbfwuAEcC0NE1ozv3uw6AQ0n+VMH8lpffkjy40WjoaEiRVZDOHN44zfI5bd4F4JG+kPeWud56+4fX9iF+vxVHKKQhv8aXOCDRqonvzQF8keRD6vBKV+4nuXcXtVUzs1cA+B+Sd+n6V3Lx8S8APgVg2yRJuiJ9SvKwij5/55L88Bre82uZ2VsA3KL7o31fPgC4GcAbzWx8xfuUGoCdSX64+OJ/vq6/CsmHzexMAJtWuO2vBeB0BQCWWz9jARwOYE6F6qfyAYBi++ODAFysL/5LNeaYRfJDZjYt0W4ACgCIAgAKAKyQc25KsRPmb7Qo2tLyFICvAdjTzKgnUVvvYwdgDwDnFvPeao/tKXeb2UfN7EVqhSIrGQDI8kaa5cf7EJ9pbwgg/1E6OLvUgZ00xBN8iHNbUD/3pVl8tVrnPzvVfUh+T5PepZ3ovLWLvpYmgONJ/kFnf1f/TGYAVwHwACq/7RrJQ0hW8Su1p0h+ag0WYNYD8JEi7KMt3tpfbgPwNjMbU8X7zjm3UbHw/5uSn+ut0pryLMmLzGyvirb/sQA+XsFx8TfNDGu4+D8GwBsBzK5Y31PlAEDdObcNgDOKXVy0GFK+8hjJKwEcohkaBQBEAQAFAF5wDDeN5Lkk/6a+oy1lPoDrAbyTpL4mbI+JJD9QBPQ19zs687EXAtgvSRIdgyGyEnyIG/kQr2jzLgBPpaF5WJnrbcZAvkUa8ltbUDfzfYhfSwdnj+32tumKbXS0mFryLdO7ZPJjOoABkg/qunfV+WtzAHwqSZJKP7ArHABYRPIrq3nPrwvgLJIP614Y3QQ4gDdVsVsheXaxS4Wus8oLnYn4azN7ZdUmP6oaACD5fyRX+wstM3MAXgvgTxU8YmpShcdRhwO4XlsgV6LcDuBTZqYtlxUAEAUAFAD4999tX5I/L85AV5/R3nmN+wCcV6/XJ+mJ1NJn3a4Avk3yEbW70Q3DAxg2s2Odc+PVMkVeWJo1G2kWX+dDvLuNAYDFPsRfpoOzS9sv9QwONXzIv9Si+vmtz+IO3fwiOQnAB4otp/VVZbnL0VVtp2aWOOfGm9lrSd6ooErXlmcAXGVmO1V1N4AKBwD+TvKbtVptzCr2UesAuEwTGx1THjWzQ83MKnTb1UieWuxSoWus8kJlIcnbzezNzrmxVbkNKhwA+APJ1d21pGZmuwO4v6LvR5Mq9p7QaDQa0wAMFl+P6522OmUeyWsA7O+c6+otlxUAEAUAFAAws5pzbgKAt5OsYkCxbDuE/dLMdjAzfRk9wnO/AN5Kclhzv51zRGtxDMYZZjZVLVVkBSGAmcOT0iye5UOc18YQwENpiMekWbNR4nrbyoe4oAV183ga8vemWbPedY3RzNYpvqp8Rp1Z+SelzWzrCk94vJjk50g+rmutQnI2gLdU8ciLigcArnTObbIK9/2mAC5Re++4ch+AI81srQrddwdo60yVVQyjnWRmlfgCwjlHAB+s4HVqrm4AwMy2BXBLhdtwZQIAZjYRwKHFV//a7r+65cHiHNpNFQBQAEABAAUAujUAAGAagNO1M17n7AYAoAngzWamIwFG5p6dTvIMzf129O7DFwJ4kVqryAvzWb6DD/FaH+KiNoYAfpNmzR3KW2ex7rN4VYvq5rtp1uyud0kz2wjA/+gLicp0wLcDqOJXEY5kD8mrdJ1Vlin3APiMmW1YsQmdVxZn1lbxmv0CwPSVffED8E2S89XWO7L8GcDr1/R87Q4aE61dLBbq2qqsSgjgAxUJotUAvL6C1+gxkuNWY+JxcwAXVXwxuRIBAAAbAzilwsFJlWV2AygWnV+edOE5tAoAiAIA3R0AMLPNSV6g9+OOLHcCeL9zbm09oVZ/7hfAy0n+WO2pFEcCXAJg9yRJGmq6IsuXhnisD3FuGwMAj6chfjjNmmNKWV8DsZaG+JYW7QJwdxpib8/gUK1bFv83AfAlnY1Yra21AVjF2ukEAG8mOaSgispyylMABsxsuwpN7u1G8oaKXq8bi5eEFdXBViTPVx/V8V873GBm+1TlpY/kN3RdVVb1i1QA/1WFEECx+0wVr9G4VeyD1yX5xS7ofyZVYLy0F8mLdXxLV569fD2AN1ZlFxYFAEQBAAUAVmJubDqA72herKPLvQDOrtfr2glg1Y0xszcU82A61qI8IYCrAcwwM6oJiyxnQTtrru1D/FkbAwB/9yFek4a4XXnrLN8szfLftaJu0hA/0TcQx1W+4ZHchOR52k6ncjsAHA2gMudYAJgC4KMk79B2niorcTboD6sSAqh4ACCa2b4r+P03BvAtLf6XJgRwtXNus4rce2/UNVVZjbMQ/wbgxLJv+6kAQJIkSdIoztR9oAvabpkDAAbgUE0Sd/fRdwDuAHCymXXN15YKAIgCAN0ZAACwI8nLinkP9QGdXZ4G8OUkSaboSbVynHMTzOwEAHM091vKEMAwgIPNTDsBiCxvQTvM2r/NAYBn0hBPSku60J0OzBrnQ/xEa+om/73P8k0q3eDMbH0A52rLqMot/j8BYBezamwAQHJDkl8h+Yyur8rKTgSS/AMAbyW/ESoeAPgryUNf4HefCCAj+azadKkm4S/nap6z3WH33ji1PZXV3WrezI6r1+tjFQDorGJmO63k718j+QqSs7ukzU4q4Xts0mg0JpnZ+0jercV/BbCKo1guArBJkiSV38pRAQBRAKC7AgBmVi+2RP8NyQV67pfquJrLzWwLM6vrifWC9+faAL5QPM+0u0VJx2MAZjnnXtINYzGR1QsANJFmeb8PcXG7QgBpyO9JQz69lPU1ODtJs7ivD/GWFtTNQj/QnFHljnVKsbCiDqp65VoAm1WgmTYAbAfgZ7qmKqtZbgPw9kajMbbEz+oqBwAeJPnm5UxwjAXwSbXh0gZwPmZmY0o+TmoA+L6up8pqlr+Z2RFmVsqJD5L/UcUFVedcz0re/5uQvKKL2msZAwAvAnCmvoBUeb4FNTPbNUmSSh2HpwCAKADQ9QGAHQH8Vs/4UpYFAC4H8BKFAJZ7b04j+XW1lcp8mJib2c5Jkqi9iyyjZ3Ao6Qv5rmmW39nOnQDSEL/YMzhUyt05fIjr+hBntiQ0keX9lWxoxVnqn1CirrLlXJJl32KqYWb7Fi84aqcqa1IeAPCOsk4CAti5SPlX9UX4+Of5tR2AIwHcr/Zb3t0dALwmSZLSbv0GoAbgfbqWKmsSAgDwipK2/1eSfKiLAwCf7LKF5Ukla5+7Fmcf6zmjsrwjiW40s9eY2dikohQAEAUAuicAYGabA7hCz/fSz318z8y2K2tAuIX35bYAvqst/ys3FrvWzF5R5jkhkZYtaGf5BB/yU3yI89sYAniwL+S7lrXO0ix/jw/x0RbUy729/cOVO6rHSB5D8m/qkCo7qDzGzFzJF//3A3CNtjZTGaFyD4CjyhgCALAFyR9XOBl80rLXBUAfgNkK/5R+F4BrAOxa5gETgD1JPqHrqbIG5RqSO5RwMeEVJG+vYJ9z5Er87ruRvLfL2mlZAgAOwP4k/1eTxCorMfE8DOBdZjYpqSAFAEQBgO4IAJjZdAAX6N24GvO1JC9pNBoT9eT65+I/yYs66RmmMmLlWQC/LEIA2glAZNkQQIg7+RCva2MAYJEP+cyewSGUsb76subOPsTft6BeFqchHla1zvXVJP+kwWNly10Aynx2Rc3M9gSgc81URvpc0NvLGAJwzm1E8tIKBwC+1Gg0Ji01wbEdgKs0sV+N8w5JngVgaonHTC8C8H+6liprMvFB8jvOuQ0VAOiIPufDK/jVxwC4kN13nnwZFkgbZvYqkn8o7is9X1RWGAIgeR+A95kZFQBQAEABAAUAyhYAMLOpAM7W4milynwAX0qSZGy3P7sAbE7yYrXvyocALgMwTb21yL9KsyZ8Fv/Lhzi3jSGA29Ms7yljffX2D8OH/Hwf4oKRPx4hv6gSjco5VzOzXYuJbC3+V7f8guS2ZWyjZtZwzu0HYFYXTryqtCcEcA+AdzYajbElenZXPQDwVefc2sUL4Lokv6LwT6XKY2b2xkajUcpdaQBMJPkFXUeVNSxPAzi10WiMUwCgcwMAZlYH8A6S3Xj8TEcHABqNhjOzgwHcpncEldV8Br+PZKVCAAoAiAIA1Q4ANBqNccWRRE/qOV658iSAs5f+EKILF/83BXBlyed+FhUfPTxB8pHi2fJrAGcB+BSAT5H8CIBDzeyg5ykHAziq+LNfJHkZyZuLn/No8XOrEHpdQPI8AJPUY4ssEwKYObyeD/Gqlpxt//zlWR/ygQMHbh5fxvryWX6ID/H+FtTLbWnW3L4KAYB1AQxooFX5Bc6vmtmEEjbRBoCDADyi66jS4vIAgGPKEgKoegCA5FUAtjSzBoCj2F1nLndLuQnA1iWeVD2U5FO6jiojsEPT4SStJO2+qgGAU19gInJrkr/s0vbZsRNyZja2+PL/r3qOqKzhrkQnAdhAAQAFABQAUACg0wMAeM5RJB/W87vS81IfBDC+255ZAKYB+EmJd3e7q9iR6jIApwA4zMy2T5JkRMLezrnxZra7mb0RwJeKo69mkXywzDtlmtkHkiSBem2RZRa1Q36ID/FvbdwF4LY0y1/VMzhUK11gYnD2ZB/iTS2ok8fTED9ShQ72vSTna5BV6fI4gA+WcfHfzPYlOaTdKVTa+LL1OgUAOqL8EsDWALbppElMlRGfCDyzxOOn3Uj+XtdRZQTKdWZWil2aqhoAIHnJchaZx5P8OMm5CgB01OL/eADHkLxDzw+VEXpXPgfApgoAKACgAIACAB0eANif5K0lebY+UvTTNxQLlZcvVS4hGZb5Z98n+SuSN5KcTfLuLp4HnAPgCDMb00XPq01JXlCyhewFRRv/OckvAHhdo9HYPEmStuxy6JxrOOd2LsbE5xb/H4+VcE7oQTN7bbvqTaQsegaHkGb5d9sYAFjoQ/6VvpCvXc7ARDylBXWyyIf8Uh/ilDK/HG5dDKr04l/tchuAg0rYPl8O4Fpt+63S5pIDmKEAwKi/BNxD8kwA31ObrHS5n+TuZRxDmdn6JL+la6gyEpNHAM4FUFcAoLMCAAC2J/nbLm6bnRgAGGNmxxbjBD0/ntsB4RaS15G8sig/BDAA4ItLSrGwsuTfXwng58Xfe0B1yL+TfBTAWWa2vgIACgAoAKAAQIcGACYBuLpDn6Hzi4XQKwCcRvIEkm8sdvPcDcA2zrmNlirrO+fGLPPPNjGz7QHsXgQdDiF5XPEl9flF8LprApkAbjazvc2sVvVnlZltSPIsko+XZfcgAL8FcDKAg8zsxUmSjPZubmMAvJjkfxZjwD+XaC59EckbAbxCPbfIv+oL+St8iI+1MQRwRxryA8q4C0DfQL69D3FeC+qkmYa4b1nb0BgAF+llvyvKbwBsUbKJiy0BXKHFf5VRGnxeS3LnTr5H6vX6ZADfqvh1qMrZZiovcEQNgIuTJCnj1w0NkifreAqVkfoCleTBJRif7Vl8lVW1SdYrnydoBwDHdtLiiQIAScPMDgFwS7d9FQjgmeLonK8D+ASAQ0nuV+xG81IALy62zp0GYJqZreecm7ykAHjRMv9+i+Lv7QHgQABvA/AZAN8AcEOXBgMeA/Chsn9xqQCAKABQzQAAgNM7bH5sHslfkDwZgCe5M4BNnXPjkyQZqVBrrV6vjyuC19sC2AvAu0l+E8CfKj5fuIjktY1GY0qVn1POuQkATirRl+s3ADgSwNZmNrYD67NmZuuZ2e4ATgJwR0nGzPNJng9gQ/XeIv/UO/Nm+hC/3sYAwKI05OekWT6xbHX1ypk3Iw3x1y2okyd8yI8vYwfbAPAenRvVFWUhgAvMrF6W9glgIwA/1uK/ymjeN8XXU1t3cOK6RvIcXSuVKny9CODQJElKlzA1s4NI3qZrqDJCE+M3NBqNtTt8jLYNyasrWP+3Pc/vuklxDFU3t8uOCQA0Gg1nZgcXz9xFFZ7sn1d84fhXkhcCONbMdjGz9UhOAjDWzOCcG8l3u1qj0WiYGQGMAzDRzNYH0APgRJI/LHbsebRYTKxy+OJpAO8zMyoAoACAAgAKAHRCAMDM6gAOI3lvByzQPQLgagDvd85tRnICALRzzgSAIzkOwGQA+wL4AoA5JJ9kic9BX964AMDXSbKKzygzG1MEOh7t5A8Wig9TfmZmfQAmO+fKsFV9DQCccxsD+HSxc1anf1zzJID3NxoNqgcXeU46EBMf8p19yO9tXwggf7Qv5KXbqTXNmrU0xHc8t23/iNfLBT7EjcrWye5SDCg14dodZxq+v0QTFpMBnK3rptIB5VkAGYCOfcCT1L2iUpWJjcvMrHRpb+fchsVZe4t1HVVGaNLjVOfcmA4ep21dfO1Vtbq/43l+1/erTXZOAMDMXlUsild1B5BZJH8A4FMA+gBYh80fjC12APkvkj8i+UeW8JzZVdja973OuXEKACgAoACAAgCjHQAA8BKSvxnF/5cHSd7A58443znpwHO6zWwcgCNIXlw8/56p2BjhvWUOpr3AdUs7fGw3j+S1AN6SJMnYEld1zcy2BtBP8q4OD8rcBmD/MhyNJ9LGEMBEH+IZPsQFbQwBXNgzONQoW135kE/3IZ/Tgjq5NQ2xPMeUmNkEAJ/t8u0su6n8jWRZGugYAB/Rlt8qHbYY8/FOfdlSAEClQuVBAO/qxAmllZgwPLv4IkbXUWUkyiwA+ygA0PZyZ5IkSy/2rVUscCoA0BntbtdOWtAcofIMySbJi4v3n12T0T8/dqWHoGa2J4APkryo2CmjanML95jZWzpxe18FAEQBgO4JAACYCuDzJJ8ahf+Hh0heCeDdzrnNStLsx5rZAcVxCTdVaFfRWwD0JknSqMrzCcB2xTXq1Dr/M4AvmNm2FQpcjAfwOpIdveMugMudc1PVi4v8y8L23j7EWW08CuDxNOQvLV1YIsS1fYihBfXxrA/xGB9iOd7XSb6M5LAmtLpmO9lbzKwU53aY2esB3KnrptJh5V6SBykAoKLS8v7qe865F5Vw8uKNxQSZrqPKSC0K/g+AKR3a3qsaAPhro9HYasnv6Zw7pPjqRwGA0W9zO5D8SVW29QXwOIBLARwPYF/n3LpJCY/AKdSdc+sAeDmAE0heUhxfUJXjGCKAtGwLLgoAiAIA1QgAPHcyix1M8i/tHosCuBzA24qF/zJ+iWsA9gZwFskqzDEuAHCpmW1RkcX/TYsAYSeO7Z4g+V0Ar6rX62Or2DcUR7qd0cFjtmcBfEC9uMjSAYA43od4qg/xyTYFABalIf9S2eqpt3/YpSEe6UN8ugV1cnEa4jplWGAdD+AU6mz1blpQuagkA5A9SV5X4TM9VcpdbjazjRUAUFFpaX/1gJkdVLZJpnq9vvkoTMypVLvcQfIABQDaWu5zzu2w1O95icakox8AMLNpJL9dkTDGXACDZubNbJOkPF/7r/TjgeQmAA4E8IWK9IsLAfzWzHYrU0hDAQBRAKAaAQAAGwC4op3jEQA3mdlrzWzTpIQ7sy2j5pybYmb7ADi3AgG1JwCcWNbjaZayFoD/LhbaO62OHwXwOTPbzMwaVe4fzGwygHeSvK1T34cBvFQ9ucg/pVlzVx/iUBt3AfhjOhB3LF9YIt/LhxhbcCzCfT7kW5bhBeAlFT47UeX5y7s6fNBRM7PNAXRq+lNF5e987ozy7zcajSkd9kxXAEClSmUxgAsBlG27t3oxOadrqDKS90K/ma2tAED7jsxyzu1UjE33ITlH7XB0AwBmNhXAaaO07fFIlfnFBObpZrYNgHH1er3SZ5o652pmNqbRaGwG4BMk7ykCHItL/A7wYwAbKgCgAIACAAoAtHNnIgDfaNPHWwtI3gXgo2a2Qa1Wq1o/VTOzscX4Li95qPCvAPav1+ul3DkIQIPkm0je3WnvXiTvInkYgDHd0keYmQOwD8lrOvBD0YUkv0MS6s1F/hEAaPgsntqir9ufr8xLQ35WOhBLFQic0T9rahpivw9x8QjXx+K+rPmGMnS252kiq6vKQjN7cYdPEk0sJvd0frJKp5fHAJwEoGO2AVMAQKWCuwA8A2CPEr48H6frp9KCPmc/M+u0d4mqBgAeIfm6JEkcyc+WfNG59AGARqMxDsAHSjxJ/xTJP5L8vHNuy6SL1ev1TQCcBuC3JB8tcRDga865CQoAKACgAIACABUrD5O8yMz2TMr/xf/KjC82BPC54liAhSV9X77azEp3PrqZ1QDsQfJ3HVan8wD8n3Nu127tK8xsO5I/7MB74h4AhyflPIZEpFUhgM19iMNt3AUgpgNxn7LVkw/5sT7ER1qwC8APOvoXd86tX7x0azKrexZS5gBghw80Dif5oK6XSklKBHBApwxASZ5O8lldF5WK9V3nlW1w6ZzbUveiSgvuhYsBdNT2kxUOADwO4BNmlhZfwagNjmIAAEBZ3w8WkryF5OfNbE/nXKW3j12VHICZbQngvwD8rqSLLvPM7IQkSTr+y0AFAEQBAAUAVrLcAuC4TtxxqsXvbWsBOJTk1WUNGgI4roSLzOuQHOywunwawHfNbKukREf9tDAE8JMO3IXpUufci9Sjiyy1uJ0139fGAMC8NMTT0oE4oUx1lIa4uw/xphbUxyO9/cNTOvYXB3CiJrG6rpwPoGPPl3TOvYjkzbpOKiWb2L2UZEcMQEl+kORjui4qFSt3JUkyqUyDSwAOwCxdO5URLk8657ZSAKBt/fsckrM69EzSrgkAANiq2KK3dLt2kPwKyVcCKNUESTuHrgD2AnBWGRfaANxhZq9TAEABAAUAFAAoeVlA8ioArzKzbl30bADYqViQXlTCazibZKnOZTazYzvpeUTyGQAXm9m23b74v9Q12pHkTzusrT8E4B1JkpiukEixuD1zeEprzrhfbrnJZ/kuZaqj3v7hcT7EC32IC0f6GIA0xMM79fee3IHb7HTk+Z8khwBcB2BwOeUCkteSHCrK4g6epDgaQMdulQPgjA48Z0hFZYUpYZInkxz13TVInqCdXVSqOCkF4NiSvSzXAfxPiev8CZKzl4x/SGYAPg3ghKKkJPddXgFwGIDjiz/7cZJfB3A5yd8BuFNteo3Gch9RAECliwIAk9p45vGI7hBlZoeRXEdTUivmnJsCwJP8Wcl2z1kI4JdmtpMCAAoAKACgAEBZw6UAzjGz6QBct98jADYEcAaAZ0p2HecD+GqSJCxDPZvZJkXQtpPmG75vZtMTbS+/7JzGbh0YAvg/klvrCok8py9r1tP27gIw34f43jRrskz15EP+Ph/i3JGujzTkF3XqoOawLj3Panlp18dIzgFwJYDPmtmBxYBkCsmJACYAGLe8QnICyYlFWRvAZma2P4CjAJxE8sfFuY8PFP+tp9o9kQXgcQC7dNrZsUsNKg4leZfa45pth1RsWfZ4cXbbw8V2qX9bpjxU/LtHij87r8Tnb3bK5MXDZvYSBQBUVFpSFgO4upN3sFlWrVarmdlBHbit8SKS80k+WfQDfyH5KwBfI3mimR3onJtOcirJSUuNf8YCoHPOnHOWrOCrCDOrL/mzZobi769VjKkmA5huZoeZ2SdJfq8YH81Vf7RS5dZ6vb6RAgAqVQ8AADAAJxfPhrLsGvFXkmcAmFav17Xd/6qNYevOuakAjid5W4mOBVgI4KvOufUUAFAAQAEABQBKVu4D8IFGozFJd8e/XPsJAN5RLFCXaTeAPwHwSYd/vQ6AAGZ2UD+/EMDZjUZj3URf/j/ve72Z7Qfgxg66HxYC+KBzDrpCIknS2z+c+Cxu7bP27QKQZvH6NIsbl6meZvTP2tKHOKcF9TE7nTm8Qac9vEFypr605qPFF/v9JA80s6mtrnvn3PoAZgB4f/FF3XUkh0ne34bBzzUANuvQAeC2JH+tSdVVXxQrFnBmk/wNye8B+AyA1znndnTO7Vir1TZNlkmwOue2Kv79HmZ2OIDTSf6I5E0kb9dWt6s9gfF959x4BQBUVFpS7gTQU7LJoy0ANDug7uYWE/83ALgUwJkA3umc2zbpkLOLG43GOgAOLnYC+nkx4bZQ7f75txUH8O4OaufTSV6l66IAwAi/MzkAryZ5a0nqZd7/s3fm0XJUVRev7r5n74wkJECYxzCEGSKTTCEQ0qXIJKACCogK4gSKIE444ACIoghouh5x1sDnhCAKCiiDIEPoeoQgiECYDVNIQkImvj+oB4lJSL/3uqpude291vmHxVp5fe8595577q/OJXmNme0fqCVpO9aVbQFcWaAzyXwAHzUzeDqeAgAkAQACAP7XHjKzYxUVK09FzOzQ5CmoxQWqSV3unFvX53EF8CGPYmsBgD8AGCSXX+WaWE/uL3yB9e9wzo3SzEjSa6o3ugeGUfzpMIrnZQYBdHUfU7RxCqPmr1MYi2fCRvNI3wCAbUn+o8zvpyZfu51uZlvm+MZVpVarjTCzXUmeQPJ8ktcAuD/5G9v9uy8iubqHScRwAF9PuiKosNri21RJa+bJAD5iZnvUarU1gn62qjKzzUm+DcDZJK8i+ZS+xOzd2mJm7xMAIJOl1p7yK0EQFOaLSgCrJ+8/Z17ISAr915FskDwdwP7OufUKcjE1xMzqAL6btPd7Sf6/3FfGvwYwwpNzxToAfqZ5EQDQzjOSmW0N4K8FGZOZAL4PYFOVntqnarU6iuRXfLq4XoX9h+Q+AgAEAAgAEABQAOsGcEiOtdAiQQBHeHbpuSr7L4Djff0y2sy2JnmjR2eqvwAYE+jL/5amL+nS9KIv/m5mx2laJGmpy+1GvHMYxbdl+BTAreMmTy1UJ456FL8nhXGYF0bxeb4lssclX5yXsWj1MIDPJK26vSuCA9jMzPYHcBKAiwD8o42J5ilm5tubXhUz2zcpmKio2tpXf78h+QkA4yuVymrpuSI2IXkYyW8mz1do/Ftrrf33PN+iEgAg63C71jm3YWFOyGYuaR+ZRcellwHcRbILwEdITjCzLZ1zA4KCCoCR3BHAx5NC0SuKgddtOoDxXlRGnVsDwCTNiQCANsb+IAAXFKRbXUzypGq1unogpZHXDk7OIzcmcJvvX17+OQiCYR7upwIAJAEAAgB6rAngMDOjIqJlCOAdJB8r0BxfA2AD7wbSucEAzvII7r7DzPbzsE7uc31jGIAfeeTrdwZBsJpmRpKSy+1G98CwEX8pjOI5GQEAL09sNPcv0hgdOOnekWEUz09hLP4URrEfXUnMbAjJC8rYVhXA3QD2ds4NLkKSmbyBuCXJCQAuSNoI97UQ9gzJgzw8VA0H8JOCvauVl90K4HAA62dJ85rZUAC7kvwuyWc1D6u02QDODnICjAQAyDrcHgTwtoJdYu9L8oE0c5vkC8m3AxgDYM2gQF0SWkyIBpAcncAUMxUHr7cbPzsIAufB/AgAEADQ7txzHMnnC/Du+40ADgCgS5R0/cEAbAPgDwWoYcwF8DEBAAIABAAIAPDU7gdwqJkNUDT0SjUzO4zkkwWZ57kA3uOcq3q2/ryF5P2+dO1Jnk7VG/K9n8etPMop5gJ4v2ZFkpaBAHYOo/jujACAJfWo+ZNCjU8UV+tR/LcUxuLeMGru68tCvUUJ3+lcSPLPALaoVCqFa+sDoAJgAIBhAPYGcAnJp5M3EVu9OL8JwPYeFnQOKMLXHDkX+O8AcDyA4WZWy2meKiQHmNlOJH+jdsyrJokB7CYAoJQdIBboK+XU39j9FIBqUfZwM9uE5O/bmM/MStpQnuec2w3AaiRpZtWgw+Wcc2a2A4Ar9GwQXyX5BzPb1IN5EQAgAKB9FfZabSTJuz0fg5dJ/srMRhdpPyq4KgCGJE/DzPHcP6YB2DXwqJ2wAABJAIAAAJIPmtkEfe3c5zPdAACnAHiuIM8B/BPAUI/iaRjJSZ6M3WwAn1Ms9E3VatWZ2bs9eQpgMYBrarWaugBI0hsAQLUexRek9JX7iuzhele8b2HGpyuu1Lviz6YwDrPrUfPj9cnT8z8DAhhH8pGSXf5fk7zp00kb7hpmdnzSDn56C4e4y5xzXrWmdM4NLUCBLy9bQvJxAN8huYmHh+ETSf5LnRtW/v42gK+ZWeZJqACATC75XyL5eNL293aSf01sStIp48Kl/ttfk/9nGslHk7lZqHHsl10BYMMCbdkOwFf7Me+LST5H8i6SDefcwUEQDCnzgcY5N9zMTgfwSMn3occA1PO+ZBIAIACgzcX1sz0H6Z4leW4QBANVXsrlAsYAnJTUM3xd/xeQ/JFzbi0BAAIABAAIAPDEZprZPoqAfu9BgwGcWhS/MLMjPRq78QB8WXumKI/r916yJskfeNKZ6TGS79SsSNIyl9w7hVH8cFbPANSj+Fv1RnchuguNmzw1mBg135LSMwk/DLvuzff+1cxqAI4r0RfXSwDca2YTOjimBzrn9kyKZTespEX7PJJneXigep++lF3pQfifAE40s2E+Ol3yFeZ+AK4qwFc4ednDZrZ31hczAgBSs6dIXk/yhyTPAHCUme1gZuu1EC/rmtmuAA4B8AmSF5O8NgECNLa9t/uSL+sKIwBHk3yiDxf/DydF8o+a2eY6xiyb/5jZ0R61kcwrXzgj7zauAgAEALT5kvJhn3MBAGep5X/u55CBZnYkgKbHEMCTAI43M3iShwgAkHrOigIAWo+bTgEAngNwOoCKIqAtfrFmAvwXoQ52VRAEgzwYNgPwO1+69JjZNvLktuwnByQfhvnw4eelzrkhmhVJekNh1Lw4IwDg1TCK/1mP4p0LMzaNeP2wEd+QwjjcXG/E+XZgJ7kayW+X7C3uzwVBUIoijZltQ/J9JH/6PweVR0ke7tnfOprk3wrSOitr+6OZ7Rnk9IZ8L1QFsDnJS/QkwEoLGt81s4EZr/MCANpnrwC4HcDXAbzTzMa04wBtZoOT53gOSuCtu9QVoNdPo7yvSC37AGxN8rZe/Ma7AZxDMky+IFSL6ZXcA5nZIQmgU9Z4+DWAtXO+jBMAIACgHWeDdQD83OP98GEAp+rS0puz5AAAhwK4z+Pz5I0AtvQkDxEAIPWcFQUAtB43nQAAzALwTcVb231jk+RpXd/rmc+Z2Ts8GK/9kmfs8h6P5wEcC6AmL27LvK5G8gJP9pTbAIzVrEjSG6p3xVuGUfxiRgDArDCKT6tPno4ijM3ERvfQehR/M4VxeCGM4jDvxXmdJEkpy+Xbfc65DUpWDKkBWNvMDgAwCcBskv80s609O3iepUvjFbaNnwJgOzMrDJ0NYBSAi0vUWaRXB4xarbZVxvNxPMmnNfb9tqkAjgewZUISpxKTzrlBAMYkz2rc4UkLtSLYd0kOLdDeDACXr+JLxYUAbgPwMQDbOeeGBlIrqpnZu8oKAQB4Ou9nrgQACABoUxwfT3Kmp7/5EQBHA9CXRX7trQRQB/CkryApyS+TzL3NsAAAaak6jACA1uOm6ADAQgC/NLONg5yfi+rQy8/tAbxQAB/4UZDvR3EEMMWTjj0/BLCGvLetcbAjyXs9mNuXAXw4CALBHZKUqN4VuzCKf5BhF4Brwqg5ughjM2HStGoYxe8Ko3h2CuPw+TCK8+u+A2DT5L3UUhSozOyzJU50K2Y20Dm3DYD3OOe8+XrQzLYjeZMKqMvYXACXmNm6RWzNBmAggEuTL3M1n8uuQ9/Jch0C8HbP2+f6/mX53QA+CGAN55zLcF10JIcm7RkfE1CzymLh7QDWKdg6+bEVfPmwOPky5w4AxzrnMvW7TlG1Wh1gZieVFCxcAuDoPMFBAQACANqwPm7uMaT+hJm9vUhdZ8okM6uZ2b5J7rTYw3zleTPbPu9xEgAgvX4TJwCgN3FTZABgCcl/mNnYIn1cUsCa6zHJk6teP59Hct+8xgjACSSf8WCtucPM9lA8tD0PqwL4iie14N+S3FCzIkmvaf/L7qlMjJp71xvNFzICAObUo+a797/snkKAOGHU3DmM4tvbPw7Nq8OoOSrPBHb3EhWnFpnZpgp3v+ScM5Ink3xOBdRlLv8vMrNCk6gABgP4vietvXwq/D3unNs0w3kISf5HY9/rAsnDAM5PvpDItZDgnNs+aYP8ouZmpTYPwLYFOxyPJfn4Uj73LMlrARwZ+PE2Y9EL2uuRvKykINrP82xlKQBAAEA//YdmdpqnsfssyaO0wvp/CQNgLMmpnkIAk4OcnyQUACAtlS8JAGg9booMADwB4Bh5fOo+MhTAdzx/zm8+ya855zJvy5ycEX7pQZfDWQDOCPx/ZrWodf7RJH342HQWyQmCPCTpDdUbzTXCKL4swy4AP69H8YgijE0YxWuEUTw5hTF4qh4183sGzsyOK1Fxaobe9fEyQd6M5NUqni5z6P1F0S//l5rftUleQnKO5naZd+TPyXAOBAD03m4CcGgQBPAoltYn+VWSTxTgbcG87P1FWyJJ3kxyPoDrAXzEzDYI1JKznXnuHskFUNliYQbJ3L5OFgAgAKCf+90WJKd7+DufAnAWAGp1LcT6DwCHkpzmaReA/XPOKwUASEEQCADoZdwUFgAA8HWfzrYdrAqAXUj+03OfuD6PZ2EBHOLBxfBiANea2UZy11T3lm97svadY2YDNCOS9Jrqk6e7MOp+TxjFz2YEADxbb3TvXJTxCaP4tDCK57R7HOpR/I48E9izS3SpepUAAO9UBXCYvhBfxk/vNLNtOmmSkzauv/Ocgs66PfPtWXUkEQDQK1tA8mckd/E0lkYAOBHA05qrFa6fPyzg+vh+AKcm3QuUo6QyxPgmyblliwfn3OZ5DboAAAEA/SwYnuvhb5wJ4HMAhmlZLY7MbACAE0k+6Zk/LSb5f0EQDMlxcxQAIPWsuQIAWo+bQgIAAG53zq0tb88sDx4A4BTPfeVFAMcHQZDlE4fDk+4IeXfmmWVm75Gnpr5e7uBJrX8qgNU1I5L0hiY2ujcNo/gPWXUBqEfxOUUZm3oUjw+j+L4UngE4P88FeXKJLgYmAagqzL1KCIYD+IUKp6/bAwAONLNO89MqgN0ATNWXy6/bcwBOySjOBAC03gbuO865jXxuEZYUs48G8LLmbLl9/h8FLBANDfQ1TtpjPKaMayCAE3MccwEAnuQaJO8C8DsAlwH4EoCPtWCfB/BDAD8m+VeS966igDesjb6zRdLpxqdxfBnA981sLa2oxZOZDQVwMsnZnvnVYwAOyfEcLgBACoJAAEAv46aIAMA8MzvMOacOY9nuPaMA/J+Pz9AsZZMArJHhWrMryYc8+N1/dc4NlpemPt9DSP7Kkw6su2hGJOkNTZg0zYWN+FNhFL+YDQTQfGjc5KmFeOa0ftm0tcMo/kvbx6DRvD3PBfkfJSqEXioAwLui/Ljki1sVaV/7suj9tVqtIy+CzKxqZm8n+YLm+vX3vq8ws1EZFCoEAKzangfw5VqttlpQgPbr9lpf22MBPKe5W8bmOuf0jp/0v6okX5uUDQCYlGN+JwAgu1ziFZIvknwGwHVmdraZHWVmW5AcTnIogMEABpoZXAtKWqcPADAQwBCSq5FcvVarbWlmIYAPk/w+yb+TfJTk0DbtbTWS3/OsY9QiAL+tVqv6crLY5xBL9oEFnsXvlFqtlsuzbwIApKVqggIAWo+bogEAiwBcbGYj5OnZnz/MbB9PLrxXZo8A2MHMsoidQclzhnl/ELTAzA6Ue6avWq1WBXCwD3k9gAs1I5K0rOpd8U5hFN+ZUReAhfWu+PBCjMvk6ZUwal4SRvGCdo/B/pfdMzKvZL9ZokJoQwCAd4fNH6l4+xqVDeAi59yIEsz5xSQXac5fP3AdEqR84SwAYJX2AoAvBEFQqDd9AQwB8FmSL2kOlznQ76PdVVpBvOxUtmdoADSDnLpLCABI/0uW5P3U6wGcZ2bvqNVqawUFANhWEac7kLzPs7G+w8zW1SraEWeQQSQv9+xrzOdIfjAPeFEAgLRUbAgAaD1uigYA3ENyV3l57vWvxR6fF041s9SfoTOzDUlO8+A3X0VyoDwzszVzSwC3eDDv/zKzQZoRSVpWYdT8RhjF8zIAAJaEjebVEyZNG1CEcalH8QlhFD/f7jGod8XvzSsZebFEhdCrAeh9XU/knFuL5FMq4nIJyX+Y2U5lmPdarbYJyTs073yV5EIAX0tagKeZdAsAeJMLYwDnBQW7/F/qIL0RgJ8nl0Gaz9di6oPaYaWVrIUPlCweHnXOjc4pxxMAkI7NTr66P9fMDjazNTorRHG2Z23anyA5Qatnx6hiZtsBuM2zGsX/mdkGOQScAACppyYoAKD1uCkSAPASgLPTrjVIq/SZ0Um3JF/r5H8HkPqFjJkd48mHH4c65/RhYHb1qtUAfNODj8BmAdhDMyJJy6reaO4URvEjGXUBeHRio7sQH2xN7Iq3DqP40XaPQT1qNvJK9sv0JdQMAQBeJcLHq/3/64nIcUEQuJIUGBzJ9+opgNftZgBbphxrAgBWvi/8uFarrVPwQ9XuJLs1n3yV5GIA52uHlVay/0Qli4f/Anh7HmMtAKDtNh/A7wB8CMB2zrmOey7KzHYgeYtHYz4HwBlmBq2enSPnHAC8y7O8+L9m9rYgCDK9kBAAIC2VHwkAaD1uigQA3GZm28jDvfCbr/j8hB6AzTJYZ/7kwW+9HIC6OmXv/4cmUG2uZymSZ2k2JGlZjZs81dWj5o8yAgBerkfNc8dNnmrFGJf4bymMwZ31ydOzBzNLVjxbZGabKby90AAAv/fg/ScfDrhXOucGlywBXIvkZSro81WSL5vZIWkW/QQArNSuA7CdmVUKHlIOwCc9+2oyt44qAP6kLVZayVp4csni4SUAp+V0ySYAoH12q5kdAWCDoHNhUQI43bMLqJ+Z2XpaOTtyLxgC4FySc3268AQwJONxEAAg9dQEBQC0HjdFAQDmAPhiUJKPTAqw72xF8iFf/cXMTkv59+/owQdAc0l+wDmnjwKz9/8xJK/3oPPuHzUbkrS8wq7u3TMCAJaEUfzXele8eSHG5bXnEdreBaHeFe+SR7JfqiKamZ0dFPx9zE6Qme2rC8nXKMRarbZ9Cee/AuAAD995zcsuJZnae1QCAFaY/D8A4B1m1hHt36rV6nAPDlW+WLNSqajVpbSinHdbn9/gTOOJE5I/zGOsBQC0Ze7uBfAJM1u7Uql0dKtSAJuR/LNHOcLNAHZxzunM2KGqVqujEhh9kScXni8A2CTjuBMAIPXkRwIAWo+bogAA91er1XXk3d7UvwYCOMvjc8jNQXofpFQAfNmD7q83kFRHjHxyrgEkf+iB/zedc1tpRiRpWdWjbtYb8V8yggCeCxvND0yYNM37c3YYxQe0+bcvCqP4yXoUn5hHsl+2r63vc85tqvDOVY7k13366iJHf2wAYEn9YBCA7+nt8tfemDWz1FqRCQBY4dtvnwqCwDopoADslbQ2K/v8/tvMdtJWK60g592M5OMli4ernXMDM0/0BAD0x54B0CC5XUmK4jWSh5F8yZPxfzp5mkvqfN97i0/5MYBzMs4bBQBIPfmRAIDW46YoAMDX5dne+c4uAHz9AOZJ59wWafzuWq02iuQ9HrR//3qn1X8Kts98wIO182kzU44vSf+jMIqrYRQfF0bxgiwggHoU/3Rio3tt38dl/GX3DAmjeG4/Ox7MCqP4oTCKbw+j5pR6Iz6z3hXvkMciXLp22wC+5ZxbTSGeW7FlI4++8snTHjKzPYMSd6Qws318KjzlXOg4OMXDpgCApd6IJ3mVc26tDjxUkeR1mmM+QfIg7bbSCmJkI5LTShYPt5hZ5i3WBAD02e4m+aEgCErTxQTAaiSn+NJ5AcCPzEyXkOXxvzM9iv8HnXNrZvjbBQBIPfmRAIDW46YIAMDzzrlN5Nne1b6Gk7zAgy/hV/hsGMmTU4qZwzwAsP8FYLy8MNd9ZicPzuHzAZwbBIGegZCk/1EYNTcNo+adGXUBeLgeNfcbN3mq1/dh9Siu1qP47738bXPDKL4/jOI/hVF8URg1P1WP4nr9sns3rE+ent/aU9Li2qMA3qVFP7dD08EkHy55gXchgK+ZWdlBlAHJBcFCAQD4aYoxJwDgjXF+3sz26dCiQhXAoSRnl3yenwXwAe220grWwvVJ3la2JzEA7JH1WAsA6H1emABc+5OslikunXNbkXzWFzjXObezVsvyqFarrUXyFk/8bx6A92W4JwoAkHpqggIAWo8b7wEAAD8GoCds/Iy10NMPYBaR/EXQ/i/kBwL4bs5dChcBuEIfAeZeqxoM4Prkqa08ff3XZjZKMyJJy2pi1BwcRvHZGQEAi+pR/NmJXfFAn8ckjJqVMIrPaQVoCKP4/8Io/mo9ik8Io+b4MIpHj5s81Z+uMyX+AvRuM9svSO+dI2kldb7kS4uyX/g+BKAelPjr/6UO0bt71PY1T3ssCIKBKY2xAIA3CiJdQQfDXwA2Jnl9yef5JZKf0XYrrSA+1gLw25LFw8MADsk82RMA0Nu2pFMA7ADAlbAg+AWPcoSTAgHiZdsXqiTfQXKWBz64hOSfgiBgRr9dAIDUUxMUANB63BQBAHhbraatzNOcZwRJX88itwHYrM3xsjXJv3lQGzhB3ufFXvNDD+4CbgWg5yIl6X80bvLUSv21N+8fygYCaN4ZNprr+jwmE7qaQT2KJy73hEGjObPeiP9Yb8RfC6P4oLAR71BvNNeb2OgePG7yVD/vmcvcBhrAA2Y2zsz0DlB2Ce8GAK4oewtyAI1qtTpMHvH6V8s36AKAs83sbSkVKgQAJN1fSG7UyfFUrVYNwEdKDlktAvADra7SCtbCNQFcXrJ4mEky844YAgBa3/sBfNc5t7qZVUoYkwDgS37yD10+lvYsMhzAt5IvIPP2w0dIHphR/AkAkHpqggIAWo8brwEAANcD2EBe7XXu84EkP/fNfx4xs0Pb/FsPJzkj7w9tqtXqOvI8L3z/OJJzcvaHJ0kertmQpOVVb3SPCqP4p8nb9WlDAIvDru4DfR6PcZOnBvUo3qwexTeFUXxN2Ii/NLHRvV+90RxWb8SD640Y9UZ3MWo4Zf8SG8AMAEeb2QiFeiYb/h4kHyp5sfdJksfKG5Y7GCwquV8sAPC9lMZXAMBr43ummQ0oQTy9lWSz5PP9KzODVlepR8651cxsdAk7AMwB8KkcxlsAwKptLoDvBEEwoKxxmTwLNteDuXgRwGFmps5w5fXF3Uje6ckzAOcGQeAy+M0CAKSemqAAgNbjxmcAYCGATznnBsirvd5vNvf0rD6f5JeCNnXJrdVqgwF8w4P15JfyOm/O41uQfN4DX/+UmalNiiStQGHU/FAYxc9m0QWgHjV/rhHPLvl4VC2h8V8A5wLYJtCTAGlu9g7AsSQXlNjflgC4ycw2lEcssw6NBDCt5GvREgA3OueGpzC+AgDIbpI7lmStHUXyFyWf72ucc+tqdS2uzGx159x6zrmNAewIYLfE9iL5zqXsfSQ/sSoD8C0ADZIPlDAevpbDOiQAYNVF+p/UarVSv0cK4BIPYPRFAH5qZvo6rNwigC978GXaqyT/mMVZUQCA9LrzCwDoTdz4DADMILm/PLoQ+c+lydO0vvnQZDNbvU2/cTMA13iwnhwij/Npu+EjHvjE9/URqCStWPVGc/Mwim/N5hmAeOaESdNW16hns/r+XUW417/C+YuZHW1mg+UZqRTzV1MxmPMAnCNvWO6igAA+p3WIDwDYK4UDpgAA8jsAyvLsRhXA6Z68Z5uXXeucE2jl75oP59wWZrYDgAMBHETyUyTPInlh8j7gFJJXkryG5K3Jl5l3kryH5BNL2YvaO1ZplzrnVst4jgUArGKNArB9Gdv+L5WbbEDyDg+KgI+Y2WFBEOhLIJ1Vd/Dkq8z/AHh7BjEoAEDqqQkKAGg9bnwGAP4MYAt5dCHOQnuTfMVDH/qbmW3XpljZMzmr5fl7nnHOrS2P82q/udGDPeYqM9tYsyFJy2vc5Km1ehSfH0bxvAwAgEX1KD5Ko55NAnuZinBvvM1O8kkAlzvntpV3tH2jX9enIkNO9l8zGytvWE4VAONLfmH5KslnSZ6cwjpfdgBgBoB3BkFQKdF6O6GkXzq//pZzWTo+eF7cCpxzOwMIAXyc5PkAfp9c6Mck7yP5MMlHk4v82WV/miqlIsfPnHOjMp57AQArt7tI7g/AlXl9AHCUB4XhVwFcXqvVRmnFloIgcEm74vkedAj5bBAETDkGBQBIPecGAQCtx43PAMD5APQEWmHSINzvoQ89BiBswzkAAE7Ju8tBctE7UO7mleNf4MEe8yCAnTQbkrRi1Rvde4VR/FQGAMCSMGr+TiOezeJ7lgpxy7eCTJL6H5jZzgAGO+cq8pZ+J4F7k1xSct+6We+LrljJ28x/LfszACQvcc7V2rzOlx0A+DOATUsWT+v6QFfnaM00umlIb6harToAg0gOBzDKzDY3s3cD+G7y5f5DyRt/s5M3vucnTwAtVp6Zuf0aQKYdMQQArNSeJvlBkqX+2hyAA/A9D4CfxwG8OygRICitcm9bL4HS8l4rriS5ccpxKABACoJAAEAv48ZXAKBnP5OKkwtd7Gk96sT+1r8BDAPwCw/WklOcc07e5tV+c6onH3/quRRJWonqje5aGDWvzegZgP+EUbyrRj39pOMwFePevFAH4Psk9zWzteQx/fK1T5bdn8zsNHnCimVmA0l+MQFwSv12uZlt2ubYKzMAMB/AN0t6uLrI09aCWdh0ABO0srZNFefcIDPbEMAOJMcDeD+A8xLA5mld7HttfwewXZYOIwBgpfvRRUEQDNWZANt58AzdYpK/1XxIK/BPHz6QmAlg/yBFOEUAgLTUmUEAQOtx4ysAcKtzbit5c6H2Gi+fAQBwoZkN7+easrYH9ae5JHeRp3lX9z3Ak9r88dVqVXCIJK1EYaN5SEYAwEv1KD5r3OSp+lg25WR/S7XdbrmFdETycAAbBEEgx+x9gnt5yX1oDoDR8oQ39ZHDSD5ecj/pBrBvm8e1zADAEwCOKmk8nVji/f1pksdoVe2XnJmtY2ZvBXAcyXMA/CZp3f+K8kIBAG/qPAIAVmRTAWyspSUISB7uQb43C8Dhmg3pf1Wr1Tb04YIPwCdrtVpqzwAIAJCWWpMFALQeNz4CAItJTgmCQK3OixV36ybPofmWr/4BwPr9/G17evA7biO5uTzNswKDc5t7ss983cwGaEYkacU64LJ7hoZR/FhGEMA1E7uaa2vUU5SZrQ/gVhXlWk6sHyd5FYAzzWwnPQ3QqyTwkZK/wfs3AIPkCW+6Ho0heX3J15n/kmzrhXXJAYBpZjamjPEEYE+P36gUAOCnVjezfczsRADfIfl7klNJvqAcsNjrIMk9My7uCABY3k7UEhMEZjaA5OeSJ0HyzMvvMbPVNCPSCs6sA0g2PDg7/jbNC3EBANJSPi8AoPW48REAmAPgC/Lkwp3Vh/mYKwO4D8BW/fxtX/bgd0wyszXkad75/UhPIMvfAlAXMElaiepRXKtH8Q8yAgDur0exOrimvPgOT1rcqzDXy69GSE4n+SOS+wZBAHnTmxaCtyQ5r+QAwFcAmLzhTf0EJLtKvrYsInlqEAS1Nq7zZQYAbjMzljSeBnnyjq0AAI9lZkMB7APgGyRvIfnv5FC+QLlex9ijJA/IeP0RALCs3QJgda04r3/x5sO7sGdqNqSV5M0Vkgfk3UUJwDMA1knxdwoAkHrWZQEArceNjwDA02b2dnly4faaKsn3+PhkFcm39HNNudqD3/Ex51xNnubdfjOcZLcH/nEHSZ3NJGklqnfFlXrU3C+M4vkZAACvhFH3F+uTp6srR1qqVCoG4GS93dqvy7o5SVvPswBsDmCYc04Xvctu8seW/DJhEYADq9WqOkas2ldOLfvXpgAucs61LRktMQCwCMCPSx5PN5U0jmaSfJ9W1OXWghqAIQDWMrOJALqStWGOLvwFALRTAgCWsVfM7LBqtarnw15bh3ZKulLkmWc975zbWLMhvUn+tC7JX+W8diwBMDHFWBQAIPX4uwCA1uPGRwDgP2a2kTy5kLG3B8mHPKxHndzXy3PnnHlQz3uMpKAYP31+OMk7PfDxlwCspRmRpJWrHsUb1qP4hqyeAQgbTT3bknISuxfJB1Sga8sm8jKA3wF4P4CdzWwtM6vKx3BJAkuU1S/uB7C1VpuWfGV88gVqmdeSvwIY3cYxLSsAsADAF0seTxeVOI7O0or6msxsMIAdABwFIALwiMBPAQBpSgDAMjngbwCsq5UoCJxzVZKHezAnkwHorWTpTbdOAB/x4FL0mynmiAIApJ4LGQEArceNjwDA7fLiwp7RtgBwrYe567lmZn38TXvlvZ4AuM3MxsrDvPT5IQCmeOLnW2hGJGnlqje6B4ZRfGYYxQszAACeC6P47fXJ0/XhbIpJrBetGDvtax+S9wO4jOSHzWyPEr8z6ZJ33ZeUuPh7uZmp+NtacXjNpB1TmS8L/gVgxzau8WUFAOYDOLHk+/upAgBKqyqA9ZPLtq+RbCa5iXK08tlTJMOM93IBAK/ZSwBOCILAKcMLAjMbBOCbOc/JPAAHC9CWWsihdid5V87+emeKv08AgBQEgQCAXsaNjwDApfLiwuZFw0h+z8P89fck2ccYOdmDM+dvzWwDeZiXa+hgAD/ywc/N7CDNiCS9ucLXngH4d0ZdAL4YRt2DNOop1ukAnElyrgp1qdhckneTvAzACWY2ukyFwFqttj7Je0vuA583M31p1HoR4udl7hiRtOPeq41JdlkBgHlmdkTJD1iHCgAo3ZxXALwVwBdIXkXycX3tLyiV5FGZHiwEAPTYTSR3UGb3+vq0OoA/5XyxdA+AMZoNqYV1bGRyJslzDZntnNswpXgUACD1nL0FALQeN94BAAA+Iy8urKoAPprUf3zKX6f1tVMSyYYHtbxLzIxyLy/XUG8AAAAf1IxI0purHnWvE0bxLzMBABrNm8NGcx2NerpJ//4k71OhLt33qJPDQgzg+2Y2riS+tS/Jh0t+mXtsEARqY9J6UngGyfllXi+Si+tqm8azrADAHOfcbmWOJTPbVQBAmZZOHEjyx0lBf7byLtlSdnTGF2cCAMhFAC4AoALkG4vU2gCeybnYd6GZ6ZJRakUVAJ/I+S3jeQDenVI8CgCQeuo1AgBajxsfAYCD5cWFPq+/zae1OLGXSQ7uw88ZQPKWvD/AA/BZeZa3+80gkpd6snaerRmRpDdXffL0Wv21ZwDmZAABzAu77t1do56iqtXqIJKX6yuxzGwhydkA7gLwWQDbklytUql0XDtKAEeQfLLEc/0ggP21yvTqEDSx7JdXAE53zqFNMVhmAGDnkh+whgoA6Fw55wBgXTM7GsDfSc4qefcUmQAAn+wxAEcqq1vGL3bP+UmwF0kebWaCcqVWzyRvIdmdZ80AwLkpndEFAEg95wUBAK3HjXcAgHNuV3lxoeNvZ5K3e/hBytg+5HljPPiw8FmSJ8uzvK5ffNKTveYyzYgkrVr1rnjnMIrvzqgLwNc14ukns+8k+YyKpLkVpH4B4B0ANu2kdkUkv+hhS6ss7QYA22iF6VWxbb2cv7bxIRn9JYAhbVrbywoAzK7VaqWOvYSwni8AoOMOzgNJjgHwEZL/Ug4lEwDgnS0heROAjZXVLZOPfDTnebkLgL4qkHqZSvGqHMGVxQCuSCkeBQBIPU4uAKD1uPEOAKhUKmvJiwt9rluL5JUeAgD1PsTH20nO8OADrAnyLG/93QCc6omfX6MZkaRVa9zkqQij+OdhFC9KHwCI7x03earTqKerISRvVJE03zerSf6R5GkA9jCzAR1woLw46XhQ1ovcn9VqtZFaXnrtNw+WfC24qV1FsBIDALOCIFit5HE0sMSx1HEAQHJg3oHkp0nenLztrtxJJgDAP3sFwPeUzS2Xj+T9nvovzWxNzYTUS7/9anJGzw1ccc6tnsLvEgAg9ZwXBAC0HjfeAQAkq/LiwsfgD3zr4gbgpD7Ex4eSL/Dz/NtjAGPlVV7XM3wBAG7SjEhSa6pH8fvDKH4hgy4ACyd2NbfWiKef0B6nIqkfX66SvJvk9xJ6sZAdAcxsKMkrSv7+67eDIDCtLr1ei35d8jVgOoARbRrLsgIAL6qYwAEk7xIAUHxVKpURJM9O3lWcrTxJJgDAa3sBwFHK5pbbk/K8bJwH4JwgCGqaCamX59kDc+5M9iCAPVI4awkAkHrWZgEArceNAAApDb/6nG/nOwBf78Na8m2SC3L+22cA+AbJ02Ve2pkAfu+Jnz+q1UeSWtOBXc1NwiiekQEAsLgexWdoxNMv2A3x4M0e2VJfEJF8CMCPzeytQRAUqg0GgE1JXlfypx1O1crSJ985V91AuFabxlIAQHkLegIAOmI5xESSf9XFv0wAQGHsiWq1uomyuWU0kuSsnAvC79Q0SH1YzwaTfDLP9cTMjkghuRAAIPWcFwQAtB43vgEA0wUAdMRh790kn/Isl/1Fb38GyZ/48BEWyZeSWqzMP5uVc1elpe1ZrT6S1JrGTZ5aqzfiKRkAAK+GUXzTuMlTB2jU008+3lniN4O9/ZKc5PMAfmlmeyaH42oBfOmtJKeWeN4eB/BurSp98p1jFPdcr01jKQCgvHEEAJcJACiWzCwwswEAxgKYkhyUl2hNlAkAKIzdEgRBRdncMj7xFpJzcpyTO51zozUTUh8vSH+To+++RPIzKeSIAgCkHv8WANB63PgGANwhAKAjzuxjSf7bsw4Af+llnrdB8pytzl2yotizZqa3xiWpRdW74ndmBADMqHfF+2rE008+1gDwM5KLtSF4+678b8ysbmZrBB6DAAD2L3lHiX8BGK9VpU8XYOPLHudmNr5NcSgAoLz7uZX4Eu6sAs/bRgC+SPJp5TwyAQCFtC5lcstdMB2d4xc/S0heHRT0STXJi3057/dqJwdt7gQoAEBaan0WANB63AgAkNLImzcmOc2zXPaRXtbvdiB5q85csiLVC81sK61AktSa9r/snuFhFD+fAQAwS88AZKOKmU0g+bA2BG9tCYDHSH4fwHgz87I1Bsn3lPwCY6qZbaclpfcys40EAFhbukcIACh1wVoAQLHWvcEAJpC8QnmOTABAoUHdU5TJLXcmOCt52iyPOZkP4FzNgtSP/Xm/nNeV31Sr1TXbnCMKAJB61mcBAK3HjQAAKRXX8vDZvkeDILBexMb+yZMUOnfJimKznHM7afmRpNZUj2JXj+KfZgAALA6j5v+FUby6Rj39xHZ1AOeRnKtNwWt7hWQM4Hwf21oCeC/JmSWen5ur1eo6WlH65Dtrena4zqP4cWabxlIAQHnjSABAceZqPZJnk7w/efZHOY5MAEBxAb63K5Nb7oLppzmubbNJHq9ZkPqxpq2b8xOJVzvn1m9z3iEAQOpZnwUAtB43AgCktHzrKs+efHuyVqtt3It15AiST+jMJRMAIEmdqQO7mpV6V/yujJ4BiOtRvI9GPZsEZGsA1+spgELYyyTvJPmJIAiGenSYPI3kwhLPy7VBm9s1lqgQMYJkd8kBgC+3aS0XAFDefVwAgOcys4qZ7QXgGpKzlM/IBAB0BAAwSpnccnndjTnOyXNmtptmQeqH/w7N+cvG2wCMbXOOKABA6vFvAQCtx40AACmtOIw8q70/7ZzbvhexcZI+IJQJAJCkztW4yVODehRvFUbx/RkAALPDqKmuilkVpUnWST6ijaEYzwKQnAPgSpJ7OOfyfueyQvIzJZ+PP2gl6fPhejiAv5UcADinTWMpAKC8cSQAwO88azCAIwH8V7ClTABAx9hCkoOVyS11IKhUhpD8Z55F7EqlMlQzIfVjvx4I4Fc5+vA9APZsc44oAEDquXgUANB63AgAkNLaZ0737OOpZ8xsp16sI6frvCUTACBJna16VzwijOJLsugCUI/iSw9s3KtnADI8EJxZ8q+4i2iPmtlpADbOy2+q1eoQAN8q8RzMJ3meVpA+H66HAPhxyQGAn7ZpLAUAlDeOBAD4qSqADQB8I2lNrbxFJgCgc/bu+wAMVCa3jD9sSfLeHOdlumZB6ufFDAB8MUcfngHg0DbniAIApJ56nwCA1uNGAICUlm99iOQCj3zreZLvbLH2OwDAV3XekgkAkKTO1rjJU6v1KD4mjOK5GUAAd4dRc6xGPcMzAYArtDkU8gL61wAOCIJgQA7FvpEAfiAAQBIA0Ge7RgCAAAABAJ0FAJiZM7NdSU4hOUe5ikwAQMfZbSQHKJNbZt3bIef26VdoFqR+rmkuuZzJy4efJXmsAABJAIAAAAEAHXtuP8YzAOBFAMe0uEeOAHCJzlsyAQCS1PmqR/HOYRTfngEAMCuM4sPrk6crz8kwGRlD8nptEIWzRQCmAfgIgBEZ+8z6JH9V4rGfC+DTWj36XCweAOAcAQACAAQACADoFADAzCpmtiuAv5NcpBxFJgCgIzsATAEAZXLLXTQ+nOOcfEuzIPV3/yYZ5ri2LCD5UQEAkgAAAQACADpTzrm9k4+ICgcAAFiP5C903pIJAJCkzteBXc3VwyiOsngGIOyKv1zv6tbzihkeemsADgRwrzaJQr5FPxPAxWa2VoaHo81J/rnMyQSA47R69PkABACfFAAgAEAAgACADgIAxgO4m+Ri5SYyAQAdCwA0BAAstxcdTHJGjnPyec2C1IZL0j1zXl9OEwAgCQAQACAAoGPrX2MLDABsRvIanbdkAgAkqfM1bvLUSj2KTw+jeE7aAEA9iq+qR/FaGvXsIYAjSf47uVTWhlEsW0jyH865rczMZXA42oLkdSUHAI7VyiEAQACAAAABAOUGAOw1vSO5AFP+JBMAIACgbHvRKSSfy2tOzOxtmgWpDZek2+V5YQ7gnEqlMlAAgCQAQACAAICOrH9t5xkAMAvA8S3GxeYlr/3KBABIUqkUNppvDaM4Tr8LQPOlMIq31IjnkvPiFJKPabMobGHyUQAHOecGpuwoAgAEAAgA6J/9XQCAAAABAMUGAMxsYFIsfFA5iEwAgACAkl4unU5yVo4AwP6aBakNfrwNyftyXFsuds617Uk/AQCSAAABAJJ3sfiyR741j+S5LcbFjiTv0XlLJgBAksqhCZOmjQij+Oowipek3gWg0f1ejXh+EMBJeX7JIevfkwAA/gXgRDMbnqKTCAAQACAAoH/2uAAAAQACAIoLAJjZAABHkdTzSTIBAOUBAM4DYMrk/AEAAGylWZDakFONJvl3AQACAAQACAAQACAJAFjm794t6RSsM5dMAIAklURh1PxGGMXzUu8C0Ih/rNHOsa4N4FSSz2rTKKzNIPlJkqsJAEjFnjezg7VU9E3VatWZ2Yklj9GZAgAEAAgAKCYAYGYVAEeQnK58QyYAoFQAwMfMrKZMzh8AgOTqmgWpDTnVBiSvFAAgAEAAgAAAAQCSAAABADIBAJJUZtWj+B1hFM9M/xmA+Mlxk6cO0IjnJOfcEACfUCeAYl8wArgQgBMA0Hb7r3NurFaKPqsCYKIAAAEAAgAEABQUABifgHbKNWQCAMoFAJzsnBMAIABAEgAgAEAAgAAAAQACACQBADKZAABJ6jhN6GquGUbxwxkAAIvCKN5VI55vgdsBOIRkTHKxNpBC2kIAnzWzttI0yTtQd5V4XJ9xzm2vVaJfB6DxZY5NALcIABAAIACgcABABcB2AJrKL2QCAAQASEEA4Esk5woAkAQA9Gtt+YGZjRQAIAkAEAAgAEAAgGcAQF33AbIC2nOVSmWoVh5J6pvGTZ5aqTfiSzMAABaHUfOzGnE/QIAJJG/UBlLcizIAp5hZ254DILkHyYcEAEj9uEQLSx6X1wgAEAAgAKBYAACATUn+geQi5RYyAQACAKQgINnIeV4EAEiFBwCSf3tjAQCSAAABAAIABAB4BgCEOmvJCmjPatWRpP4pbMSHZQAAvFqPmjfUJ0+HRtwPCGBbkn8kuUAbSSHtieTd0rYcvAUA8FkA+2hl6Juq1aozsw8IABAAIABAAEBRAAAA65D8Psk5yilkAgAEAEgCACQBAG20PwEYLQBAEgAgAEAAgACADGwOydMFAMgEAEiStDLVL5u2ZhjFczKAAP4dRt3basQ9kXNuSwCXkHxRm0kh7T8AjjKzflM1AMaS7C55V4V3a1Xo81oCAJ8UACAAQACAAIAiAABmNhjAp0g+p1xCJgBAAIAyuWUKw98huVAAgCQAoF/2KwDrCQCQBAAIABAAIAAgo3rmMQIAZB1sd2rVkaT+KYyaLoya12cAADxbb8Tv14j7o4qZrQHgFJIztKEUzhaTbJrZDm04HG1F8voSj+UsAMdqSRAAIABAAIAAgM4HAJxzewJ4RHmETACAAAABAMsVhs8i+ZIAAEkAQL/WlkvNbKQAAEkAgAAAAQACAAQAyGR+1FslqdwAQFwNo/gLGQAAr4RR83sacc9kZg7A7gD+picBCmdLANwAYEQ/D0dbkLxOAIAkAEAAgAAAAQCdDACQXI3kP0kuUQ6Rmy0iOX8pm0dy1pvYAgEAAgAEAGS2Rp6exJ0AAEkAQN/XloudcyPa+HsEAEgCAAQASAIABADIXi3pma2hVUeS+g0ABGEUjw2jeEEGEMA1B066dx2Nup8aCeBHJJ9Mvi7XRlOczfAi59xQAQACAAQA5GZ/EAAgAEAAgN8AgJkNJPkV5Q2p2+yk4PogyWkkb0/sOpJ/BPBjkuctZV8FcOzKjORtAgAEAAgAEAAgSb3IqTYmea0AAAEAAgAEAAgAkAQACACQFf7MdqZWHUlqAwTQiDcOG/FtGQAA3WGjua9G3N8keTCA4wFcS3KuNprC2AsATgiCwAkAEACQtcyMAD5f8oT0BwIABAAIAPAbAABwOIDHlTO0zeaTfCzpqPA7kj8ieQHJMwCcCGAigD2dc5slhj4W2H4lACA9CQAQAPA/8ZYrAGBmYzQLUhv2+61J3isAQABAB67RAgBajxsBAFJaGiwAQCbLdK85WMuOJPVf9UY8PIzi72YAADwXRs33a8T9lgOwDclvAHham00hbDHJW81sbB8PR2UHAOZm/QZ1hxXZBgP4QckT0i+3aSwFAJQ3jgQApCgz2wjA1Un7eeUNfbNXAEwj+RMAXyJ5AoC3AXgLgA2dc6lcBggASDnpFwAgAGDZeMsbAJioWZDa4MfbkvxXjmvLhWY2rI05ogAAqce3BQC0HjcCAKRUVKvVxiRPmPniW8+TPKLFNUQAgKyIZ7YttfJIUv81YdI0V2/EHwijeGHKAMDiMIq/Up88HRp1/w8Xw83srQD+qQ2nMF/iXWBmq/XhcFR2AGA+yfMU9X0+XA9JWjqXOf7ObNNYCgAobxwJAEjxjhPAR0k+q1yh14ftmQB+n3zVPx7AGJKjnHODgiCoZpSPCgBIMzgEAAgAWHYv+iDJmTkCAOrIJbXDj3ch+UKe5wIzq7Xx9wgAkHpyIgEArceNAAAprdx5bFJD9MW3njGzXVpcQ3wBABYCuA7AKTJZCzZIK48ktUf1RnxAGMWPZNAF4Of1rnhdjXgxVDGzEWb2YZLdyWFjiYri3tpTAI4E0KuCA4C1SZb5AvcVkhcq3Pt8uB6WPBtS2tgzs4PbNJYCAMobRwIAUspjAOxM8hblL6u0BcmFyXQADTMbnwBeAwA4M6vkVOwWAJBuEVMAgLT0XnRI8rRHXnPyec2C1IZ9Y++c9/zT2hyXAgCkHt8WANB63AgAkNLKnffwDAB42jm3fYtrSN2TM/F8kt9yztVkshZMC48ktUlho7llGMV/zgAAuKcexW/RiBdMZrYpgHNIxiQXqlDubTHzJjMb3csEdmTZW7iT/JOivM+FiBEk7yk5ADChTYUKAQDlvXQRAJBOgWYogK8koJfyhBXbbJL3kbzUzA41s9U922MEAKRbxBQAIC29F+2fZx4C4GLNgtQfVavVmpkdnfOlxiltjksBAFJPTiQAoPW4EQAgpeVbH0rAaV9860nn3CYt/u375dwhZ+m98nx5kyRJUraaMGnakHoUfz+M4iUpAwCz61F8SH3y9IpGvZC5DvYCcAnJGSqae/tG70lm1vLholarDQVwgQAAqY+FiJEkp5XZf5xzm7dpgRUAUN7NVQBACjKznUk+pNxghTaL5DUkPwtgb4/3GAEAKUoAgACA//GHLUnem+O8XKNZkNqQT30+z458JI9s828SACD15EQCAFqPGwEAUlq+5RsA8Egv1pDdSP5bAIAkSVJ5VW80PxFG8az0uwB0fzrsuneARry4xaFhAA4FEOX5TqRspQexe2q12rBeTGmV5FklH7ebnHNrKbr7VIhYK7lIKrP/jGrTYVIAQLkL1gIA2igzqwI4T3nBCvOEawCcaGabB0HgPN9jBACkm9MLAJBeV61WW5PkXTnOy3TNgtTPfGoAyTw72z0M4B1t/k0CAKSenEgAQOtxIwBASsu3zvCsK+4jvVhDBABIkiSVXGGjWQ+j+IEMngH4SRg1R2jEi62qma1pZvsB+CGAOSqqe2OLABzXy8PkGSUfs7sAbK2w7r2cc9uV3HeeI7lmmw6TAgDKW0gQANDuJKVaHUbyeeUEy9h/AHwQwIZBEFhBit0CANLdwwUASMssnSRvzXFe/mtm62sapH7sGYNJ3pyjD98DYK8254i+AQDXABgpb8vFvwUAtB43AgCktOLwIpKLPPKtO3vxt/sCACwm+Vt5kyRJUvaaOKl74zCKb0odAGg0p4WN5gYa8c5QxczgnNsKwCUAHktoviUqtOfbBaBarbb8ji/Jo0k+U+Ix+zeAusK59zKzQ0seb1NJtuXNbAEA5ZUAgPbnJsnXGcoJXiuwzATwPQCbFO3CUwBAuhIAIABgBTF3RbJu5DEvL5iZ8nGpP/nUcJJP57i23GhmW7f5N3kFAJBsklxb3pbL+iwAoPW4EQAgpeVbU3LMk1Zkv+5F7W4MgL978nf/Wd4kSZKUvSZMmlapN5o/CaN4UcoQwOKJUXM3jXjnyZnZWJLnkryF5AsqvOdmz5tZy0Vkku8i+WSJx+spAO9TCPepEHFWyWGbKwEMbdNhUgBAeQsJAgDamYw4tx6A+5QLcCHJGwG8KwgCFHSPEQCQZuIuAEAAwPIx990cW9vOAfARzYLUjzVtTM5ry+9rtVpbL8c9BABiAQC5rc8CAFqPGwEAUhqqkbzTs5y2qxdxMZrknz35u/9iZnobWpIkKQfVG/HHwiielXYXgHoj1tm+k5UkFqcCuALADM8IybI8A/BLMxvS4nxNJPlAicdrNoAzFLl9KkQ0Sg4AXAhgYJvWTQEA5d0zBQC0dzw/KAiRCwD8CsDogu8xAgDSvSwTACD97/p5JslX8oKWAHRpFqR++O97c15bfhoEwYA2/yYBAFJPTiQAoPW4EQAgtV21Wm1tkt2e5bNn9CIuNib5e0/+9tuccxvJqyRJkrJXvRHvEUbxk+k/AxBP0Wh3vqq1Wm1dMzsYwHn6Gi9zuw/Avq1MlJntTPK2krdIPk8h26fD9Y0lBwA+DsDaNJYCAMobRwIA2qdBSWvGRSVem14EcLGZbdIBxW4BAClKAIAAgBXsRwfleMG0BMBfgiAYrJmQ+rhnRDmuKy+TPCeFmBQAIPX4twCA1uNGAIDUdpnZDr59OGVmR/Yi718LQJcnf/tdZjZGXiVJkpS9JkyaNrTeaE5LHQCI4qc02uVR1cyGAdgKwEkA/kLyJV3Qp25zAZzZYiK4CcnrSj5eP3POjVS49roQ8XjJ/SY0s0qbChUCAEoqAQBtHcvdk/dpy7omvQTgXOfcqCAIKh2wxwgASFECAAQArKC4vTXJ2Xm+L25mO2gmpD7mAFNz9N2ZAD6Uwm8SACD15EQCAFqPGwEAUhp+9TaSj3kGAOzXi7x/BIBLPPnb/wVgvLxKkiQpH4WN+LcZAAALJ0yapm4vJSwq1QAMALAtgM8CuI3kczm2mux0+x2AjVc1L5VKZQDJX5R8rG4DMFZR2qt4HktyVol95lmSe7TxQCkAoLzFBAEA7VmTqiTPJDm3xM/ZfL1arQ7plNgQAJCuBAAIAFjJOvpMp12iSqXw3S1z9t1HAbw9hRzRNwDgXgEAueVEAgBajxsBAFIafvWhpAbki18tAbBaL37CAABf9eRvn2Fm75RXSZIk5aN6o/nxDACARfWu+DCNthSY2UEAvkvyVpKPkFyoi/u22YOtUpUkLy752M8AECoie1WEON6nIkQO1k1y+zYeKAUAlLeYIACgPfnEeiSnlPhJkp+a2agO22cEAKQoAQACAFYSd7/LcW4WAbjQzKCZkHrpt+/PuXtFd61W2zSFHNE3AOApAOvL43LxcQEArceNAACpDDH4NIBBvfwNHyO5wIO//wWSH5NXSZIk5aN6FO+RAQCwOIyaX9ZoSz2qOec2BHAYyfNI/oXkU7rA77fNI/lBM3MtJIKfSJKwMo/VCUEQ6GDW+sH6PE8OD3nZHwFs0sbxFABQ3lgSANCecdwbwP0lHce7nXMbdGChTQBAihIAIABgJWvpN3KenysBqFWg1KvljORP84TZAdwSBMHgFOLRNwDgVZIby+VyyYkEALQeNwIApLbKzAZ5CJrfRnJAL2PjGE9iYz7Js+VZkiRJ+eiAy+4ZGkbxnJQBgCVhFF+l0ZZWklvZGACHkvwmybtKfsnYX7uY5IgWEsF3lx26AHB2rVYbpBBsuQhxFcklJfaZBoA121ioEABQUgkAaE/xH8AJJe1K8hKAgzt0nxEAkOaNmQAAAQAr3pOOz/uNcQB7ayakXhQPNiJ5e86dK6KU4lEAgNSTEwkAaD1uBABI7fapjUhe61kuOwUA+1Bz+rcv9TQzGyLvkiRJyl71KHZhFN+aQReA+yZMmjZSIy6tTBUAQwFsbmYhgJ+TfF4X+r22u0iObiER3IPkQyUHAKYAWEeht2o55zYkeXfJY+v0dl4eCAAodUFBAED/i//DAVxY0r3rYjMb3qHFbgEA6e7lAgCkFe1JW+T9VRiAk4Ig0PxIrfrsYSQfzdlnP5rSb/MOAHDO7SKvyyUnEgDQetwIAJDa7VO7kbzTs1z2CwBcL3/HniTv8eQ3/AbABvIuSZKk7BU2mrUwii/KAAB4pN4V764Rl1pRBQABbAzgEyRvJfkcyUW64F+lLSa5u5m9+QBXKiNJTi35WD0GYEeFW0sHh0NJziixrzxO8tA2j6kAgPLGkwCA/o/hRgBuLeH43QNgN+dcR8aGAIB0JQBAAMBK1tM1Afwr76IwSb0zLrXir86DZ8nmOOe2T+n3eQcAmNkR8rxcciIBAK3HjW8AwD0CAAq/1xyR1IB8WosPrlQqlV7+jtHJk7tePGEAYKy8S5IkKXtNmDStMrHRfWQGAMDMMGoerxGX+nT+AXAQyV8kB+L5uuh/08PZB81slQcOAL8reUv3VwG8yzmnw9mbqwrgayTnldhP7jSz3dp8qBQAUN6CggCAfsjMerrYlC0XeAXAl4IgYMcmewIAUpUAAAEAK1lThwL4cc5zNBPAnkEQVDQj0ipyqDEk/5qzvz6Z4u/bj+T9nq2f75Hn5ZITCQBoPW68AgAAvAxANabiqgbgDJILPVqL55DcuQ+5/5okf+vJb5gB4G1yL0mSpHwURvF2YRTPThkAmBc24nM12lJ/ClQDzKwO4FtJO/IFuvBf4YHje2a2ys8DAXzOs6Q2j7Ga1Nt3tMom59xaJH9d8ri60jnX1i/TBACUungtAKB/uUAVwIdLOHYPAgg7u9Zdur1GAIAAAB/OVwbgIx7M0am2qhZmUtlVBXA4ySdy9tXfpxiP2/n27BqAT8v1ckmKBAC0frbyrQPAq+oAUOj61wgAl3rmT/8EMLqPa8mFntTO5wH4UKAnnyRJknJR2Ig3ChvxzRl0Afj1hEnTBmvEpf4mZENI7g7gC761ZfLErgeAFgoMB5a9mwKABwFoUXrzA/VbS/5cxGIAlwRBYG0eVwEA5Y0pAQD9G78agG+XcB260jk3qlPjolarrUvyWgEAqebPAgCkFakCYDzJF3KeoxsADNF0SG9ydh2WtP9flLOvfirFdXozkrd7tn6eL+/LXgIAenU2EAAgtdOftiJ5g2fr8C/NbO0+/p7TSc7y5Heca2arycskSZKyVxjFI8MonpQBAPC3iVH3FhpxqV0H5MEAdgfwc5Kv6OJ/mfZQA1c1ftVqdU2fDpU52SIA2yma3vTAcBzJl0rsIy+RPDOFcRUAUN6YEgDQv4KoI/m3ko3bLABnBEFQ7eCcbmOS1wsASHWMBQBIK9uXtvRgXZ1nZntqNqQ38dOtAdzrwZqydYrrtHcAAMmr5X25+HuXT90aBQD0zpxz28qLiymS+5B8yrM89gLn3LB+xMeTnvyWKwCsKy+TJEnKXvXLpg0Io+4zMgAApoVRcz+NuNQ2mVmlVqsNNrODANwsEOD1BHF4C8NXIXmfxgrnKZJWGl/DSX6n5D7yHwATUyhUCAAob0FPAED/iuMDAZQNSnrMzPbu5LgQAJDJGAsAkFbmG8MBfNeDeeoK1BpWWvGZxAE4meSSnP30TpJrpBiLG5H8h2dr6K3ywMxV8ejdbgEAfTAz20duXDxVq1UD8CEP9pplPloieZxzrtLHfWVLj+q+jwHYUZ4mSZKUveqTpwf1RvPIMIrnpgwAzAwb8fEacSmtA/MGyVtNz5f9Uts5t2+Lh6VLBEwwBrC6ImiF/rGjIBHeamZrpDC2AgDKG1cCAPqhWq22VQnHbZqZjerwHG50CTs7CAAQAOCNSJ7swdNgz+qrSWlFMrPhAHy4GD+P5KCUY/Eaz9bQufLAbFWtVoeR/JMAgJbPVt4BAAA+Jk8u5F4zDEDk2Rr8AMnx/fhZq5H8p0excYRzTk9kSJIk5aCwEe8bRvEDGXQB+MqESdOcRlxK8czMM0g+WuZLSzN7V4sJ7uECAPgigCMUOssdpGsAjiG5oMS+sRDApJTGVwBAeWNLAED/CjPvLOHl5VUliIvdSN4tACA9CQAQALCKA9QBJO/Pea7mA/iqZkNawd5f9wBQmUfyKDOrpRyL3gEAZiZYPlt/H+NbJwgBAL22r8mTC3keWReAbx/AXAdgq37+ritILvZkLfm2mUHeJkmSlL3CqLlNGMU3ZgAARBMb3WtoxKU0k7aBAE4i+UiJ29qf3uLhclMPD0tZ24LkkldJ6LJxNBTA5SX3jTkAjklpfAUAlDe2BAD0b/xOLdmYLQHwxRLExb4k7xUAkJ4EAAgAWMWZYD2Sf8h7vSP5DzPbVDMiLSUC+KMnXeNSb11McoovFzU94AOAXeWGmeZEe5HsFgDQ8nj5CABcKU8uZC40nuRCz3ypy8yG9TNGzvTow56pAAbL2yRJkrJXPepeL4ziyzMAAK6qN5qbacSltA8Bg5N3Ah8v6SXLZS0muGsAuFZdAHinmanl6LK+sQnJ2SX3i+drtdo6Ka1RAgDKuz8JAOjf+F1YQgDglI6/3SHfTfIJAQDpSQCAAIBVqAbgG8lXzrnmCSRP1XRIS+37B5F8zoN15FIzG5nBfvhtD7odLG2vAHivPDFTnz+E5MMCAFoeLx8BgKY8uZA1sPM9/CDlM0EQVPr5u/Ym+bJHH2BtL2+TJEnKXvVGt4VR/K0MAIBmvRHvohGXUle1Wh1E8nySc0tY7JzSYjF4AIDTky9uynzR+xKAM1UcXqb49IWygyEA/trfw9abFCoEAJS3qCcAoH9r0y9LCAB8sAR7zidKmK8JABAA4Fsc7kvyIQ/m7AYz204zIpEckOz7izwAU04ws0oGv/kcD0CcpW0RyR/KGzNTBcDHSc4SANDy2cpHAGCGc25HuXOhVCP5b8/86CEzO6gNZ4AqyWc9Wk/OlrtJkiTlo3oUfySM4hdSBgCeCRvN/TXaUiYys7VI3lDCC+4prY4RgP0APFf2y97kba0tFTVBYGZrenj4yeNg8vEUCxUCAEoqAQD9Hr/rSwgA7NPJMeGcA8lvlDAeBAAIAPBNJPlHD85NcwF8zszUIrbcqgI4iuQMT7rF7Z5RnnhsAhx4k4eQ/JPcMbO9egjJiz3cRwUA9M5mAThNHl0c1Wq1sZ51X3mV5D8AbNKmBO83Hq0ntwVBQHmdJElS9qpH8SFhFD+cQReAd9UnT69oxKVMZGaHe/DVQNb2214cmMYA+JsAAL5I8kQzs7LHDIBPe3j4yaPd2jYpjrEAgPLGlwCA/hUvHigbAOCc26XDY2L95M1jAQDpXioIAJBaiceP+pADAojNbMcgpU5MUiHO8OsB+BXJxR58Af8zACMzisGjSL7g2Tp6j3NuhLwyk/kfTfJqAQC9GjMfAYBFJH8e6JKzSLF3oWd140UApgRBYG36fad69Nuedc7tJa+TJEnKXvVG/JYwiu9OHwDoPq0e3as8SMpMg0g+WrJi59ReFIRXA/BtAQB8leQVANYt+cFnQ5K3lP1ZCAA3ARiW4jgLAChvjAkA6LtYwu4kZQAAdiZ5hwCAdCUAQABAi34ymuRLHszbQgBfAADNSillAI7z5FJvJskPZLgn7pn8mz6to/8BsKfcMn2R3JPkNAEAvYoZHwGAnq+3t5ZXF+IssjHJOz18pvTDbT5v+fLb5gP4ljxPkiQpex0YxSPCKL42gw4AP6g3msM14lKWB6mLSlbs/E8vhqcC4GiSTwsA4Gwzqwcl/tqI5Ac8PUBnamZ2Sq1WS60bhACAUhcYBAD0Uc65zT1pBSwAoH1yySXPPAEAKQ+0AAABAK2pBuA6T+ZuZq1W21xTUspcaSMAf/TED+NarbZxVr/dzDYn+ZRn6+gzAN4nz0xdVQDvJfmKAIBerRe+AgDPADhObl2IPcfHeuhTALZt428cRTL26GmZWwBsJu+TJEnKVuMmT63WG80pYRQvThMAqEfxtfUoHqURl7JM6N4mAOBNCw1jSN4oAICvkryb5MiSxskYkn8p+9f/yVcuY1MeawEA5d2PBAD0Uc65bUk+VjYAwMwO69R4ILkGyV+UNB4EAAgA8HWferdHbXD/YGYDNSvlkZkZgLM8aP3/KsmFJL8dZAiHm1nFwzPCK8k4VOWhqc79SACRp/uoAIA+5PAALq1Wq8Pk3f6qWq0OIfkrD2tgN5hZpY3ry2AA53kGOByvfUWSJCl7hY34S2EUz021A0Ajvj9sxBtqtKUsC8ybkXy5RMXOB3qbDwL4Vkm/wFuRnV7CYu8gkmeVLE5WZpMBjEp5vAUAlFQCAPqusgIAAE7r4HjYm+SLAgDSlwAAAQC9ODetQbLpyfzNMbOTgiDQ/JUnT9qe5POe+N8sM9v9/9m773i7inr942vvNd/Pk0oICSUQMISOVCkCokQUPUfFLlgA4cJV7NgLKs3yU1S8iCKeA1gAxYqgCOIFKSIoiDmhF+nSO4QWwu8PJtcACSTnnL33Wns/79dr/klCyFkzs2bWrGfNdKAPVjGYf1JZlv6Kp7Vtfz1JVzkAsNTXraoBgCeBSyPCx2dUu9+9rEJfxi+8I+U+o/yjlhHxtiqt+QK/KMtymluhmVl79Q3MfnP/4NAdrT4GoG9wyEchWVsndatKurKHFjrPGMY12lHSTX75qyclXQW8sIe6SCMitpF0sete9wLvKYoitfie5ABA745HDgAMU68GACR9u4v7w897eLxxAMABgKr2SwGfzF8/VyEE9feI2Ng10/0iYllJv67QvePPRVGoA32wivfqi4Bt3EpbNkYvOJbxSQcAlrq/VDYAIOlx4KMRMcatvJJtZ7ykAyt47MZjEbFuC37ejSVdWKH7yvUR8frCuwCYmbVV3+DQVv2DQ/9uQwDgVb7a1jaSpvfYy83jhzEZnAKc7xfAT21zCBxWFMX4HllsGw8cVqHtXjtZ/ga0/LxtBwB6eqHBAYDhL472YgDgSeAPXTr2vEjSgw4AtO3lggMAtqQawFYVCk/PBQ5JKS3rqun6Z/b/lvRAhb7AfGcnrgPw+QreS2+XtItbacvqvAROdgBgWNeuygGAJ4FzgFXdyis55mwo6a8VbDMXAGNa0FemSqrSs8A84HvAFLdGM7P2edXg0Ir9g0PXtjoA0D8w9ElfbWvnxM4BgCVbjD+wIl/7VKHcDLy7RxYcXtvDWzA/8wHk8HYk9B0A6OkFPgcAhqlXAwCSLo2IbtsecYykY3t8zHEAwAGAyirLclng2xWqx9vyy1jXY/fOj7aWdEGFzmE+r1Njb0TsWMF76RPA/kUHdkToBSmljat8HKMDACMqj0TE21JKDbf06oiIAPaU9EgF+9tnIiK14GcuJX2oSsd+ArfkYzLcP8zM2mTW0Rc1+weHrmp5AGBw9hG+2kv3QNBIKYWvxPD0WgAA+P5wrlOj0Vi5QmcuVmHb5b8DL0kpde2WVGVZrgNc5/rWk5KuAXZo00KFAwC9u8DtAMDw50K9GgC4RdLru2hOm4B3V3yx1gEABwD8/CS9UdL1FarLKyRtLcmLxN33ImYNSSdW6OX/PGCflFJHXnaXZblWha7FwuVkSWu4xY5+lQNHVnwcdQBgZOXCiBjrpl6pcWeapLMq2Fb+LWnjlFKrfu5tJf2zYveXYyJinFulmVn79A8MHdOGHQDO85Veuknt1JxOXCMiHARY+gWsVSu0jWU7JlCfGEFbO9wvgp9WfhoR07v0vrKCpOO99f9TX7VI+nXRpq9aHADo6fHcAYBh6uEAwEPAl4vuOB+xmb/y/IfHHQcAHACo/Hg1TdIv8hypKvV5IrCia6erXsJMAr4q6bEK3TOGgE062PfGA7dW8H56F/Dqwl9qjvb4vImkmxwAGHZ/qUMA4ElgZ7f2SrWbPSvaTo6NiFbOc8blwNG8Cv3McyPixW6VZmbt0zc4dFCrAwB9g7Nv9ZVeusnJ9vmc1JOBPcqynOarsuQkzazSeYLtWOgcQVt7iaSHvDD/f+VB4CtlWU7osnvKspK+KOke17GelPQA8OY2Xn8HAHp3PHcAYPgLpOtIuqFHr90fU0ord8GLnlUkHS3pUY87DgA4AFCLMWuvCr5Y+WJRFA7Ed0f7WrAjzM0Val+PSvpqRCzTwesyBvhTRe+n+/pL5lE1Jh+38rADAMPuL7UIAEg6I6U01U2+81JKK1X0A7GHgD2Lokgt7jO7V7DP/LIoivFunWZm7dE3MHu31h8BMPT4Dj+4ZDlf7SUfoA94xlawv8sJ0om+Okt0/V7VSwudEdE/gmu1nKQTvDD/tHIf8J5u6Q8RMQbYrWLbuna6/D0iJrbxnuQAQO+ORw4ADP/eNUHSNT167W6SVOsvhySNl/RpSXd5zHEAwAGA2swZV5B0esW2I78d2Mu10xXta5akqyp2z5gDzOrwdSG/FK7iPfUcYAW33lGr620kDdVgHHUAYOTlbkl7uNVX4pnk45Ier2AbOR/YvA3PBNOBv1VtzTUi3u7WaWbWHn0Dc2a1IQAw79UDF2/sq73kE5QzFnMm7MkR8bqiKJzCfu4Hq0N6aaEzpfSC4V6rsixTROzmr/OeVa4HdumCvpCANwH/qujZkp1a1Ph0mxcqHADoUQ4AjHg+dGWPXrsnJP0oIqbVuO3vJekOjzkOADgAULu+u1vFvk6dL+lSoM+1U+tnkunAORW7Xzwq6bBOf+EeEWUeM6t4T30kpbS5W/CojMvLAd+pw7qLAwCjNpc/BZjh1t/RfjdD0t8r2kaOaNPOo03g4IqFIJ6QdFpKabpbqZlZ6/UNzJnchgDAE/0Ds9/qq71kExQ9x/k88/MDwxCwt6SV8wOrz2X7zwP0OEnX9dBC56OSxo3wIWoNSb/zC+JnlauBnYExNe0OZURsBXjb/6eXqyQt3+aFCgcAevdFigMAI7t+5/fwvepuSW8FyprNw1JEbOtgoQMADgDU9lmqlPSbitXrfEnnStomIly39dLI2y//soJfYF4WEVtWoM8VwObA/RW9px5dFEXTTXn4JJXAWyTdWpNx1AGAUTpeUtL+ZVmOcy/oSFsZI+lQSY9UsG1cB7yxjc8FG0uq2hgzV9LXy7L0TsdmZi3WNzA7+gZm393qAEDfwOwP+Wov2QPgDksxYF4JfC4iXg5Mi4iefzADPvgcAYpuLGdK0ggvWwn8t7fpXexOAO8BxtfsPjImIl4LXO46fNZD+HuAaPN9yQGA3h2THAAY2YLpj3t8t5I/R8TMGrX3CcCOwNUebxwAcACg1s+jL5N0XwXr908RsWlKyeH3emhExAzgyLzQX6W29Likb1blQklaS9IFFb2n3jWSHQetKIAZkk6r0TjqAMDoHjOyXeEQTbvnMSm3lSquwTwh6ddFUUxo8zhzagWvxTXAm1JKya3WzKx1+geGUv/A0J9bHACY3zcwdJiv9pINygct5YA5L5/tfUzeFWDDoiiiF68dsHZVH5xb+HD23YgY8WQpItYATvEuAItN536mTdtzjUY/WBbYPb+AcX0+vZwCzOxAnTgA0LsLfg4AjOz6faXH71mPRsRXiqKgBgttk4D35GMbPPY4AOAAQL3HrmUkHVfR+v1FRKzqWqrFC5gpwDdzALdqbelKYPUKXavlgaMqel99HNjXLXrYddsEPl2nnZEcABj163kkMMW9oa3r6jPzLqeVXCMBdutA3+mT9FgF+8efImIdt1ozs9bpH5xd9g/OPrrVAYD+wdm/8dVesonKmSOZSEg6R9JhwNtSSqsUPZI0TSlNkXRYBb8uaPki5yjt/FDm3RO8C8Ciy33AQRGxQsXvH8tJ+lwOBfkFzNPLPZL2Tim1/UWaAwA9/RLFAYCRXb/dfe/SPcDbK764PQn4Qh57PN44AOAAQP2fq5rAayXdVsE6fgz4UdXn5J7/IGD/Cr+o26difS4k7VPhe+v5KaVpbtnD6gsbS7qlZuOoAwCjP5f/AODda9qzJjZW0qcruOX9gjKUUprcgb4zFTiriiEzST+QNMat18ysNfoGhpp9A0OfbnEA4Mn+waELfLWf/8FvpqRrRmNhJD9kXAwcHhGzuvm6RcQE4JM9+vJ624gYrfa3Uo+ft/x85X5JJwNbV7EflGW5Zj5f827X1SLLaRGxdocWKhwA6N1FPwcARja+b+l7l56UdAXw1oo28+UlHZtDqK4rBwAcAOie8Wt5SQMVreeHgaMcAqh0+/lchceF84DpFbxmb6nwc9ydkvZ2y15qywG/r+E46gDA6JfbU0obuku0pY1sC9xQ4f710Q69bwhgD0mPVPC6PATs5dZrZtYafQNzGn0Dc/ZqQwDgkr6jL5vsK/7cE5V3SLqjBecLzQUuAw6NiB2A1SRNHI2t4ytwzVYGvlzRrQVbnhyVtNYoX89de20XhaUs8yXdAnwBWLXZbHZ6gbkJTM7n2t+U+7vr6dnljvz1f6ND9ykHAHp3XHcAYGTXT1XcqrBDY8+/gN2AcRVo2o2ImAi8BpjjsccBAAcAuk9EFMAWks6t6K5SjwLHRsTMlJLPVq6GhqRJ+cv/Byp6f7gnInZqNBqVWwcBNpJ0VoXvr//bqTB1Te+h4yQdXMe1FQcAWlbO9E4aLZ//rgL8s8J969ayLFfqYP9ZX9LZVQ3JAP3d8J7CzKxq+gbmFP2DQy9qQwDgmr6BORv4ij8HSd9oRxoPuFHSd4A9gJdExBrNZnNizSZ2E4AtJZ3Qw4vJR0ga7bPExkr6gxfql6icGhFvBlYtiqKtC80R0QBWBHbIX14+6PpYbJkn6ZcRMbWDD1oOAPQoBwBGfP0ScKHvY/9XbpX02YiY3sH51zhgG+Cw/EWg68UBAAcAuvgdFvCRCu+y9hjwC2CzUToSzYavEREzJB1e1Zf/OVB4JFDJF3ARMTE/31f1GLeHJe0bEd6m+fnrchzw/rpt/e8AQMvLXOA7wBT3kpb0u+WAwQoHk+cB+wGps12Ij1V0/XA+cCGwTdEjRxmbmbVT/+DQhv2DQ3NbHAC4qW9waAdf7cUv1E2SdFIHXoxdD/we+KakPYFZKaXViqKIil6nsXnh+UDgsh4+53we8MEYrf3/nz4jnFXjh6p2l/uAn0XE7hGxbivqYxF9YEVJ75T0Q0k3uA6et9wcER09tsEBgN7lAMCIr1/Zw9dvceUB4DhgVlEU7dwNIIAXAQdKmu16cADAAYCeeUZdPgeuq7zTx+mStnJtdeylSzMi1gcGKh5KHgJeVvF540eqfKQOcGFEbFEUhc8yX3x/SECfpDk1HkcdAGhduQ34ZERMcm8Z1X43Lt8/qxxOnh0RG1bgWm0InFHRed1jkk6KiI0KhwDMzEZV3+DQ2v2DQ1e3OABwR9/g0K6+2oufyG4u6YJOv6yRdLGkU4GjgE8Br6lIIGBZSW+Q9ANJF+UEei8vJF8PvKpFbXGipEO9WL9Ux2zcLunPkr4bETsVRTGqD3QRMSYitgI+K+nXdf2aoEPly0VRpA7f3x0A6N2x3QGAESjLshERu/o+tshyMXBYRGxbFIVavKD2cuDrkv7qIxkcAHAAoCcX1rcBqr7jxznAa1xb7ZdS2hA4teIv/+8BPpdSGlfxvra9pMsr/hHCV4DxbvmLrcN1gb/kj20cABj9Z6u6BwCelHQN8NZ2fDzSI0rgrcDVFf5AbK6kj0kaW4XbFPChCoclHgZOiIh1CofNzMxGTd/g0Iz+waHzWxwAuK9/YOiTvtqLIekdkv5dsZea90m6UdIlks6U9CPgwxHRl1Ka2eJL0kwprRoRbwe+I+lvkm6W9LgXkfWkpN8Da7boobUBvBi4yNd5WInVWySdCxwSEe9KKW01nIXoiFgxIl4REZ+SdFp+gXy/z1peqnKFpBdUYKHCAYAe5QDAqFzDTSXd4/vZIssjkq4FfgK8dpSb7/KS/hv4vaTr8sLVfF9zBwAcAOhJTUnfrEEg9wpgr6KiO9l16cvOrSRdWPHnk/nAuWVZVv7s7bIsl8uh8ir3tbuAl7r1P1uj0VgGOKXuz+sOALR+vAKuTClt7V4z8vlJRGyb1y6r/JxyFrBRVS5aSmkl4NwKX7NHgT+WZbm8m7iZ2ejoG5g9rX9w6LctDgA80jc4+5u+2osefEtJB1Z8wjI/P8g8LunRvOh8r6SLgJOBbwCfi4idgNdLWk/SzIXKdEnTJK0MzFj491JKs/J/tw9wsKQ/ALfnr/wf8wvPZy/4A18AWpaGbDQaAXw4v3D2NR/+ERuP5f5yP/A3SccDB+fyldzu95b0lfxrhwCnSbo2t/9Hc5/zS5elX7i4OyLe3Gg0Ov4SwAEABwAcABjRNVxV0p98X3veF1+PAtcBRwK7AhsD0yWtBEwGJkuaFBFjI2LiQr+2gqRpwNoR8Xrgy5L+ks9w9vjjAIADAFYURVFIWj7fG6reBu6R9OU8dvjLsda89G/ke8w++WOBqo8Td+Yzhesyd/yspIcqfk2vTCmt4t7wn+WTlNKq+eX//C4YRx0AaM91vjyltFbhr5xHMh5tBVxT8X53n6SPRUSjYn1plxzwrnJ47895R2L3ETOzEeofmD21f3Do6BYHAJ7sHxw6btbRF/m+vYhJy3Tg+C5fkLtB0pCky7x9/4jL1UB/GyaEK0s6ztv9utSwPCzpcGDFijxcOQDgAIADAMO/huNzSNL3tqVfWLxR0t+BY4FjJR0FfBH4zkK/dnaen/maOQDgAIA91/NqCby5RsdQnShp26LDx0B1G0lN4EXA9/NLjToE579cs762uaTbqh50B34A+Bzzp75AXhf4TbesmwADDgC07Vr/NSI2K3ze+XDawto12DHlCUmnRcRaFbyEY4GzKn79Hs8fHL4oInCrNzMbvr6BORP6B4e+1IYAwG93GBzyM8IiHqQ3l/QPL466LOEE8uR2vdgEtgOu8HV3qdmWemcBm1bo4dQBAAcAHAAYwcIq8BZJd/n+5uIAgAMADgB09Jl1WUlfyjuE1KE9XBoRe6SUJrv2RufdNPAmSWfV6EXniSmlFes2fczhvKpf29uB90XEuB7uE42IWB/4eZd95PJHBwDa+oLz9Ih4aeHja5ZUCWwp6aQa7BZ7j6R3VLg/7VCD/vSYpLPyUcRy8zczG3YAgP7BoY+2IQDwp76BOS/wFX/2YsqONVpIcelsuV/SB9u5hgx8xLsAuNSo3BwRu1TpAdoBAAcAHAAY8XXcUNKZvr+5OADgAIADAB0f19YAfleTI9rmS7oNOMJfWI643lcFDpB0TY3uB5cDr6zj/QD4ZB36F3AV8JaiKHrynptSmgn8qgt3uDzPAYC2n3d+fkS8LiIcAniel/8RsQNwZj4us+pz0p9GxISqXsyIGAd8rSbHqw5J2l2Sd3YyMxum/sGhd7UhAPDn/sGhNX21n/7QMAb4tBdGXZbinLBpbX7Imgj8wtffpQblMeC7ETG+YgsVDgA4AOAAwEhWespyvKTDfI9zqfH87QNFG4NpDgA4ANBCjfzFWJ3mNY8Al0TE+7yF7HCmMuwo6YyafbBwL7BPRIyp6RrR2sDcmoQALoqIlxQ9FrCJiDWBC+rwEtIBgNrsYnhlROxZtbPiK6QZEdsCF0p6vAbz0bkppQ1rMKfbRNJfa9JPbgO+VBTFWHcHM7NhBAAGhvr7B4duaXEA4KK+gdlb+2o/fQK7gqRfe3HUZQknkQd26AF3XUlXuQ5cKl7ObDaby1TwPu8AgAMADgCM/FruLOlG3+dcajp/Oyil1LYvgBwAcACgxWNbMyL2rMkZ8E/balnSH1NKmwETi6LwS5bF1/EYSWsCPwbuz7sp1KWeHwYObTQatT17MiIEHF2T6z0fuCZvYd7sgb4xHngbcGUXj6UOAHR2nNoHmOQx6mn3xHHAbsC9NRmPHgM+GxGpBve0hqTdJN1Ro1DnL4BNAR8JYGa2dAGA7fsHh/7V4gDAnL6B2dv5ai9E0hqSbvDiqMsSlFubzeYqnWinKSWAXSXd6npwqWi5NiJeXNGHKgcAHABwAGDk13JVSafV7CWEi8uCl9JfcgDAAYAuHOMOz9uy1q2d3A18G9g6pTTRNfm0e8cYYD1JH5V0fR2/opX0O2BmzauiERGvrNOuC8DVEbFtURTdustGMyKmA/t3+QtoBwA6Xx4CjgA29pEARQGsBnyhRvONJySdImm1Go39U4EjJD1Ss2N+3gtM864ZZmZLGAAYnL1p/+DQeS0OAFzTPzh7R1/tp09mXuGFUZcl/XqskwlSSZMlHSDpbteHS8XKzZL2kBQVvc87AOAAgAMAozMO7SvpQd/zXBwAcADAAYBKLBivAJxY468s50g6SNIWXfzScolfOKeUXgB8RNKfJc2tab1eBWzRJXPIGZL+VKNrPx+YHRHviIhx3dQ5JDWAVwDH1uwoDAcAany0oaQzgXcA43txUMo7oWyd+91DNaq7ayLi9UVRpJpd782B82oWtr9X0jERsX3RxqPWellEjAe2B14tySFas5rpG5i9Yf/g0FktDgDc1j8wtKuv9tMnsAd4YdRlCcoVEbFpBQb7FwDHdelZdy71LA8A++dt8qp6n3cAwAEABwBGZwxax7smuTgA4ACAAwCVWQRsAltKOrfGbWaupL8BX4+Izeq2YD9K94vVgA9J+mPNg973Abt0Uf8aI+kjNQtjzJd0LfCJiFiuS6piGUkfyoGhx3tkLHUAYPFzjJvbvBZ2naSvNRqNKT32DD0+B9Iuqtna472SDpRUxyNoEvBWSQ/XcO4/J38wN7OwVpkUEe8EfiLpEuBPwDq+LGY1CwAMDq3dPzh0SosDAHf2D8z+L1/theSEvRdHXZ6rPBoRXyzLckIFmmwjpfRC4B/ehtmlAmUecExErFjxB1gHABwAcABgdDSBAd/7XBwAcADAAYDKvKQM4O013S7+mUGAyyLisLIsNy564CzzHOz+jKTzumCHt0eA/SKiq76UlbRZrp86HrMxmFJapea3t5cAP5N0ZxuD7b+uQJ07ALCYEhHvBr7X7iMBJJ0N9BdF0fVnnqeU1pN0sqS76nYEDfDHlNLKNb7pSdKhNZ0HPCjpAuCTXRRAq0KbmAF8VtI5+UjgJ/Lz1t3A1r5CZnULAMyZ1j849NMWBwDm9Q8OfdpX+z8TGy24ebq4PEeK/jTghRVquo2U0iZ523XXkUsnX/6fGBHTa/AS2AEABwAcABitBECzOaNm20C6uDgA4ABAt491TWAfSbd1QRt6QtKjwEnAm4GVI2JCRDS7oJ4ApqaUtpP03byQO68LQt0PA19LKS3XbcdlNxoNgIPq+EVmfhl2K7A7sFxRk1BN3t54I+DIvN1/u9br5gOnl2W5pqQjHABYbP3s1ckXwymlrSJiA+CMNt8750u6T9JPJG0eERNS6p4Na1JKSimtk3fIva2m49K/uuEIGkkrSDqzxnODeZIuAj4saeWI6PrQzCjOE1NELCtpFWAv4A95V4tFzhWB9wM+esGsTgGAgTkr9A8O/aTFAYAn+weHvjDr6IsavuJPTV538KKoy/OU2yTtUdHJwVsk3eI6culQ+WtEvKgmE2kHABwAcABg9K5pCRzqe6BLzV5KfzsilnUAwAGALqb8hVA3BbQelTQb+DrwGkkzi5p9fdlsNomINYCXAh8ATs5nS3dLHT0M/DAiVu3iueTmkuq8+95cSccDfSml5YuiqOJiYBOYKmlr4KsdesH8ILBjfgH3JQcAFvtycv/8pW+nAgCbFU9tlb5XB0NvNwBfl7RFSqnuZ3AnYIMcIry0xmPRg8AHumTYaeTdTy7rgkDnbGAf4MVlWU6u6PhThT64ErAlsAdwlKSrljD89hNJ430Jzepjhx9cMqF/cOi7bQgAHLzD4NA4X/FqTOxdql0ek3QcUMntzSNiLPBxhwBcOvTyvzbbTTkA4ACAAwCjPv5sIekG3wtdalR+BazkAIADAF1uInB4l71gXlDulHQSsB/wtojYFBhb0XooU0qrAn353/u7PGZ22/nl84DfRcRGXd6vAvh/Nd0FYOFyU/6qfreU0kqV6SxlOS0idsr3rqs7uEPnj4scMHIAoLoBgAVHDwLLSzpK0iMdrKc5wJeBV7YzZDpaVZlS2iR/pX1mDtzV9d72OHB4s9mc0DWDToSAd3fJ8/bjwOXA94A3R8QaRVGkooc9dXoXawCvAj4p6ceSLhvG/P06SVP8+GNWL/2DQ19uQwDgyL6BOVN9tZ+avJ7pBVGX51jAvDYiNq/4y63J+ezIW11nLm0qVwOvjYjaLO47AOAAgAMAo/5yc1L+8uUx3xNdHABwAMABgEotKq4C/LiL29jjkm6SdL6k4yV9Fnh1SmnFDl/3FSPipcCHgO9IOlXSlXnb1m6tiz8DG/ZIv1ovL853yw6Hv5X0iYjYoCgKOnBJxwMvBj6fzxq/sZN9BbgoIjZe6Plhvw7/e653AGCxpblQv9wKuKLD/ekRSZcBP4uI9xRFMaXi97IxwBv01Dnz50m6vwvuaSdHxNpdOO4sm+9F93TRvOF6Sf8r6eA8d5ta9MiuABGxnKSXAh8Bjs7X4fKRhpgiYis//ZjVS9/A7P37B4fmtTgA8OP+waGVev5ip5RmSrrGC6IuzzGQvquowVl5wDJ5oelh15tLi8u1wK7AmJq9BHYAwAEABwBGVwPYWtKFvi+6OADgAIADAJV6xm1ExAsl/aFH2tz9+eXhxcDJwNckvSOltF7RwuMCImLNiNhO0r7ACZJm5y+x7q75l5RLWq4ENumhrtUEPtpF9bfgPPMr8y4On04prdviazghh2S+AJyen80eqMI9BPjvsixZ6CX33rkvd2wnSgcAnj8AUBRFkvSxihzP8UTeqebvkg5IKW1eFEVldqkB1gM+Dpwt6eYO75wwmuWfwCuArpx3RsRkYLALw4QP57nbHOAbQF9RFJO6rPqmpJS2yLv2/jyvm1yXAx1PjOJz16f89GNWL/0DQ+/rHxy6u8UBgFP7Bmav3fMXG3inpDu8IOqymC2Kvh8R1KU9N5vNCcB38xl/rkOXViwSXQG8FWjW8H7vAIADAA4AjHYCoNEA+FyHFwFdXJa0nABMcwDAAYBeEBGNiFhX0m96bKeW+XmR/PH8Ev4RSZcDpwDfBg4C3h0RO0fENpLWlLTGM8qaEbFN/jM7R8TOwMdy2PrE/LXpg/nvfyz//+b30DWeB1wcEbOazWazx+aUE1TvM7Kfr9/MBa7KRyB+LiLeIWmmpFUlrQxMzbsPLigTImLCM35tqqRpwAxgQ2AX4ADgjBzWqVqfeUTS1yNi0jNecu/Z4bXCJxwAWOT84u5nrkVIKoGzKnYfnifpUeBfkr6Vt/leDVg+IiY0m82yRXPPEpgATJG0akrplcBXgX/kOpvXZfetfwE7AV39BXmz2ZwEnNzFc40n8thwp6T/zUcnvUbS6sCKEbFsSmlcSqkK9VyWZTkGGA8sB6wErCZpZj7K5rOSfpLnig/luWKrx7w/+cnHrHYBgL36B4fuaHEA4PS+gdnr9fzFlvTNLko9uozi5AM4DViths16bF5sfsj16DLK5SrgLTVesHMAwAEABwBac31XlXRCF55r7NJ95TxghgMADgD0WBBgXUm/7vJt6F3aW26OiHcURdFzfTyl1ATeKuneXvowIm/ZPCTpJOA44DhJPwa+lstPFvw6cKKkC4B7a/Kz/U7S2otYK9xD0u0OAFQrAJC/rm8som9uClxc8TXGfwN/yH3m3cB2kjYH1omIlVNKU1JKS3ovmpJSmhIR0yNifUkvlrSDpHflXXBOyF8ad3M47XbgQ0VnjjDpxPizGnB+j83nHpB0DnBkPgrhjcAOkrYCNgDWSSktn/vD+JFkLMqynLhQv1pR0prAOsBGkraW9DLgtcC7gE9I+irwS0nnSvp3h+vlzpTSJD/1mNUqAPDO/sGhm1scADivb2D2xj19oVNKk/Jk3w/xLs8ssyNiu6IGW/8vpm0vDxzq3S1cRrEMATvX/CWwAwAOADgA0LprvANwo++VLhUvl0pa0wEABwB6MASwjqSTfA9wGaVyK7BnnXbKG+U5zwrAkQ7VdEW5XNKrF1PPb5B0rQMA9QgAAAJ2yWGV2oSpJM2RdBpwLHCEpM9K+syCAnxM0gcW/rX860fkP/9z4MzclnspmPSopAN65eV/nsuVwLa5vnt1/Jmf2/kV+cX7acBg7gsHP7Of5PIeYHdJn1rM739G0ueBQxbqVz+UdLKk0ySdJ+lqSTdVeEet+yPi1X7iMauPvoHZr+gfHLqsxQGAa/sHhl7a6y8ENpfPrXV5drke2DWlNLbGzbsRESsA+0q61XXqMsJyDtAPpJrf8x0AcADAAYAWvusEDvD90sUBAAcAHACo7MLxBg6/u4zy88G6PdqdGhGxraSL3A5qPU49COxSFEVazPPD9pIucwBgkdfmsPwCthPX5ezFbfcOTJJ0gKT7uqitPubdPZ/98h/4dkRM6cG5XAAvA87RKJ4h3+Xlvny0QDfvhvGIpP38tGPmAIADAM8g6Z15mxYPiC7/96JM0t4RMa5LXnotk0MA97huXYZZzgdmRUR0QX9wAMABAAcAWrsgMSV/keB7p4sDAA4AOABQvUXjJrAWMFDhL5hc6vVS6kuSxvZof1L+avBet4XajlMHRsSY53h+cABg8WupP+vUyzTgqOc67z0ipgG/9cvRri7HAqt1wRLVcMefBGwF/LPLX2q7LN3OCH/w046ZAwAOADx9Qa6UdJAHS5eFyoPAFyU1u6mtAyXwrhx2cXt3WdIyF/hVSmnNiGh0SV9wAMABAAcAWqjZbBYRsXneIs/30fqUJ4CL8haK9/XA4sgmDgA4ANDDIYAiIpYHviPpft//XEbYz++PiK16tT81m81xwI/01DnybhP1+lLyfyRNfp6X3C+W9M8OBwAquQOfpJ938L7zvecKAOT517qSLnBb78ov/4+LiJlAr8/nGhGxFjDbYReXXIZSSuv7acesLgGAOTP7B4fOaXEA4Lr+gaGX9fJgOR043gOESy53AV+p+xbnz9PmdwTOl88qdFmy/vA/RVFM7rKXwA4AOADgAEDrxxqA3Xz8TK1e4JwbEatGxPrAGT3wMzsA4ACAgwARUyUdmLdE9b3QZSR9/ayU0qQenmOuq6fOJHd7qEd5SNJxwBpLMIavLunsTgYAms3mTAcAnnXPOfT5AgD53zhL0s1u893z8l/SsRGxpmdxT5vPbQL81Ts7uUi6GdjZvcKsNgGA1fsHh85ucQDg7v6B2a/u2YssaQuf2eaSy+3AgcDkbm7zEVFGxNbASZIedr27LKZcDXyqLMuuW8hzAMABAAcA2jbeLAcc6ONnalEujIiXpJSKiFgZ+GkPvKza0gEABwBswfDIPj06N3IZxa+pgQ/0+AuYN0q6222h8uVx4A/ABks4hnc8AJBS2sIBgGfNLz61JAGAPMi9V9L1bvtdMa88zi//F73OC2wh6VeS5rqt9HR5WNKB7hVmDgA8o7yplwMAO0p60AOEX/4DXwCW75Gm38xf+B3hbT9dFrEF9N+AnYDxXbrK7QCAAwAOALRvMWIV4Mi8zarvsRV9+Q+8NiLIC91jJH2t23/uiNgppdSWo20cAHAAoA4JAEk7+QtmlxEerXIR8KJe7UfNZnMs8On8harbREXbKfDXiNi6KIpyCeey0yV1cmckBwAWPY/bI6W0pGPcWOA9kq5zH6j1l//HRMRMz9qec513PeAXfvbu+fLTlNJkdwkzBwB6PgCQUlrwgObBobfL3cAeEdFrWxY2gKnA+wF/nenypJ46t/IXKaVN6OLD1BwAcADAAYC2z7dmAGf6HlvJcgnQv+Dl/0J95QPdHhCMiL0cAHAAwJ72IgdJL81HgPioMJdhvaABvlcUxfhe7UcRsTzwPbeFyo5JV6WUNiiKorkUdRqSfusAwLOuyxRJf6hDACDPxZYBDvAHMLUdW74NrLakuz70sAawMnBYXt9z++nNci6wqbuDWQ0CAEddOrV/cOg0BwBa9yJgRUm/8cDQs2UecA3wyoho9uqNJiKaEbEt8BdvFdW7fUHSrcBHJaUeuPc7AOAAgAMAbVaW5RTgbC9EVKrMiYiXRERjEX3lrZJu6PKXAJ8C2jL/cwDAAYAajZONRqOxPPA/ku7yfdJlGOVWSbsAPdnvI6KIiJmSfuadACr3AvFvKaX1hxmQ+nUnAwARsU3V2npKaUYnd0YA3hARS/Vvzrt0fNHjW612lrkxIj7aaDQmLm199/h8rgT2kHRbvo5uT703F3tbURQOzJhVPQBw9GVF/+DQCW0IAOy0ww8u6b17gqQ1un1x02Wx5UFJfwS2WdTCd48uVkwHDpH0b08Qe6rcJ+lUYFZE9MRCnQMADgA4ANCxhcK1gN97S8JKlMskbf8cfWULSRd2+Yvp77frBZUDAA4A1PTZ4D2SLvVuAC7DKKdExDq9vPAsaf38dbSDj50vDwG/jIiNiqX48v8Z9fmzDq6RzJe0uwMAzyobDLd7Ap/3TgC1eV7ZoygKPCsb1jwuAa8GztNT58K7TfVW2T+lNNY9waz6+geHftPqAEDfwJxPvuoHF4/pxRcBr/SA0JPldkmH5EWJpm8zT3uImxQRuwNnSXrCbaXr09TXAPullNbspb7gAIADAA4AdEwzIjYGfusQQEePejkXePVzfUVTluVUSSd3+YvpYxwAcADAnnPMTMArc3DLu4S5LE15DNg3pTSmx/vQtpL+4vbQ0fKwpGOBdUcY6Dikg3PX+cD7HAAYtQDAghDAQfnjF/eTapbzgR09Gxv58zewqaSj8sc/blu98wz2i4iY7i5g5gBALl/oG5gzrhcfyA70oNBzA+DFkvaQtLxvL4t/lgM2Ar7pCWJXl18B/SmliT1473cAwAEABwA6HwL4vb+K68jRRycDLwGebw/NEjimy8OAZ7fr2BsHABwAqLEyItYBviLpTt9HXZai3ABs4rknW0u6yO2hM1vnA18F1hppPUo6qINBKAcAFn2kwwtH+O+fBLxP0nXuK5UqcyUdI2lrSd6tdfTGounA+4B/uY31zDPYpcDGbv1mDgD0dABA0p89KPTcC891IsLbRy2BiJgk6TWS/uq201XleuD9wCpFj+6A4QCAAwAOAHQ+BJCPA/il78ltXSg9NiJmLulxL5K+3M1f/eZFEQcAHACwJRs/JwH9wBzfT12Wov//2n2HBvAyhwDa3vYeBj4UEZNGae3QAYBnX5PNJF3QoWtytaQ1RqF/jgN2dwigMuVOYP+IWDkivFvr6K/xKiK2A053W+uZ3Zj6ih4+jsmsNgGAgaFv9A8OPeIAQGsmrL/J28H7C7Tu3vLtfOCdETEB/O5/aRcsms3mZODj+fytx9ymarvl83WSvgWs3usPUw4AOADgAEBl6gPgUEn3+j7d0uNebgV2X9qX3cCbJd3a5dcm2tHWHQBwAKBLFo4bkpaRdABwvZ8LXJbwS849e33xGWhExBqSjvVxGq1/4SFpdkS8vtlsMop1+IEOzlfnR8TnK9iuZ0m6pEPX5BJJq4/S2NaMiG3yS1GvDXeu3w5JenW7jufqVWVZNlJKU4CP5jXeR93+uvo57EBgjFu+WeUDAF/qHxya2+IAwEF9A3PG99zFTSkJeE3eXuhfkuZ5gOiqchVwcESs4VvJqPSXNSQNuq/UrtwMHCdpG7diBwBc9w4AVPCF0gTgw5Ku8tgy6uUh4MyI2D6lNJy62ULS9d18jSJiBQcAHACwpR9OI+Llko6XdEcO0/ie67K4L5f/HhHruNsUBbAa8G1J97tttKTcJ+l4YIsW1N3bO3gMynxJRzkA8LQyNFoBgIXmvatI+rn7Z9vLbcBPImJ1jxJt78NbAoP5w0i3xe58DjstIpZxazdzAKBvYPbP+gZmT+nlF5uTJb1e0hHe+qk7to2SdALwuqIo/Mn/KJIk4I3AjyTd2OVnA3fD9mm/johdm83mRLdeBwAcAHAAoKr1EhFjgR0l/clfIYzaQvG/JR0GrFsM88vLiJicvwzp2muVUnqJAwAOANiwx9Rpkt4H/M33XZfnCaN9M6Xk55GnxtblgM9LusttY1TLjRHxuXzMXSvudw4AVCgAAPypFXUdESvk4x68Ltz68oikvwDvK8tyBY8OHTNR0nslnZF30HXb7L73I1PdzM0cAOj5AMBCi3NTgFcD/w+41F+i1a48IOkESbtExIyUks+5aY1mRKwE7AgcCTzgtle5c55/BbwjIlYrisKL7g4AOADgAEClAwBZCWwIfBPw4sMIF0UjYidgxVHoM3/s8mu1qwMADgDYyJp3RGwJfL3LjwxxGfl53f3uLvlhutkck3c/utZtY1S2Dv9fSW8qimJsC4Mb/ZJucwDgPyS9TdINHbomvwBa8tIYmJQDH3/1kQAtmxveCXwb2CQi/NFW59dISkkvlPTJHOrxh17dcRzyX4HPAGPdys0cAHAA4OkaZVlOjIgXAntLutgDRy3KGcCbgGlpOPvc2rDWLoCpEfFK4MSc4HVb7GCCGvg1sD2wUlEU7gcOADgA4ABAnQIACxZYl42IXTu4pWidy93A54BVR2sMAL7Rzdt7R8S+DgA4AGAjf36OiGXy16A/zqFs35NdFi5PSPoZMN3d5f/GhbHALOAUv2QcdrkVOCAi1pJUtri+Nsk7IHZqLD29ggGA3Tu4dXjLAgC5vpE0A/iSj7kZ9bZ8QUppB2CyR4LK9emxEbEBcBBwj9trLcvjkk4FdpE0I6U0xi3bzAEABwCeexG6KSmAlwI/Aq6SdK/TcNX4ylnSLZJOi4g3AviL/84oy7JRlqVSSptKOjy/WJ3rNtq2VOf1wHERsXVZlirL0v3AAQAHABwAqG0AYMG4AkwHDpF0k3dket6XKrcAPwbWi4jmaOYggT27fOHz5w4AOABgo9bOG0CZUtpI0jF5i3Pfv13+b7wCPphS8tee/xljG81mczzwMUnXeJ1pib+Gvxs4OX893GzT/W2DDn7t/qSkIQcAnlYGJS3Xhj7azB9Y/CWH2xwGGF6ffUjS+cB/RcSkRqPhNatqj03NlNJ04GDgGh8NUOkyL4+Jl0fEoc1mcx1JKSLcx8wcAHAAYJiBgNWB90r6haQhSU7Etb/ckc+J+p+U0nZFUTjNVr3J4gslfUXSX/LCnxcyRv9lz22SzgIOjohN3eocAHAAwAGAbgoAPL3KmCXpl3n89xjw9If9GyT9KiLeVBTF+BYteK/XzeM4MFS04agcBwAcAOjB52aAd+Tj2W7284BLLtdKeqF7yCInPFvk3QC8g8ZzPMsAZwB7Fi3c7n9RyrJcS9L1DgA8LQDwfkn3dWhucUBKaXwbf9ZpwBeAf+ZjJ9wfl/yDlfMk7R8Ra/hOXztlRGyYj3k6N38Q6XZdjXKXpH9IOg7YbTSO/jOzznEAoJoUEVsDH5T0Q0kX5C/SPQi17ly3K4FjgfcCa7kJVl4zpbQG8B7gKEmzvfA3Kls5XSjp+8DuZVm+oCgKpzqHt8DmAEDv1r0DADXUaDQmAe+TdHJ+2O31ENg1wA8i4m1FUSzT+jXPzizutqlcV5blKq1uww4AOADQqyJieUnvlHSEpCs8n3cBjiqKwrsALLq/TJf0+Ryk9456T9/98VzgYymltYqiaHagesZLuqqD1+DylNLUSi2KSvt38D7S1gBANiYitgW+July98vnPp5S0vmSDoiIjXx374bhKdYDPpKDnf92G+9ImZv71ZHA3hHxIs+nzLqDAwDVf8k5FdhC0k6Svgucl7c38uA08nIPcCLwCUnbpZRW6tDDno1w4Q/YCni/pN9Juttte6mTnSfmMMWWwLJuVSN+CewAQO/WvQMANZVSShGxFvB24Kc9ujB+PfAd4NURMaVoUwgs73rVzecHv7wN7dcBAOtpKaXJ+bzzA4Ehn3k+KuW2vBBct3/3fRHxOveKxfaVscDGwEfz13293s7Pl/QRYJOiKKKTddPhENM1KaX1q9RWOxwA+FxEjO3Qjz42j2dfz7uaeDxa6KMV4O/Ap4DNIkK+q3fV+NSMiBnAm4Dv5qNrfCxGiwNwwEXA94F3AZullJYr/DGYWVdxAKBeLxYmAzMiYhvgk/lcsgc9YC3dS39JvwL2yGe6TUspeZv/LlCWZUhaOSJenM85PN3ngj7nJO+3wEciYgtJ08qyTG5Fo3avdgCgd+veAYAuGE4iYoWI2AE4CXi4B8aD8/KLgHWAyUWbw5DAkV2+nfDebVgwcwDArCgaZVmOj4h1I+K/8s5W3iFsGDuXAF8GXpyPXqvbl6jzJZ0eESu5SzznuDFW0lrAYT149OTjwOyIeD+wZlVeIjoA8B8RMVHSdzp4PXaNiE5+HNRIKS0TEZsB3+ry3bKWdL53Zt6KfPWIGOe7eHcv70bEZElrAx8Hzs67PniONkpH/QEXAF8HXgnMjIjlCn8Qada1+gaG9u0fHHrQAYD6vWRoAgmYAGyXz4s6TdLVkm7JE8RePjvq4fxl843AxcCPI+L1zWZzGUllRDjN1uX9Q1Iqy3JaROwNnJC31Lu9B7/qnJt/7iuA44C3l2W5PFACnuC1ZsFiY0nflnRsj5VB132UwF49WPfHSnp9t71IiogUEasD++XjmG7rgiOZHpV0p6TLgMMiYvOyLMdGRDOl1Kl+09/F/eLofJRCOxbKe/LeA7yiw4v0VkEppYakBPQDg8Dl+d7ncPCzj315UNLNwG8lvbHZbE5cMCbkec0785+p08/1EPAVSf469LnHjgIoI2IN4IC8I8BdXRicmZ930bxJ0m+BNzSbzfEppUqNHbkPduoa3RQR21foHr48cHQHr8fOVXq+bDaby0r6MHBmlzyPLMnYdI+kyyQNpJReWpbl2JSS13F7993HTGAf4HRJN0u633O6JToq45489g0BRwA7lWW5ApDyXM99yqwH9A3MfkP/4NCc/sGhG1tV+gaHvtc3MHuyr3Z7LAe8DPhwPgvxVEl/lXRlvvF3Yyhgfl6UuFbS3ySdBHw9It6RUtqwKAp/4W9FSmkV4PWSviLp9/llzk05LNJNfeHeHHY4V9JJkg4CXpO3czYzs+GZJGkH4HBJZ+U5R10W3+6TdKmkP0k6VNJORVEs5yo1s14BrAjsLOknC73k7OVF4QfzuHASsG9EvCgiysVcuxUk/aCGxypcCryq8Da2S2PZiNgF+FX+Gr3uwfnHJF0DnALsFxGbV/niS/qopN90qPwQ2KZCazeT8ppmp67HtlVsIxExDngVcGhe77m9y9ay7pE0G/gl8N8RsaJvy7aIeclWedfXn0n6Sz4qwEclP/XMf6OkiySdIumQiPiviNi4KIqJbjlmvavv6Msm9Q3MWa9vYM4GLStHXrJq39GXeWfGDk0QlwXWAfokvU/SFyQdkb+IPjfvGHBvnbZry1tr/0PSKcBxkr6UtwV6Y0RsmFLCNW/P80A5NiI2kbQz8GlJg5J+K+mf+SFqXo36w+25P/wW+I6kD+avndaOCPcFM7PRVUbECyS9UdJ+kn4K/EPSHVX68jEv3J+Vt4X/cETMApZ39ZlZjyMiXgTsLenIvHB8d4+cMTtX0pCk4yR9MiJenlKaugTXrAm8QtLFNdzi9ocRMc3NfqnXkMYBO0j6IvBzSZfUKPT4cA7Dn5CD8Dv6OAjr0n66HrCHpG/l42H/VcOg1pOS7gLOkXQo8D5ga8AfcdmSUEppLeB1kj4FDEr6c/7Qa14PzOmuknS2pF9J+gbwIeBtEbFFSmkZNw8zsx6WUpoUETOATYBZkt4g6Z3A54GvS/oV8IecGru0AwPZHfmswX/mgexnwCHAxyXtLGl7YMuIWDulNK1TW9ZaVz08TQZWl/RiSa8Fdge+nLeXPSP3g05/AfEwcDlwqqTvSvpM7g+vkbQlMKPRaIx3bZqZtW9KBUyLiC0lvQ74CPBD4Iz8JULb5k3AWcCRkj4h6S2SXiZpw7Isl3U1mZk9SyOltBywcd4h7HP5Gfiamr5AWVy5N4fBvpWfb7aOiJWW9tgMYDywf95yt04//z3ALskLBsNF3kVvW+DdeRekORUMA8zPu/sdJmlPYBYwoyiKcBVa1z+MpKSIWBPYHtg7H51waYW/iH48H9N6DPA54E0RsXFETHBt2kjmdWVZTgY2kPSqPOf5iqQTJf097y5R17ncHXmMOx74NvBB4G2SZgEbAav5Q0gzM1vSieO4iFgGWAlYRdJMSWtK2kTSJsArgHdHxF7A+yUdAnx/EeUoSadLugD49WL+zPeBg4EPRcReEbEbsHX+/6yf/78z879lhYiY1Gg0fIaftUszpTRB0gqSVs3tcUNJW+T2v+9C7fj0PBm7bAQPWQu24bwA+FP+e78KvC8i9pK0maQNgTWB6cDkiBjrajIzq9Q8CmAqsKqktfOLlp3z/fz7wC/zeHHdUr5guj3/d2cDx+b51/uBN+Y52vrAahExJSI8VzIzW0oRMVbSSsDawI7AwZL+Dsyt4VfvFwFHRsTuwIvy+DCpKIoRvQQvy3ImcFYNd0sYkuQdcEY+x2lGxHLAGsCLI2IP4IeSLpT0QAd2Ojo9vwjZU9IWklaXNDkiHPawHh/OYmpeN9osInbKAbCzgJs7uCvHHOA44MPAS4A1ImL5lNLYwse0WGs0U0oTgZXzx14vjIhXAu8FfizpnLyzURXmeY/l3ZkvAAbzkcZ7RcSOeS14fUmr5+Oslm02mw63mZlZy2aSRUqpkVJqRERDUhMon1kiogSSpLSo31+oNFNKzQV/p6+w1WDho8jtf+G2nyQtKLGo0mg0Vk4pbdloNKYt7s8s+DsW7h8R0cj9wxffzKyGyrJsAM0F86N8n3/WeNFsNqeklNYDJjzfGCGpGRGNiPDcycxs9Of7DaApKZVlOSGltGn++vlbeWewf0n6d/4i64G8ePxEGxaIn8ih4bsl3ZLDZHMk/QY4ICL68tbtCSjLshz1MQJ4c8WOvFmiAhxWjDAAYYvsJyWwoJ9snLfv3lfSscAfc8D9X/lM4gXl5tyG7szljvxrC/+ZGyRdDVyYd+Q7FNgnIl4bERtJijyvWjAfcoWYPcd4lseFlFJ6Qf6wa+98FOaxwCn5mI+rntEPF5Q7F1EW/v3rJF2Z+/spkr4PfBZ4Q0ppswXPMQv6rGvFqjJ2LXgmB8ZGxKb5yLzdgX2A7+XxZ+FyPPDP3N6fWS7KR8888785Fvgf4GP57313RMxKKW0TEesvZj24mVJqtGIeZ2ZmZmZmZmZmZmbP1mg2m1OAbYC3SPqspK8CP5V0Ug4I/DW/CLksl+vyTi53LEG5JR+Fd4mk8/PZrqdI+o2kYyTtC+wBbBcRMzpxAYAjarh97kMRMcvNtyOmppQ2WFAiYnPgLcDbc3lzRGy58J9JKa0dEeN86czaamxK6YXP6IsbADsv1F/fDrw9pbThgt9vNpurFQ5YmZmZmZmZmZmZmZlZF1JZlisD6+QzyLfP5U2S/kvSXs9XgF2BHYCXRcQLU0qrN5vNSUWFtkjOX6xdXbMAwBOSfg+s6GZqZmZmZmZmZmZmZmZmZmZWPHXANPAhSY/WLARwD/Dxoii8X7yZmZmZmZmZmZmZmZmZmVlRFEVEvAA4oWYBgPnA+RGxhWvQzMzMzMzMzMzMzMzMzMysKIqIKCS9StJVdQsBSDo8Iqa6Fs3MzMzMzMzMzMzMzMzMzIqiiIiJkv6fpAdrFgK4S9LOkpJr0czMzMzMzMzMzMzMzMzMrCiKiFhf0jn5y/o6hQDOiYhprkEzMzMzMzMzMzMzMzMzM7OnlJL2kPRAzQIAjwP7ufrMzMzMzMzMzMzMzMzMzMwyYDxwYs0CAE9KuiWltJ5r0MzMzMzMzMzMzMzMzMzMLCvLcl3glpoFAJ6QdBIwwTVoZmZmZmZmZmZmZmZmZmZWFAVP2VfS3JqFAO4EPlAURbgWzczMzMzMzMzMzMzMzMzMiqIAZgCn1vAogHOBTVyDZmZmZmZmZmZmZmZmZmZmRVGklAJ4l6SbahYAmCvpS8AyrkUzMzMzMzMzMzMzMzMzM7OiKFJKk4FBSfPqFAIA/h0RryyKouFaNDMzMzMzMzMzMzMzMzMzK4oiIjaR9DdJ82sWAjg1IlZyDZqZmZmZmZmZmZmZmZmZmWWSPiDpwZodBfAk8GHXnpmZmZmZmZmZmZmZmZmZWRYRy0n6fd0CAJKulbS+a9DMzMzMzMzMzMzMzMzMzCyLiJdKuqdmAYB5wA+KosA1aGZmZmZmZmZmZmZmZmZmVhRFRIyV9M0a7gJwM/AO16CZmZmZmZmZmZmZmZmZmVlRFEABrAWcJWl+zUIA/xsR67gWzczMzMzMzMzMzMzMzMzMnhIR8W5Jt9UsAPCwpP2A8a5CMzMzMzMzMzMzMzMzMzOzoiiAlYEfSnq0ZiGAqyJiVlEUTdeimZmZmZmZmZmZmZmZmZlZURQRMUvSFTULADwp6XhgkmvQzMzMzMzMzMzMzMzMzMysKIqUEsCX89b6tToKAHiza9DMzMzMzMzMzMzMzMzMzCxrNBrjgfPqtgsA8O+yLKe7Bs3MzMzMzMzMzMzMzMzMzLKIeJWke2oWAngcOCQixroGzczMzMzMzMzMzMzMzMzMiqKQNEbSEXXbBUDSDcCOrkEzMzMzMzMzMzMzMzMzM7OiKCKiAWwh6cK67QIg6TeSVnctmpmZmZmZmZmZmZmZmZmZFUWRUhoDfFTSgzULAdwL7F0URXItmpmZmZmZmZmZmZmZmZmZFUUBTJf0U0nzahYCuAJ4SUqp4Vo0MzMzMzMzMzMzMzMzMzMrigLol3RlzQIATwIDwETXoJmZmZmZmZmZmZmZmZmZ2VPGAt+Q9EjNQgAPAG9w9ZmZmZmZmZmZmZmZmZmZmWXADOCfddsFQNI/iqJY1jVoZmZmZmZmZmZmZmZmZmaWRcS7ahgAeEzSfq49MzMzMzMzMzMzMzMzMzOzDBgLHCNpfs1CAP8CXl4URcO1aGZmZmZmZmZmZmZmZmZmVhSNiNgCuLJmAYAngF+mlFZ2FZqZmZmZmZmZmZmZmZmZmRVFERHjJX1K0n01CwFcA7zWNWhmZmZmZmZmZmZmZmZmZpYB60j6Y41e/t8u6fOSVnXtmZmZmZmZmZmZmZmZmZmZZRFRAm+XdGPVX/4DlwKvkjTBNWdmZmZmZmZmZmZmZmZmZvZsYyQdLunRCr74nyfpNuAbwMSIcG2ZmZmZmZmZmZmZmZmZmZktTj4K4JKKvfyfK+lU4I0RMda1ZGZmZmZmZmZmZmZmZmZmtgQi4r0V2gXgLuBgYF3XjJmZmZmZmZmZmZmZmZmZ2VIoy3Iq8MdOv/wH/gbsllKa7FoxMzMzMzMzMzMz+//t3a+r1mccxvHvs+e+ryu44pmTlYHDtGAULAN1/4BgNZkGC0sT14zWdWFFFpdMBpFhGRYxG9aO4ZSxCXJ2OFgWxmDgOZ6f8Hr9Ce87XvC5AQBgj5KsknzddvOYxv83SR7MOS+t1+vpRQAAAAAAAABgn8YYHye51/btEQ7/f7f9bc55Y7VadYzhIQAAAAAAAADgQyW5lORJ290jGP+3kvw8xvhCeQAAAAAAAAA4WOskt9u+PsThf6ft8yTfjTHOSg4AAAAAAAAAh2DOudH24T/n+Q96/P8zyU9zzitJqjYAAAAAAAAAHKIkl9tuHeT4n2Qrya0knyzLslIZAAAAAAAAAA7ZnHNJ8u0BXAHYbftH20fr9frLJOICAAAAAAAAwFEaY5xr++sHjP/bbV8mudP2U0UBAAAAAAAA4Bgk+SjJjbab+xj/37R9mOTasixVEwAAAAAAAACO0RhjI8mPe/wK4HWSu20/VxAAAAAAAAAAToZVkq/avnjP8f9ZkutzzjPSAQAAAAAAAMAJkmRJ8k3brf8Z/Xfbvkryw5xzI4loAAAAAAAAAHASjTE+a/tL253/jP9/tX2c5LpKAAAAAAAAAHAKzDmvtt381/j/e5L7c84L6gAAAAAAAADA6TGS3G+73fZpkptjjLPLsqykAQAAAAAAAIBTJMn5tt/POS+OMaYiAAAAHIV30mxUITVHnRoAAAAldEVYdGRhdGU6Y3JlYXRlADIwMjEtMDItMDFUMDc6NDA6MjcrMDA6MDCLQNl7AAAAJXRFWHRkYXRlOm1vZGlmeQAyMDIxLTAyLTAxVDA3OjQwOjI3KzAwOjAw+h1hxwAAAABJRU5ErkJggg==;" vertex="1" parent="1">
          <mxGeometry x="540" y="40" width="128" height="31.19" as="geometry" />
        </mxCell>
        <mxCell id="LZN4CvvohTynmMFe8kbo-13" value="&lt;b&gt;&lt;i&gt;Write Code&lt;/i&gt;&lt;/b&gt;" style="text;strokeColor=none;align=center;fillColor=none;html=1;verticalAlign=middle;whiteSpace=wrap;rounded=0;" vertex="1" parent="1">
          <mxGeometry x="67.8" y="245" width="74.8" height="30" as="geometry" />
        </mxCell>
        <mxCell id="LZN4CvvohTynmMFe8kbo-31" style="edgeStyle=elbowEdgeStyle;rounded=0;orthogonalLoop=1;jettySize=auto;html=1;entryX=0;entryY=0.5;entryDx=0;entryDy=0;" edge="1" parent="1" target="LZN4CvvohTynmMFe8kbo-3">
          <mxGeometry relative="1" as="geometry">
            <mxPoint x="300" y="220" as="sourcePoint" />
          </mxGeometry>
        </mxCell>
        <mxCell id="LZN4CvvohTynmMFe8kbo-15" value="&lt;b&gt;&lt;i&gt;Fetch Code&lt;/i&gt;&lt;/b&gt;" style="text;strokeColor=none;align=center;fillColor=none;html=1;verticalAlign=middle;whiteSpace=wrap;rounded=0;" vertex="1" parent="1">
          <mxGeometry x="217.6" y="205" width="74.8" height="30" as="geometry" />
        </mxCell>
        <mxCell id="LZN4CvvohTynmMFe8kbo-32" style="edgeStyle=elbowEdgeStyle;rounded=0;orthogonalLoop=1;jettySize=auto;html=1;entryX=0;entryY=0.5;entryDx=0;entryDy=0;" edge="1" parent="1" target="LZN4CvvohTynmMFe8kbo-4">
          <mxGeometry relative="1" as="geometry">
            <mxPoint x="410" y="220" as="sourcePoint" />
          </mxGeometry>
        </mxCell>
        <mxCell id="LZN4CvvohTynmMFe8kbo-16" value="&lt;b&gt;&lt;i&gt;Build&lt;/i&gt;&lt;/b&gt;" style="text;strokeColor=none;align=center;fillColor=none;html=1;verticalAlign=middle;whiteSpace=wrap;rounded=0;" vertex="1" parent="1">
          <mxGeometry x="327.6" y="205" width="74.8" height="30" as="geometry" />
        </mxCell>
        <mxCell id="LZN4CvvohTynmMFe8kbo-33" style="edgeStyle=elbowEdgeStyle;rounded=0;orthogonalLoop=1;jettySize=auto;html=1;entryX=0;entryY=0.5;entryDx=0;entryDy=0;" edge="1" parent="1" target="LZN4CvvohTynmMFe8kbo-5">
          <mxGeometry relative="1" as="geometry">
            <mxPoint x="520" y="220" as="sourcePoint" />
          </mxGeometry>
        </mxCell>
        <mxCell id="LZN4CvvohTynmMFe8kbo-17" value="&lt;b&gt;&lt;i&gt;Unit Test&lt;/i&gt;&lt;/b&gt;" style="text;strokeColor=none;align=center;fillColor=none;html=1;verticalAlign=middle;whiteSpace=wrap;rounded=0;" vertex="1" parent="1">
          <mxGeometry x="437.6" y="205" width="74.8" height="30" as="geometry" />
        </mxCell>
        <mxCell id="LZN4CvvohTynmMFe8kbo-34" style="edgeStyle=elbowEdgeStyle;rounded=0;orthogonalLoop=1;jettySize=auto;html=1;exitX=0.5;exitY=0;exitDx=0;exitDy=0;" edge="1" parent="1" source="LZN4CvvohTynmMFe8kbo-5" target="LZN4CvvohTynmMFe8kbo-12">
          <mxGeometry relative="1" as="geometry">
            <mxPoint x="585" y="190" as="sourcePoint" />
          </mxGeometry>
        </mxCell>
        <mxCell id="LZN4CvvohTynmMFe8kbo-18" value="&lt;b&gt;&lt;i&gt;Code Analysis&lt;/i&gt;&lt;/b&gt;" style="text;strokeColor=none;align=center;fillColor=none;html=1;verticalAlign=middle;whiteSpace=wrap;rounded=0;" vertex="1" parent="1">
          <mxGeometry x="547.6" y="205" width="74.8" height="30" as="geometry" />
        </mxCell>
        <mxCell id="LZN4CvvohTynmMFe8kbo-29" style="edgeStyle=elbowEdgeStyle;rounded=0;orthogonalLoop=1;jettySize=auto;html=1;exitX=0.5;exitY=0;exitDx=0;exitDy=0;entryX=0.348;entryY=-0.06;entryDx=0;entryDy=0;entryPerimeter=0;" edge="1" parent="1" source="LZN4CvvohTynmMFe8kbo-14" target="LZN4CvvohTynmMFe8kbo-2">
          <mxGeometry relative="1" as="geometry" />
        </mxCell>
        <mxCell id="LZN4CvvohTynmMFe8kbo-40" value="" style="shape=image;verticalLabelPosition=bottom;labelBackgroundColor=default;verticalAlign=top;aspect=fixed;imageAspect=0;image=data:image/jpeg,/9j/4AAQSkZJRgABAQAAAQABAAD//gA7Q1JFQVRPUjogZ2QtanBlZyB2MS4wICh1c2luZyBJSkcgSlBFRyB2NjIpLCBxdWFsaXR5ID0gODAK/9sAhAAGBAUGBQQGBgUGBwcGCAoQCgoJCQoUDg8MEBcUGBgXFBYWGh0lHxobIxwWFiAsICMmJykqKRkfLTAtKDAlKCkoAQcHBwoIChMKChMoGhYaKCgoKCgoKCgoKCgoKCgoKCgoKCgoKCgoKCgoKCgoKCgoKCgoKCgoKCgoKCgoKCgoKCj/wgARCAKKA2IDASIAAhEBAxEB/8QAHQABAAEFAQEBAAAAAAAAAAAAAAcBBAUGCAMCCf/aAAgBAQAAAADqkAAAAAAAAAAAAAAAAAAAAAAAAApWlQAKVBSoClQAAAAAAAAAAAAAAAAAAAAAAAAAAAAAAAFvgMdTIZ+6AAClQAAAAAAAAAAAACkew1GWn+Y+tskuZpJqAAAAAAAAAAAAAAAp4wZz9qC5l6S9h+8RqUfxxab/ANYb2FKgpUAAAAAAAAAAAAKRJy/eSVBEqdFZ8+fmiziSBsH1rNgAAAAAAAAAAAAAA1Tk7H9AYaFeipEeHl50B589Ql1bPYAAAAAAAAAAAAACJ+Qp936E9d6yyvhbUACAYH7AmgApUAAAAAAAAAAABo/DvUvvFOG6xu7TxAA++W4z7q3UAAAAAAAAAAAAAOKtnzMP2nXmx2ni+/Xy+AHtiI55r3nuQAAAAAAAAAAAAAQRyj9SNvkOdu0tXvpnPlh0rtIFlxr54J3Xv4AAAAAAAAAAAACGOPd26UwupQ717mqfcecsS/su67cBbenrHvL84dSAAAAAAAAAAAAAOCvDqKIrJHPXmcfXE/U+3gAI9gLvAKqFQAAAAAAAAAADDfnf0vrlgRv2v9sLFE4gADif9A/cAAAAAAAAAAAAGgcK9L6aU1rrgB9aBvopUrGcl8mdc7YAAAAAAAAAAAAFnxzFHQuvltf9GAel7CEiZo596Bqv+fZX596HkkAAAAAAAAAAAAWfFcc/E94P6+7LbpyA9bzF8wdN+6Ds/KVbrTIS9Nf7VvilaVAAAAAAAAAAAefGMXyXFucwf1sm7ZfoQDWdJ2CBpNmhh+QuxLHkvD71tUHyn2j6gAAAAAAAAAAAcu89ShiNEnmbLLlL72DqkDU+ZNf2TqDYyB9L6r0O43Tn2NtWn/qgAAAAAAAAAAAEV8V7/tsUybNnMO/SNyrddu+gAD45K3mfznXV7LR+z5aAAAAAAAAAAAFhwNWSvGI+tdi5jzW3x9tU+/YABjOPpvmVzFZX+g077yIAAAAAAAAAABzHzvLlxZxj1bIHOvQMMTWAAe/ga3xl1/uXIub9LeMOguoa0VAAAAAAAAAAGF/PzbN0saaHK/QUWSgAAPDKWRa8R9q5HiXfzVNX/QLPAAAAAAAAAAAc0c6TB8W7Baj2rkKgADnvoRjodiacZb13kSQjzi3obp0AAAAAAAAAAHn+fGT3qxpWka7N1PmIlycjgAc9aDceMnzJY6Baw5to07HfoT61AAAAAAAAAAEYcSy1dW4s48t8r7dmXYD38430/cMzS/yGgxnGfXnOFxlBYxh2rKoAAAAAAAAAAcrQfLlj8h565qk0dLWHyBfRtscaQbrhPkB7F07leNpRqEZTZ1bUAAAAAAAAAAcFeO9WilaVNGzHZtn4tI2+4PXDwB0Jfa9rOP2+32375m0rdKBpfv30AAAAAAAAAALL85pDzniAwmg925K0YWDuiw0zlWRNryP14ype6ZyHJlwDAaH+jF/UAAAAAAAAABovCEs+tFK0VUjie53sKIOykuhpsJa3XOSTLvhxv6bjSpSuPjLuvfgAAAAAAAAACIuM5ktwBgMD3H5+CnNUlSYAHNcN5aQ/QHnE/Y8xAAAAAAAAAAEF8mzJaAGM0bH9ITvYUefMG6zZ9AYbnCM9r1TISBcgibq6eAAAAAAAAAACAuWZe8ALXTdeyd1ieopatKPjnrR50kj0NTiCHbXYt4xsd+8hZAIp6h6BAAAAAAAAAAIE5Wl3xD51bUr3dM3SPcDuO7bFfQTr/wB/F/tFddx17jb70uJCxkeJEyQinqSflQAAAAAAAAAIU5Cl75KY7RLPctqqtsRpsuTvawNqG14TWMNu8sbdg+ctuy+G0Xcs4je6kelaRJ1xOAAAAAAAAAABF/E0qXDw07XMnv8AfUssZamN8ZN0fN6J55DNa3jNgwEtePP1N42G4yeHwsilvFXa0qAAAAAAAAAAGsfn7IuXaDgdr3Rj8Z4gpjMJuMOG/wC6aZmdZ2r2h/43PZblr+Y24xUcd/bVUAAAAAAAAAB8/nTse0tAtZN8dd+ABh89DBd7f8+K70+ybrtP21OQsjSur6x+jH2AAAAAAAAAAOKdJ39rWkShf6vQAWnrEg2XbZNkCD9BvfL52p56xKI0HcO2lQAAAAAAAAADnrmCVfvwivat1122ADB6B43G0ZbM9h4PJc8736wniMljfvdqPmKum+iQAAAAAAAAAA1n8/d9z6P8bK2HxgAa/YeN5JMrwbKksbBzPv33FGq++ubjmTBR/wDoBtIAAAAAAAAAAOIdNkNgtAk77wgLfwvzw1vxmSRmM5/7t1qCZBxcC5X51SUfoj3be4qFQAAAAAAAAACIeNJLyXzFu17LrgLG7yVgePj0MIbkXPx5IcIWX1jG9GOjPsaYwAAAAAAAAAAPng3CSE0uzkTVqBa317jjHa/JUpXzEwl3Xyfl4nyDVt1zRH2W71+wAAAAAAAAAAEWcU7/AJ3B6NLWt+AeN/cY4Y/CfEiyXl4HnqItRyC31mU8bgcXiJw63+qVAAAAAAAAAAA46iSTKRXK+MsQ8764xoMfhbTbsnqP1mvamu/NcblZ/uOb+oJ9AAAAAAAAAAAMRwZ4yFFe/wD3jBrV/mr3FeHl5efn8fNnbnr9fHx8+kuTZKtzSCOdP0BqVAAAAAAAAAABHnEOexmzZbDFngbP1o2PZM9mMhcUssNo2k5i3tekoTm/oqFdXmzZ7D87O3JGAAAAAAAAAAAEN8e02vZsE+/S5+fbqzbPZUKU0ziSSMNHH6OQxo8/6Ds+V2v74ckDqMAAAAAAAAAAAIT5Gz+5YAevve9tKKqVUpp/GO0YrQ+88jyf2do+NzO1XvKehd0qgAAAAAAAAAADluFN914Hh30APjUOOPZpXYcycMds6LoWUkbZoAgvvkAAAAAAAAAAAHPHOMha+DXv0LuaKqVU+dQ5A+Wm9KdD8Pdi3P39fdpCEd9pKgAAAAAAAAAACBOYJFwIMF29uQB86fyRatSljpbjPpKzx1d6zfJE2T8AAAAAAAAAAACD+StouahieqJhoqFGn8p4lq15mbzIRrLkgesSa73nfAAAAAAAAAAAA1nhvAe+cyVSxmzpWiqlVGoc0x1b43YO975DMaYq73Obc3QqAAAAAAAAAAALeIudtEuMvkvXx23swAajz3on3g+2tsAAAAAAAAAAAAAApE3OceLi4yH6EgDVYDkvBwN3gAAAAAAAAAAAAUrStK0AabFWn46Hv0J2AA1qCN8z3E/6LegAFQAAAAAAAAAAAAU/PbqKaADXoL2ffOKOzt7AAAAAAAAAAAAUqUrRWgByXXrMAwkH38l8hz9N4AFQAAAAAAAAAAAAIh5Y/QSoDFwtFV1FXYMuAAAAAAAAAAAAAAALH87u690AWcS8eTJLc01AAAAAAAAAAAAAAAOM9i6cvg+cbiMHw7+kFyAAAAAAAAAAAAAAAEPcb+u57jsWS8sRhta0v3/QW+AAAAAAAAAAAAFAAAPiNI50/AY3x+rvKZrbZw2MAAVAAAAAAAAAAAAAAAAAAAAAAAAAAAAAAAAAAAAAAAAAAAAAAKVKVorQAFli8ftNwPHAbKAAFQAAAAAAAAADVobMtO4ACMuRtc733IcfQv2pKoAAAAAAAAAAAACKeLNj74vgUVUqpXkOEe+NyEBQf19t4AAAAAAAAAAAADT+Bd072MJp+c27zwmPyTR94zrkWEO+MrjWdxthnbzC4/YsHrUiX7w0X42TI34AAAAAAAAAANP4G3PvZzjCPWfG8ndXcmQ9JOxxT5995zkSEe97TjLoGTeVI969kHjzRJg9Yf3DvLF8MSdLnLvWMiAAAAAAAAAAFKtP4F3TvXSODp36c42jTvTXeLeieoOZOce0ZY5FhDu/n/p3OueeXOvpr5r5q7GmPiiLf0O0DjCVeksi3FUAAAAAAAAACygKVPbgbc+9oG5PkqXyX9I4u6U6V5t5o7OlvkSEd30jrSdXPHLvXs2c1c19oyxxhEv6F3HC2qtr7R20AAAAAAAAAAhDkWZOjOD5K7fiji2WO0Vp4xxxd0p0rzbzR2dLfIkI9qce/Hemzc8cu9ezZzVzX2jLHGES/oXHslRxBEVdFdPgAAAAAAAAAGicN9uQrBXaEpefE0adJbrEfS0P8uTb1hyzBHTc8cdRj2RjeSZI6357gTojo7leEeo544njztTRtG631Hhbs2WwAAAAAAAAABosUXcu7SeUSabm5l9YwV3nRa02jV6+sqRR8XNtWm06vSu8aPS6z9pHXzJ27gAAAAAAAAACgAAAAAAAKgAAAAAAAAAAAAAAAAAAAAAAAAAAAAAAAAAAAAAAAAAAAAAAAFFaVUrSopUpVSpSqlSlaVAAAAAf/8QAGgEBAAIDAQAAAAAAAAAAAAAAAAMEAQIFBv/aAAgBAhAAAAAAAAAAAAAAAAAAAAAAAAAAANY8byAAAAAAAAYr19cY2t2AAAAAAABinBoC7aAAAAAAAK9PWfWE2u2AAAAAAAGa1CzmGMzixfAAAAAABlRqyRttRt09gAAAAAAy5sJJLXljzNakAAAAAAOZ0Yp6Fcsz09LcUm9kAAAAABztLEuIawZxLLVl26AAAAAAIuFdl110BnOtyrtS7coAAAAAcmpv1qO8YJ9s66RVbvUAAAAAGPPlnpRVMEm8zWSPma57+QAAAACryBP0abaPNnTOmk/MOxZAAAAAOfzg69aOxDrmfMNulUOlfAAAAAObQM3unUqa2o4UtvowcWq6HRAAAAAOdz1nrdKWjVjilkhkrWOxS4NfodEAAAAAo8zp9e3roig5litYiza6OPN1eneAAAAAIOL2+3CGvItQ7NnRr+Z17U4AAAAA4Nv0O2A52LMWLUmOZxN+7kAAAAAc6l6W1q1bR4t1qdxnz1LodEAAAAANeH1+1GxtjFeafm2JYPNz9TYAAAAAFSL0WiKbXXEUbfevrsAAAAAARdRiKvgM26YAAAAAAF3ZmhgM3+eAAAAAABc3KegL9HGDIAAAAADeeVViDFyrgAAAAAABvLHGGGQAAAAAAAAwyAAAAAAAAGGQAAAAAAAAxkAAAAAAAAAAAAAAAAAAAAAAAAAAAAAAAAAAAAAAAAAAAAAAAAAAAAAAAAAAAAAAAAAAAAAAAAAAAAAAAAAAAAAA/8QAGwEBAAIDAQEAAAAAAAAAAAAAAAECAwQGBQf/2gAIAQMQAAAAAAAAAAAAAAAAAAAAAAAAAAJWurWIAAAAAAAFpy5bSjBggAAAAAACZbGawNbXgAAAAAAFmXZthtkI1cVQAAAAAAsjPtYYy2DDqQAAAAAALQ2s9bIkRo0AAAAAALIbuQpjz47xjwYgAAAAAFu14vJi28phxbNte9cujUAAAAAE9js8dScmYCmPP62TlIAAAAAD0PqHMclebAhOvn9/p/m+gAAAAAJ773Nb5xnpcGOsWnsfa57iIAAAAAMv1jG8njtXaFK41qZPpGWny7EAAAAAe739DzOB2UWjDZa3pdscB4oAAAAB13Vh89174csxiZdbtPdOP5YAAAAA7PpivM8hm2ZwXyKa/m7nf+y5bjwAAAADseoeRxHha/p7V/d0/My16PzOS9L6R6vK8gAAAAAdN2fGchoWvOba6/yPa8ner4Xi2+m+3xvMAAAAAHq/RPnfI5wv1fh+hSMVvE3PreT555IAAAABb6f4Pzykh7jRyTo4b9N9DwfMKAAAAAE9d0fyjz7rK5Xn7vo+ej6N0fLchAAAAAA2PpXC8hlTWZ29XU9rUxbX1XzuK1wAAAAAe9v/AD27Nhm1s+VjpuWxEAAAAABO/wA6nY2gRo781mJgAAAAAE+dVHpSDzPURMWqAAAAABo4zfuE+Z6chUAAAAACurhbuULaG7KUQAAAAAAmmHJkCyIAAAAAAAEwFkQAAAAAAAJQLIgAAAAAAAJgWiAAAAAAAATIRAAAAAAAAAAAAAAAAACUJgAAAAAAJQBKEwAAAAAAEiYmAi1bRNbRAAAAABIQtWUqzFq2rM1AAAAAJQkAAEAAAAAAAAAAAAAAAAAAAAAf/8QAQhAAAQQBAgMEBwYDBwQCAwAAAwECBAUGABEHEhMQFCExFSAiMDJBYBcjJDM2UzRCURYlNUNFUlVAUFSAJkRhYnH/2gAIAQEAAQwB/wDXwphhbuYjGIW/qA/mWkJFdllE3zs4+kyyiX/UwaFkNOX4LSFuGQE6bgMMifUflq3zCmrN2klIctnxLlk3bXRBBbOyi7m79axOiEe8juYjnOd6jXOY7mYqtWFktzC27vYyNq3iVPFs2wjBkNps0prNUZ1+7G+njFGETiGe0Y7/AIixIyuFUi70S4yO0t1Xvkt6j7I4CyCtEAbyEqsAnSER88rIrYmB04UTrIeQrMVpGJ4V4tOxeld51wdHwmjL8Md4tS+HUZ2/c5xWan4Nbxd1EwclsmMaKTpyQkE/WP5XZ0jmtCXrRsZyeBfi+4d05P03kedV1XzCi/jJV9kNjeF3mmXp1WLWljs5gOiIWF1kAHVt566lNEksrIjnEDj2Dy53KaxVYkepqYVSHpwQNH6m6f11zp/XXOmuompQI0wXTlCGZlxgUKRu+sKsYlxST6gnLNArWxzljmYYD3DLhOaMteSFZK0c/wCmL+/g0UfqTS+3kuZWN0rhNd3WHQ4vOt9ibdCLVY9V0o+rytcW8zCNBarYzesVG22W2ngnUdjeKQqZGkciSJml8PPSkT5aV668fXKxphOGVrXjyvDljo+XUtVwkVWqiouy4DmPfuSutX/i/pbNctFRD7vG5S2BzS7WeryuJJlYzhgoyNk2qNKe1twwE6bNiGvbczhqU7+Z2M49KyGUpHucyLW18atiNjwxIMenP/ppV38/eZzjCNR9lXs8GqrVRWqqLw/yr0uBIM5/4/6Uy+9ZQ1Dz+DpDnSLGaquV55WJ44KmAhTIj519c9DePFX71zvNzl1TVZcmuNk3ZCiRgw4w48YaDFp79/Ly96jOZPLwzrHFqpPeorfwUWQWJJGeO9RmxK8HfVLJCbNP9J8SLVbHIyia7cGCwI1fE9L2RBCW7zeEMTxV3UMX05uvtAXR5prAjIsYaouP1Q6erFFFsrtPdv5eXYjVXy10/wD86c1W+5G3ddW11X1LU79IaN03NKGdHLFkikuDMYIckjYxesHBLpaa9Er3bRfpLLc9HXlfEqWsPJK9xSOI9d3saQxGsY1xH12F2stEcZrIrI/D6OifiZxXrKGSjyBzRqvMAjTBGVnwFd8u1jN/FdZHk8KkTpu++lWOZ3Ex68h0jDh5XcxiI7vrytxy4HdVySGN5H+vZzPR9RKl7bqkeyuJBJDQyJRJVRYxW80iFIY3swWz9K43FK9dzfSHErIHVVc2HEfyy9Y3jsm7Lu37qLArqzH4242sHqZkqJukQW+j2843nIc1L5VdYuc5yudjBObG65y+fY1N3azbJEpoyR4qos4IpNjL5RNIeRW4CZ7EdYSmiVcAr+XwlSt8bpGUcUoWGUvuJQByo7wSG84hjYIbWCa1jNX+KwbRjnjakeVaV8ismPjS2cpOEE/kmzYDl8PpDMrFbTI5p99x4xTuubNoPFoZsqNSwRiAxqalyiyyqQ71c7svF3nrqhZ0qGuGvn2KRoREKRdmSzSb26eRGq8+N0YKWGjGIjpHvs2qG2dOR7G/icIl9yyquJvsn0fcye51E2SnguuHsdkLHjTSeGp0p8yS8xPPtlMWXcKJnxMajGNa3y7LsRD004IE3Jw6pXBQthKGrS/9BaBWtvJAx+GgEQwBlb8P0dnpOniFk7sV/dsNrAN8PVw4PfcqjuVPZ9wiKvlqZZvh5hHhFX8P6m/jtv49qIq+WlsXQ84LCM77nWfi6eTyF1iZuvjNY/5/RsuSGHGJIlEaMOaZea8I6NG5hV2pzt6ilb6kleWOV2uF4Oawmn9wxN17OJ0R6AhWQPB9NPZZ1gJY/Uy+S6uzWBK5lRqLum6L4djU2TXFCO8Muvsg7o6ksGWdWCWzbXEtnLfiXXDonUw6v/r9GTJIYcYkiSRow5llB7+VyM5hwGMc9dmoqroy81LTP04jG/E9qaa5rvhci9k7+CPrhaid1sF+frjdsut9WkQU+vPEP8GOXBcZtDwZ6L3cJRnEwoXo8fZxPhq6NEmNTWA3Hf6vupXfiNJ566iayyK2xoZQXq1q8Orfus11eZ2wuKDf71iO1h2Tnx+Vyu5iQYUoM2KOTFIhA/RRHtGxzyORrM7yl95K7vGcra4InmIgxpu6JDFDjP32V2jWso0KPEUmwNNcrV3aqosK1INUbI9tjuU8d3Ku7eF5+WVPjL5+vkNuOlgd5KxSajZ5Wk8DCkBVuXUit376iazS0g2tiw0Bj9+GMghK6WF6qo+y4gssq2REJ5V8qTRXCEROU1fMDYQxSYzuYd8+SOnlvgrtJLe2pF9qxlaPKkSPzzlLrFcblWkkZyI8MPikn4qAvZg2UPopfRkKrq8RGFG0gnI9n0TxMyfrEfUQH/dMar3I1qburIKRBePiXIJSta2OxezGcGU42SbhXMbGo6uMxGhr4yassaqZ4laSGIbskpTUdgoCrzjoZCo9QOXwx83o/Mg/Jnr5NTpdVix+fkJOxu2hOVCQiPb3KXvt3U+9ZjNpPK1qRSBZQ1IaaA2MDdy9vESjVyelIzfHCsg9Ey+hJd+CRUVEVF3SdiVRMMpXR1G+Di9RDcjhxGvf5a4pfn12o0NJNY3bwI5qscrXJsvDTJ+7FbUzn/cfRGf5F6ErOlHd+OVVVd18VpIPSYhyp7erZ/UsDLrhvTNnT3zpDeYOW3zaKvQjWo+SfJ7kxlI6wO1cezuSIrQ2+xg53DHaY284tnPhl6ElhF8jzHEnNktTlUbkexrk8vfPY0jHMeiObl9C6mm8wkVYeB5Jy8lZOf4dvFF346C3VSm0AWreH1GdYae3rh7kXpmt7vJdvO+hp0oUGGaVJdyhv7Q1zammn86aH3k3O9PutEdt4JqX/FG1w8AgsVjOTzmVceRaCmyE6j7YRb7MpEcOyLkOGOra9ZUU7jpw7m99qZNdIXmT+xNxzqiMDtVYE/qtfaSGcjGoxqNamzff2UIFjDJGlN5h3tSemnuAbxTC8pbLYyDYk2k9nEwnNfCZqAnLCCnZbROgXnYn3dHZmp7QE2OvtV0wNhBDLjO5hfQvFe85iDp47vZENxSNGxN3RQNjAaJmnu2TssG8s0ya4dHQuLAb8y/FrChf/MrNX+ZGNIxzHojm4jVFqcnsQORej79R+HqX9SG4r3xzIiPKNwDPG9Nn4fJNLxyGaS5XE1nJutk8vbyE3kG1vZIE04XDd5FGoiOY/wCLhTedM76iQ72PoS5sB1dXJmm+GZJLMlmkndzFx+L4OkOTscu69l2PllI/5cLLBGSZUB66f8S6q4DoWb2L+X7r/oGyQtmjjOeiGc7b/wDvbKkDixyHO5GDO98+xI9rfbrorYUAEYfw6lF79dmL5p23cfdEO1NRTkiyRHA7lLR2I7apjTReX0HxctvGNVCdoA3GMwbfMI2iE1jPhKvy7bgPVi8yfFXTCwJwZQF2JXTg2cIUuMu49vHf5/8AQXNksPiKEpHbD7Js2NBF1JZxhbc54Nm46oPUXmtsjmcu5pRMcw0EBzJE9yHk6yKV3Kjmn32WnZzzmr6hGIRjmO8jjURXDd58JLblNJqyu8PoIj2jG571RrL2wdaXEua/WOg3I866Vdk9RU3TZdT4yxjq3+TF8gNSSF8FJErLKJZgQsMzSJrJcxDXuWPARkiTgttLuYct8zlV3veJVW9JArIbdxwcot4QWiFLVRlym8lewkt6aj0F3aF51jnVanAhMVH2h+osOJHhBQUUTBDtbWFVi55p2s1UZBLyC36UIfd4HEyZ0qyPEavtUI/ApPVvQ7OYZNUs99ZaxZg/MJGmEwg15mfQPEaw7hi8hGrsTVaHoQhs+ZV+Xqyo7JIuR+pUYkZ/KRPARXhejxPcx5bawMPplnynsoqo9zYMixvDVNWR6mvZEip7HuOmv9dOby6ystpXtbYVb+ccLiANURJsJ7VBmVKX4pDxK3IKczdu/wAbZJVE7xQ9YumWNWNPYmQmp3uP3R0pDDdHl5rTgRekQshbXOpshFZBG2KwTJVpOaxvUPJx2pHTVrI7NnEzmf37IDI1dx1g+lCGnz9ScLrRSM+euGth37GAscu5PoHi9O6llDhNXwrxdeYJny0q7r6xGNI1WvajmnqBu8QvVmpIXRzKN+yrwpK1LGcL+bTviX3Cr7G+spyH0E0C91cdamcOzrgyhfDkGEglucetc2OaypLGtVe9xSNb24+5X8O7JOypp51qXlhgVzcZx2PSB3T72VkVilXTyJP84WKeQ1q7qqeCbJ608fSlkb8uEU7pW0qE5fZ+gczmd9yixLvumOj3OQmiL7Pub1m0hj/lg8zueTRHKuzNF+LtyixLUjiTWIrgxzDkAYYLkePt5vY21ZQQWMR8aWznHBmyMNuSwpfMWBClgmx2miFaUWpdLWy1VZEEDnFwumf8ICD0uCVS/wCZLTVbRxK+sNAH1Hx42NU8ddxwBKrGoxqNYiNbriLbd7sGwQu3FRg3e4y+XrXw9ijJrEJfccmrj77J9ATTpGhnO7ye5Xvc5y7ux9nLCV2iL4+5tw9WIqp8THOY9r2Ls6nmtsauNLZoqeHbcwW2VZIiP8NYTdPrJr6ix3Yz1cppGXVeo/BskR59PMe0ZCxpELPLASIkoIZCB4gxl/OgmbpufVnzBMTX9vav9mZpc+rvlGl6hnWTFEZRuF2ZXctpqtxGqneWNfIPt4ufHE0IWjb5etds5ofNpqq1yKngtfISXAjSE8v+/wCcH7vidm/srG8leBNL4r7qyjd2P4fBwtsueNIriL7S+KepxBoFM1bSI328GyPv4UgzH/i/VyDHYd03cyKORNwWzC5e7PDIa/Frpi7LAJpmLXT18IBNRsHtir96gAJSYRFhGYeYXvRNHMOOB5jORg8jtiXNm+Q7dBUQkVSFXz9ee3nhGTswM/eMRrXfQHFIvTxMjexicgGp7u6aiw9186GxdVW0eWzfYJWHCwoncwyp479q+Osxx4lTJ9I1vM2PiOTDthJHkqjJ3u86yNJrlr4L942q+WsUvj4jG9pGI5i7t9YiczHJ2cKi9TFUb9AcXX7Y/FbpibvamifD7qXNFG8HLu+ZLJKd7fg3XDW8QgFqpDvvFTdNKmy9pGNKNzCNRzMrxw1LI75A5+6YxmbDIyNbuRhUVHIiou6evZ2cSsB1ZpmjTJMuk2aOBF3jxGNc9yNYm7vRC92+L797XDerXps6FMfFf4eLI52HHzjXdPWJ4PcmuED96OYz6A4wf4RB0D84ei/L3BzjA3mK5E1LsyF3aH7tmo0E8jxa3Zs2tJGGj0dztAYkczCherCYxmkaexgLJzY8tyc6bp6j2NIxzCNRzMlw1WOfIpvbZT5DZUj+k1yuFU5lWzURp3LEKN7SMRw3I5vbY5FV16L15Y1fb54cqKysD0GyZBpRlLJK8pNQJoIv+UqqErDDR413bYwmymbp4FIxw3q16bOjHfHJzjXUOUyUzdng71T/AJ5NcHv8MsPoDi+n9zQl0HwKzRfi9Zyo1FVyoiS7VE3bGTdSPcR3M9yudFhmkr7Ddmxa0INlcnUfpU3TZfK0hd2fzj/K1W2tzWRUPENIZEj8QJzdu8xY5dB4gx1/Oglbp+e13ReowSerZ3E+yK50qQ9yae9z13e5XLqLNlRF3iyChUeV3Y02Sc5dEyy7enjOdqVZTZf8TLOVBCIV/KJjnulQJURjXSgED2AiHkflCVUkQZEdvMUezauUsc/L/IN7SJu1dWEJspm6eBDCeF6sI3ZwiPERHjXZ0GU2ULfyf6hvzn64Pp/dU9foDi0zmxoLtJ4Lpy7rv6syYOM32vF8qWWS7219kbHEcjWNVzoVU1uz5PtKiIibImydhDMZ5r4nN1mKxUTkkRnD8U8WYJlgaoDq6yGjoaU2NWg0MyFDc0mCY8/4Ybma4hUFfQlhsgKXnpILCtUxm8yEhRiJ7QGaPSCd+S9zFk1siP4qzmbqnkUxRtj3EVw9QsPoZbepFmHOyLidNH8UhoR2Q5FDoRui1wgrLMWVZzHEK55zwagYtnyNnvPOiRfZKcbFJdVxUUSlVyEaojOb8xvVNnNXbQTo/wAF8HSo45I+Uialx3RjKN+qp6smj28vUVd1VdcI2cuOyH/QHEoPVxCYvz1HdzxxO7TlYFivIuySrUj90AnI1VVy7uVVWFCJKXw9lkWKKMzYaePYSQxvl7SkO9/z2TtNEY/xb7LokufUk54piB1XcQJoURJcdhdZZdenbNJKNe1sB7I1Owj/AIS5NIV69IImtTJpfzEDQMnX/Pj6Gtfcc3RVWHlwDxl9pvMxrnMXdqqisdaOHzNLK5Hb868++8IIRgasduzbUrgV0gg/B6ruu6+epa8xGk1H8QM7ASdvAnlf8qtAqedUzmnD9SQvLHI7s4Zh6WIRnfQGTx+9Y7ZBTxXVU7mgj7bkqvlqz+XUCrV+xJPg1qI1qI1NkVUam6rtokpE+BN9PI9/xL7gsNjvFnsqUThO2fqb+l3bepjEUg5Kyio5gj3AB+DWkcpJPXnsM5qNTK5rWRu6tXcivUsSMV/x1sLrxmmLII1tnLixIJB9XvDnKiuXlTZNP8Y8RdRvyGdti/cjW/KhF+YX1LR/JBJ2YpH7rjdaJfBf+/uRHNVFTdLGMsOwkxnedC/cRGdt0zlmq7VY9o5o1eiKmjKrRuVvm5yuXdy7+7sW+w12vzMZJ6gpBhPRwyva4eRFUfJJjiNqQ5hBhMMSC1IHFknUxHGRxXo/lRreVkthJNVHEB6K4sU4vzAkb2mTkYAfzYnKxqdsp3Md66rxdKINvz7b5+wRs1BjrLmx47fiY1GMa1qbN+gOJULumVncibMpickxG/LsvBcwGkTsgG68Vj/5lTdFTSpsu3u5TecD01Uv6lfLjr5+pEgtYxDTN+Wqr5N7PaACNakPh+XrfjJjEE7DqZY/S7u5FyHFZlU5xBIsiIwpGfA9zdDfKP8AA1xtE5hu2NGE1w3dSUjir2vdyMc7UUfWkjZ6t0Tnmcvy4bw++ZXGVU3Z9A8XoHPBhT2p4ieoyNenmxyPajk8tHGhQvGvk5qtcrV86E2xHiXskpymd7yETutgiL8BhqIrxv8Ai0EJDv5BMV7gRhQvaLymkBgzZwyyGDc9uK3T6WxR67rGAqHRiicjm5XkkPGhgGSO6QajmR72sZOg8zE4oDQNtFZyIxYLEHDC1qIiHCKQNRnG17MjpO4L1426xoJXEGqO7J7+UO2qIW5nkX1HORrVcvkV6kK96+fCCByxZs9yfQWS1/pWimQ9vaVFRVRU2WmN1IvIvn2XIunL5k8ohejJGTsnJ7bV95Ys2ej9TIo5ZUOkhg1ZFhi+LqHcp3q3piag2UmNbo09immNaxqNYiNbldZ3OV1wt+44a3KkCteZ33mU4xDyQYHGIQRaGpj0laOHE5lZxbXmyWO1NNTlaidmY2CuVteFfEI0ENGp2T38xuXVSLpwm/17bg3TiK1PiRN18NYvXeiqGHEVNn/QXEKr9GZKdWN2DVH6MtEX4ey4D1IvMnnqtJ1YQl+c1NxIvryHcgXOTVQ1SsN4+PaYaFGrV06OVq7cirog3DVEf54vSpHG2XJbufssojJ0IgH6gSTU9sMyJsWsmiNAQ6PTo1GY1FtY9yilJ1uI/wB7mwB9lnMZAhEO/UbnOZ8ky7v05eVqqvkNqnkI35tRGtRE8u22P1ZSonw4BV+lMkjo5u4foPiZUekaFZAm7n1Xn7xGa5fi05EciovlIEoTvGuqAnsFHo6bhd683+GdrH09k66mIiETb1CvQY1cusfjekLgaF8WepmkHpyGTGJ7PDucydUSaqSq7YzgPom7ZONNQzMq+/4lK3syWcthYpGEv3DURqIieWp7+UXL86QXNJUi+XbPP3eM5382uGNR6Pou9Fbsf6Dc1HNVrk3TMKdaS8PGRF6FVJ6EjZy+x2XotisImqZ/JOamlTdNKmy+tKTeO/VAn4Yi6m/G31JzFcH2dCI8REeJ7mPq8pezZlgznSJLBLHzxitI3stYiToBgL543YLUXgTP3ayCXnFtvrm73xCsS+aZNZdwhcg1/EQxdMe6/F2TCc5l/pUC6cNqr59ttJ68jlavsYlTuu7wEXZeixqMYjWIiN+hOIVF6YplIBu8zVTK64eRy/eauWc8JV1Hf0zjf2HTYrvWN4ifqj/gl1N+NvqmisJ4p7LixyD803QBiRyIQJHDfXZWRmzZw+okGyiTk/DGa5dZbD7tZqVqfd4JeNLRcxne3i5kb6SspS7IY77OwfJN8PZIJ0xOdoA1MZjE01EaiInkeeAPm/dS3Dv8oaJp9lJeip1Nk1w3yCuqHljzWKIiKioiou6fQvEjHvRdl32MzaHHM4BmkZ5gK0wmkYvhJZ1I5G9kR/UjCdqYmxvWL+W7VH/BLqb8bfXNFY/xT2XFjEH8t0RVRd0XZYOQz4uyKTrMt7qNa13IQTxSIU48JshoXbNWS98IUMXgwI0GNGp2KqJ5rtqaZCORrV9mEdsYikVvM6TNOf4nbN1XV0yxN0oMch30XDZFH1LqQ5rrnhqLpK+olPQkyMaHJJHlDcI3Cu8dKiEq5L+Yn0LbV4LSvNDlN3Fe1Uimsyw5Se1Wy+7E2d+UioqbovgdvIcjdU7uaAzU5Paavqo8kUnKvi0slj47uVfaoX7xns+c7426V7U83NTSyBJ/Omlli/qq6WaP5I7Szk+TF0s5f9mu/P8A9rdd9J/RuiFUnm1u/aN6jXdvmpSL5vdrnf8A7naVVXz7GNc96NY1XOpcAtp6NfK5YQarAKeFs6Q0kwkcAowkHHEwQ+zirTNk1jbMTPv8aslqbyJMRfZaqORFau6fQuZ44O/rtm7NmSAEjHIE7FGWqndJUCZfYs28s4uqB34cjdTvgavqFkjGuy+KyTdZyeGyaGR49+m9zdOe5/xOVdDY8juUbXOdHx+3kflVstUBg2QF/wDo8iC4cXL/AIyQx6HwymL+ZYR26bwvd/NbJpOF7Pnau0vC9vytl0ThgVPy7Qa6Pw1tWflSYZNTMUuIrHPfF5mMY57kaxN3Nq5Tv5ETUqEWMxHE5dow0NJEJzuRG8MB7e1aPVcpoyUFq6IR/UZwviQ0hNmMGiy9ZHn8Kue4FezvkipPluTuQvefR0CspgwWorzypZtT4zJsI8YvwSBOjnIEibP4f2PpHF4quXcn0Nn2JpcBWZBaiWD2uY9zHtVrnOV3xLvrH3e2Zupifc9rV2XxTfSQIp3K/wBvdKuKn8irp9VFcng1zdYJVQ7XIFiWDHPHExeki7dKsjaEEYW8oRsG33C+WntR7HNXyr2Ky0YxfPVuzngE0i7Kip5wzJIiBMnlxZrkPSBmtT2+Fknbv0fWR1sm3gd1jTu5jhYlj2PI2TZGYV65lj7V5fSI9RskppK7Cs4u7XI9qOaqK3XEKJ3TLJqNTZvCCdyzJ0Fy+H0PneHNtWunVzUbPIx4iOGVqsfRLtMcmpX5DvVQj08nLpJJE+e+sDN0c3iKvl7p3wr2SNgZJJRfJZTPkirqUZxRPb5JrCpHecVrH6yWL32gsI+268NzdPIVZoC7hYurbE6u2mOkzmmIUeB4+3zhvfoOJ0QfgrI66iRI0NnJEjiAzXFePvLiS01gUlY2W17k8voji/EEKXXyRja0lOu09mpP5DvXqC92yiCX5e6d8K9l6nLlM3tXz1wpkdXF1HpU3TZdYt+DzKOPUJdwJq9s8gCZzKilQrFuc4avjUB1GyPKGr+LxxSJV25Jio2RWzobzO5BudriQNH47zL54e1X5TVon0TxiZvBrX6q12nh1K/Id681VZKa9vnGKh44it8vcu+FezKE5csmdpfAr01wdP8Ad2cddEMNnm7xI9A529yeDQncJuyIip313+1Nd9//AE131P8AZrvrf9q6kyEK1Gt3TXEuQg6QId/a4YxVkZYB+27foji+n9zQl1AXaaHUxfufXsk9pi6w6R3nF6wnul8l7M0Tky6X2yfA79cMDqO6kDRdk1ek6eTzCN1/a2k2/jk0TM6VvlIe/Ts7qk8mS3aZndS5fFkpmqu1h2g1fCL1EVURFVV2TNLhLa2XorvG4SVihrpNgRPH6I4uDV2Ox3pob1GRr2+fpNDMa0reRUXdN09axT7pq64VyOtiyD395xCZyZOR3bNTaS/VTYyKuX3mIrUJItLq8f0upIPoGHX503ZWkTS4JkCJv3JuuXlJyl3bqpjYk1jVlzDFICfiURNxdzRZGb1AW7B6xtZFlsu1G4AW92i45SyLyzHFjps2FFFCiBjR28ovojJKpt1TSITncq3FPOp5ChngcNdCK8S+yugy2P8AB/sr6k1N47tcHZP+JRVX3bviXXE4e1xGJrvrURNmqunTn/ytRNEe4juZ3njcL0hfQIyj6jIkWPDCgogRhH2ZLgcW3nPlx5CxDH4aWTfyJkR6Lw6u0XziLoPDa3cv3kiGNIHDKO1UWfPITVTVw6mL0IAGiZ9FHCKQJRnGwo7rh9VTUc+FzQjX2K2lLu6QHqR9CM8fwu8BzWr+Ym2mEY/4XIvYZNwvTXC2V0MqYPfw90T8x2uKbPva5+qzFLWwEMwxMYHIcYPSRBHMcZUxyvbaXcOERzmso8eraRq9wjo0n0qqbpsvlf4JV2fMSMncpF5h9vU8zngU4OxpiN8nu13svzVF1j0vuN5Ak77J7o/5z9cUm/h692sW/TtdrPo/Xxo6onjgxEFllY5fpq2xmotN3S4Q+pO4ZR3KqwbAg9G4a2zV+6kwnpJ4fXEeKY73xFTWPS+/0cGTvuvuZfhIfrign93wl1iLubGq9dWUfvdfJjrqEd0OcA6fGN7SDa9i7t+m1TdNl8r+D6NupsTyThTM7xjbo6r7XuZyff64np/c8VdYM7mxaF2ZADu15OEnlg0vvuK15FXd305xbgdC6jzGp7PCSb0bqTEcvs+5sE9pi64lt3oBLrh47mxoSdmct5cpnba4SFV+OyBr9O8UIHe8ZcZqe3jc70bewZe+zfcz0+7auuIbObGiLrGMrHS1joz4rzOn57OMipDAKOkyUaZIeeSRSG4YQCQcaR5mq1305NjMmQzxi/lygPiyjAKmxMOn+ksagnVd3+4lpuB2szF1cYnt7IXDu5Psp+7xm0XD6vgEaac900qeHl9PcT67uWSOO1Nh8M8kiVgJMKyOgWRZceWzniHEZnqq5Gpuq7aJLanwe0pCvIvtLq1G01ZLE9Ua3UYnVjCInl9P8UKzvuPd4Ym5dCI8T0eJ7mPh5ZeRNulZHVI3Ee5H+aOIbQuJ5k/OrBu03ieHb2qsiafxMGvwwCJovETm8q9zlNxAmL+TDjs1JzG5P4JIaJJUyTLdzSpBTLVV8i0nCiQ2K8sGOkSFHjo5XJ9Pva17HMe1HNssHo527kjLGfM4Y+awrLUjh1di/LWKbRcKyAfnXuXTsWvG+dZJ1/Zu6/4uZpMZu1/0uXpmI3z/ACrTaFguQP8AOEjNB4cXL/jJDHqBwx9pFn2G7aWlgUwOnXgQf/p6eXGjrseQESvvKpnx2cFNPyekZ52kXUc45IBmA9Hi9QxRgE4hiMGOLfVUs6Bj2MYhfpDJLb0JVPm9Bx9faeL/AIt+vtPF/wAW/X2ni/4t+qniGOxs40NK57F99k+HQ7+UkoxziPkFSaktSwjqjl1hv6Wq/V4o2p5N8+BzKkbXDe0PaY9+Kcry/SGeUcCTQzZSxhtlaxyKObfQIxk3FGiR4jOSKAQW+/4ufqSP2Yd+lqv1eIGHntJPpGsRHniYheSToJK8w9YtSsoagcNjud/0hmH6XtOzDP1VV+pYWsCuTedLCDTs5x5Hbd/1ByWmnORsawA5+iEYJivI5rGPuqtnx2UJun5NSM87SJqst4Fp1PR8lh9WlvAqmc1hKEDX9vqDm27yTart4FqxXV8oZ+3i5+pI/Zh36Wq9T7evryoObMAAn9pqT/lIev7TUn/KQ9d/id2HIWSFAPvalnx2cFNPyijZ52kXVbYxLOOp4B2mFIkBjs5pBRia+9qWfHZwU0/KaNnnaRdV86NYxkkQjNMG1ySpqnck2aNpB57QPfyrKezUKZHnAQ0MwzC7DFGEbiGe0Y5OZUEdytfYjcoM0x8zuVtixqybmujV6ziyxd0gywzog5MV/UB9BZh+l7Tswz9VVfbnebEjnJXU7+V+P1psgvRRnEequwmhWH3dISJq4gvrLOTDKu7sIzA9ZJFEsCuLX2cIVlXmiHV3RzfDvQImSohnliaxC+NTBniggcacuC5DZq6XNIBp7Svk1c18WaNRmrpsiumDlRCKM1JYNtamLNGmya4ufqSP2Yb+lqvWTY7U2zVk2nMN0OrPZ2L41UIkjVNw1C1rX28pxH2+LwLKpjV7lKEGY40XHZQk6vWj64Sfpk2sjoo1/DZHmOK1uX48THrBoVJ1QaoryyWiFR0ICrLJw8vOgpldFeQo3hK8ZWqwmJ3hqK2GZrl7uioqIqeKW04VZXSJkj8vIL6beSlLLIvT4e4lEt4hJ9lzEFNwOikBVo4zo78noJePTOgdecHD53Ph9cv0HmH6XtOzDP1VV9mZ2i0+PSZI12Mqqq7r58JVCO0nGMRjNLYwk85kZNcRXiJlkooCMIzWFynTMWrjPXd3E/8ASJ+zg9GE+TYyHsRTa4xhahqs6J7euGCquIgRezi5+pI/ZixhxsPrzHe0YslyhuR2ga9DuiU9NVQ6iG2PAEjGdnGL+CrezhJ+mTdnGT/SezhXGEPGUOxiIXXEoLQ5dK5E27KNyvpK9zvPijzf2SLy+WsMy4mPo+OUPXh1uY0k/ZGTWhflFQO/pCxmqzqYjWHp6CPBlOG4v/f5kkMOKWRJegwyeJwGnVI1a8gsZySHkAHOjczDZh+l7Tswz9VVfZxfcvoSG1Ph1hGPAyGVJEc5A6+zKD/58nX2ZQf/AD5Ovsyg/wDnydUNYymqgQREcRnE/wDSJ+zg3/q/Zxk+Cp7OF36SF2cXP1JH7LS4sJtJBjOY8VbrhlkffonoyW/8T2cYv4Kt7OEn6ZN2cZP9I7OGH6RB2cUf1YXsoP8AAq7VrBDZ1x4chPu8hoptFLUMsa8nZR5BY0pUdCkO6eMXYb6rZLCnI/8A7/xbM8eOgG1dm64UtKuUcw9+nnBUDidm53Zw7hul5ZD2T2dcTILpmLFcxN3a4ZT2wsnYwi7M7JcgUSMSRIejAwJsawiskQytKHif+kT9nBv/AFfs4yfBU9nC79JC7OLn6kj9lXUx7jAYMI6IjbKEaunGiSm8poEs0CYGVFfyGx23Dd1QpgPDs4xfwVb2cJP0ybs4yf6T2cMP0iDs4o/q0vZQf4FXaz7I5mPlrlitG4YXxLauGTlGeLaYBTTN3AaSI/J8JnUgXSWPbKia4Okf3myH/l/9/wA1p3XdAaML8/oubJ6BvuXYtW1uP1KdGSF+uJGUgsmNra1/UBHCWQZgQDcQuBY36BgOfJ2WdojGkG5hGo5maYueimOIJrn17XK1yOaqo7H+I7WAYG6CRzzcQ6Ng+ZiySOsbW2zmc2DBCoYdLWxcfqGxxuRouJOQ10mk7jDkjkG1wwu4dVLmBnlQLUlx1i95Q4ljcU7iFZHgBgnYfs4b5LWw6juE6Q2OWVZQogGGkywCFxDto1vkHVhP5w6wbI6wlFCiEliDJ4n0HfYHpOM38RrCMjWgsV6vM6FEyKolicQNjG5eKF5Bs+5R4Bmn7OGeRwa6GeBYFQCksIY4jZT5cdsbifdw7WXCFAKhm64a5DXR6buEySOOeZMjQhdWYcQB57Yx7PJZB4b+oHWIZRVyqqDFWUwUvjG37mqdrBcuWkd3SdzPgQZsaeBDQzjMPN7GNBxyc2Q9vUaiuciNRVXhzQlpql5ZbeSV9AX+K1d2vPKErJBuGDeb7m0VGxOGMZrkWXYlIlLQVtM38BGax/aQbCjcwrWvZacPqeY9Xg6sR7uF7d/ZtlRIHDWvC9HTJR5OoEGLXx0BCAwIpsYcyGaMfdRfZ9Rftn19n1F+2fX2fUX7Z9Np4jaT0UiO7p9n1F+2fX2fUX7Z9fZ9Rftn1a41XWkSJGltIovs+ov2z6+z6i/bPoWBUYisIwZ+ZyI5qo5EVHcP6FXKvSMmvs+ov2z6FglKJhmNGbb7PqL9s+vs+ov2z6+z6i/bPqTjdfIpQVRGk7p9n1F+2fX2fUX7Z9fZ9Rftn1eU0S7iMjz0eo/s+ov2z6+z6i/bPqLgtLGkhOIZupkuOxMhEBkwhmJZYjTWAmtLEaxxOGo2EV0K2ODQ+GYnE5plqYuqTFqmnVHxYyON/wC6v//EAEcQAAECAgYCDgcHBAIDAQEAAAEAAgMREBIhMUFRYXEEEyAiMFJgYoGRobHB0SMyQnJzsuEUQ1OSosLwQGOC8TPiJIDSBXT/2gAIAQEADT8B/wDXzNxkstuatBmtM1pjNC5jgeUo+7gb8+S40U1z5d6OEM1B2LMme5zCHsvdXHUVxmbx3kj7Efe9t3J9om5zjIBD7x1jB4lH7pm9Z1Cl1zWCZKPs+u7yXPfLuktJJWiYXMiu8VlEaHd0l/adb1FcV7ZGgfcRbW9GSAm6A874asxycHssO8brd5Ke9gssY3oR9uNvR5rWIbVXIhki0jBG2rL0jujDpWLr3O1ngOK9s1xHb5nmFhEFrXdKYZtc0yIVzXXNi+R5Mn1ITbXv6EfuoZ9b3jivxXi/UMU2+NGvGrJYTsCGNzIQX4rh6vujDhHCRa4TBQtfAvLdSGKuhRT95oOnv5LuFjcIYzPkox1klXiDe1mvMriDDWrmMwCB9JGOOgaUOs6Tw98aG35ghcQoYscfvW56+Sr95BYcXeQUd+sucU8b5/F0Be0/i/VXklQfXfo0aSmCTWj+hjG4fduy1KG6s1wwKbvYzOK7y5KbE9C0afaPX3J8xB2x0pNxPSjZXAk0da95RHBoGLiULYjuM7E/0JuZe49AUQVXejHmgd4+UpjUo/oouWg9HnyTbY+KfUYctJTjWJzKNgaBMo/iG3qC/ttDfNbFjTYTiAZjsT2hw1HcysgsN2s4LBsES7b1i2LvgUDViMyPAQmFwGZwTzNzw0lcYsMuumGNpiax9JHkjskWuF7GZ9N3XQ07+KR2DMrGK+17lxn+SyZvU4AklbQ0dm4iiz+2M1EM8yTmuJDFY9a/x8lEfXrESwu4B/rNzTbA1okBRhEYLDrGKb1EZhRGCK3WLD39nJEP2uH7rbPr0pu+iuGDUBKHCC7qQ0IbHZPXKljS4nQFsmJvW5ZDoCcPSRcz5cPscF7DmMQnRNrP+W98eSEKC941gURXFxPNbZ3zRuGQy3D4ghjuTRIUxILmtGdimYcNrhIjM+HX/QwIxqdBsT2hw6eR9QN63AURWAnVf47lrnRj0WjtlwWydjirofWd/rq4LZUJhZPBw/hoe1rv0y8F9nYD0CXI6GJuc7BA+rjE0u8qBsRh7BuA0lMhhnWf+vBbHfVJGE7Qesdqe3fDI4jcBjCfdrEHs3I9HWGBBrN8U9u+GTsQnbHae1yFdv6zyNhibnHBQz6OHnznaVKdlH2er1LSVoNFQovaOw8FFbV1aVXk8D2DxgnibXC4iljjDd03dx61sYVfeZgfDcBtdhODgtkGbJ4P+qMGX6ioh9JCy5w0qIJtcORbRMk3AKEd6PxDxiii3fuogAhobZecaNCzxCe2wpzWvA1GR7xwBcGNYDKZWoOCy2t/kg2q+IbK+VihPBZoneP5nTEbIHI4HrUFxa9hxzCiCY0aE1lZpAmtEQjuXPeSmmsYlxd7vmqjh2iiKd+3iHjBOE2uBsI5FNP/AJDx7R4qNgCd6x8E611BtbAbYf8AI4almYYJ6ysHwm1HDqTt9DicYI2tUZ1Q/wCX14Brq8N2nSuNCFcdi+GVjEjCqB5r1nvN7juBZHA7HKMbeYeMinWna3VZ9CGMU1++yiq/wQJkUE8+gefYdxdR5E7IEofMGLqHeqMhQDVWxjvAcX/TyUU1YTDdrOhZMNUdQRs24CTm681AG3Q3DFuPZ3JpwTCC3oThPh3CRBxUU+jdxeaVdAefl8twIZPare9C/SKNjiTp+23B3nyHhNLnFPO9bxW4BM7TTXPeornvP5peChMqw2OFjbbTr8k6KYYOADbJ9ih2xGlsjLMKFYJ8R2H8zWe2BD7uFO3pQEgP6B46tIV8OJg8ZoWQ4jvvNGulkAd5VWh/YVDNreMMQorazeQzZRI8s8G+PUnGQQ7aa01Ce9h65+NEPbOuuE4SIOIW1Thu4za1n9JfDfxXJji06CEQRWN5k4gUMqsHQ0ICVBTVE38CeDsR48hYLZyzOA61FcXuOkq5u4eFEG2s1i/sl1UbIg7a0/5Cfb/QvaXtZmB/vcsEyStkRSQNLioTA3XRGjl3QTuBY5QnB7TkQorZkcU4jr5Cf80X9o7+xOMk0S3DLVCdWHkognLinEf0UKpDnk1zbfmNPON6/Fi2DoCy9lngE20NHqMPjQ2GQ3WbB2lNBO4IkmmSf6aFr9od3VyDaJk5BRXkgZNwHUm70bo2tTz6SH4jSsRi3WKB6zp7xnmobwGlrZC67hnN2uJLA4FNsAe0Ol1o4QmAHsE0b4kcy71+HCsHXehg0LBt7nagoO+ivNr3ZDRNRn1jqb9SF6u5O9KgvDpZjEdSeA5pzHILZB2hvTf2TolM691gclgcCh7TTIriuiuIV7nm5jc020uN7jmeDYJRoDhWEuMuNCdPsKyfDPgjg50u9e+xaIrQmguMRrpiQvWUNnnJcb1nKKZWmZKO+iP4zlA9C3ov7Zo77cymNdGxiYJ1Ydh7OQUKGYjtbv8AXapzOrgMisjahknQg4dB+vBxZ21qoElEba3I4hG0wz6h8kPbAm3rG4Ztg7AaMYhsaOlOG/iy7BoQEoelxuT3WndzmFHh1x7zfoT1cghFMMam73wTRLr4JzVFO1O/yu7ZblsWpGZm0j6J4rNcMRuXdmkKIawIy4w8UcWmg+1UkesLmxD4r3x5KNWrh7rTMSNy58396FwFGxvW0v8Ap5oWDdkSW2hjtTt6e/kDCY556BNOMynO4Jm+TTMFRWBx0HEde4iNkDkcD1ovLWVvu35ajuoe+hP05aimGTgDLrzWfqHy7FzXh3kvdb/9L3G//S1N81EbWqPvGuiJvYTdOfQnm8obtrpoKLDbE6xPkAYVT8xq+NFWfXwbrWqGdth6jf29+5aPTtGI4yhjeOP3g890BJsZl/TmsJOqnt81oIPitLmjxXOfPumm2htWTJ+NDBWc44BDewmcVqG9HAVZ0BhZ+UkeHICJFY3x8KA0Dgw6xMdvhm3EJ4DmkYjc1qxq/cu8k0XYRNI8uEYfSPHtnLVQ68I47siVEOO9vcfHkAdkg/pcieD4oQuaKGb6CTi3EdG5cJEG4hVpgg2wj/MVcI/su15I48BgMXagjYR7T9fkjgFfo1IYI3tXdu5obIn+keXIDb/2qsOC7aOM6xY2XJhrNcLwVdWNjH+W5cJEEWFXnY87R7uepNNsCLh5LKJ6v5vNG4tMxuB7EPfHsX4kS13VcO1G9zjM0G9+KKFxQwWIzWLct1WK24d3IAbIl+kqY3YxK4xWZXGNyzNLuyitVBIrQ55W2LNs2Fc14d5KW9a5okT1o+wDJo6KNJo5jyFzmNPeFoY0eCyc8kLJomU71REFUnoozwWYtT7xQLjQEPWG5rFbcPl5AM2S0/pdu8GhYNFyOAXFw3GQRoe6sHynVnfMZJ9zoYqz/KubGf5qKHOe17pyAlLxU5NBWgSWRtCzbbQLtkwSZ/5Bc2K0+CziOLuy5cRjZNh65dyfeSssAh7M7epP3vqlNMqcDksDmnWHdO2S75W8gIZY/wDUPOgtG4zxoxcViTedxo3PNO9PQuNDdUKbDDA15u/k01pcVzpkrUfNZscgJmyR+q4zblmF8QhTtnenCc8Sgyw0xGNf2KVGatQt3AaTREe9/wCqXhyAdAfLXKYoFlLBRgzNDAcLtY79w1tkx6y1SVYWJ5BOgJzSCc5FYAGUk8VdrMSayo2od5UqQF6o3BsoEBpOsiZ7+QBUGI6H1GSBnS4Ao2W4cMDJCE7s3AyKzuURsy0GeKdKs0AX600VWtyCa5xdDrS1LS2lsJoPf4oCmclKZ3BM1FiNhjpMkBIcgdkNbGHce0FPEqWGi46+FvVUkdI3JtZCxdryCAtMt7DasoQtPXcvxK5rL8Rotb7wWgr3Ky50EBEzNICJt3LBJQAYzui7tI5BQnmE7Ubu7tTTNETocJIWI74UX8ITVOoppkaMgsG3tZ5lNEy7PUom9it0Z9Cfa0jEKLaGAyszJRJa6G/2SMFtVYyF9pQYLtSODgibRxE3GhxTRIbgWpxmojhBZqFp7x1cgojN57wtHagmWUvE0DbRLhCnAVw4Gc1+Vvmj7EMSmrxB80LgFGP5XZKBv4U8W5dCh+rEZkcCm2lzr3HNDYrfmchQZGJ4Clqfvtw+yhjJv942nt5B7I9MzpvHXNP3ppZb0UASKB4ASI3OhZJ1rGn2B50uFhyOBUB++bnmFU2wOPFvRnUrskHyyVSE3t+tDbhmck4znQE9yG4ZvVA9NE6Lh1y5CbD9INLPa8+igWOoKaUDWClwFiI3LfSO6P4NzE3r9f8AO5NaW6TDdf8AzUoJJhNayU9aY6H2MBogm/M4lChyYO3cXN10bM3+pns+fTyENhBTvSQTzT5XJ9hpcJFOBHASVfwUtwDNC4tMl+I2/pC0YUuG90HBB21xRzTf/NCHcocSJ2b1RbG6BmnUixP324ZYEN/FOTBf5dKAkAMOQuxpvhy9oYt/mVDO0UNM01wNE91IquVLdZhDFpkuOyw9S4tx6qI++6cf5pWw21YnugWHq7liddp8FgMhgKcE4oLJtqzcjkKNkOH/AJM7AMActaPIbZJnZ7D8R4odqKLTQWhEbqSrFS3ehZijKJb2phrNxCjwzCeMwVWru5zv9bgKW9C4oo5jbteSP3UAizWUPu49oPSLlDMnNdgtjitCJxZl0ePIaIJaRpCb6rsHtwITr9GmgOIQmN1kjZJB01Ja6NVGta6cwNzrWuk2ADFH8S1/5fOSzine9Q8ZoXNY2QFOx7IhHtMPkfFMfJ+lpsPYjceQ0K2C/wDadBTDVc03grA5Kc0HTU9xkEKDkVpKyAms9qIHWs3xWjxWl58AuawlaNj/APZfA/7L/wDn/wCy50GXivecD3JomXMcCjgFpKJlYU94aXSumVogfVFofDiSlWC2ww3vdbLQMrCKBYXAyht6cUfbYyrP3cT1rGJsmKXnquFEZhYekKG4scNIUD0D/wDG7slyHhi0fijLWmmRBvCuRAKnuDaRNe8VoctrcQA6raCPque2v8yyaJcERIpriKG2oKIwP6wtjPkTzXWd8kC2IO4+Cf8A8jhDrFzcrxJC52ynANnob/taGO8lk59XvRuIoikRR0i3tmojBFbrFh7x1ciAN8y4RvqmmTmkSIKLOAe97T0tPCs2REHaaCKBBDPy73wT4Lpa5THaokFze4+CkjZ/ymQ1DBaYz/Nc8Vu9cWGwNHZQ6tDJ1WjvKe/az/kJciYweIjh7Uqsp9aIPdwDdkQydUxPhftDj27iDHc3uPjQ2K+F2EIIffRYrd9/iDNZbXP9y/tTb5o/iw971ihkZp7x4r7Q09R5EiI8dYHkp8BYQntDh08Jto8KZoFjx2g+CyQ//QPVtlOta6MZqLFHUB/pQGOiHql48iftH7SqwU+A2lrPy2eHCVmH9IpmokA9hFDdkudZ7y+G/wAlzYTvFaGDzWZYPNC/ekS60FBFSHpzK2Q6oz3W/Xu5Et2SJ/lcmmYWeG7moEZ7P3ePCOYx3ZLw3Ei3fCaP3UFtnU1c9zWd5XxmeaBk6y0LERGuYOzzQx2kuPcsAyHLvkje0Gbnayr4kTBjc1CaGNGjkS8Ta7iuFywd7LtRoy3QW8iN7QfDhHQJdTj57h8ZtdvMnvuyaHssbIUvteAys1xzXOrN8CviHyXvuPguLCZV7TNYyvcdJx5Fm9rxMFcy1n5fJD76Fvm9OXTRksxTJR4Tof7v28HNEPHyqIJte94tHRanvqSaDYZKK+Ti2+V5REnRHGbj08lz7UIb062+SH3sHfDpF43GpQ4zS7VO3s4OaDnjuW0tUJzYg65dxRi1esS8eTR+8ZvHdYvXFisDu0SWlzh4KEwvLWvJJkMLKIkFpdrlb28Htp7ltclFhuZ1hQYjX9RmnCYPJ2FFIb7uHZJbGilstBt8TwUlt/7ShWH6zQ2M6WqdibD2o/42eHJ3ZMOR95v0IWyIUx7zfoTwUkNkN+VybEeO2jen9ATNkGXS1vJ3YrxE6Lj39ihxRW902HsnwQKbEYe2XitsLwQ6QwWZ358uxP8AWccVsmIYwB4sgB3T6eTsZhY7UQoTyxw0gqpUf7zbPDggwO6iDRz3zPYm2hrhVZ1Y8n9ltEQe9cfPpTniJCc4GU7jquCzhvDuAyT4TmzJzFD2h3KDYjts/wATY7wPRQMWmRWUT0nzLnMIPYVzYxHgVojA+C98LnRvoucS7yWUNgC57iU89QzOhQobYczjIS5QOEiDcUfagOq9l3YuLFh+I8lzYku8Bc2Iw+K0NmvhFfDK0yHiudFZ5rTEJ7gsWwWeJ8kfWebXO1n/ANPcnvAWmO3zWh81EFZrhcRuW3ueZAI2BoiCZ1ckWkCoDK9fH+i+P9F8f6KNEDK22zlPo4cMDBVkWytw6Uy1rx7TTcaNobudjBsmYFxE59tECIYVc3uEgR38kYMMxGxWiTrM86IkZocMxNZQ2Bv9B9lb8zqNobuS0CLCJlWlcQsXRRVaOlTrxH8Zx5I/Z3d1G3jcZPdaehaIL/JG5rjUJ6DQL3OMgFpjt81oiAqHKvVwmjcCbTqF6z2lyF4BtGsX0/ZW/M+jaGpwrBsR8iQvihfECiWsiF4Ad0r47fNaHzQdVrNzV03uAC+O3zWh80TKs1cRu+d1BZuhOkj7TDOlt7nGQC/ttc/uC57HN7wgQNsYa4t1KIJtdKU+Qf2d3dRt7aWb2LHGByb5qIa0WITMhuJUpbYHGvrmoLy2eYwKeas3GZhaRo0KM2q6qbU51Q1/WYaNl1GQZCcpVrZY3qJviI8Ulx6gUzDPSFDMwQozJkZHEddH2VvzPo2hqhQ5bcIlWq2/UqxqmUt7OwnJfhwbGjpx7Fsf/i2t1osljNRp7W+UjZeDR9qd8rUx9cGGQDOUvFRRWhRJSnoOmh7nOiRW3tByy1q/a9sNY9ku1MNVzTeCnENjMwc3zCKgtrHToU95BB3rP5mg/a2Qg6U5YmWtYPhvMx12KJbDii5481VcP1nkH9nd3Ube2gja4fvHHx6KGwQ0FxlefovihPaw1mGY9UDwo2uoT7pq+C2xnfRCDGscfZnWn3ChzYjCdAqy7zQIjwOuj7K35n0M2O0uc4yACMQB0SVrucdCxOLzmTjTtj+4UfanfK2j0v7KIsR1d2JkbKIjWPOuVB2PDJ/KFtrK2qf+qIjqxAMnNOYR9iPvD5IivBiG4OwUMuthkkWuJx18gIYrOccFxnxapPRIqH68J948wvs7u6jbxQdkTP5TRCYHCoBbavdC90L3QoU5OdeZknxW2M76PRfvonF/ZRtr++j7K35n0QGiE2Q3r3gYnHVRAb6Mn22eYp2x/cKPtTvlbR6X9lG2P76NqZ3UfZofyhRm1To0oneRQN68fzCnGE61juhTqxIfEdyAibIAdpsJobBdtmqzxkjCqddnjRBnFdokPOVGx3iN0XHsNGyWGDbneO6XTTDbWc44BOuc1bYzvo9F++icX9lG2v76PsrfmfQ+A0tcB6ruMoTqp81CdWaU6x7OI7EUbY/uFH2p3yto9L+yjbH99G1M7qPs0P5QoxftgeL5VbutR2hwDxMEal/adZ1FNve0SLdYoLGO6ZnkA07ZC94YdUwq1R22WVNafvouyS4Sf9E11aLFFzjgBoTzJrWiZKj2xJewMG0OEiDiE8+jicXmlC0EJolt8K2trC4rYfmgZls7BznnwUMVokV9kzi4qJEaTtZrBoGmjZAbViOum2dh61KtttcVZZzUEPL3MM22yx6KGxC5pfY1wOlPE2OfEADtWahQhCr8a0nxohMEMw4jqs9U71sYekl7UP6URrIrRhk4JorOrPqlo0gqEXOe9nq2ysnQ6LtjHu9UzAEp4XJ3qxTEFU9K2OHVntum6VnZQyISNsNUOB0qcq0RwaJoBrA/jSFDIbIJhRDVJcBKzNB0QfKnmYlaYRz1I+0wzUaE6FDZO1xIlcjcAtlEOc03taLhrtPIH8aEZO6c1k+BPxWUOGGd80b4htcencOEi1wmCjhCO96itOx5/uQ9kCoD4oeywKMwsdI4FfFK+KV8Uqptcq1sta+KV8Ur4pWxW1YdV8sAPBfFK+KU01h6Uo2EFHARSvilRW1HelN0we8BfFK+KV8UqCZtFe3HHpXxSvilfFKa/bBVdK2RHivilfFKhPD2ziG8Gagklu1EC/WCmtDWxIW9dId/StMOZ6wQsasOqeskofexN876dH/ut//EAC0QAQABAgQFBAMBAQEBAQEAAAERACExQVFhEHGBkaEgscHwMGDR4fFAcFCA/9oACAEBAAE/EP8A+fNqVsd2nkAYhnsM0hCuZ7Co+D5h7lNgxYCD0UrecQvh/ZFAqwF1a2+SZNFGDspSGFoZzQIDzorm6tbSIz1pWlYuT1fSQDbiQnWmYPAgvdPFNkuyjzs12KFTsAyToTV3nahEEZG4n69AvscOqtisDNr7tj+JotHOdRAaZnNlq1WpGbQ6zYKveWid0EHd5VqAGzeQfdRYeH21aPgP0YNCM85+wSUQk8hvKfgoob3mGHQZ2JpuJ4q7TwcKq6MG7HptqNQC1yNxXmOofrawS4VI8nGLO10lvFSDjKRymZ3Zd6DcuiZDUIl0I3pAiRdCHQmVe3Kj8WA0uEmqRQcRAdhzed21XYQiPqC7yw09CWI70jTfe1br2p485M87lmg3XcZR6+48qmyrHa4ezDtQM8NkmYlFgIwfI+zg5afrNqI17EaN2CmFSCbI7vJY2qOp15Vne5rG9Co0lQpzW6L7tKHQ+UjGO3Wp0hgYX3PQ7rvUBQS2S+icd8uCBKAoGCaTmHKlWKvP1xz3OBojZqQtF4DNzptib5MWVIGEdaMmgJuA6nv92P6s5vnS7MN/TNi2xgj1llbAAy0CxVpW/qS7c8aSgEgSDTLLljTY1cg2xoVYPLkq8/gdhvbrgxc0xXd4GWvdaRSpfyRCxJ2Gpe511pChCiETMowIy8i9nMzx1j9RtxJsxqgYpoXehnU1QC4srVoYgv3XPlUk9wlflPqOeEy2t0O6tImiozCWHIPIvleIBabB8ua50oEuFYGz3cLVbharVarepEIKszg0C0pLJfrYnUyJIfJe4YNWcxK4BibsTtiNWq3C1Wq3C1W4W/SVzSBYR8mDkKeDdRZYZzuDbnSMWJFuaNy6WigK3jKk18UOpSsoQGxLRbARTH/4GwcJ8YHnjhK2tT0dqxAtr+GSUsUoDEkJNSRjfCmLfRgjUxCYjFkqXosreRKLOTvhJTl2grYL5TM6bv0m9X4X9F6vwbcDecwAwuxvcpbTasUZWo81Om0AL1fCRpesnJiiWpATzRnA+MEI84TzpWZU9Qk96gt68L1tDI1p2i8gB0OU7u1TxhssOamXXpV1DZOaXudEqY58yYwbOYiJ/n4BijeYAWOyxS+yj2dFCDYypSV3YJzhFXq9LdGhZWMF3e4q9X9F+F6v+kKESkxgUaKsdliHBLhBLE6P+BnlM5TEXh54vIttSHZ2dB/adZpyHa9NeCCVtGPSkXyL7OAfFLKq3eEcZZ1MinMkwZmuMGyuEMtj1EvXU+60uxEsc2UgPIadA+tUdv6p4XKGwgEBcIb7/gHqKEUBMwxyogpQgGgGHBdOlHF2rc2O+VYkCCXySZj9vSWDzclsboP1FdLK9YtI5w9SpHB50DgbrY75VkNX0AzdtXFaakMDIaBkcQDoPn5p7eVGiK+/HZ0EQSvYqIlQ3A22CAnQmjwOYr6RoMjrj+coiBi4E9cO4VgiXTgt3UPT9QZ5Ljcp5im7egjFnzcB2d9MRdxLZQ9F6rmooPNBFBA0Ag4tmFzMojrh1pFeTYS0Tgr4av8AwMIiSNXNKthI+0V48UBJ7/p7FML9ga8MRI9qifkehYL1fa2Zgp6RVx9GCFqP2cFsMD1Du9KEIJEhN/QhAlpeYEqwmI0mBuxwgsg8WXlUjbKS1QXk/TngoagH3LOsDFTs422JuZMWWIp5O3cC+PQv+Zg0SJhzpe/At7gUAEEBSfOfsEdF3KOoESLh26CPoG6eRtYvl3oAAokRsnCJbUJB1pdrqxp4537aRUJQ5Vugj0iohzDmF8FSBbKdBPEfpqvkvwD+7Z06XFLC/JoMA6qgGkgTAErw0IT34p+H9BKPkvYeGU+40IOIuRB7v4Av4NASzNQqT05rIbjCcqbfbMlGwGYkTqQmEJEIMyjBHjK8mZoJXIaBFKNc3wOli5GvBQHSmO0zTqBNgXJdwnDktDcJFWjiOi3MNag1T2f0oag29f2I0wSzkk/vt2T4ckyf0tfmn4ASq5FIc1OEbQaaGRfFszt8B88qFmgVzIubHCK1bpNxVi+1qWcaBgWCoSnKcP7r1EDYAwRIomMNTKb8BSW0oRpccoBelPC5ipHUZ8VkfMQPahaUdYwxGKxJLdsRapohZoqG0g9XGBgWjLv0ANKxTdARhdnXk1zyiizWiMjypr7YhWuwIiwNLks5H9kFc97+y0Qk6ZisxmXsOdqE1/Zf04Dx/wAxa0XuZm4UDm8yUSI5ifpS4CpODldBx1bZMpabAxWpsQXJ2bVBghOYxNjw0SsF6Nt41Ka+wX3MKPElpC5gr1aReCzI1kX5MlRVFCIPjTBPhKlOEzZOZ89Kx3KbwYPb2/AmwQ0kCJGxFPOVHQ2DFNcSdQrxYu+1LSLcTa3J6BpIUMBCwl2LAGR39BCeAViYdCw9N6SWQJvLBtk7Q5UTYUiMia0wrpWC1yHQKu9UGQ6L2UAACAsBTsRf5apkFGvfB2pqSoRyaXB9NxHE6mGjzt+kFBx0TfB6OBvyaRKoyqyrWAJXM7Pm+3B5S0DaCKGmMCke49F+bRsGEMRjtJOahvSQQyRXawUzqRB7sFh0nnhSRnmJIMLo3dFCeWQmJIio6SybkpPNYLcPJJ/OxMh0gSETSp7GOJLFTUy1OTU2Od7w0b9ZaeiSbfuwPitxMvKpKy7T7SUKIjCXEqWhsqvhbjluhz/Rzo7WhkargGa06qQJ5CweR3Vc6xXLKOGUf3/eEKS+e1Xs4/KoNQiPNkPBoykTheTDmpCcqPSlQs8l0TvRXWhYZolsZml5qSgO6BHoR7KbQVgcCa60ZAaWc7VhHQeZQWggYAYH/gsnWdVkmSN6KtliEZEb6mTQHI7Fhkn7eePCCmw3mv7JXLC97/PDAYmBhmFa0K0D4uydrOVQCHbO+I6IyJqP6M2MKVjibkXc9FRugCsIw3dWbXMnCllvUkZruv8ANAtnZJmfBpSzQqU61jyRe00hMh0iEI1H3pEsglOoCO4/nCUDGkJDLp6AwAYN4rPLJMymrHGcRD5KTEzwVA6sBfPHhe6U7geZrYb7DgYtmzo5NFVCQ1ncrLAJPmENx1/RbmLb0ZQbqDrTAtVJJelRXMzP5fjvSgK4FKy8GOLFnct7RUacIXlE3ZOqvKqaAXGsrD5kuia8M8Pz5gu8IBfDzo0duOillnimO70QBPfau8aqkO7VzYS6gu9WXrSwXqNbDcy+3ox3OyyfjtS5CTzEj4qMEKNmG3SCfoiNoFsc7ieUUwQYNt6BaADpV2PXiijK9uf96VE+fQdVskjs1CdORvgLuNqQiBAQYuH0P/Dc/wDU2uDkKdKmb4zweZIpjsDFdigGsGJHfFescqhVMzkBziw9qd8xOALiZo1bbZ8MUSzQvYKkAkZ7R8+gqZcisXwc29NaShXAQBzJdX6Gi8T8AJV6U2DfbELdIB0qGth1XF7e9TTpSyqt+IJcEhHOiMOIamnSjZCmW4+P3YOSQg7IsNpiDwsekSSaMYthtrlV1M4kMmG0T1/M3IRRMbc2Rjoa0BZrO2QImNppmdWHSZ9xWcPrTNZvek0y0rs3JXccg51gH2ME6uru3q64kn2Bd54UUs8WAnFwkyJYG9WwIftYP0RV4ZoHy/HphTbvTDxPakaZoOT1EnWhvijghI9n9Ct7tcvE3xjqcJaI72u/zpUidT6WNhxDFa0huWD4KwqeLDklNUUhSDcW9DAJIywxXcAzUpVJqI8d59gMqbP4BiUFSIUeVYxwlouAxIuMJaHJrNhARexHdowkH/VCeaSJrSIPMhS8g1u+9RLSRXhpjWcg5JSTMQ1GAcEhPOpNetJ86QdnnSlQ8szVXI1cAp6rAjEL9DA2OdHHbIG0pn3dAVKBAy63PEemHCX0K5wxdzbeEPTAdX6FcMMjWgHcJ0nclHkLvtSgK1ILn6kpDEJKQUGlD++9OJAM4GSaZgTpnEL7eBgN/wAEPIqZXpLqhZYb3wjKj+CVJOUvJkqR2oN/aL9MmxW4SW+8d7+iWK2exM93gamSC9Xg6Eu1JGIZIQaOXk55AmUI87Lsbuw031yDLu+9AAAAgPVD5HYG571YICLqYHNX6EYmSHKwI53dan8sZ5r/ADzUUM38KmGA6j/Eq/UO9COAES1OJWHkza/MRG9s2jVnQsmD6L5S+tBxHyVkmSa0WAAC6rB62gbbFYOWZkbJiOzem5esWBgD9h802sh98mlpNgV5r2UkBBIIIOdDyzD4jaGjEDADY4DKCWLZcey3Nox2z13Hx7+uAjHfMf8AfFKhBc0vHZfoOYlVoi9qfMgzmt1qWS7s7EH9qaOh+FQcrDln4v0p0BhMRGRqASDBox0AnSpi6cV8A6su/QA01CQLMhe555r6g5eFZZl5OjlWc6xwZDAc5KHJMSK9SgEkc/mCiS9c6iJZaB8bzKrHYDBG3CGccEEJHZxujTFzgzoJOTqSq3VfNYKrE6ub64CFy6G3yUoaoRMmoi4ZG18v0CJGPanAy4ke9805HVq34EERJHKpULjGmp0ocJQLnQTlB66AhrSQo5cUBpgNzwG4WdocmgwOKbmeSY6l9fUFiKAiaDJs9EpQ3OPmWHdUgB27xSEE+xcUM1BfHbRCaSzWRSVhvBtwYSdCwErWOKgcDDq4u7sUZUwbE3fj0Wq3E4HN2X+OEwsvLYXwP0BpCOuwvD+/wR+PD8Z6rJ90qXZCPOt2ljeKKVhYkJE6NQgYOPEARJGyNAzWQtZLJGCcNG2lXFfsAHk16i2H4mAVsFX+AvsbYOYe7yJpAhgHzG9APJIPXKuZ3HBJGekz+gOI3Hun9q2ICnANWp4z6hnQ1966UJUI0B/XgSOFU3ubcmy6UTDTIOXF42j5RZE0oA6gfX9hcYnDobwtmtsF8lvhyoywpAyJqfgfJJfZbQLtEvPAbW8wNnVadqyALtTFtyJ+nOnGshRcrOnXmzuaNBpZiZrRKmpqeE8BtiPNaCP3n+gEw5KfKvqNadx19PXjFy5GbyKvg1M/XLpSqqsrnUJL9h016UAYsZD/AI3oj30YBglBVwS5Oo4LZto5BiosSJmUkMPFqEJcDiI4lR0NN0+M3X0mmMQhWFmGb5dRpd7svc7C0dFDN+RENk4sBe1FGalf0SUdYoNyWtc89xTHGGadXLbgSjgwjojSjT5zTZqyMvP2aQa2FZUfgOCYDRqS0GNj/jf1GA+k0mLL9Ac8f+j+FKXo3ml2HqGq0qQFRqYEVjkZ0vUMUms9TeyP7VqRybHI4AgCiESyUsIrW36fzhNKBnDBQBDCYXooROYjndPFBEvn84UttbSsCwo4JzinT0o0egbfOrQoiMJmUGHCBZQ0vwZvjLeecN6IDjU+6UiDH30FFox/nExQJ/wanQotb5gBXjeOB09Lu5tU3urAOcYVnRY3MmrpGpmVZwbn7O1JSLJz3NadDhEqMYsdF1NvS5XVPNOZVLsP7+gR4YtyQ+SlAmIzRRsEE7em5kxdXeehUyiDoH9rALAEtWUYoWzm5/caJCAgCwcZUk5hpwkEI3mlU3WMTnSXj4owhnKJ2ZybGIaRh1IKBmQz+Yqit1GUBFhuuJcKLcOQlzUz/wC1DOZmdyKCX7hM6KYXtupicGGVh6CzmjzCcCKLoF7UbMTOtNgJqjqfZUdZRC3Vq/8A1Gb4zm4f4B0CiMyz7ppyEGoOi9XcVLRe2ZSIx8txqd5INR8Ohk8qUX+TitquQRcMBrQ8riWo/wCx6FAVwreRmpULxuQHvP6BBhIQ5E+Fw34Xg4jzPuuhXMUt3/KcsDKrK1LTCwK3TVrHVGa6nBgJbFSp0mHepI5L0Jno2D0pauW7JzVZ6lCmzFD7pcegVA9zhYKuG6pU4jvHFavxWwIHMT2rMnkdJQGmcDw/2h7JBamqYUdz5BT1adaIneCQlQ2ciyuQt6Ai5bZLOd6LydnSE3aahSgyW09JpERUyq3Xh/tgJnzNOTtKwwpITOTOc6tKUwTMtTW1pvof2PR96Q4TEQ+aez9AIAlR1D8gcN/zfRfiOLUWABugr58UXwqIDjYDzacqFIaAICowhqtSwj1bFO3U0MPWgiII5JUzyMwqKETglxqTmPhT6FmtEkp0MU/ymUr1j838UN8+nABMaCjEY4TJO6hTVqxsZgLvFulPcClnBjFqX2ISqOMpcIpol20pjrwe6F2D4oRy/FpNZUaL/wAKxI0by/Homc3AeqfE8EHQv0B5F+gCGEiOZUz0knc+FSm3M9SPjiuUdst8UsIrhicHvwhqgThU+K3fxza47v8AlWKXZHUvx6FXDIrQmGkSxcyE7RQahmgEZaeVGH6RBACibTGlOBHiZg3zcVajF7KmW6FJi/esDzVA78XSww0W4ptqHjjcyx4LUDxC6pv6ITbuuQf7U1dkNS+VDGCAyCwfoLd7AJ7i61OjcdeJ7eeMZrwPJ/2O9dan5mHRY/3rRKYJFMixGPxwpdCHS9TsmGbIPk8+kNwEBjf/AOhq3fIwLseDNpgTjdaXMB2NQ1FxC/1ux0iNqx6OJYaBhzw5YV5FspBFDG33jUdiZDvsVftZzfiSmY0zlw+jF8T6bIbHqbvuUuDBTCEL9CrTGgmjKdhRTANA6UpsmDs1NYiIlpvROw6jRKmtY9Qx8e3CEZL5cZqampqanhNNyGpkwj7nJ6UXULLcY4EVXJn/AJUdEbhdar4MKdf5+jE1OxTnwI7zkO8l7mdFsMSkQkR0ii5GioGygYu2gc8KHzEwMVI6I6JhQgdcASSljHCh+owIJhWOQQiUuFKS6nAXMcno7gCrANXC08YOhf8AlQWt1B/w81NTU0ysCp0CsdMrq1ifqHRs7L+hAYItuy+JFMyRCJCNXMl+xufJ0qOEqHvuD/etJhAfRg+JohJMKh1MO3/fyQsWMPMqRpEgEhQC4xPWrihZP+y8UGdEEFzZvWp4gcVD1/HfShejA4A0ChOIhgLYjyOJ10qdxcFeW/UeztQpnbVWJQcS07VPWSyLcVFtOgUtzQOrWYeADhMaSF9d+1RHWuurwiBgI6v0qapCK64eIqKioqaV2PLP+daQAStgM6AcF+s4k5H6G+RDyxJ7WFolTFjvGT39+M2Uv/b+9OEss9RFq1Q9YtuIQc21D8l5DjMz7UiKJCcbQc3HRrr0LhokARN0pQXwQGJg83jjCuHKv2GmoQcmAY5CSdas2c1AMudIKY44CR0s8cBYQwrXnuW8EY7CJ8fDu8TQTzcma4vxwPAQrWhqLpLQhwABt6JtzZc83v7U8pO8Whncdmk/ojyomAuhZ2CgtcoVU96M+uPAS5BE1KmUuA6mT2qZrgBzs+xUd5u1/WfD7lRahPaf7TkIZHn6MtfA1ahwTBcEwHKUcvScFYNkSz1CiOULGA0ByV70FMYo0iC5cBwMXtTi7h+5/PCZOgRh8JgddaEuAgOEaG54PpUdMhzW9p4Wq1GW3WN32aWVVlprsBeXCYdZehp+iAgMgSI4jQ0CSM2YJ1UrlUHEikycn7rxg9bqR/j4qcGBn3PagQcEipAcRiu/pgPN2qHWw7D+19zf0WuWBBpDS7BlRHUqUzDjA+B6R1oPnJO+xMR58IqGq9Tk3XeppwI1IlyYedAK8mzOOSiE2IO1up+GLG3zvibu1WTznYyONjuSqGUNLll49/RISJ4M3Nq4AI+YMWS2G4oZqgIAYAfor2xqF4fMEm4M+GIoIfA1NWTuXx+au5Eh0amoPzd6mpqampoQtfarKfQK+5vU8JqaYbpmFnmVMvXQrBpAxVBthxHVwPSKAsFlbD1Xqat5BGMDCe8NL6zp26x7COapsWeddSBvPlR/QGMcD/o78+E1qZEczWMUAuhm0BcBAaFNoZ7z+U5QzUnwVFASEM848L9spIhAokSrixvATRNgSIyJ+jM050Cz32BuOplTIXLmjMqTEfUdGsw0hzi3C4srnnF6kHQfj49IySMlKHcn7V9loV9zf1y/NhZ6VJL15RNQMiMI1CMeXL5eWohWqI7gk2SR0yKnPG2Hyv660ATJEzLC7APNZCWLq68CVIarFTgrs6tObOEkAua8vepEdtk/3rwBZuCJuWA3UoHdUd4oi7B1aQaqRzYhHcPSoeJKhX83wafAK5LLD1EjYGX6NcRWTFxNBGE5VcWMiQjsnwyZU8uqW6tFEgKJEzK/5zDUdza95+a5iE+9/QkiU/5wwTUq3IF3G9FJezIfxr6m9efwFY107+1Dw5RULF9A+aza5wrJE5/4pyC5zS+B9H+0zJdgfQtjIwKTFPyrqp/2lISld3gq4wNVOQGLQBXySobDDkqR1u9jLaIjZUwZ1tywW4jSFCLqi+sg8mj4Awmye56hQlBCDIjn+jNjPW2lzT/gw6i1e48CxGsUC38+jt7VAzBHcD81P/1o/wAoToIehm6OITFT4iIJx4LpEQrEnSnpb1RoUlYKT0KiV9g3OoCoFQ/+Cu8VHI2Y98tR32DximYXmNIN07Eo0teYaDMju+10ApBkpeZ5qRTgPAusDPimasgC7REvJvxR72RcvWPIbEQJi0xNH5sAHvrMgQH5xLCImOW9Ldd0mnRXGbPKlglsUFxrIRyXfK29FgpmLBzd6BvRCBiudk9g4CdNr8BCfNbNpQRE7lWjU6kwPK+v6PY6tbB5tuT0codFQ+ELImTSYogArkYVB/kBf7U0tA8SNE5jRygzkdY1znwNIB3VvmaK8X9LGEvEUu6JgzzrJqLkZM9j8Ni5UIcuDZIrGVDzBOGCLwPRv4mmcIkjo1gLujQH5qROfkpeHe0yRwP39ispielNbRzxnDCZQmEx/dBdmmRlYknchR5R4BbyINFDSUSJs8A5sI4lVYckbktjdP0gSKtFAD20ueDqOJsyAsiODW+AeRozsR7+gUbVh761jQ5isCAN0PmPx+A8BJRYOxUYvXaseykHLhcWVF5mkFrB9q8Aq8dojcfkVyYUcWSUYGBJA2KTH7EwFRVg1PfaUsjKpOsA4RLsObPoaUmiILUT3I9P0k6r8w4pqQRP8qJ6Dyfiva+/rn5hI3e0X8fivCH690n54JIjQhGjFSSylmgnuugQBEhHOgsMTk704lqT5+aZL8CJuAg5o7FTlJoQ8VNask/Sa2ltYidmY5oVq4FueVCisl5lC+InRyPt+k/9BkUkW47jVnR9z1ohBFaI/wCV4CvgJ7/i8F4QbVu4vniNgZ5qZTB3M9pSVC2LtXGjQ6v4aVOjN5ozH5LQ8z0/xRmKhm+OiJCZ1Kiimg3Svd7q+FI++T2/SeVofTlUz2vNQM1BwmpqamprmMT73q50ox1RPz+JfyqmtkPdvwmhD3tJNQIOLD8LU0KYQRWkqRlb2oyvSh7Cn43T5ZqNlaueHSo8GU9AKNsCVWAKTJ2bK/yvgKgakd1mU2Un6TAyenCHvFRQRJNRqGAWUXX8oAQRwT1T6CPcqV5MDoMfL+JzqKSI+M4jmCHwULAZkCHG1OHq1kblfrNEAbrHYmkqsEwI0wtbTIsNmLmlqjqPFjyPyoNkoReqmpMREQXzgdKFJYxZ0sW2Os0yGUjTKut9DNoq2nkCL6ur+khGOWTIFcpIdlqQjkjk9cN99Y4ShwzVxqE6ng9aGQRkcz0dFnzVjSl+MRAbtRUYT5/wKiSwXlCkeWvTlZW0VNtjyuAyi4QphrWF2jPfjYyynackLne+OMy46Omr0PcqKANT5qAta3PYj5om7imPKSXYodOc42oS65/pZj7g3nBs1IhrmKd026inHcJND5dA68E725cqMFfMKBnaBvw16X7VJ8LqwkAfWv4zA6P3oD/E6vmhJcLhM4l4VM8MEvEu44NScDwAIwSJMDlVwARj6SwNiDb9WBAFEI50irdQZugeHWkbu0aBrB3CN+GDJNZdtFn3oMjmFJEks5R5H8Zg97U3+pD+aug+xV/ww5SeSlZg7lh5/WiOMJvrqwd00SaxOiZIdmkGg5HtM80ImmNowLZYtKVNSvJBOkeJ/EOYh8FTaUO/+a2gPYp8UBIi6ZKA+aE9BpgyXwo1g5sxJH9cBAFEI50yoymzTL6pVfCDaLd79n8UEtQ1LoSd/wCNT2bjtDwANET0SfBK6rBMtv6B6/rthGTxisP04VbUgeqyH02/FFrEdv8Atb2TwfNfVJl88DNgXvK00Mh9giO89/125yXgvO3ygNJUkFz9FUEST8M21O5UXlSGKEQkIIwdGkqbOh5KHcqTtg4uAB4AobRQQi7gdAfrpETzOA+9bYYMQPkq2alpviV53dfw7/IfNQQS/RzThNxl2zGwU8lPZYAi7zXqY2oAAAFgP16+mqMIWechQl1wCQhUHMXtjW37odxfUwENVip8LqYFTp0yFgpicsQEpi8+BN5DOyD+wT9uSC7aOAwcGNDqUOAWaDlY0CAGaq6geKIJXP5mpF0fQto16DJ7UaXXEPzot2j4poYr/wDrEU71fykjG8pbVDxFhbOTIYrQFFGMCk84/YFRUPEGyI4lKYxUJ3yelL9gy+VUYYbKdNRdhdfYau3f1YU/f/asN6pe9YZ+f3xS5Ba/CTUem5zXl96Abhky9a1FVrZHVl3lgZH6dNTwmpqamp4zU1NTwmpqampqeE1NTU1NTU1NTU1NTwmpqampqeM1NTU1P/0ATGMyWNbtdrUbTFry/bNFX6vKsE9Jhmk02qtinjRcx0uv0/UTSC/LwomYcOVf8tX/AJav/LVAWrZE0TEZj86EfpxCiUSsrMqIegEBJAy3MkTh9Vp6YT9AYEtmbADSLYtCiJImlGWfyyFBc2ITt+ohywXNdCMCSQzjUV33RMjqSUUCSAh2D/wAwsa+K+609MV1FFFCm0xAjFgjdKYsQk1Vicpamo6EQQpQ0AA2P02amp9LQZqeBtckhQtsT0Kl2e6SttvKKtARamiNjIAN1wqf6c6Y7fu2mnyvaTzoxM4e1DCgmWLZldCt/Wk9p8UfaMxXPYHU9Gqa+60qCfkEwkg5SPavpHzX0r5qADgCLZMNY+ujPScmcr2zSAOOSAgpfZO9Amlg5OkrWProz0xmcr2zS2pCaJGEvemoPjMXMVOsUUBNvig1buuHE6MYOzepqaFjEnk3WxQkTondjzRpQ0vuB5phNRfigC9W+VBvuXQTGCCYZlTU/ozQALobs5mkmDqsRE0287Yy6Li5E5pTtDaijzMc4iNorBuO4/sCPWhqAEothG+/IXNEdyQEQkbN9Kg+cJJIpKAIw3ghjXhDgSQ3cgurIO+EKXSlBbwDlNsLVHvRUiBwQsjrUpuDY6iZjgmdRVIKzl9AJ09Gr6rSiKRJ0NbpmBKylFGDISwttZGMUnS3enFk9BR01jAYUJTIhpWgyxZCBe5JfOeZxLwVefEmYRIVT8hZIBhDRbDUc4KgZNjJYLDc4jK96nIAsM2MS3PppgsQYEwiZI1fH+dw3Y6g9MFpmwEiYJS9o0DFYA3VA50fsUtBZAZuqu+KLBGmKAqQcgAmDUTbxLzkldqQPsJQ2pkJuZTmM1faY7Ifj9HaBHbZcyyDkTQgRUyqyrTJsG8CsTy15fB+ai1WiyMuW4HdXYxVJO9ftdPAPObSjCaTif14DwIxXUQ6Pe4OhJtQm+6+jVHbGoRitatpLHBtAyHDFvYApwcXvE+kH4WBfrGm7swBdAy3deDyQAGoi9YnrwYCXDVaBjeVeTrwN6wSxgyWZAkYwxLyflFETpLd0WkIxKSPFINm4pNlpVeqwgMIHs/QHz3wQHu7ZtGl7AUmsIu9Wv0tr+CJbc7h6WghUe4CH3eE68GhlBmenoJJJt1IsJFmLYwr7XTwx/gVRWqaAAUKlwFeTIb34Qc6c+42jfA5Ro/hQF6+x1+lrso5ahisQbiCblKaMnt8OTqrnnifhKXuunJzId6goksygEk5lxHR1n9ASFDXIGHqD04LhuMYSYD9LUuACCdWHzwMDM/0IHkOvBn8dmMJ7CvTgP8AmxWGndeIX3pWwUTfZR3ExEzG5X0unhj/AAKorUYFKExyDeW+opnUvmBydBqJCOjSEAA6mTqJZMxqAxC+lHF9zURz/AgL99jr9JXZHUCqh2KbWVAENFaMFWkwTJKWb95mbvMRsRTEivx3Bvwbi7xwAdVAZAA8L2/QAFExLAyeS6lRtlMJkmGESRnabVbr4RpFoZgEsE+VoRI+E/FZjFcFiMLyssWToBSiiSRIGA5xKqYusDwRYI6RCETSKVS9AW/NyTJzN5BMCiEImCNCxZBFudIdUb6FKoKtFXqg80Po40nOTvGXYLenvacLa9bGHQAyp9d8GqVRbGCJ4L4PmRS8ykxtrVM/LXuTEbzVgGywxgCy34anDIMdMTtEZsxlUcvRBgZa5EbTjRKNsBBCkm8THpwI1ZpoYFQJEYUZTYpF8Zed7yXQ4PscL2owGp5F2p6+1OYCYKEoXMUpxdZEhABgWy2thwfrg9JAWYRb2vWDWds8xE4cHBypsvc6aWnODGWvwJwFfVSIrTKkTUzLgeILArds22oEApECAU2mTpwgVYCAM20ksDN4xqb/AGEfxT4p6XBiDNZnUvIjKewQbOjs3o8NcibCMSEyuUUoQoBKrkUwnBFIzdQ8wy/QWcVRAcywJ1DtTm5akDqH2rOxfzhe2kYAQ2Pu7xsQbehgpBAHERslBupKFnymOQhTJ6Zkd40UMujc9E9iVedcQJdVxXdvR7APAoQw5WfR898om7uL7L5eh756AyhRBiHOw4vfGBDkS4yUMQkCRHJq8vlgA2NuDwUp5UkWunoTzzycxTIKWTmxcfngUS3UUVwM4gubLj88HajqAAkzuUgbKWUAzsKba5EQQSloAFjQQpsRRfRtV6TxAlDgNiePktugf/LpqeE1NTU1PGampqeE1NTU1NTwmpqampqampqampqeE1NTU1NTxmpqamp/+Y5cTi1lWfpeL6GjjlWdPA/DlR/+F//EADQRAAIBAgUDAwMCAwkAAAAAAAECAAMRBBASITEgUFETIkEyYYEUIwUzcTBCQ3CQkaGx8P/aAAgBAgEBPwD/ACIZgvMNdZ66wVVPz3Im3Mev8LC3mapqmoxarLxKeIDbN28kKLmVKhf+kLeOuhVJ9rduxBO0Y/EAvEoFt5UolN+hRc2gpKOTv2zmWmJNgMqCA7mVMQb2SNUZhYnqo1ip0njtuKO4GQchSvnMqV56WUrEN1B7ZXN3PQs0+olhyMqFtdj8xlKmxi2EI9SntyJR+gdoqVTiKgppxGYKLmeuPEBuLiYlbPfopJTYe7mLTSmdV5UYMxIgNjcR1FZNY5lGoqbMI+J2soiVBTpqW7Pja9v21/MwA9xMqONdz8QlDYNteU2CXVjxMQ6sRb+wpVDTP2lalf3pliNqKiYOv/ht+Oy1qopIWhJY3MwTWqW8yuLMZVN2vHcubnrAvGAHGWFJsfEYgkkTGbBVgJBuJRqeogbsmOqan0D4ypuUYMPiVFFVQywi2xnpNp1ddC2qx+Z+mbzAlNPqN41Zm9qCwi0zrCmYxtVS3jLBVNL6T89jZgoJMJLMWOdDEGlt8SnWp1eOZXY3t06bmw5iFPpcT9Oh3Bn6YeZToKSb/EZkoiy8yhyajR21MW85KxUgiK2oAjsWMbTSP3g6MM+ioDK67gxuYpAIvKiaDbK55gUVhf5no1F4lqw8xg67n5igsbCYlxSp+mOT0YRtVIfbsWPPtUdVJjWpb8xhkjCouhvxGUqbHIMVNxBiXHMOJeM5c3Mw9LSNR5mMRg+o8HowJ9pHYsfyv56ACTYSlgid6kWiVX2jaVaRvqEItkrrUGl/949Bl43zWk7cCU6ATc7mUaaMNzcyvQt7W3ExGGNLccZ4DluxY8bqf650cM1XfgTD4UDZB+YlBV+5hlWnY3XiMityJ+nSPi0pNotxKeJpvsDGA5IvPWprwIlQsNRFhKmM300heYWu5PvFiJcOLGVqOj7iYmkKT2HGWAG7dixw9oOWHwy6Q7bkylh77txNlFoX8S98mpBo1MrzMPRSoWZhfeHC0j/dgZ6T6KfuH/vmPUcMqgbn/iYoB0BJtMEulTtD9Qi8CVW9hBmMbVUt4ywI9pPYsSuqkcsJUuinxAbi46nF1ImHGl3X7/8AeVVEP1CBNheFAQLfE90AJYXyxDaRvGYsSTlhl00h2Ii+0qJoYrMC9mKeZh2utvEbnqqD06hPmaifpEpYU/U0dSpscsMOZXClbmKCBvP4hUspH4ypprYKIBbbseNp7hxKb6GDCYZ/dt8x+c2NgZTH7YOToG3MoUwTqyxCXGrLDDYmE62+wjGwvMc+pwvjLBU9y57I6B1KmOhRipmBqewHxHzPET+WMmFxaWenuImIB+qbMIy6TaIdKADkwCwsJXewtDqquSBzFwdQ87RECKFHZcVQ9Qal5EwJ+pZe6A5+oCDfmJ/LEJAmtfM9VfMY0zAxU+0xmLG5iOF3M9f7Sp+5fV8xVCiyjtApBX1j5lI3pjIhj9MOHc7mXPHUouQI2HUKSO2UP5edzG5PUmzCFidu2Yf6D0VBZj1Lzkdj2tahTiLVB5zrD3dQhqrGNzftquy8QVvIlRw3H+ln/8QAOxEAAQMCAgYHBQcEAwAAAAAAAQACAwQRITEFBhASQVATICJRcZHBYYGx0eEUIzAyQqHwM1JwciRg8f/aAAgBAwEBPwD/AANZWQaTkujK6MosIVlbl1lZZpsfegO5bq3VuhGMFPhIxCI5YBsAumt3UG9/XlYBiERy2IJo4omydLZMkDsOo42CLyeHKxthFzsldbAJkIzcgxoNwOtJGCLhHlkAwJ2FgLt7aHA9UOunixtyhrSTYdSL8o6jkDuOucjsl/LcJrt4XCdcodh+PFSjtHk7QSbBUdDHoildWVAu+2A7r8PHvQBOS6MoiyhN29SRz2nDJF7ni1kwENAKIumno3bpyUjC7IpsON3KGkfVyOZHmBfxyTgQbHkoWrei94/bJR/r8/ktapfuWMHf8B9UxuFggHYkJ7d6zmqFpbe/4EjN4KN9uy7Zq829U93s9QtP6Nt/yox/t8/mjyTRtEa2obCMuPhxVmwsDGCwGAWscRfTB44H4qI3CjFhZNbuiw65Nk0k57JwLhNFhitWmX6WTwHxT2Ne0tcLgrSFGaSd0Ry4eHIwtWaMQ05qHZu+A+vonO3jdVMDaiJ0TuIRa6nkMcgsQgbrpG3t15b7twunat57/wAosmxhuLkXjdJC0BD0dGD/AHEn09NmsNJ0sAmGbfgUeRQxmV7Y25k280GNgibEzIC3lt0lomOuG8MHjj81V6NqKMXlGHeMlGML9XesLlODvzMK6ZwzC6c9yfKQBZNa6Q4p4LiI25lQRCGNsY4ADZLGJWFjsiLKaMxPdG7MG3ItXoelrm3/AE3P896kN3dTTFOZ6R4GYx8voozwTck4G2CY7eF9lkXGM24LpGHNfdobrskSALlaCpDUVHTu/K348PLPqadh6OscR+qx/nv5Fqoz72STuAHmfp1tK0zaSrLWZHHzTTscCw7wTXBwuNhAIsUYWoQNTWhuAUr74BaAnidTCJn5hn8+prMy0kb+8EeX/vIQtVsI5j4evUe9rGlzzYBV2sTW3ZSi57zl7gparpZLyOu4pj+BQN9jmlhu1Nla7a6Rrc0+UuwCqJpGnAWCpKxzXCSM2cFovS7Kwbj8H93f4fLbrOOzGfH0R5AFqu7sSt/19dukNMQ0fZHaf3fNaQ0pLUHemd4Dh5KSpc/AYBBQS3G67NB7m5ITOVJq9UVcIn3gL5XuqrQ1ZS4vZcd4x/nvTSeBXRvOZRjxDW4lUmrnY6WtfuDuwv7ycB+60vQU0Nvs0m+0+0Gx937LtRneaqep3jcYOC0PWurKfef+YYH2+3ZrOezEPH0R5Dq1Jad7O8fA/XZpbTExldBCd1ow9pU9VbBuJRu43KDO9WtsZO5uBxTJWvyWltI1FJHBDA7dG4Dh5eiZp2vYbiQ++xToaaupRUVlonniOI77cVTUVO6KaZ8h3WZWwvfLO9rrQT3QVLmRs3yQCDgCBnn78VrNOJZWDexAxF72x8lFjE8eB+I9U7MqBn3gIWr8JjpA4/qJPp6bNZZLzMZ3D4n6ci0PN0VYwnjh5/XZpun6Oqe05Ox8/rdEbpsetGbOBWlpBNBTSD+23lhsoqmqjJEL7DjfL33uPXuUlQN926AQbcLYgZ2GXHzUdSWl5fjvCx4cQcPLyREJxuR7gfUIujZG4MNybcOA9/hso4jI/dbmcPNRRiJjY25AW2aZm6WseRkMPL68ia4tNxwVLOKiFso4hayU29G2ccMD4H6/FVbLPv3puI60LjUU4ZfFpuLkDPPPwH7oQxsxkd7hj++Xx8FVaRFujjFgOH8zPt8kx4e3eGytODVSucH2bknkFxIWrlN0lQ1xybj8tlVOKeF0p4BPcXEk5nkQWrlXcOpneI9VVQCohdE7iFWxFoIdmCmZbWC7gFMfvSNkcjm4BVUpADPPZRyWduHiiq04gJjeiZbifgmN3nALVun6OAyn9R/YfW+zWOss1tM3jifRHkdNO6nkbKzMKmqGVMQlZkVrDT7lS+36hf8AnvUe1uBCk/qnY126bomOYWcpKNwxZisWHuKY4PaHBSND5S52QTnFxuVSRF7sMzgFH0VDA1j3AAC2Kl1gpI8G3d4D52VTO+oldK/M8l0LpL7JJ0ch7Dv2Pf8ANazR/wBOQe0fBEbryNpiIItiFILSlBpOQQjeeC6F/cmCVqLA8doJkYjFmqSIuwGSFN7VTvNO4OjzClmfM7ekdcq6BR5ICpK58tMKd+O6bg+zHBTi0p2NLQe2m1UbRYXWGaurq6urp53WkplU9zgDkj1TyUKqFpBtsE3FoPWeLtKa0A3RQ5SFVjtjqRm7B1nZHYMQFbZZWR5M+Jr80+BzcRjtgN2dcQPPBNFmgFXV1dXRPJ7p0bXZo03cVFGWAg/gHl10PwDy8I9UbDzUI8xB2Ybbo/8AYLK34NttuVBH8AI7b8qCKCPUBRQRWWwbAr8msgigir7Cgih1Aih1L8kvtvtvsuhsB2X2X2X/AMB//9k=;clipPath=inset(2% 27.33% 2% 26%);" vertex="1" parent="1">
          <mxGeometry x="194.63" y="270" width="45.37" height="70" as="geometry" />
        </mxCell>
        <mxCell id="LZN4CvvohTynmMFe8kbo-14" value="&lt;b&gt;&lt;i&gt;GitHub&lt;/i&gt;&lt;/b&gt;" style="text;strokeColor=none;align=center;fillColor=none;html=1;verticalAlign=middle;whiteSpace=wrap;rounded=0;" vertex="1" parent="1">
          <mxGeometry x="202.6" y="90" width="74.8" height="30" as="geometry" />
        </mxCell>
      </root>
    </mxGraphModel>
  </diagram>
</mxfile>
